<?xml version="1.0" encoding="utf-8"?>
<!DOCTYPE svg PUBLIC "-//W3C//DTD SVG 1.0//EN" "http://www.w3.org/TR/2001/REC-SVG-20010904/DTD/svg10.dtd">
<svg version="1.0" xmlns="http://www.w3.org/2000/svg" width="1027px" height="272px" viewBox="0 0 1027 272" preserveAspectRatio="xMidYMid meet">
 <g fill="#190701">
  <path d="M421 245 c0 -0.6 1.2 -2.1 2.7 -3.4 2.4 -2.1 2.7 -3.1 3.1 -10.9 0.7 -13.1 -0.4 -19.5 -3.9 -22.9 -4.2 -4.3 -3.8 -5.2 2.3 -4.4 7 1 12.2 4.8 15.3 11.3 3.2 6.6 3.1 7.3 -0.3 7.3 -2.3 0 -3 -0.6 -4 -3.4 -0.7 -1.8 -2.2 -4.2 -3.4 -5.2 -2 -1.8 -2.1 -1.8 -1.5 -0.1 0.4 1 0.7 6.6 0.7 12.4 0 9.2 0.2 10.4 1.5 9.3 0.8 -0.6 2 -2.7 2.7 -4.6 1 -2.8 1.7 -3.4 4.1 -3.4 2.7 0 2.9 0.2 2.2 2.8 -1.4 6 -5.4 10.9 -10.7 13.6 -5.3 2.7 -10.8 3.4 -10.8 1.6z"/>
  <path d="M458.3 244.1 c-8.5 -3.4 -12.3 -9.4 -12.3 -19.6 0 -14.8 9 -22.3 25.5 -21.3 5.4 0.4 8 1.1 11.4 3.2 2.3 1.5 5 2.5 5.8 2.2 1.3 -0.5 1.4 -0.1 1 2.2 -0.3 1.6 -0.1 3.4 0.4 3.9 1.7 1.7 2.2 12.4 0.9 17.3 -1.5 5.5 -6.3 10.2 -12.6 12.4 -5.9 2 -7.4 2 -7.4 0.1 0 -0.8 0.4 -1.5 1 -1.5 1.4 0 4 -5.5 4 -8.5 0 -2 0.5 -2.5 2.4 -2.5 1.7 0 2.6 0.6 2.8 1.9 0.5 3.3 3.5 0.1 4.9 -5.1 1.5 -5.4 -0.1 -12.7 -3.2 -14.6 -1.7 -1.1 -1.9 -0.9 -1.9 1.3 0 2.3 -0.3 2.5 -4.7 2.5 -5.4 0 -11.2 -2.9 -12 -6 -0.7 -2.8 -2 -1.6 -2.7 2.5 -0.5 2.6 -1.2 3.5 -2.6 3.5 -1.6 0 -2 -0.7 -2 -3 0 -1.6 -0.3 -3 -0.7 -3 -1.5 0.1 -5.3 9 -5.3 12.5 0 3.4 3.8 12.4 5.2 12.5 0.4 0 0.5 -4 0.1 -9 l-0.6 -9 2.7 0 c2.5 0 2.6 0.2 2.6 6 0 8.3 1.8 15.9 4.1 17.3 1 0.6 1.9 1.7 1.9 2.4 0 1.7 -3.6 1.5 -8.7 -0.6z"/>
  <path d="M507 243.7 c-4 -1.6 -6.2 -3.3 -8.5 -6.5 -2.7 -4 -3 -5.1 -3 -12.5 0 -9.6 2.2 -14.2 8.6 -18.2 4.7 -3 11.9 -4.4 11.9 -2.4 0 0.8 -0.9 2 -2 2.7 -1.2 0.7 -2.2 2.8 -2.6 5.2 -0.6 3.4 -1 4 -3 4 -1.5 0 -2.4 -0.6 -2.4 -1.5 0 -2.8 -1.8 -1.5 -3.9 2.8 -2.6 5.5 -2.6 8.9 0 14.4 2.3 4.8 3.9 5.6 3.9 1.8 0 -2 0.5 -2.5 2.5 -2.5 2 0 2.5 0.5 2.5 2.5 0 3.3 2.6 9.5 3.9 9.5 0.6 0 1.1 0.7 1.1 1.5 0 2.1 -2.5 1.8 -9 -0.8z"/>
  <path d="M520 244.7 c0 -0.7 0.8 -1.7 1.9 -2.4 1 -0.6 2.3 -3.2 3 -5.7 0.9 -3.5 1.6 -4.6 3.1 -4.6 1.5 0 2 0.7 2 2.5 0 1.6 0.6 2.5 1.5 2.5 0.8 0 1.5 -0.9 1.5 -2 0 -1.1 0.4 -2 0.9 -2 0.5 0 1.2 -1.6 1.5 -3.5 0.6 -2.9 1.1 -3.5 3.1 -3.5 2 0 2.5 0.5 2.5 2.5 0 3.3 -3.1 9.4 -6.2 12.1 -2.2 2 -10.7 5.4 -13.5 5.4 -0.7 0 -1.3 -0.6 -1.3 -1.3z"/>
  <path d="M605.6 244.4 c-4.6 -1.7 -7.3 -3.8 -9.2 -7.6 -2 -3.9 -1.8 -4.8 1.6 -4.8 2.3 0 3.1 0.5 3.6 2.5 0.9 3.6 3.4 3.2 3.4 -0.5 0 -2.5 0.4 -3 2.5 -3 2.3 0 2.5 0.4 2.5 4 0 3 0.7 4.7 2.5 6.6 1.4 1.4 2.5 2.9 2.5 3.4 0 1.4 -4.9 1.1 -9.4 -0.6z"/>
  <path d="M619 244.5 c0 -0.9 0.7 -1.8 1.5 -2.1 3.7 -1.5 0 -6.1 -10.2 -12.8 -14.2 -9.3 -16.7 -16.5 -8.1 -22.9 5.7 -4.2 12.9 -4.2 8.6 0.1 -2 2 0.8 5.5 9.2 11.1 11.2 7.6 14.5 11.2 14.5 16.1 0 4.9 -3.1 8.3 -9.3 10.4 -5.7 2 -6.2 2 -6.2 0.1z m9.2 -8.2 c0.4 -4.9 -0.8 -7.2 -4.4 -8.6 -1 -0.3 -1.8 -1.1 -1.8 -1.7 0 -0.5 -0.6 -1 -1.3 -1 -0.7 0 -2.3 -0.9 -3.5 -2 -1.2 -1.1 -2.6 -2 -3.2 -2 -0.6 0 -3.1 -2 -5.5 -4.4 -2.4 -2.5 -4.7 -4.1 -5 -3.6 -0.9 1.5 0.7 7 2.2 7 1.4 0 8.5 4.8 9.1 6.3 0.2 0.4 1 0.7 1.8 0.7 0.8 0 1.4 0.5 1.4 1 0 0.6 0.5 1 1.1 1 1.8 0 6.9 5.4 6.9 7.2 0 2.3 2 2.3 2.2 0.1z"/>
  <path d="M394 244.2 c0 -0.4 0.4 -1.2 1 -1.8 0.5 -0.5 1.1 -11.4 1.3 -24.9 0.2 -13.2 0.6 -24.9 0.9 -26 0.4 -1.1 0.7 -2.3 0.7 -2.7 0.1 -0.5 1.7 -0.8 3.6 -0.8 3.2 0 3.5 0.2 3.5 3 0 1.9 -0.5 3 -1.4 3 -2.1 0 -2.6 4.7 -2.6 26.1 l0 19.9 6 0 c5.2 0 6 0.2 6 1.9 0 1 -0.7 2.2 -1.6 2.5 -2.3 0.9 -17.4 0.7 -17.4 -0.2z"/>
  <path d="M545 244.2 c0 -0.4 0.4 -1.2 1 -1.8 0.5 -0.5 1.1 -11.4 1.3 -24.9 0.2 -13.2 0.6 -24.9 0.9 -26 0.4 -1.1 0.7 -2.3 0.7 -2.7 0.1 -0.5 1.7 -0.8 3.6 -0.8 3.2 0 3.5 0.2 3.5 3 0 1.9 -0.5 3 -1.4 3 -2.2 0 -2.6 3.4 -2.6 25.3 l0 20.7 4.6 0 c4.4 0 7.3 1.7 7.4 4.3 0 0.4 -4.3 0.7 -9.5 0.7 -5.2 0 -9.5 -0.4 -9.5 -0.8z"/>
  <path d="M575 244.1 c0 -0.6 0.5 -1.3 1 -1.6 0.7 -0.4 0.7 -1.2 0 -2.5 -0.5 -1 -1 -5.4 -1 -9.7 0 -9.1 -0.7 -12.3 -2.6 -12.3 -1.7 0 -1.8 -2.2 -0.2 -3.8 1.4 -1.4 4.2 -1.6 3.4 -0.3 -0.4 0.5 1.3 1.2 3.6 1.6 7.1 1.2 10.8 5 10.8 11 0 2 -0.5 2.5 -2.5 2.5 -1.8 0 -2.5 -0.5 -2.5 -1.8 0 -1.8 -2.9 -5.2 -4.3 -5.2 -0.4 0 -0.7 3.2 -0.7 7 0 7.9 1.9 11 6.6 11 2.4 0 5.3 2.3 5.4 4.3 0 0.4 -3.8 0.7 -8.5 0.7 -4.7 0 -8.5 -0.4 -8.5 -0.9z"/>
  <path d="M535.4 219.5 c-0.3 -1.9 -1 -3.5 -1.5 -3.5 -0.5 0 -0.9 -1.1 -0.9 -2.5 0 -1.6 -0.6 -2.5 -1.5 -2.5 -1 0 -1.5 1 -1.5 3 0 2.3 -0.4 3 -2 3 -1.5 0 -2.2 -1.1 -3.1 -4.6 -0.7 -2.5 -2 -5.1 -3 -5.7 -2.4 -1.5 -2.5 -3.7 -0.1 -3.7 4.5 0 9.9 2.5 13.7 6.3 2.2 2.3 4.6 4 5.4 3.8 0.9 -0.2 1.2 0.3 0.7 1.4 -0.3 0.9 -0.6 3.2 -0.6 5.1 0 2.9 -0.3 3.4 -2.5 3.4 -2 0 -2.5 -0.6 -3.1 -3.5z"/>
  <path d="M623.3 214.9 c-1.2 -0.4 -2.9 -2.4 -3.9 -4.4 -0.9 -2 -2.3 -3.9 -3.1 -4.2 -1.9 -0.8 -1.6 -3.3 0.5 -3.3 0.9 0 3.5 0.5 5.7 1.1 4.5 1.3 11.3 7.5 9.8 9 -1.6 1.6 -6.7 2.7 -9 1.8z"/>
  <path d="M495 203.8 c0 -2.2 14.2 -14.7 19.6 -17.3 2.9 -1.4 5.8 -2.5 6.3 -2.5 1.6 0 1.4 9 -0.1 9.5 -0.7 0.2 -3.2 0.9 -5.5 1.5 -2.4 0.6 -7.2 3.1 -10.8 5.5 -6.5 4.5 -9.5 5.5 -9.5 3.3z"/>
  <path d="M540.5 201.3 c-2.2 -4.1 -4.7 -5.7 -11.2 -7.3 -3.3 -0.8 -4.3 -1.6 -4.3 -3 0 -1.1 0.5 -2 1 -2 0.6 0 1 -1.2 1 -2.6 0 -2.2 0.3 -2.4 2.3 -1.9 9.6 2.9 14.5 8 15.5 16.1 0.6 5.6 -1.5 6 -4.3 0.7z"/>
  <path d="M595 167.9 c-6.6 -1.3 -14.4 -5.5 -18.4 -9.9 l-3.6 -4 0 4.5 c0 4.3 0.1 4.5 3 4.5 2.5 0 3 0.4 3 2.5 l0 2.5 -19 0 -19 0 0 -2.5 c0 -2.3 0.4 -2.5 4.5 -2.5 4.9 0 5.1 -0.1 3.3 -3.3 -0.9 -1.5 -1.4 -9.9 -1.8 -26 -0.5 -22.1 -0.6 -24 -2.4 -25.3 -3 -2.1 -6.1 -1.7 -9.7 1.3 -6.2 5.2 -6.9 8.3 -6.9 32.1 l0 21.2 3 0 c2.5 0 3 0.4 3 2.5 l0 2.5 -35 0 -35 0 0 -2.5 c0 -2.1 0.5 -2.5 3 -2.5 l3 0 0 -23.2 c0 -21.4 0.5 -27.2 2.5 -32.1 0.6 -1.5 0.1 -1.7 -3.9 -1.7 -4.2 0 -4.6 -0.2 -4.6 -2.5 0 -2 0.5 -2.5 2.4 -2.5 3.9 0 7.2 -3.6 10.1 -10.7 1.5 -3.8 3.6 -8.3 4.7 -10.1 3.5 -5.7 4.9 -5.9 29.1 -5.4 l21.7 0.4 0 2.4 c0 1.7 -0.6 2.4 -2 2.4 -1.9 0 -2 0.7 -2 14 0 7.7 0.2 14 0.4 14 0.3 0 1.8 -1.2 3.3 -2.6 1.5 -1.5 4.6 -3.5 6.8 -4.5 5.1 -2.3 16.1 -2.5 21.3 -0.3 4.9 2 9.9 6.9 11.3 11.1 l1 3.2 5.2 -5.3 c7.5 -7.6 14.1 -10 27.7 -10.1 9.8 0 11 0.2 17.3 3.2 4.2 2 8.8 5.2 12 8.5 4.8 4.9 8.6 10.4 7.6 11.1 -0.2 0.2 -11.1 5 -24.2 10.7 l-23.8 10.4 0.6 4.5 c1.6 11.5 4.6 16.1 10.5 16.1 4.8 0 6.5 -2 8 -9.5 2.7 -13.2 5.8 -15.5 21.1 -15.5 l10.7 0 -0.9 4.1 c-2 8.9 -8.1 16.9 -15.9 20.9 -8.6 4.4 -22.3 6 -33 3.9z m-93 -33.4 l0 -28.5 -3 0 -3 0 0 28.5 0 28.5 3 0 3 0 0 -28.5z m-12 -13.2 c-0.1 -37.4 -0.2 -40.6 -1.6 -38.8 -1.5 1.8 -8.4 16 -8.4 17.1 0 0.2 1.6 0.4 3.5 0.4 3.3 0 3.5 0.2 3.5 3.3 -0.1 2.8 -0.6 3.5 -4.3 5.2 -6.1 2.9 -6.6 5.1 -6.6 31.3 l-0.1 22.2 7 0 7 0 0 -40.7z m32 0.2 l0 -40.5 -2.2 0 c-3 0 -8.3 3.3 -10 6.2 -1 1.8 -1.4 10.9 -1.6 38.6 l-0.3 36.2 7 0 7.1 0 0 -40.5z m44.4 31.3 c-0.4 -5.1 -0.8 -15.7 -0.9 -23.5 0 -12.7 -0.2 -14.4 -2.1 -16.9 -2.6 -3.6 -6.2 -6.1 -9.6 -7 -2.7 -0.6 -2.7 -0.5 -1.8 2.7 0.6 1.9 1 12.3 1 23.2 0 14.9 0.4 20.6 1.4 23.2 1.6 3.8 6.8 7.5 10.5 7.5 l2.4 0 -0.9 -9.2z m60.5 3.7 c3.5 -2.4 9.1 -9 9.1 -10.8 0 -0.4 -2.2 -0.7 -4.9 -0.7 -6.8 0 -9.8 2.7 -11.6 10.2 l-1.3 5.7 2.4 -0.9 c1.3 -0.5 4.1 -2.1 6.3 -3.5z m-37.4 0.8 c-1.2 -3 -1.7 -32.4 -0.7 -40.3 0.5 -4.1 0.8 -7.7 0.6 -7.9 -0.8 -0.9 -7.9 5.6 -10.5 9.7 -2.7 4.3 -2.9 5.2 -2.9 14.9 0 12.1 1.4 15.9 8.1 21.7 4.6 3.9 6.5 4.6 5.4 1.9z m18.8 -25.4 l7.7 -3.3 0 -4.8 c0 -6.7 -1.8 -14.3 -4.1 -17.3 -1.6 -2 -2.9 -2.5 -6.3 -2.5 -2.3 0 -5 0.6 -5.9 1.2 -2.8 2.2 -4.8 9.9 -5.4 21.6 l-0.6 11.4 3.4 -1.5 c1.9 -0.8 6.9 -2.9 11.2 -4.8z m20 -11 l4.2 -2.2 -5 -4.3 c-2.7 -2.4 -5.4 -4.4 -5.9 -4.4 -0.5 0 -0.6 1.7 -0.2 3.8 0.3 2 0.6 4.9 0.6 6.5 0 3.3 0.8 3.3 6.3 0.6z m-126.3 -24.6 c0 -4.6 0.8 -9.1 2.4 -14 0.7 -2.2 0.5 -2.3 -3.8 -2.3 l-4.6 0 0 10.5 0 10.5 3 0 c2.9 0 3 -0.1 3 -4.7z"/>
  <path d="M789 168 c-6.7 -1.5 -14.4 -5.6 -18.4 -10 l-3.6 -4 0 4.5 c0 4.3 0.1 4.5 3 4.5 2.5 0 3 0.4 3 2.5 l0 2.5 -19 0 -19 0 0 -2.5 c0 -2.3 0.4 -2.5 4.5 -2.5 5.1 0 4.9 0.1 3.3 -3.7 -0.8 -1.8 -1.4 -11.4 -1.7 -26.1 -0.6 -21.6 -0.7 -23.5 -2.5 -24.8 -1.1 -0.8 -2.8 -1.4 -3.7 -1.4 -2.9 0 -7.8 4.9 -8.9 8.8 -0.5 2 -1 13.5 -1 25.5 l0 21.7 3 0 c2.5 0 3 0.4 3 2.5 l0 2.5 -19.5 0 -19.5 0 0 -2.5 c0 -2.3 0.3 -2.5 5 -2.5 2.8 0 5 -0.1 5 -0.2 0 -0.2 -0.7 -2.1 -1.5 -4.3 -1 -3 -1.4 -9.2 -1.5 -24.1 0 -22 -0.7 -26 -4.7 -27 -3.6 -1 -7 1.3 -9.5 6.5 -2.2 4.4 -2.3 5.8 -2.3 26.6 l0 22 3.3 0.3 c2.6 0.3 3.2 0.7 3.2 2.8 l0 2.4 -19.5 0 -19.5 0 0 -2.4 c0 -2.1 0.6 -2.5 3.3 -2.8 l3.2 -0.3 0.5 -26 c0.4 -18.5 0.9 -26.6 1.8 -28.2 1.2 -2.3 1.2 -2.3 -3.8 -2.3 -4.7 0 -5 -0.2 -5 -2.5 l0 -2.5 17.9 0 c11.7 0 18.1 0.4 18.3 1.1 0.2 0.6 2 0.2 4.8 -1 9.4 -4.3 21.2 -2.3 27.8 4.5 l4.2 4.5 3.2 -3.7 c1.8 -2.1 5.1 -4.5 7.3 -5.5 5.3 -2.5 15.7 -2.5 21 0 4.9 2.2 10.4 8.2 11.2 12.2 l0.5 2.9 3 -4.1 c10.7 -14.8 41.4 -17.4 57 -4.9 l3.9 3.1 15.4 -15 c16.3 -15.9 24.6 -22.2 32.9 -24.6 12.7 -3.8 28.3 0.1 36.8 9.1 3.2 3.5 6.7 10.9 6.8 14.4 0.1 6.9 0.2 7 11.6 7 8.6 0 10.4 0.3 10.4 1.5 0 1.9 0.1 1.9 5.2 -0.7 6.7 -3.5 17.1 -3.7 24.1 -0.5 10.5 4.8 11.7 8.6 11.7 38.3 l0 23.4 3.5 0 c3.1 0 3.5 0.3 3.5 2.5 l0 2.5 -19.5 0 -19.5 0 0 -2.5 c0 -2.3 0.4 -2.5 4.6 -2.5 4.5 0 4.6 0 3.9 -2.7 -2 -7.5 -2.4 -12.3 -2.5 -29.8 0 -15.6 -0.3 -19.5 -1.6 -21.3 -3.1 -4.4 -10.7 -1.3 -14.6 6 -2.2 4.1 -2.3 5.3 -2.3 25.8 l0 21.5 3.3 0.3 c2.6 0.3 3.2 0.7 3.2 2.8 l0 2.4 -19.5 0 -19.5 0 0 -2.4 c0 -2.1 0.6 -2.5 3.3 -2.8 l3.2 -0.3 0.2 -7 c0.2 -5.8 0 -6.7 -1 -5.1 -7.3 11 -12.2 14.7 -23.5 17.2 -14.3 3.2 -29.6 0.2 -38.4 -7.6 -14.8 -12.9 -13.7 -41.8 2 -53.7 16 -12.1 46.9 -8.5 56.7 6.6 1.1 1.7 2.3 3.1 2.7 3.1 0.4 0 1.4 -2.1 2.1 -4.7 l1.4 -4.8 -4.3 -0.3 c-3.9 -0.3 -4.4 -0.6 -4.4 -2.8 0 -2.1 0.4 -2.4 4 -2.4 4.7 0 5 -1.2 1.8 -6.1 -1.4 -2.1 -4.6 -4.5 -8.3 -6.4 -5.6 -2.8 -6.7 -3 -17.5 -3 -11.1 0 -11.7 0.1 -19.1 3.6 -6 2.9 -28.6 18.8 -34.6 24.3 -1 0.9 -0.9 2.2 0.6 6.1 7.6 20.1 -1.1 41.5 -19.2 47.1 -6.3 1.9 -20.5 2.7 -26.7 1.4z m17.3 -6 c3.5 -2.8 5 -10.1 5.1 -25.5 l0.1 -13 -5.5 -0.5 c-7.5 -0.8 -11.3 -3 -13.8 -8.2 l-2 -4.3 -0.8 5 c-1.3 7.6 -1 34.3 0.5 39.5 1.8 6.5 4.5 9 9.6 9 2.7 0 5.1 -0.7 6.8 -2z m79.2 -0.4 c2.8 -2.8 4.1 -7.3 5 -17.3 l0.7 -7.3 -4.8 0 c-6 0 -12 -1.6 -15.6 -4.1 -1.4 -1.1 -2.9 -1.9 -3.4 -1.9 -1 0 0.3 19.6 1.7 24.5 1.7 6.1 4.4 8.5 9.6 8.5 3.3 0 5 -0.6 6.8 -2.4z m-208.7 -27.5 l0.2 -27.4 -4.1 0.6 c-6.4 0.8 -8.9 4 -9.9 12.3 -1.1 8.2 -1.3 40.8 -0.3 41.8 0.4 0.4 3.7 0.6 7.3 0.4 l6.5 -0.3 0.3 -27.4z m42.2 8.2 c0 -10.9 -0.5 -21.6 -1 -23.7 -1.5 -6.5 -6.4 -11.8 -12.4 -13.2 -2.3 -0.6 -2.7 -0.4 -2 0.7 0.5 0.8 1.1 12 1.4 25 0.4 19 0.8 24 2 25.4 2.2 2.7 7.2 5.5 9.8 5.5 l2.2 0 0 -19.7z m41.6 11.5 c-0.3 -4.6 -0.8 -11.9 -1.2 -16.3 -0.3 -4.4 -0.2 -10.3 0.3 -13 1.1 -6 0.1 -9.8 -3.6 -13.9 -2.4 -2.6 -7.7 -5.6 -10 -5.6 -0.7 0 -0.7 0.9 -0.1 2.6 0.6 1.4 1 11.6 1.1 22.7 0 12.9 0.4 21.5 1.2 23.7 1.4 3.9 6.7 8 10.5 8 l2.5 0 -0.7 -8.2z m173.4 -19.3 c0 -26.6 -0.1 -27.5 -2 -27.5 -4.2 0 -6.5 2.1 -8.7 7.9 -2.1 5.4 -2.3 7.5 -2.3 26.5 l0 20.6 6.5 0 6.5 0 0 -27.5z m45 5.7 c0 -21 -0.1 -22.1 -2.3 -26.3 -1.7 -3.1 -3.7 -5 -7 -6.8 -2.6 -1.3 -4.8 -2.2 -5 -2 -0.1 0.2 0.1 11 0.4 23.9 0.6 26.1 1 28 6.8 31 7.3 3.9 7.1 4.6 7.1 -19.8z m-196.1 12.8 c-0.4 -3 -0.8 -11.6 -0.8 -19 0 -7.4 0.4 -16 0.8 -19 0.5 -3 0.8 -5.6 0.7 -5.7 -0.2 -0.2 -2 1 -4.2 2.7 -2.2 1.6 -5.2 5.1 -6.7 7.8 -2.4 4.4 -2.7 6.1 -2.7 14.4 0 11.3 2.1 16.3 9 21.6 2.3 1.8 4.4 3.1 4.5 3 0.1 -0.2 -0.1 -2.8 -0.6 -5.8z m42.6 -2 c4 -5.4 5.8 -10.8 5.7 -17.9 -0.1 -7.3 -4.8 -16.9 -10.4 -21 -2.3 -1.7 -4.3 -3 -4.4 -2.8 -0.2 0.1 0.2 3.6 0.8 7.7 1.1 7.8 0.5 37.1 -0.8 40.4 -0.7 1.9 -0.7 1.9 2.6 0 1.8 -1 4.7 -3.9 6.5 -6.4z m36.4 2 c-1 -7.2 -1 -32.2 0.1 -38.5 0.4 -2.7 0.7 -5.1 0.6 -5.2 -0.9 -1 -8.8 6.6 -10.9 10.5 -5.4 9.9 -5.2 20.8 0.5 30 1.8 2.9 9.7 9.7 10.3 9 0.2 -0.2 -0.1 -2.8 -0.6 -5.8z m38.8 2.2 c5 -3.7 9.5 -13.7 9.5 -21.1 0 -9.3 -6 -20.2 -13.4 -24.2 -1.5 -0.8 -1.6 -0.4 -1 4.3 0.9 6.8 0.9 32.8 0 39.6 -0.8 5.7 -0.8 5.7 4.9 1.4z m-10.8 -23.1 c1 -0.7 1.2 -2.5 0.6 -8.2 -1.5 -15.8 -3.8 -19.9 -11.6 -19.9 -6 0 -8.4 2.2 -10 9.5 -1.5 6.7 -0.6 11.5 2.9 14.7 4.1 3.9 14.5 6.2 18.1 3.9z m-78.9 -14.3 c0 -3.1 -2.4 -9.5 -4.3 -11.5 -2.6 -2.9 -7 -3 -9.7 -0.3 -3.3 3.3 -2 8.9 2.7 11.4 3.5 1.9 11.3 2.1 11.3 0.4z m90.5 -39.3 c-1.6 -0.8 -5.5 -1.9 -8.5 -2.6 -4.7 -1 -6.2 -0.9 -11 0.7 l-5.5 1.9 12.5 0.5 c6.9 0.3 13.2 0.6 14 0.7 0.8 0.1 0.2 -0.5 -1.5 -1.2z"/>
 </g>
 <g fill="#111012">
  <path d="M416.6 245.3 c-0.3 -0.4 -6 -0.6 -12.6 -0.4 -7.1 0.1 -12 -0.2 -12 -0.7 0 -0.5 0.9 -1.2 2 -1.5 1.8 -0.5 1.9 -1.6 2.2 -24.8 0.2 -13.4 0.5 -25.1 0.8 -25.9 0.4 -1.1 -0.3 -1.6 -2.2 -1.8 -1.6 -0.2 -2.8 -0.8 -2.8 -1.3 0 -0.5 5.2 -0.9 12 -0.9 6.7 0 12 0.4 12 0.9 0 0.5 -1 1.1 -2.2 1.3 -2.1 0.3 -2.3 0.9 -2.6 8.1 -0.3 7.9 0.6 9.5 3.7 6.5 0.7 -0.8 3.8 -1.3 8 -1.2 5.8 0 7.3 0.4 10.9 3 2.3 1.6 4.2 3.3 4.2 3.8 0 0.5 -1 0.1 -2.2 -1 l-2.3 -1.9 1.9 2.2 c1 1.3 2.3 2 2.7 1.7 1.5 -0.9 4.9 8.5 4.9 13.4 0 4.7 -3.5 14.1 -4.7 12.8 -0.9 -0.8 -4.4 2.5 -3.7 3.6 1.6 2.5 -15.6 6.4 -18 4.1z m-12.3 -2 l-6.3 -0.4 -0.3 -22.7 -0.2 -22.7 -0.3 23.3 -0.2 23.2 6.8 -0.2 6.7 -0.2 -6.2 -0.3z m22.3 -16.3 c-0.1 -13.4 -0.3 -15.1 -2.2 -17.7 -2.4 -3.2 -5.3 -4 -8.4 -2.3 -3.7 2 -5 7 -5 19.5 0 11 0.1 11.7 2.5 14 2.9 2.9 7.9 3.3 10.7 0.8 2 -1.8 2.5 -0.5 0.6 1.7 -1.1 1.2 -1 1.2 0.3 0.2 1.4 -1.1 1.7 -3.4 1.5 -16.2z m-19.6 -10 c0 -25.5 -0.2 -26.7 -4.6 -21.9 -1.7 1.9 -1.9 4.1 -2.2 24 l-0.4 21.9 3.6 0 3.6 0 0 -24z m29.1 14.9 c1 -2.1 1.9 -5.4 1.9 -7.4 0 -3.8 -2.8 -10.3 -5.4 -12.4 -1.4 -1.2 -1.6 0 -1.6 12.4 0 12.4 0.2 13.6 1.6 12.4 0.8 -0.7 2.4 -3 3.5 -5z m-7.4 -10.6 c-0.2 -2.7 -0.3 -0.5 -0.3 4.7 0 5.2 0.1 7.4 0.3 4.8 0.2 -2.7 0.2 -6.9 0 -9.5z"/>
  <path d="M458.3 244.1 c-8.5 -3.4 -12.3 -9.4 -12.3 -19.6 0 -14.8 9 -22.3 25.6 -21.3 7.9 0.5 10.5 1.5 8.3 3 -1 0.7 -0.8 0.8 0.7 0.4 1.1 -0.4 2.9 0.1 4 0.9 2.9 2.2 3.6 1.9 9.4 -4 3 -3 5.9 -5.5 6.4 -5.5 0.5 0 0.2 0.8 -0.7 1.8 -1.5 1.6 -1.5 1.9 -0.2 1.9 0.8 0 1.3 -0.3 1 -0.5 -0.3 -0.3 0.7 -1.9 2.2 -3.6 1.8 -2 2 -2.4 0.6 -1.2 -2.8 2.3 -3.1 0.6 -0.4 -1.8 1.1 -1 2.5 -1.5 3.2 -1 0.7 0.4 1 0.3 0.5 -0.4 -0.8 -1.4 4.6 -5.5 10.2 -7.7 9.1 -3.7 21.6 0.5 26 8.5 1.9 3.7 2.3 5.5 1.9 10.1 -0.3 3.1 -1.2 7 -2.1 8.7 -1.1 2 -1.6 5.7 -1.6 10.7 0 5.5 -0.5 8.6 -1.9 11.3 -2.6 5.1 -6.5 8.5 -10 8.6 -1.6 0.1 -2.7 0.4 -2.5 0.7 0.6 1 -3.6 1.9 -8.8 1.9 -5.2 0 -13.9 -2.9 -16.9 -5.6 -2.1 -1.9 -2.6 -3.9 -0.6 -2.8 0.7 0.4 0.9 0.3 0.4 -0.2 -0.5 -0.5 -1.4 -0.9 -2 -0.9 -1.7 0 -3.6 -6.2 -3.6 -12 0 -5.8 1.9 -12 3.6 -12 0.6 0 1.5 -0.4 2 -0.9 0.5 -0.5 0.3 -0.6 -0.4 -0.2 -0.7 0.4 -1.3 0.3 -1.3 -0.3 0 -1.5 5.2 -5.2 6.7 -4.7 0.7 0.3 1.2 0 1 -0.6 -0.3 -1.6 3.7 -2.6 10.8 -2.7 8.9 -0.1 13.4 1.5 18.1 6.4 l4.2 4.3 1.1 -2.4 c1.7 -3.9 1.3 -7.8 -1.3 -11.7 -1.3 -1.9 -2.1 -3.9 -1.8 -4.3 0.4 -0.4 0.2 -0.4 -0.4 -0.1 -0.6 0.3 -3.7 -0.1 -7 -0.9 -4.9 -1.3 -6.8 -1.4 -11.4 -0.4 -7.4 1.6 -9.9 3 -20.6 11.1 -8.4 6.3 -12.1 10.3 -9.2 9.6 2.7 -0.5 3.6 12.3 1.4 18.6 -1.5 4.1 -4.3 7.7 -5.9 7.7 -0.6 0 -0.2 -1 0.9 -2.2 l1.9 -2.3 -2.2 1.9 c-1.2 1 -2.1 2.3 -2 2.9 0.1 0.6 -1.8 1.8 -4.3 2.8 -5.6 2.2 -15.1 2.2 -20.7 0z m13 -1 c1.4 -0.6 2.8 -2 3.2 -3.2 0.6 -1.7 0.9 -1.9 1.7 -0.8 0.8 1.1 0.8 1 0.4 -0.4 -0.3 -1 -0.6 -6.1 -0.6 -11.3 0 -9.1 -0.1 -9.4 -2.2 -9.4 -3.1 0 -8.9 -3.7 -9.5 -6 -0.7 -2.5 -2.3 -1.6 -2.4 1.3 -0.1 2 -0.2 2 -0.8 -0.3 -1.2 -4 0.1 19.1 1.3 24 0.8 3.1 1.9 4.8 3.6 5.7 3 1.5 2.4 1.5 5.3 0.4z m51.3 -1.3 c1.4 -1.1 3.4 -8.6 3.4 -12.7 0 -3 -0.2 -3.1 -4.2 -3.1 -2.5 0 -5.7 -0.8 -7.5 -2 l-3.3 -2 0 6.9 c0 8.1 1.5 13 4.4 14.1 2.2 0.9 5.3 0.4 7.2 -1.2z m-65.1 -17.4 l0 -13.6 -3.1 3.6 c-5.2 6 -5.3 13.9 -0.2 20 1.6 2 3 3.6 3.1 3.6 0.1 0 0.2 -6.1 0.2 -13.6z m48.7 0.5 c-0.3 -12.8 -0.4 -13.1 -2.2 -11.4 -1.1 1 -2.6 3.9 -3.5 6.4 -1.4 4.3 -1.4 5.2 0 9.1 1.2 3.3 4.9 9 5.9 9 0.1 0 0 -5.9 -0.2 -13.1z m-19.4 3.3 c1.4 -4.5 0 -9.8 -3.7 -14.3 l-2.6 -3.1 0.3 13.4 0.3 13.3 2.3 -2.8 c1.3 -1.6 2.8 -4.5 3.4 -6.5z m49.7 -1.3 c0.7 -4.1 -1.8 -11.3 -4.8 -13.8 -1.6 -1.2 -1.7 -0.4 -1.7 11.5 l0.1 12.9 2.9 -3.4 c1.6 -1.8 3.2 -5.1 3.5 -7.2z m-45.8 -4.6 c-0.2 -1.6 -0.4 -0.5 -0.4 2.2 0 2.8 0.2 4 0.4 2.8 0.2 -1.3 0.2 -3.5 0 -5z m-31 1 c-0.3 -1 -0.5 -0.2 -0.5 1.7 0 1.9 0.2 2.7 0.5 1.8 0.2 -1 0.2 -2.6 0 -3.5z m66.1 -3.3 c0.4 -5.5 -2 -12.2 -5 -13.9 -2.2 -1.3 -3 -1.3 -5.5 -0.1 -1.5 0.7 -3 1.3 -3.3 1.3 -0.3 -0.1 -0.6 2.4 -0.8 5.4 -0.4 7.8 3.1 11.5 10.8 11 3.2 -0.2 3.5 -0.5 3.8 -3.7z m-49.4 -8.5 c0.5 -2.2 0.4 -2.6 -0.4 -1.5 -0.5 0.8 -1 2.4 -1 3.4 0 2.6 0.6 1.8 1.4 -1.9z"/>
  <path d="M605.6 244.4 c-4.6 -1.7 -7.3 -3.8 -9.2 -7.6 -2.7 -5.3 -2.1 -5.8 6.2 -5.8 l7.6 0 -0.3 4.4 c-0.2 2.4 -0.1 4.2 0.2 4 0.4 -0.2 1 0.3 1.3 1.1 0.9 2.4 5.4 3.7 7.9 2.4 1.6 -0.9 2.2 -0.9 2.5 0 0.2 0.6 1.1 1.1 2 1.1 1.3 0 1.3 -0.2 -0.3 -1.4 -1.2 -0.8 -1.6 -1.9 -1.1 -3.1 0.8 -2.3 -1.1 -4.6 -3.1 -3.8 -1.2 0.5 -1.5 0.2 -1 -1 0.3 -0.9 0.1 -1.9 -0.5 -2.3 -0.7 -0.4 -0.8 -0.3 -0.4 0.4 1.1 1.9 0 1.4 -5.9 -2.3 -3.1 -2 -5.3 -4 -5 -4.4 0.2 -0.5 -0.3 -1.5 -1.3 -2.2 -1.5 -1.3 -1.6 -1.2 -0.3 0.4 2.2 2.8 -0.3 2 -3.1 -1 -3.7 -4.1 -5.1 -7.1 -4.3 -10.1 1 -4 4.5 -7.3 6.9 -6.6 1.5 0.4 1.7 0.3 0.7 -0.4 -1.9 -1.4 -0.2 -2.1 6.6 -2.8 7.8 -0.8 13.8 0.9 18.1 5.2 3.8 3.8 3.6 4.9 -1.5 6.3 -4.5 1.3 -7.9 -0.7 -7.6 -4.5 0.2 -1.9 0 -2.5 -0.6 -1.5 -0.7 1.1 -1.1 0.9 -2 -0.8 -0.8 -1.4 -2.1 -2.1 -4.2 -2.1 -3.2 0 -4.9 2.4 -3 4.3 1.8 1.8 1.3 3.1 -0.6 1.6 -1 -0.7 -0.7 -0.1 0.6 1.4 2.5 2.8 4.3 3.8 2.1 1.2 -0.7 -0.8 -0.8 -1.5 -0.2 -1.5 1.1 0 3.1 2.2 2.9 3.2 -0.1 0.3 0.2 1 0.7 1.5 0.5 0.5 0.6 0.3 0.2 -0.4 -1 -1.7 0 -1.6 2.9 0.3 1.4 0.9 2.3 2 2 2.4 -0.3 0.5 0 1.2 0.6 1.6 0.8 0.4 0.9 0.3 0.5 -0.4 -1.2 -1.9 0.5 -1.4 4.1 1.4 1.8 1.4 3 3 2.7 3.6 -0.4 0.6 -0.3 0.8 0.3 0.5 0.6 -0.4 1.9 0.3 2.9 1.4 2.7 3 2.5 9.1 -0.5 12.3 -4.8 5.2 -18 7.1 -26.5 4z m-0.2 -7.8 c-0.3 -0.9 -1.3 -1.6 -2.2 -1.6 -1.3 0 -1.2 0.3 0.3 2 2 2.3 2.9 2.1 1.9 -0.4z m23 -4.9 c-1 -1.3 -4 -3.9 -6.7 -5.8 -10 -7 -15 -11.2 -15.4 -13 -0.7 -2.5 -2 -2.4 -3.4 0.2 -0.9 1.8 -0.6 2.6 2.1 5.5 1.8 1.8 6.6 5.4 10.5 8 4.6 2.9 8 5.9 9.1 8 1.8 3.3 1.9 3.4 3.7 1.5 1.9 -1.9 1.9 -2 0.1 -4.4z m0.1 -22.5 l-2.8 -2.7 2.4 3.1 c1.3 1.7 2.6 3 2.8 2.7 0.3 -0.2 -0.8 -1.6 -2.4 -3.1z"/>
  <path d="M543 244.1 c0 -0.5 0.9 -1.1 2 -1.4 1.8 -0.5 1.9 -1.6 2.2 -24.8 0.2 -13.4 0.5 -25.1 0.8 -25.9 0.4 -1.1 -0.3 -1.6 -2.2 -1.8 -1.6 -0.2 -2.8 -0.8 -2.8 -1.3 0 -0.5 4.9 -0.9 11 -0.9 10 0 13.4 0.9 9.5 2.4 -1.2 0.4 -1.5 3.3 -1.5 17.1 0 9.1 0.4 16.5 0.8 16.5 1.2 0 14.2 -15.5 14.2 -16.9 0 -0.6 -0.7 -1.1 -1.5 -1.1 -0.8 0 -1.5 -0.4 -1.5 -1 0 -0.6 3 -1 7 -1 4 0 7 0.4 7 1 0 0.6 -1.3 1 -2.9 1 -2.2 0 -3.8 1.1 -6.6 4.3 l-3.6 4.2 4.3 1.1 c9.5 2.3 10.8 4.4 10.8 17.4 0 8.3 0.2 9.2 2 9.7 5 1.3 1 2.3 -9.5 2.3 -7 0 -11.5 -0.4 -11.5 -1 0 -0.5 1.1 -1 2.4 -1 1.4 0 2.8 -0.5 3.1 -1 0.4 -0.6 1.1 -0.8 1.6 -0.5 0.5 0.3 0.6 -0.1 0.2 -1 -0.4 -1.3 -0.8 -1.4 -1.4 -0.4 -1.1 1.9 -1.7 -1.9 -2.2 -12.8 -0.2 -5.7 0.1 -9 0.6 -8.6 0.6 0.3 0.7 0.1 0.3 -0.5 -0.5 -0.8 0.1 -1.2 1.6 -1.3 1.3 0 1.7 -0.3 1 -0.6 -1.8 -0.7 -6.2 1.6 -8.8 4.7 -1.2 1.4 -3.4 3.9 -4.8 5.5 -2.4 2.7 -2.6 3.7 -2.4 9.5 0.3 5.9 0.5 6.5 2.6 6.8 1.2 0.2 2.2 0.8 2.2 1.3 0 0.5 -5.3 0.9 -12 0.9 -6.6 0 -12 -0.4 -12 -0.9z m12.3 -0.8 l-6.3 -0.4 -0.3 -22.7 -0.2 -22.7 -0.3 23.3 -0.2 23.2 6.8 -0.2 6.7 -0.2 -6.2 -0.3z m32.5 0 c-1 -0.2 -2.8 -0.2 -4 0 -1.3 0.2 -0.5 0.4 1.7 0.4 2.2 0.1 3.2 -0.1 2.3 -0.4z m-29.8 -26.3 c0 -25.5 -0.2 -26.7 -4.6 -21.9 -1.7 1.9 -1.9 4.1 -2.2 24 l-0.4 21.9 3.6 0 3.6 0 0 -24z m26.2 7.1 c-1.1 -1.5 -2.7 -2.7 -3.6 -2.9 -1.3 -0.3 -1.6 0.6 -1.6 5.1 0 8.4 0.9 11.6 3.9 13.2 l2.6 1.3 0.3 -7.1 c0.2 -5.7 -0.1 -7.6 -1.6 -9.6z m-7.5 2.2 c-0.2 -2.1 -0.4 -0.4 -0.4 3.7 0 4.1 0.2 5.8 0.4 3.8 0.2 -2.1 0.2 -5.5 0 -7.5z"/>
  <path d="M612 165 c0 -1.4 3.7 -4 5.9 -4 1.2 0 2.9 -0.7 3.7 -1.5 0.9 -0.8 2.8 -1.5 4.4 -1.5 2.2 0 2.9 -0.5 3.2 -2.2 0.2 -1.3 1.3 -2.7 2.6 -3.3 1.2 -0.5 2.2 -1.8 2.2 -2.7 0 -1 0.5 -1.8 1 -1.8 0.6 0 1 -0.9 1 -2 0 -1.5 0.7 -2 2.5 -2 2.3 0 2.4 0.2 1.4 2.8 -2.6 6.9 -9.3 13.5 -16.7 16.3 -3.9 1.5 -11.2 2.8 -11.2 1.9z"/>
  <path d="M473 163 c0 -1.3 0.7 -2 2 -2 1.3 0 2 0.7 2 2 0 1.3 -0.7 2 -2 2 -1.3 0 -2 -0.7 -2 -2z"/>
  <path d="M489 163 c0 -1.3 0.7 -2 2 -2 1.3 0 2 0.7 2 2 0 1.3 -0.7 2 -2 2 -1.3 0 -2 -0.7 -2 -2z"/>
  <path d="M505 163 c0 -1.3 0.7 -2 2 -2 1.3 0 2 0.7 2 2 0 1.3 -0.7 2 -2 2 -1.3 0 -2 -0.7 -2 -2z"/>
  <path d="M521 163 c0 -1.3 0.7 -2 2 -2 1.3 0 2 0.7 2 2 0 1.3 -0.7 2 -2 2 -1.3 0 -2 -0.7 -2 -2z"/>
  <path d="M557.8 163.9 c-2.9 -1.6 -2.1 -2.9 1.7 -2.9 2.8 0 3.5 0.4 3.5 2 0 2.2 -2.4 2.6 -5.2 0.9z"/>
  <path d="M593 162.5 c0 -2.9 0.8 -3.2 2.6 -0.7 1.9 2.4 1.7 3.2 -0.6 3.2 -1.5 0 -2 -0.7 -2 -2.5z"/>
  <path d="M659.7 164.3 c-0.9 -0.8 -0.9 -41 -0.1 -44 0.4 -1.3 1.3 -2.3 2 -2.3 1.2 0 1.4 4.2 1.4 23.5 0 18.9 -0.3 23.5 -1.3 23.5 -0.8 0 -1.7 -0.3 -2 -0.7z"/>
  <path d="M676 162.6 c0 -2 0.5 -2.6 2.1 -2.6 1.5 0 2 0.5 1.7 2.2 -0.5 3.4 -3.8 3.7 -3.8 0.4z"/>
  <path d="M718 163 c0 -1.3 0.7 -2 2 -2 1.3 0 2 0.7 2 2 0 1.3 -0.7 2 -2 2 -1.3 0 -2 -0.7 -2 -2z"/>
  <path d="M751.8 163.9 c-2.9 -1.6 -2.1 -2.9 1.7 -2.9 2.8 0 3.5 0.4 3.5 2 0 2.2 -2.4 2.6 -5.2 0.9z"/>
  <path d="M586.3 161.9 c-5.1 -2.5 -5.5 -3.9 -1 -3.9 4.2 0 6 1.2 5.5 3.9 l-0.3 2.1 -4.2 -2.1z"/>
  <path d="M550.6 155.8 c-1 -3.8 -0.7 -4.8 1.4 -4.8 1.6 0 2 0.7 2 3.5 0 4 -2.4 4.9 -3.4 1.3z"/>
  <path d="M577.1 154.4 c-2.7 -3.5 -2.6 -4.4 0.4 -4.4 2.2 0 2.5 0.4 2.5 3.5 0 1.9 -0.2 3.5 -0.4 3.5 -0.3 0 -1.4 -1.2 -2.5 -2.6z"/>
  <path d="M617 149.9 c0 -1.1 1.3 -3.4 2.9 -5 3.5 -3.4 7.1 -3.9 7.1 -0.9 0 1.6 -0.7 2 -3 2 -2.7 0 -3 0.3 -3 3 0 2.3 -0.4 3 -2 3 -1.4 0 -2 -0.7 -2 -2.1z"/>
  <path d="M759.6 144.4 c-0.9 -6.9 -0.8 -8.4 0.8 -8.4 1.4 0 1.8 1.1 3.2 9.3 0.5 3.2 0.4 3.7 -1.4 3.7 -1.5 0 -2.1 -0.9 -2.6 -4.6z"/>
  <path d="M624 124.5 c0 -2.2 0.4 -2.5 3.6 -2.5 4.4 0 4.2 1.8 -0.4 3.7 -3.1 1.3 -3.2 1.2 -3.2 -1.2z"/>
  <path d="M566 122.5 c0 -2.8 0.4 -3.5 2 -3.5 2.1 0 2.4 1 1.4 4.8 -1 3.6 -3.4 2.7 -3.4 -1.3z"/>
  <path d="M588 122.5 c0 -2.8 0.4 -3.5 2 -3.5 2.1 0 2.4 1 1.4 4.8 -1 3.6 -3.4 2.7 -3.4 -1.3z"/>
  <path d="M573 122.4 c0 -2.1 1.8 -5.4 3 -5.4 0.6 0 1 1.6 1 3.5 0 2.8 -0.4 3.5 -2 3.5 -1.1 0 -2 -0.7 -2 -1.6z"/>
  <path d="M618.6 118.8 c-1 -3.8 -0.7 -4.8 1.4 -4.8 1.6 0 2 0.7 2 3.5 0 4 -2.4 4.9 -3.4 1.3z"/>
  <path d="M632 116.4 c0 -3.9 0.9 -3.8 4 0.6 l2.1 3 -3 0 c-2.9 0 -3.1 -0.3 -3.1 -3.6z"/>
  <path d="M760 117 c0 -1.6 -0.4 -3 -1 -3 -0.5 0 -1 -1.6 -1 -3.7 0 -3.4 0.1 -3.5 1.8 -1.9 1.7 1.5 4.2 7.7 4.2 10.5 0 0.6 -0.9 1.1 -2 1.1 -1.6 0 -2 -0.7 -2 -3z"/>
  <path d="M473.5 114.3 c1 -5.6 2.2 -7.3 6.8 -9.4 l4.2 -1.9 -5.7 0 c-5.4 0 -7.2 -1 -4.8 -2.5 0.6 -0.4 1.9 -2.4 3 -4.6 2.5 -4.8 4 -5 4 -0.4 0 3.3 0.2 3.5 3.5 3.5 3.3 0 3.5 0.2 3.5 3.5 0 3.3 -0.2 3.5 -3.5 3.5 -2.5 0 -3.5 0.4 -3.5 1.6 0 0.8 -0.7 2.2 -1.5 3.1 -0.9 0.8 -1.9 2.8 -2.2 4.4 -0.4 2 -1.1 2.9 -2.5 2.9 -1.8 0 -1.9 -0.4 -1.3 -3.7z"/>
  <path d="M701.6 114.8 c-1 -3.8 -0.7 -4.8 1.4 -4.8 1.6 0 2 0.7 2 3.5 0 4 -2.4 4.9 -3.4 1.3z"/>
  <path d="M717 113.5 c0 -3.9 1.4 -4.6 3 -1.6 1.6 3.1 1.2 5.1 -1 5.1 -1.6 0 -2 -0.7 -2 -3.5z"/>
  <path d="M549.6 113.8 c-1 -3.8 -0.7 -4.8 1.4 -4.8 1.6 0 2 0.7 2 3.5 0 4 -2.4 4.9 -3.4 1.3z"/>
  <path d="M622 108.5 c0 -3.1 1.1 -3.2 4.7 0 l2.8 2.4 -3.7 0.1 c-3.4 0 -3.8 -0.3 -3.8 -2.5z"/>
  <path d="M582 109.1 c0 -0.5 1.9 -1.8 4.3 -3 l4.2 -2.1 0.3 2.1 c0.2 1.2 -0.2 2.6 -1 3 -1.7 1.2 -7.8 1.1 -7.8 0z"/>
  <path d="M663.4 107.1 c1 -1 2.6 -2.1 3.7 -2.4 1.5 -0.4 1.9 0 1.9 1.9 0 2.1 -0.5 2.4 -3.7 2.4 -3.5 0 -3.6 -0.1 -1.9 -1.9z"/>
  <path d="M676 106 c0 -1.3 0.7 -2 2 -2 1.3 0 2 0.7 2 2 0 1.3 -0.7 2 -2 2 -1.3 0 -2 -0.7 -2 -2z"/>
  <path d="M707.8 106.7 c-3 -1.2 -3.9 -4.7 -1.3 -4.7 2.4 0 7.9 2.5 9.4 4.3 1.2 1.5 1 1.7 -2 1.6 -1.9 -0.1 -4.6 -0.6 -6.1 -1.2z"/>
  <path d="M554.8 106.3 c-2.2 -0.6 -2.4 -4.3 -0.3 -4.3 2.5 0 8.5 2.8 8.5 3.9 0 1.1 -4.9 1.3 -8.2 0.4z"/>
  <path d="M695.5 104.5 l-3 -1.2 2.8 -0.8 c3.1 -0.8 4 -0.4 3.5 1.8 -0.3 1.3 -0.7 1.3 -3.3 0.2z"/>
  <path d="M505 92.8 c0 -3 1.3 -5.8 2.6 -5.8 0.9 0 1.4 1.2 1.4 3.5 0 2.8 -0.4 3.5 -2 3.5 -1.1 0 -2 -0.6 -2 -1.2z"/>
  <path d="M484.1 81.3 c3.2 -4.4 7.9 -5.9 7.9 -2.7 0 2.3 -3 4.3 -6.4 4.4 -2.5 0 -2.7 -0.2 -1.5 -1.7z"/>
 </g>
 <g fill="#1b2022">
  <path d="M508 242.7 c-3.2 -1.5 -6.1 -3.7 -7.9 -5.9 -1.2 -1.6 -1.1 -1.8 1.7 -1.8 2.1 0 3.2 0.6 3.5 1.8 0.3 0.9 0.5 0.2 0.6 -1.5 0.2 -4.9 2.7 -4.2 3.9 1 0.5 2.3 1.3 5 1.7 6 0.8 1.9 0.1 2 -3.5 0.4z"/>
  <path d="M524.4 242.8 c0.2 -0.7 1 -3 1.7 -5 1.1 -3.4 3.9 -5.4 3.9 -2.8 0 0.6 0.8 0.5 2 -0.2 1.1 -0.7 2 -1.8 2 -2.5 0 -0.7 0.5 -1.3 1 -1.3 1.4 0 1.3 -8 -0.2 -12.1 -1.4 -4.2 -3.9 -7 -4.6 -5.1 -0.8 2.4 -3.1 1.2 -3.7 -2 -0.4 -1.8 -1.2 -3.9 -1.8 -4.6 -1.8 -2.2 0.2 -2.6 4.4 -0.7 14.2 6.5 14.5 28.8 0.4 35.4 -5.2 2.4 -5.9 2.5 -5.1 0.9z"/>
  <path d="M527 224.5 c0 -7.8 0.2 -8.5 2 -8.5 1.8 0 2 0.7 2 8.5 0 7.8 -0.2 8.5 -2 8.5 -1.8 0 -2 -0.7 -2 -8.5z"/>
  <path d="M496.7 226.8 c-0.8 -3.1 0.2 -6.8 1.9 -6.8 1 0 1.4 1.3 1.4 4.5 0 4.9 -2.3 6.4 -3.3 2.3z"/>
  <path d="M500.1 212.3 c2.9 -3.7 10.4 -8.1 11.6 -6.9 1.1 1.1 -2.8 5.6 -4.7 5.6 -1.1 0 -2 0.7 -2 1.5 0 1 -1 1.5 -3.1 1.5 -2.9 0 -3 -0.2 -1.8 -1.7z"/>
  <path d="M503 197.6 c9.1 -9.3 20 -14.5 20 -9.6 0 1.1 -0.7 2 -1.5 2 -0.8 0 -1.5 0.4 -1.5 0.8 0 0.5 -2.4 1.6 -5.4 2.5 -3 1 -8.3 3.8 -11.8 6.3 l-6.3 4.6 6.5 -6.6z"/>
  <path d="M540.2 197.9 c-1.2 -1.5 -4.4 -3.5 -7 -4.5 -5.4 -2.1 -7.2 -3.6 -7.2 -6 0 -1.3 0.6 -1.5 3.1 -1 1.6 0.3 3.7 1.3 4.5 2.1 0.9 0.8 2.2 1.5 3 1.5 1.7 0 6.7 7.4 6.2 9.3 -0.2 0.9 -1 0.5 -2.6 -1.4z"/>
  <path d="M79 167.6 c-1.9 -0.7 -4.3 -1.7 -5.2 -2.1 -1.3 -0.5 -1.8 -0.3 -1.8 0.9 0 1.4 -2 1.6 -16 1.6 l-16 0 0 -2.4 c0 -2.1 0.6 -2.5 3.3 -2.8 l3.2 -0.3 0.5 -39 c0.4 -29.2 0.8 -39.6 1.8 -41.2 1.2 -2.3 1.2 -2.3 -3.8 -2.3 -4.7 0 -5 -0.2 -5 -2.5 l0 -2.5 19.5 0 19.5 0 0 2.5 c0 2.2 -0.4 2.5 -3.5 2.5 l-3.5 0 0 12.5 c0 6.9 0.3 12.5 0.6 12.5 0.3 0 1.9 -0.9 3.5 -2.1 6.2 -4.4 19.8 -4.2 29.4 0.6 5.1 2.5 8 5.1 11.5 10.4 l1.5 2.2 3 -3.9 c6.9 -9.2 18.8 -13.8 33 -12.9 10.5 0.6 17.7 3.9 25.5 11.3 l6 5.7 0 -13.1 0 -13.1 -3.7 1.6 c-7.6 3.1 -19.7 -0.1 -26 -6.9 -6.3 -6.9 -9.4 -18.9 -7.4 -29.4 1.5 -8.2 4 -13.3 9 -18.3 8.5 -8.5 21.6 -11.3 34.9 -7.2 11.4 3.4 20.1 10.1 38.4 29.2 17.4 18.2 24.6 24.3 34.5 29.2 6.6 3.3 8.2 3.2 6.3 -0.3 -0.6 -1.2 -1.2 -4.1 -1.2 -6.5 0 -13.8 16.4 -20.1 26.2 -10 2.9 3 3.4 4.3 3.7 9.2 0.9 13.9 -10.4 19.6 -28.8 14.5 -9 -2.5 -17.8 -7.7 -28.4 -16.7 -24.2 -20.5 -28.1 -23.6 -34.3 -26.8 -9.2 -4.9 -17.3 -7 -26.7 -7.1 -10.7 -0.1 -16.8 1.8 -22.1 6.8 -4.9 4.8 -6.9 10.6 -6 18 0.6 5.7 4.4 12.6 8.5 15.5 4 2.9 11 4.5 15.4 3.7 3.6 -0.7 10.7 -5.8 10.7 -7.7 0 -0.5 -2 -0.9 -4.5 -0.9 -4.1 0 -4.5 -0.2 -4.5 -2.5 l0 -2.5 18 0 18 0 0 2.5 c0 1.8 -0.5 2.5 -2 2.5 -1.9 0 -2 0.7 -2 14 0 7.7 0.2 14 0.4 14 0.3 0 1.8 -1.2 3.3 -2.6 4.6 -4.4 10.1 -6.4 17.6 -6.4 7.9 0 12.8 1.8 17.5 6.3 5.4 5.2 6.2 10 6.2 35.4 l0 22.3 3 0 c2.5 0 3 0.4 3 2.5 l0 2.5 -19 0 -19 0 0 -2.5 c0 -2.3 0.4 -2.5 4.5 -2.5 4.9 0 5.1 -0.1 3.2 -3.3 -0.8 -1.5 -1.4 -9.6 -1.7 -26 -0.5 -22.2 -0.6 -24 -2.4 -25.3 -3 -2.1 -6.1 -1.7 -9.7 1.3 -6.2 5.2 -6.9 8.3 -6.9 32.1 l0 21.2 3 0 c2.5 0 3 0.4 3 2.5 l0 2.5 -19 0 -19 0 0 -2.5 c0 -2.1 0.5 -2.5 3 -2.5 2.9 0 3 -0.2 3 -4.5 l0 -4.5 -3.5 3.9 c-4.3 4.8 -13.5 9 -22.7 10.4 -14.9 2.3 -31.8 -3 -38.1 -11.9 l-3 -4.2 -3.1 4.1 c-7.5 9.9 -25.6 15.5 -36.6 11.3z m10.4 -4.6 c3.7 -1.4 5.6 -6 6.7 -16.1 2 -17.4 -1.5 -37.9 -6.9 -40.8 -4.9 -2.6 -12 -0.2 -14.9 5.2 -1.5 2.7 -1.9 6.4 -2.1 23.2 -0.2 11.6 0.1 21.1 0.6 22.6 0.6 1.6 2.8 3.5 5.4 4.8 4.7 2.3 7.4 2.6 11.2 1.1z m67 -0.6 c0.9 -0.8 1.9 -2.7 2.2 -4.2 3.6 -16.6 6.3 -19.2 20 -19.2 l7.4 0 0 -7.5 c0 -4.1 -0.3 -7.5 -0.8 -7.5 -0.4 0 -10.4 4.3 -22.2 9.5 -24.2 10.6 -23.2 9.6 -21 20.2 1.5 6.9 4.5 10.3 9.4 10.3 1.9 0 4.2 -0.7 5 -1.6z m-90.4 -40.9 c0 -45.1 0.5 -42.3 -6.9 -38.5 -2.6 1.3 -4.3 3 -5 5.1 -0.7 2.1 -1.1 15.2 -1.1 38.5 l0 35.4 6.5 0 6.5 0 0 -40.5z m140 0 c0 -44.8 0.5 -42 -6.5 -39.1 -6.6 2.8 -7 4.3 -7.3 30.3 -0.3 17.6 -0.1 23.3 0.8 23.3 1.2 0 1.2 1.9 -0.6 17.8 -0.9 7.8 -0.5 8.2 7.1 8.2 l6.5 0 0 -40.5z m44.5 18 c0 -18.6 -0.3 -22.5 -1.6 -25 -2.2 -3.9 -4.7 -6.1 -8.9 -7.9 l-3.5 -1.4 0.3 22.6 c0.2 13.5 0.8 24 1.5 26.1 0.8 2.5 2.4 4.2 5.2 5.8 7.1 4.1 7 4.5 7 -20.2z m-78.8 17.9 c4 -2.3 10.3 -9.4 10.3 -11.6 0 -1.4 -8.5 -0.9 -10.8 0.8 -2.6 1.8 -4.7 5.6 -5.5 10.2 -0.8 3.9 0.2 4.1 6 0.6z m-61.7 -5.6 c2.5 -3.5 2.6 -4 1.8 -10.7 -0.5 -3.9 -0.5 -10.3 0 -14.1 0.8 -6.5 0.7 -7.3 -1.4 -10.2 -2.4 -3.2 -9.1 -8.5 -9.8 -7.7 -0.2 0.2 0 2.7 0.6 5.4 1.2 6.2 1.6 35.6 0.5 40.8 l-0.8 3.9 3.2 -1.9 c1.7 -1 4.4 -3.4 5.9 -5.5z m25 -5.8 c-0.4 -6.9 -0.4 -17.9 0 -24.5 0.4 -6.6 0.6 -12.2 0.4 -12.4 -0.1 -0.2 -2.7 2.1 -5.7 5 l-5.3 5.4 1 7.3 c0.6 4.9 0.6 9.5 -0.1 14.4 l-1 7.3 5.4 5.3 c3 3 5.6 5.2 5.8 5 0.1 -0.1 -0.1 -5.9 -0.5 -12.8z m-15.9 -16.7 c-0.8 -4.3 -0.9 -3.8 -0.9 4.7 0 8.5 0.1 9 0.9 4.8 0.6 -2.9 0.6 -6.7 0 -9.5z m43.1 -7.3 c-0.7 -13.6 -3.3 -18 -10.6 -18 -3.6 0 -4.9 0.5 -6.5 2.5 -2.7 3.5 -4.1 10.9 -4.1 22 l0 9.4 10.8 -4.7 10.7 -4.8 -0.3 -6.4z m12.1 -1 c2 -0.8 3.7 -1.7 3.7 -2.1 0 -0.9 -9 -8.9 -9.9 -8.9 -0.7 0 -0.4 6.8 0.5 10.8 0.3 1.3 0.8 2.2 1.2 2 0.4 -0.2 2.4 -1 4.5 -1.8z m114.7 -31.7 c1.6 -0.9 3.7 -3.1 4.7 -5 1.7 -3.2 1.7 -3.3 -0.3 -6 -1.2 -1.6 -3.3 -3.5 -4.7 -4.3 -2.4 -1.3 -3 -1.3 -5.4 0 -1.4 0.8 -3.5 2.7 -4.6 4.2 -1.8 2.4 -1.9 3 -0.7 5.9 0.7 1.7 2.7 4 4.4 5 3.7 2.3 3.2 2.3 6.6 0.2z m-102.5 -51 c9.2 0.5 9.8 0.5 7.2 -0.9 -5.5 -2.9 -12.9 -3.8 -18.8 -2.1 -3 0.9 -6.3 2.3 -7.4 3.1 -1.7 1.3 -1.4 1.3 3.5 0.4 3 -0.6 10 -0.8 15.5 -0.5z"/>
  <path d="M398.2 167.4 c-7.6 -2 -11.1 -4.1 -15.9 -9.2 l-4.3 -4.5 0 4.7 c0 4.6 0 4.6 3.5 4.6 3.1 0 3.5 0.3 3.5 2.5 l0 2.5 -19.5 0 -19.5 0 0 -2.5 c0 -2.3 0.3 -2.5 4.9 -2.5 l5 0 -1.6 -3.7 c-1.1 -2.9 -1.6 -9.1 -2 -26.3 -0.5 -18.2 -0.8 -22.8 -2.1 -24.2 -3.2 -3.7 -9.8 -1 -13.7 5.5 -2.5 4.3 -2.5 4.6 -2.5 26.5 l0 22.2 3 0 c2.5 0 3 0.4 3 2.5 l0 2.5 -36.5 0 -36.5 0 0 -2.5 c0 -2.1 0.5 -2.5 3 -2.5 l3 0 0 -23.2 c0 -21.4 0.5 -27.2 2.5 -32.1 0.6 -1.5 0.1 -1.7 -3.9 -1.7 -4.2 0 -4.6 -0.2 -4.6 -2.5 l0 -2.5 35 0 c30.4 0 35 0.2 35 1.5 0 1.9 -0.1 1.9 6.2 -1 12.7 -5.9 28.2 -1.6 33 9.2 l2 4.5 2.3 -3.2 c5.7 -7.8 15.1 -12.1 26.3 -12.2 6 0 8.3 0.5 12.3 2.6 l4.9 2.5 0 -8.5 c0 -5.3 0.6 -9.8 1.5 -12.1 0.8 -1.9 1.5 -3.7 1.5 -3.9 0 -0.2 -2.2 -0.4 -5 -0.4 -4.7 0 -5 -0.2 -5 -2.5 l0 -2.5 19.5 0 19.5 0 0 2.5 c0 2.1 -0.5 2.5 -3 2.5 l-3 0 0 41.5 0 41.5 3 0 c2.5 0 3 0.4 3 2.5 l0 2.5 -16 0 c-14 0 -16 -0.2 -16 -1.6 0 -1.2 -0.5 -1.4 -1.7 -0.9 -9.1 3.9 -15.1 4.4 -24.1 1.9z m19.5 -5.3 c2.3 -1.1 4.6 -2.8 5.2 -3.9 1.8 -3.3 1.5 -41.4 -0.3 -45.7 -2.9 -6.9 -12.4 -9.8 -17.1 -5.1 -4.1 4.1 -5 9.6 -5 29.1 0 15.3 0.3 18.5 1.8 21.6 3 6 8 7.3 15.4 4z m-109.7 -23.8 c0.1 -18.1 0.5 -25.8 1.4 -28.5 l1.4 -3.8 -5.9 0 -5.9 0 0 28.5 0 28.5 4.5 0 4.5 0 0 -24.7z m-15.2 -4 c0.2 -27.2 0.2 -27.3 -1.9 -27.3 -3.5 0 -8.5 2.9 -10 5.8 -0.9 1.9 -1.4 8.8 -1.7 24.5 -0.2 12 -0.1 22.5 0.2 23.3 0.4 1.2 2 1.4 6.8 1.2 l6.3 -0.3 0.3 -27.2z m34.7 0.2 c0 -27 0 -27 -2.2 -27.3 -3.5 -0.5 -8.3 2.6 -9.9 6.3 -1.1 2.6 -1.4 8.8 -1.4 26 l0 22.6 6.8 -0.3 6.7 -0.3 0 -27z m43.9 4.4 c-0.3 -20.8 -0.6 -23.4 -2.3 -26.3 -2.2 -3.4 -5 -5.4 -9.4 -6.7 -2.5 -0.7 -2.8 -0.6 -2.1 0.9 0.4 0.9 1 12.1 1.3 24.8 0.7 25.6 0.8 26 7.6 29 5.5 2.4 5.4 3.2 4.9 -21.7z m72.6 -17.4 c0 -44.2 0.3 -42.8 -6.9 -38.9 -6.9 3.7 -7.1 4.6 -7.1 43.7 l0 34.7 7 0 7 0 0 -39.5z m-50.1 26.6 c-0.9 -11.4 0.3 -32.9 2 -37.5 l1.2 -2.9 -2.8 1.8 c-4.6 2.9 -8.4 6.8 -10.4 10.7 -2.5 4.9 -2.7 22.3 -0.3 27.4 1.4 3 10.1 12 10.9 11.2 0.1 -0.1 -0.1 -5 -0.6 -10.7z"/>
  <path d="M473.7 164.4 c-0.4 -0.4 -0.7 -1.3 -0.7 -2.1 0 -1 2.3 -1.3 10.1 -1.3 9 0 10 0.2 9.7 1.8 -0.3 1.4 -1.7 1.7 -9.4 2 -4.9 0.1 -9.3 0 -9.7 -0.4z"/>
  <path d="M505.7 164.4 c-0.4 -0.4 -0.7 -1.3 -0.7 -2.1 0 -1 2.3 -1.3 10.1 -1.3 9 0 10 0.2 9.7 1.8 -0.3 1.4 -1.7 1.7 -9.4 2 -4.9 0.1 -9.3 0 -9.7 -0.4z"/>
  <path d="M557.5 163.6 c-1.7 -0.7 -3.6 -2 -4.4 -2.9 -1.2 -1.5 -1 -1.7 2 -1.7 4.4 0 6.2 1.2 5.7 3.8 -0.3 1.9 -0.5 1.9 -3.3 0.8z"/>
  <path d="M566 163 c0 -1.3 0.7 -2 2 -2 1.3 0 2 0.7 2 2 0 1.3 -0.7 2 -2 2 -1.3 0 -2 -0.7 -2 -2z"/>
  <path d="M590.3 163.5 c-3.7 -1.6 -4.4 -3.5 -1.3 -3.5 1.1 0 2 -0.4 2 -1 0 -0.5 -0.4 -1 -1 -1 -0.5 0 -1 -1.6 -1 -3.5 0 -4.6 2.6 -4.7 3.5 -0.2 0.4 1.7 1.6 4.9 2.6 7 1.8 3.5 1.8 3.7 0.2 3.7 -1 -0.1 -3.3 -0.7 -5 -1.5z"/>
  <path d="M613 163.5 c0.6 -0.7 2 -4.9 3.1 -9.1 2 -8.1 3.7 -10.8 7 -11.7 1.5 -0.4 1.9 0 1.9 1.9 0 1.5 -0.6 2.4 -1.5 2.4 -0.8 0 -1.5 0.6 -1.5 1.4 0 0.8 -0.4 1.6 -0.9 1.8 -0.4 0.2 -1.1 2.4 -1.5 5.1 l-0.7 4.7 3 0 c3.5 0 4 1.4 1.2 3 -2.8 1.5 -5.1 1.2 -5.1 -0.5 0 -0.8 -0.4 -1.5 -1 -1.5 -0.5 0 -1 0.9 -1 2 0 1.4 -0.7 2 -2.1 2 -1.8 0 -1.9 -0.3 -0.9 -1.5z"/>
  <path d="M676 134.4 c0 -28.6 0.1 -30.5 1.8 -30.2 1.6 0.3 1.7 2.6 2 28.3 0.1 15.4 0 29 -0.3 30.3 -0.3 1.2 -1.2 2.2 -2 2.2 -1.3 0 -1.5 -4.2 -1.5 -30.6z"/>
  <path d="M709.8 163.9 c-2.9 -1.6 -2.1 -2.9 1.7 -2.9 2.8 0 3.5 0.4 3.5 2 0 2.2 -2.4 2.6 -5.2 0.9z"/>
  <path d="M751.5 163.6 c-1.7 -0.7 -3.6 -2 -4.4 -2.9 -1.2 -1.5 -1 -1.7 2 -1.7 4.4 0 6.2 1.2 5.7 3.8 -0.3 1.9 -0.5 1.9 -3.3 0.8z"/>
  <path d="M760 163 c0 -1.3 0.7 -2 2 -2 1.3 0 2 0.7 2 2 0 1.3 -0.7 2 -2 2 -1.3 0 -2 -0.7 -2 -2z"/>
  <path d="M888 164.3 c0.1 -1.1 2.6 -4.3 3.4 -4.3 1.6 0 0 4.5 -1.6 4.8 -1 0.2 -1.8 0 -1.8 -0.5z"/>
  <path d="M970.8 163.9 c-2.9 -1.6 -2.1 -2.9 1.7 -2.9 2.8 0 3.5 0.4 3.5 2 0 2.2 -2.4 2.6 -5.2 0.9z"/>
  <path d="M782.8 162.9 c-2.4 -1.3 -2.3 -2.9 0.2 -2.9 1.1 0 2 -0.7 2 -1.5 0 -2.5 1.8 -1.7 3.5 1.5 0.8 1.6 1.5 3.1 1.5 3.5 0 0.9 -5.4 0.5 -7.2 -0.6z"/>
  <path d="M861.8 162.9 c-2.9 -1.6 -2.1 -2.9 1.7 -2.9 2.8 0 3.5 0.4 3.5 2 0 2.2 -2.4 2.6 -5.2 0.9z"/>
  <path d="M704.7 160.2 c-2.3 -2.6 -2.2 -5.2 0.3 -5.2 1.6 0 2 0.7 2 3.5 0 4 -0.1 4.1 -2.3 1.7z"/>
  <path d="M581.3 158.5 l-2.8 -2.4 3.8 -0.1 c3.3 0 3.7 0.3 3.7 2.5 0 3.1 -1.1 3.2 -4.7 0z"/>
  <path d="M821 158.1 c0 -2.9 0.3 -3.1 3.6 -3.1 3.9 0 3.8 0.9 -0.6 4 l-3 2.1 0 -3z"/>
  <path d="M771.3 154.1 c-4 -5.3 -4.1 -6.1 -0.8 -6.1 1.5 0 2.5 0.6 2.5 1.4 0 0.8 0.5 1.6 1.1 1.8 0.6 0.2 0.9 1.9 0.7 3.8 l-0.3 3.5 -3.2 -4.4z"/>
  <path d="M850.3 154.1 c-4 -5.3 -4.1 -6.1 -0.8 -6.1 1.5 0 2.5 0.6 2.5 1.4 0 0.8 0.5 1.6 1.1 1.8 0.6 0.2 0.9 1.9 0.7 3.8 l-0.3 3.5 -3.2 -4.4z"/>
  <path d="M744.6 154.8 c-1 -3.8 -0.7 -4.8 1.4 -4.8 1.6 0 2 0.7 2 3.5 0 4 -2.4 4.9 -3.4 1.3z"/>
  <path d="M892 155.8 c0 -3 1.3 -5.8 2.6 -5.8 0.9 0 1.4 1.2 1.4 3.5 0 2.8 -0.4 3.5 -2 3.5 -1.1 0 -2 -0.6 -2 -1.2z"/>
  <path d="M635 149.5 c0 -1.9 0.5 -3.5 1 -3.5 0.6 0 1 -0.9 1 -2 0 -1.3 0.7 -2 2 -2 2.5 0 2.5 0.9 -0.1 6.5 -2.5 5.4 -3.9 5.7 -3.9 1z"/>
  <path d="M828 149.5 c0 -3.1 0.3 -3.5 2.6 -3.5 1.4 0 2.4 0.3 2.2 0.8 -3.5 7.3 -4.8 8 -4.8 2.7z"/>
  <path d="M962.6 150.8 c-1 -3.8 -0.7 -4.8 1.4 -4.8 1.6 0 2 0.7 2 3.5 0 4 -2.4 4.9 -3.4 1.3z"/>
  <path d="M574 149.1 c-1.6 -3.1 -1.2 -5.1 1 -5.1 1.6 0 2 0.7 2 3.5 0 3.9 -1.4 4.6 -3 1.6z"/>
  <path d="M565.6 145.4 c-0.9 -6.9 -0.8 -8.4 0.8 -8.4 1.4 0 1.8 1.1 3.2 9.3 0.5 3.2 0.4 3.7 -1.4 3.7 -1.5 0 -2.1 -0.9 -2.6 -4.6z"/>
  <path d="M588 146.5 c0 -4 2.4 -4.9 3.4 -1.2 1 3.7 0.7 4.7 -1.4 4.7 -1.6 0 -2 -0.7 -2 -3.5z"/>
  <path d="M861 146.5 c0 -4 2.4 -4.9 3.4 -1.2 1 3.7 0.7 4.7 -1.4 4.7 -1.6 0 -2 -0.7 -2 -3.5z"/>
  <path d="M814 147.8 c0 -3 1.3 -5.8 2.6 -5.8 0.9 0 1.4 1.2 1.4 3.5 0 2.8 -0.4 3.5 -2 3.5 -1.1 0 -2 -0.6 -2 -1.2z"/>
  <path d="M893 146.8 c0 -3 1.3 -5.8 2.6 -5.8 0.9 0 1.4 1.2 1.4 3.5 0 2.8 -0.4 3.5 -2 3.5 -1.1 0 -2 -0.6 -2 -1.2z"/>
  <path d="M844.6 139.8 c-1 -3.8 -0.7 -4.8 1.4 -4.8 1.6 0 2 0.7 2 3.5 0 4 -2.4 4.9 -3.4 1.3z"/>
  <path d="M831 136.3 c0 -2.7 -0.3 -7.2 -0.6 -10 -0.6 -4.4 -0.4 -5.3 0.9 -5.3 1.5 0 1.9 1 3.3 9.3 0.8 5 -0.3 10.7 -2.1 10.7 -1.1 0 -1.5 -1.3 -1.5 -4.7z"/>
  <path d="M910 136.3 c0 -2.7 -0.3 -7.2 -0.6 -10 -0.6 -4.4 -0.4 -5.3 0.9 -5.3 1.5 0 1.9 1 3.3 9.3 0.8 5 -0.3 10.7 -2.1 10.7 -1.1 0 -1.5 -1.3 -1.5 -4.7z"/>
  <path d="M759 130.1 c0 -1 0.3 -3.9 0.6 -6.5 0.5 -3.7 1.1 -4.6 2.6 -4.6 2.1 0 2.1 0.5 0.2 10.3 -0.6 3 -3.4 3.7 -3.4 0.8z"/>
  <path d="M565 127.5 c0 -2.8 0.4 -3.5 2 -3.5 2.1 0 2.4 1 1.4 4.8 -1 3.6 -3.4 2.7 -3.4 -1.3z"/>
  <path d="M619 127 c0 -1.5 0.7 -2 2.5 -2 3 0 3.3 1.5 0.6 3 -2.7 1.4 -3.1 1.3 -3.1 -1z"/>
  <path d="M626 123.5 c0 -2.2 0.4 -2.5 3.5 -2.5 1.9 0 3.5 -0.4 3.5 -1 0 -0.5 -0.4 -1 -1 -1 -0.5 0 -1 -0.9 -1 -1.9 0 -1.3 -0.8 -2.1 -2.2 -2.3 -1.5 -0.2 -2.4 -1.1 -2.6 -2.5 -0.5 -3.5 -5.2 -3.2 -5.2 0.2 0 3.7 -2.7 3.1 -3.5 -0.7 -0.4 -1.8 -1.4 -4.4 -2.2 -5.6 -0.8 -1.3 -1.2 -2.6 -0.9 -2.9 0.8 -0.9 6.6 1.5 11.8 4.8 4.3 2.8 11.8 10.5 11.8 12.2 0 0.6 -3.4 2.3 -9.7 4.8 -2 0.7 -2.3 0.5 -2.3 -1.6z"/>
  <path d="M893.6 123.8 c-1 -3.8 -0.7 -4.8 1.4 -4.8 1.6 0 2 0.7 2 3.5 0 4 -2.4 4.9 -3.4 1.3z"/>
  <path d="M588 121.5 c0 -2.8 0.4 -3.5 2 -3.5 2.1 0 2.4 1 1.4 4.8 -1 3.6 -3.4 2.7 -3.4 -1.3z"/>
  <path d="M767 123.4 c0 -2.1 1.8 -5.4 3 -5.4 0.6 0 1 1.6 1 3.5 0 2.8 -0.4 3.5 -2 3.5 -1.1 0 -2 -0.7 -2 -1.6z"/>
  <path d="M861 120.5 c0 -2.8 0.4 -3.5 2 -3.5 2.1 0 2.4 1 1.4 4.8 -1 3.6 -3.4 2.7 -3.4 -1.3z"/>
  <path d="M574.2 118.9 c1.2 -3.5 8.8 -11.9 10.7 -11.9 0.8 0 1.1 1.1 0.9 2.8 -0.2 1.9 -0.9 2.8 -2.5 3 -1.5 0.2 -2.3 1 -2.3 2.3 0 1 -0.4 1.9 -0.9 1.9 -0.5 0 -1.2 1.1 -1.5 2.5 -0.5 1.8 -1.3 2.5 -3.1 2.5 -2.3 0 -2.3 -0.2 -1.3 -3.1z"/>
  <path d="M566 117.5 c0 -4 2.4 -4.9 3.4 -1.2 1 3.7 0.7 4.7 -1.4 4.7 -1.6 0 -2 -0.7 -2 -3.5z"/>
  <path d="M473 118.3 c0 -3.4 1.2 -6.3 2.6 -6.3 1 0 1.4 1.3 1.4 4 0 3.3 -0.3 4 -2 4 -1.2 0 -2 -0.7 -2 -1.7z"/>
  <path d="M918 118.4 c0 -2.1 1.8 -5.4 3 -5.4 0.6 0 1 1.6 1 3.5 0 2.8 -0.4 3.5 -2 3.5 -1.1 0 -2 -0.7 -2 -1.6z"/>
  <path d="M978 115.5 c0 -4 2.4 -4.9 3.4 -1.2 1 3.7 0.7 4.7 -1.4 4.7 -1.6 0 -2 -0.7 -2 -3.5z"/>
  <path d="M892.6 115.8 c-1 -3.8 -0.7 -4.8 1.4 -4.8 1.6 0 2 0.7 2 3.5 0 4 -2.4 4.9 -3.4 1.3z"/>
  <path d="M772 113 c1.2 -1.6 2.6 -3 3.1 -3 0.5 0 0.9 1.4 0.9 3 0 2.7 -0.3 3 -3.1 3 l-3 0 2.1 -3z"/>
  <path d="M824 113 c0 -1.6 0.4 -3 0.9 -3 0.5 0 1.9 1.4 3.1 3 l2.1 3 -3 0 c-2.8 0 -3.1 -0.3 -3.1 -3z"/>
  <path d="M744 113.7 c0 -0.7 -0.9 -2.9 -1.9 -5 l-1.9 -3.7 2.8 0 c2 0 2.9 0.6 3.4 2.3 1.1 4.1 0.7 7.7 -0.9 7.7 -0.8 0 -1.5 -0.6 -1.5 -1.3z"/>
  <path d="M902 112 c0 -2.7 0.2 -2.9 1.9 -1.9 1 0.7 2.3 2 3 3 1 1.7 0.8 1.9 -1.9 1.9 -2.7 0 -3 -0.3 -3 -3z"/>
  <path d="M812.3 110.5 c-1.1 -3.3 -1 -3.5 1.3 -3.5 2.1 0 2.4 0.5 2.4 3.5 0 2.2 -0.5 3.5 -1.3 3.5 -0.8 0 -1.8 -1.6 -2.4 -3.5z"/>
  <path d="M660.7 111.1 c0.3 -1.1 1.4 -2.7 2.4 -3.7 1.8 -1.7 1.9 -1.6 1.9 1.9 0 3.2 -0.3 3.7 -2.4 3.7 -1.9 0 -2.3 -0.4 -1.9 -1.9z"/>
  <path d="M715 109.3 l0.1 -3.8 2.4 2.8 c3.2 3.6 3.1 4.7 0 4.7 -2.2 0 -2.5 -0.4 -2.5 -3.7z"/>
  <path d="M547.9 108.5 l-1.6 -3.5 2.8 0 c2.6 0 2.9 0.3 2.9 3.5 0 4.5 -2 4.5 -4.1 0z"/>
  <path d="M475 110.1 c0 -1.6 3.2 -4.3 6.7 -5.8 1.8 -0.7 3.3 -1.5 3.3 -1.7 0 -0.2 -2.5 -0.2 -5.5 0 -5.8 0.4 -6.3 0 -4.1 -3.1 0.7 -1.1 2.8 -5.4 4.5 -9.6 1.8 -4.2 4.1 -8.5 5.1 -9.4 2 -1.8 2 -1.7 2 1.8 0 2.6 -0.4 3.7 -1.5 3.7 -1 0 -1.5 1 -1.5 3 0 1.7 -0.4 3 -1 3 -0.5 0 -1 1.1 -1 2.5 0 1.6 -0.6 2.5 -1.5 2.5 -0.8 0 -1.5 0.5 -1.5 1 0 0.6 2.3 1 5 1 l5 0 0 3.5 c0 2.8 -0.4 3.5 -2 3.5 -1.1 0 -2 0.4 -2 1 0 0.5 -1.1 1.2 -2.5 1.6 -1.4 0.3 -2.5 1 -2.5 1.5 0 0.5 -1.1 0.9 -2.5 0.9 -1.4 0 -2.5 -0.4 -2.5 -0.9z"/>
  <path d="M591 107.6 c0 -3.3 1.3 -4.6 4.6 -4.6 1.2 0 1 0.8 -0.6 4 -2.5 4.9 -4 5.1 -4 0.6z"/>
  <path d="M785 107.5 c0 -3.1 0.3 -3.5 2.5 -3.5 2.9 0 3 0.2 1 4 -2.1 4 -3.5 3.8 -3.5 -0.5z"/>
  <path d="M864 107.5 c0 -3.1 0.3 -3.5 2.5 -3.5 2.9 0 3 0.2 1 4 -2.1 4 -3.5 3.8 -3.5 -0.5z"/>
  <path d="M973.7 110.3 c-0.4 -0.3 -0.7 -1.9 -0.7 -3.5 0 -2.8 0.1 -2.8 2.1 -1.4 1.1 0.8 2.7 2.4 3.5 3.5 1.4 2 1.4 2.1 -1.4 2.1 -1.6 0 -3.2 -0.3 -3.5 -0.7z"/>
  <path d="M959.1 106.5 c-1.3 -1.4 -3.3 -2.5 -4.5 -2.5 -1.7 0 -1.8 -0.2 -0.6 -1 0.8 -0.5 3 -1 4.8 -1 3 0 3.2 0.2 3.2 3.5 0 1.9 -0.1 3.5 -0.2 3.5 -0.2 0 -1.4 -1.2 -2.7 -2.5z"/>
  <path d="M558 105.6 c0 -1.9 0.4 -2.3 1.9 -1.9 1.1 0.3 2.7 1.4 3.7 2.4 1.7 1.8 1.6 1.9 -1.9 1.9 -3.2 0 -3.7 -0.3 -3.7 -2.4z"/>
  <path d="M749.8 106.7 c-3 -1.2 -3.9 -4.7 -1.3 -4.7 2.4 0 7.9 2.5 9.4 4.3 1.2 1.5 1 1.7 -2 1.6 -1.9 -0.1 -4.6 -0.6 -6.1 -1.2z"/>
  <path d="M889 105 c-0.8 -1.5 -0.8 -2 0.2 -2 3 0 5.8 1.3 5.8 2.6 0 2.2 -4.8 1.7 -6 -0.6z"/>
  <path d="M965 104 c0 -2.1 1 -2.4 4.8 -1.4 3.6 1 2.7 3.4 -1.3 3.4 -2.8 0 -3.5 -0.4 -3.5 -2z"/>
  <path d="M849 96.7 c2.4 -2.6 5.1 -4.7 5.8 -4.7 2.1 0 0.3 1.9 -5.5 6 l-4.8 3.3 4.5 -4.6z"/>
  <path d="M916.3 93.5 c-2.4 -3.6 -3.1 -8.5 -1.2 -8.5 1.4 0 4.1 6.7 3.7 9.6 -0.3 2.2 -0.4 2.2 -2.5 -1.1z"/>
  <path d="M505.5 90.8 c0.9 -6.7 1.9 -8.4 5.8 -10.8 4.1 -2.5 6.7 -2.6 6.7 -0.2 0 1.8 -3.7 4.2 -6.5 4.2 -1 0 -1.6 1.8 -2.1 6 -0.6 5.1 -1 6 -2.6 6 -1.8 0 -1.9 -0.5 -1.3 -5.2z"/>
  <path d="M861.5 84 c0.3 -0.5 1.9 -1.9 3.5 -3 l3 -2.1 0 3 c0 2.9 -0.3 3.1 -3.6 3.1 -2 0 -3.3 -0.4 -2.9 -1z"/>
  <path d="M875 81 c0 -1.6 0.7 -2 3.5 -2 4 0 4.9 2.4 1.3 3.4 -3.8 1 -4.8 0.7 -4.8 -1.4z"/>
  <path d="M521 80 c0 -1.3 0.7 -2 2 -2 1.3 0 2 0.7 2 2 0 1.3 -0.7 2 -2 2 -1.3 0 -2 -0.7 -2 -2z"/>
  <path d="M879 74.6 c0 -1.3 2.8 -2.6 5.8 -2.6 0.6 0 1.2 0.9 1.2 2 0 1.6 -0.7 2 -3.5 2 -2.3 0 -3.5 -0.5 -3.5 -1.4z"/>
 </g>
 <g fill="#075425">
  <path d="M50 163 c0 -1.9 0.7 -2 9.5 -2 8.8 0 9.5 0.1 9.5 2 0 1.9 -0.7 2 -9.5 2 -8.8 0 -9.5 -0.1 -9.5 -2z"/>
  <path d="M94.2 164.3 c2.5 -4.9 3.9 -9.2 4.4 -13.1 1.1 -9.8 1.5 -11.2 3.1 -11.2 1.4 0 1.5 1 0.9 7.8 -0.3 4.2 -0.9 8.7 -1.2 10 -0.5 1.6 -0.2 2.2 1 2.2 2.8 0 1.7 2 -1.9 3.6 -3.7 1.5 -6.9 1.9 -6.3 0.7z"/>
  <path d="M139 164.3 c-4.2 -1.4 -10 -4.6 -10 -5.4 0 -1.2 4.7 -1.1 8.4 0.2 1.7 0.6 3.9 2.2 4.9 3.5 1.7 2.3 1.7 2.4 0 2.3 -1 0 -2.5 -0.3 -3.3 -0.6z"/>
  <path d="M160.4 162.3 c0.7 -1.6 1.7 -4.8 2.1 -7.3 0.9 -5.2 2.1 -8 3.7 -8 1.5 0 0.1 11.2 -1.5 12.2 -0.9 0.6 -0.9 0.8 0 0.8 2.5 0 8.8 -3.6 11.1 -6.2 1.3 -1.6 3.2 -2.8 4.3 -2.8 1.5 0 1.9 -0.7 1.9 -3.5 0 -2.8 0.4 -3.5 2 -3.5 2.9 0 2.5 2.8 -0.9 8.3 -4.3 6.6 -14.6 12.7 -21.8 12.7 -2.2 0 -2.3 -0.1 -0.9 -2.7z"/>
  <path d="M189.7 164.3 c-0.4 -0.3 -0.7 -1.2 -0.7 -2 0 -1 2.3 -1.3 10 -1.3 9.3 0 10 0.1 10 2 0 1.9 -0.7 2 -9.3 2 -5.2 0 -9.7 -0.3 -10 -0.7z"/>
  <path d="M240.5 162.7 c-4.6 -2.6 -6.4 -6.5 -6.4 -13.9 -0.1 -4.2 0.2 -4.8 1.9 -4.8 1.7 0 2 0.7 2 4.6 0 7.2 2.5 10.8 8.4 11.9 l3.6 0.7 0 -21.3 c0 -19.2 -0.2 -21.7 -2 -25.4 -2.1 -4.3 -8 -8.6 -11.6 -8.4 -1.1 0 -1.4 0.3 -0.6 0.6 0.7 0.2 1.2 2.2 1.2 4.4 0 5.1 -2.6 5.4 -3.6 0.4 -0.7 -3.6 -4.4 -7.5 -7.3 -7.5 -1.4 0 -1.4 -0.2 -0.1 -1 0.8 -0.5 4.2 -1 7.5 -1 11.4 0 18.8 6 20 16.3 0.3 2.9 0.5 14.4 0.3 25.7 l-0.3 20.5 -4.5 0.3 c-3.2 0.1 -5.6 -0.4 -8.5 -2.1z"/>
  <path d="M276.4 163.6 c-0.3 -0.8 -0.4 -12.6 -0.2 -26.3 0.4 -27.3 0.7 -29.1 6.3 -31.8 4.4 -2 6.5 -1.9 6.5 0.4 0 1.2 -0.9 2.1 -2.6 2.5 -5.8 1.5 -5.9 1.8 -6.2 28.3 l-0.3 24.3 6 0 6.1 0 0 -28.5 c0 -27.9 0 -28.5 2 -28.5 2 0 2 0.5 1.8 30.3 l-0.3 30.2 -9.3 0.3 c-7.4 0.2 -9.3 0 -9.8 -1.2z"/>
  <path d="M311 163 c0 -1.8 0.6 -2 8 -2 l8 0 0 -28.6 c0 -26.6 0.1 -28.5 1.8 -28.2 1.6 0.3 1.7 2.6 1.7 30.3 l0 30 -9.7 0.3 c-9.3 0.3 -9.8 0.2 -9.8 -1.8z"/>
  <path d="M363.5 163.6 c-4.2 -1.8 -6.5 -4.7 -7.2 -9 -0.5 -3.2 -0.3 -3.6 1.5 -3.6 1.6 0 2.2 0.8 2.7 3.8 0.5 3.3 1.1 3.9 4.5 5 2.2 0.6 5.3 1.2 7 1.2 2.3 0 3 0.4 3 2 0 1.7 -0.7 2 -4.2 2 -2.4 -0.1 -5.6 -0.7 -7.3 -1.4z"/>
  <path d="M397 164.1 c-8.8 -2.7 -18 -12.2 -18 -18.7 0 -2.5 3.7 -1.5 4.9 1.4 1.3 2.9 3.3 5.4 7.2 8.9 l2.4 2.2 -0.3 -16.9 c-0.3 -10.2 0 -19.5 0.7 -23.6 0.7 -3.6 1 -6.8 0.7 -7.1 -1 -1 -9.6 8.1 -10.8 11.3 -1.4 3.8 -4.8 4.8 -4.8 1.4 0 -8.4 13.8 -20 23.9 -20 l2.4 0 -2.1 2.3 c-4.6 4.9 -6.3 13.4 -6.3 31.7 0 15.2 1.3 22.4 4.7 26.1 1.6 1.8 1.6 1.9 -0.2 1.8 -1 0 -3 -0.4 -4.4 -0.8z"/>
  <path d="M558.8 163.9 c-3.1 -1.8 -2 -2.9 2.9 -2.9 l4.6 0 -0.7 -11.5 c-0.5 -9.7 -0.4 -11.5 0.9 -11.5 2 0 3 5.6 3 17 l0 9.5 -4.5 0.2 c-2.5 0.2 -5.3 -0.2 -6.2 -0.8z"/>
  <path d="M589.7 163 c-8.9 -3.4 -14.9 -9.7 -16.3 -16.9 -0.6 -2.6 -0.3 -3.1 1.3 -3.1 1.3 0 2.3 1.1 3.1 3.4 1.3 3.5 6.9 9.9 9.6 10.9 1.2 0.5 1.4 -0.5 0.9 -6.4 -0.5 -5.9 -0.4 -6.9 1 -6.9 1.6 0 1.8 0.7 3.2 10.5 0.3 1.7 1.4 4.7 2.5 6.8 2.3 4.3 1.7 4.5 -5.3 1.7z"/>
  <path d="M613.5 163.3 c0.5 -1 1.6 -4.7 2.5 -8.3 2.5 -9.1 2.9 -9.9 6.1 -11.5 4.1 -2.2 6.9 -1.9 6.9 0.5 0 1.3 -0.7 2 -2 2 -3 0 -5.5 3.1 -6.8 8.3 -0.7 2.5 -1.2 4.8 -1.2 5 0 1 4.6 -0.8 6.4 -2.5 1.1 -1 3.2 -1.8 4.8 -1.8 2.4 0 2.8 -0.4 2.8 -3 0 -1.9 0.5 -3 1.4 -3 0.9 0 1.6 -1.2 1.8 -3.2 0.2 -2.6 0.8 -3.4 2.6 -3.6 2.1 -0.3 2.3 -0.1 1.7 2 -2.7 8.7 -9.1 15.4 -17.9 18.7 -7.2 2.7 -10.1 2.8 -9.1 0.4z"/>
  <path d="M660 163 c0 -1.9 0.7 -2 9.5 -2 8.8 0 9.5 0.1 9.5 2 0 1.9 -0.7 2 -9.5 2 -8.8 0 -9.5 -0.1 -9.5 -2z"/>
  <path d="M709.3 163.6 c-3.9 -1.8 -6.3 -5.3 -7 -10.6 -0.5 -3.5 -0.3 -4 1.5 -4 1.6 0 2.1 0.9 2.7 4.8 0.6 4.5 0.9 4.8 4.5 6 7.4 2.3 7 3.5 7 -19.7 0 -25.6 -0.5 -27.4 -8.1 -32 -5.1 -3.1 -5.7 -2.8 -5.1 2.9 0.6 6.8 -1.9 6.9 -3.9 0.3 -1.1 -3.7 -2.1 -5.2 -4.7 -6.4 -2.5 -1.3 -2.9 -1.8 -1.6 -2.3 2.8 -1.1 5.4 -0.6 5.4 0.9 0 0.8 0.7 1.5 1.5 1.5 0.8 0 1.5 -0.7 1.5 -1.5 0 -3.7 11.3 0.3 14.8 5.2 3.6 5.1 4.3 10.6 4 33.8 l-0.3 22 -4.5 0.2 c-2.5 0.2 -5.9 -0.4 -7.7 -1.1z"/>
  <path d="M750.8 163 c-4.6 -2.5 -5.6 -4.2 -6.4 -11.4 -0.6 -5.3 -0.5 -5.6 1.5 -5.6 1.7 0 2.1 0.6 2.1 3.6 0 7 3.1 10.4 10.5 11.1 4.4 0.5 5.5 0.9 5.3 2.2 -0.5 2.5 -8.4 2.5 -13 0.1z"/>
  <path d="M786.8 164.3 c-1.9 -0.5 -2.2 -1.2 -1.2 -3.7 0.9 -2.3 1.7 -2 3.7 1.4 1.9 3.1 1.5 3.4 -2.5 2.3z"/>
  <path d="M811 161 c2.5 -4.9 4 -5.1 4 -0.6 0 2.6 -0.5 3.5 -2.2 4 -3.8 1 -3.9 0.7 -1.8 -3.4z"/>
  <path d="M866.3 164.3 c-1.4 -0.5 -1.8 -5.3 -0.5 -5.3 0.4 0 1.6 1.4 2.5 3 1.8 3 1.2 3.7 -2 2.3z"/>
  <path d="M890 161 c2.5 -4.9 4 -5.1 4 -0.6 0 2.6 -0.5 3.5 -2.2 4 -3.8 1 -3.9 0.7 -1.8 -3.4z"/>
  <path d="M918 163 c0 -1.9 0.7 -2 9.5 -2 8.8 0 9.5 0.1 9.5 2 0 1.9 -0.7 2 -9.5 2 -8.8 0 -9.5 -0.1 -9.5 -2z"/>
  <path d="M969.5 163.1 c-5.6 -2.5 -9 -10.1 -4.5 -10.1 1.3 0 2 0.7 2 1.9 0 1 0.7 2.1 1.5 2.5 0.8 0.3 1.5 1.2 1.5 2.1 0 1.2 1.3 1.5 6 1.5 5.3 0 6 0.2 6 2 0 1.7 -0.7 2 -4.2 2 -2.4 0 -6.1 -0.9 -8.3 -1.9z"/>
  <path d="M427 126.5 c0 -41.6 0.2 -42.8 6.2 -46.5 2.4 -1.5 4.7 -2 8.3 -1.8 l5 0.3 0.3 42.8 c0.2 42.2 0.2 42.7 -1.8 42.7 -2 0 -2 -0.6 -2 -41 0 -45.5 0.5 -42.7 -6.5 -39.4 -2.1 1 -3.8 2.7 -4.4 4.6 -0.7 2 -1.1 16.2 -1.1 39.4 0 35.7 0 36.4 -2 36.4 -2 0 -2 -0.7 -2 -37.5z"/>
  <path d="M473.2 138.2 c0.3 -29.4 0.3 -29.4 8.6 -33.6 l4.7 -2.5 -6.2 -0.1 -6.2 0 2.3 -4.2 c1.3 -2.4 3.2 -6.5 4.2 -9.2 2.1 -5.8 7.3 -11.6 10.3 -11.6 l2.1 0 0 43.5 c0 42.8 0 43.5 -2 43.5 -2 0 -2 -0.7 -2 -28.5 0 -15.7 -0.3 -28.5 -0.7 -28.5 -0.4 0 -2.7 0.8 -5 1.7 -3.6 1.5 -4.3 2.4 -5.2 6 -0.6 2.3 -1.1 14.2 -1.1 26.7 0 22.2 0 22.6 -2.1 22.6 -2.1 0 -2.1 -0.2 -1.7 -25.8z m13.2 -39.2 c2.6 0 2.6 -0.1 2.6 -7.7 0 -4.8 -0.4 -7.3 -0.9 -6.7 -0.6 0.5 -2.6 4.4 -4.5 8.7 -3 6.5 -3.3 7.6 -1.7 6.7 1.1 -0.5 3.1 -1 4.5 -1z"/>
  <path d="M505.2 125.8 c0.3 -26.4 0.7 -39.1 1.5 -41 1.7 -3.8 8.3 -7 13.6 -6.6 l4.2 0.3 0.3 42.8 c0.2 42.2 0.2 42.7 -1.8 42.7 -2 0 -2 -0.6 -2 -41 0 -38.4 -0.1 -41 -1.7 -41 -3.6 0 -8.1 3.8 -9.2 7.7 -0.7 2.3 -1.1 17.4 -1.1 39.1 0 34.9 0 35.2 -2.1 35.2 -2 0 -2 -0.1 -1.7 -38.2z"/>
  <path d="M552.5 159.7 c-0.8 -1.3 -1.8 -4.4 -2.1 -7 -0.6 -4.3 -0.5 -4.7 1.4 -4.7 1.5 0 2.1 0.9 2.6 3.5 0.3 1.9 0.9 5.1 1.2 7 0.7 4.1 -0.8 4.7 -3.1 1.2z"/>
  <path d="M818 159.5 c0 -1.7 0.5 -2.5 1.8 -2.5 0.9 0 2.2 -1 2.7 -2.2 0.7 -1.6 2 -2.4 4.3 -2.6 3.3 -0.3 3.3 -0.3 1.7 2.1 -1.5 2.4 -8.3 7.7 -9.8 7.7 -0.4 0 -0.7 -1.1 -0.7 -2.5z"/>
  <path d="M897 159.5 c0 -1.7 0.5 -2.5 1.8 -2.5 0.9 0 2.2 -1 2.7 -2.2 0.7 -1.6 2 -2.4 4.3 -2.6 3.3 -0.3 3.3 -0.3 1.7 2.1 -1.5 2.4 -8.3 7.7 -9.8 7.7 -0.4 0 -0.7 -1.1 -0.7 -2.5z"/>
  <path d="M106 158.2 c0 -3.2 2.6 -6.2 5.5 -6.2 1.5 0 1.6 -0.5 0.9 -3.2 -0.4 -1.8 -0.9 -9.1 -1 -16.3 -0.2 -17.7 -0.1 -17.2 -2.4 -17.8 -1.1 -0.3 -2 -1.2 -2 -2.1 0 -0.9 -0.8 -1.6 -2 -1.6 -1.1 0 -2 -0.7 -2 -1.5 0 -0.8 -0.9 -1.5 -2 -1.5 -1.3 0 -2 0.7 -2 2 0 2.7 -1.7 2.5 -3.1 -0.2 -0.6 -1.3 -2.1 -3.4 -3.3 -4.7 l-2.1 -2.4 4.8 0.6 c8.2 1.1 16.6 6.8 20.2 13.7 1.2 2.2 1.2 3.5 0.4 5.7 -1.4 3.7 -1.4 19 0.1 22.7 0.9 2.4 0.7 3.5 -1.5 7.2 -1.4 2.3 -3.9 5.2 -5.5 6.4 l-3 2.1 0 -2.9z"/>
  <path d="M775 158 l-3.5 -2.9 3.8 -0.1 c3.5 0 3.7 0.2 3.7 3 0 1.7 -0.1 3 -0.3 3 -0.1 0 -1.8 -1.3 -3.7 -3z"/>
  <path d="M854 158 l-3.5 -2.9 3.8 -0.1 c3.5 0 3.7 0.2 3.7 3 0 1.7 -0.1 3 -0.3 3 -0.1 0 -1.8 -1.3 -3.7 -3z"/>
  <path d="M782.6 152.8 c-0.9 -7.9 -0.8 -9.8 0.8 -9.8 1.5 0 2 1.7 3.1 10.3 0.6 4.2 0.4 4.7 -1.3 4.7 -1.6 0 -2 -1 -2.6 -5.2z"/>
  <path d="M862 156.3 c0 -1 -0.3 -4.2 -0.6 -7 -0.6 -4.4 -0.4 -5.3 0.9 -5.3 1.5 0 2 1.2 3.2 9.8 0.6 3.8 0.5 4.2 -1.4 4.2 -1.3 0 -2.1 -0.6 -2.1 -1.7z"/>
  <path d="M123 153.3 c-1.9 -2.4 -2.1 -3.6 -1.6 -8.3 0.9 -7.7 1.6 -10 3.1 -10 0.9 0 1.2 2.7 1.2 10.5 0 5.8 -0.1 10.5 -0.3 10.5 -0.1 0 -1.2 -1.2 -2.4 -2.7z"/>
  <path d="M135 152.5 c0 -4 2.4 -4.9 3.4 -1.2 1 3.7 0.7 4.7 -1.4 4.7 -1.6 0 -2 -0.7 -2 -3.5z"/>
  <path d="M768.6 149.6 c-2.1 -4.5 -2 -6.6 0.3 -6.6 2 0 3.1 2.5 3.1 7.3 0 3.7 -1.4 3.4 -3.4 -0.7z"/>
  <path d="M848 150.3 c-0.8 -1.6 -1.6 -3.1 -1.8 -3.5 -0.2 -0.5 0.8 -0.8 2.2 -0.8 2.3 0 2.6 0.4 2.6 3.5 0 4.2 -1.2 4.5 -3 0.8z"/>
  <path d="M189 150.5 c0 -0.8 0.6 -3.6 1.3 -6.2 1 -3.7 1 -4.7 0 -5 -0.7 -0.3 -1.3 -1.3 -1.3 -2.4 0 -1.4 0.7 -1.9 2.5 -1.9 2.4 0 2.5 0.3 2.5 5.4 0 8.1 -0.9 11.6 -3.1 11.6 -1.1 0 -1.9 -0.7 -1.9 -1.5z"/>
  <path d="M962.6 149.8 c-0.3 -1.3 -0.6 -10.1 -0.6 -19.5 0 -16.6 0.1 -17.3 2 -17.3 1.9 0 2 0.7 2 19.5 0 15.9 -0.3 19.5 -1.4 19.5 -0.7 0 -1.6 -1 -2 -2.2z"/>
  <path d="M759.6 147.3 c-1 -6.4 -0.7 -10.3 0.8 -10.3 1.5 0 2.1 1.7 3.1 9.3 0.7 4.2 0.5 4.7 -1.3 4.7 -1.5 0 -2.1 -0.9 -2.6 -3.7z"/>
  <path d="M814 148.8 c0 -3 1.3 -5.8 2.6 -5.8 0.9 0 1.4 1.2 1.4 3.5 0 2.8 -0.4 3.5 -2 3.5 -1.1 0 -2 -0.6 -2 -1.2z"/>
  <path d="M893 148.3 c0 -3.4 1.2 -6.3 2.6 -6.3 1 0 1.4 1.3 1.4 4 0 3.3 -0.3 4 -2 4 -1.2 0 -2 -0.7 -2 -1.7z"/>
  <path d="M370.5 142.4 c-0.4 -3.7 -0.5 -10.8 -0.1 -15.9 0.7 -9.5 0 -13.1 -3.5 -16.6 -1.2 -1.2 -7 -3.9 -8.5 -3.9 -0.1 0 0 2.7 0.3 6 0.5 4.9 0.3 6 -0.9 6 -1.1 0 -2 -1.9 -2.9 -5.7 -1.2 -4.9 -1.9 -6 -4.7 -7.4 -2.5 -1.3 -2.9 -1.8 -1.6 -2.3 2.8 -1.1 5.4 -0.6 5.4 0.9 0 0.8 0.5 1.5 1 1.5 0.6 0 1 -0.7 1 -1.6 0 -1.4 0.7 -1.5 4.2 -1 5.5 0.9 9.8 3.6 12.3 7.8 1.8 3 2 5.1 2 21 0 16 -0.2 17.8 -1.7 17.8 -1.3 0 -1.8 -1.4 -2.3 -6.6z"/>
  <path d="M134 134 c0 -12.2 0.1 -13 2 -13 1.8 0 1.9 0.8 1.9 13 0 12.3 -0.1 13 -1.9 13 -1.9 0 -2 -0.7 -2 -13z"/>
  <path d="M830.4 141.8 c0.3 -2.9 0.6 -7.2 0.6 -9.5 0 -3.1 0.4 -4.3 1.4 -4.3 1.9 0 2.9 4.8 2.1 9.7 -1.4 8.4 -1.7 9.3 -3.2 9.3 -1.3 0 -1.5 -0.9 -0.9 -5.2z"/>
  <path d="M909 143.5 c0 -2.8 0.4 -3.5 2 -3.5 2.1 0 2.4 1 1.4 4.8 -1 3.6 -3.4 2.7 -3.4 -1.3z"/>
  <path d="M167 145 c0 -1.2 3.3 -3 5.4 -3 0.9 0 1.6 0.9 1.6 2 0 1.6 -0.7 2 -3.5 2 -1.9 0 -3.5 -0.4 -3.5 -1z"/>
  <path d="M844.4 137.5 c-0.6 -3.2 -0.3 -6 1.2 -13.7 0.3 -1.6 1.2 -2.8 2.1 -2.8 1.3 0 1.5 0.9 0.9 5.3 -0.3 2.8 -0.6 7.3 -0.6 10 0 5.8 -2.5 6.7 -3.6 1.2z"/>
  <path d="M910 134 c0 -5.5 2.3 -7.1 3.4 -2.5 0.8 3.3 -0.3 7.5 -2 7.5 -1 0 -1.4 -1.4 -1.4 -5z"/>
  <path d="M99.6 132.8 c-0.3 -1.3 -0.6 -3.8 -0.6 -5.5 0 -2.6 0.4 -3.3 2 -3.3 1.8 0 2 0.7 2 5.5 0 4 -0.4 5.5 -1.4 5.5 -0.7 0 -1.6 -1 -2 -2.2z"/>
  <path d="M122.6 130.7 c-0.3 -1.3 -0.8 -4.7 -1.1 -7.7 -0.6 -5.1 -0.4 -5.8 2.4 -9 l3 -3.5 0.1 3.8 c0 2 -0.5 3.7 -1.1 3.7 -0.7 0 -0.9 2.3 -0.4 7.5 0.6 6.3 0.5 7.5 -0.8 7.5 -0.8 0 -1.7 -1 -2.1 -2.3z"/>
  <path d="M759.3 122.3 c0.1 -6.2 -0.2 -8.7 -1 -9 -0.7 -0.3 -1.3 -1.3 -1.3 -2.4 0 -1.2 -0.7 -1.9 -1.9 -1.9 -1.1 0 -2.1 -0.4 -2.3 -0.9 -0.1 -0.5 -2.1 -1.2 -4.3 -1.5 -2.2 -0.3 -3.4 -0.3 -2.7 0 0.6 0.3 1.2 2.1 1.2 4 0 4.4 -2.4 4.5 -3.6 0.2 -0.6 -1.9 -2.3 -4.2 -4.2 -5.5 -4 -2.6 -3.2 -3.2 4.4 -3.2 14.5 0.2 22 8.9 19.4 22.6 -0.5 3.1 -1 5.8 -1 6 0 0.2 -0.7 0.3 -1.5 0.3 -1.1 0 -1.4 -1.6 -1.2 -8.7z"/>
  <path d="M565.1 123.3 c0.2 -7.8 -1.7 -14.3 -4.3 -14.3 -0.9 0 -1.8 -0.4 -2 -0.9 -0.1 -0.5 -2.1 -1.2 -4.3 -1.5 -2.2 -0.3 -3.4 -0.3 -2.7 0 0.6 0.3 1.2 2.3 1.2 4.5 0 5.1 -2.6 5.4 -3.6 0.4 -0.7 -3.6 -4.4 -7.5 -7.3 -7.5 -1.4 0 -1.4 -0.2 -0.1 -1 0.8 -0.5 4.3 -0.9 7.7 -0.9 14.2 0.1 21.9 9.2 19.2 22.7 -0.7 3.4 -1.5 5.2 -2.5 5.2 -1.2 0 -1.4 -1.4 -1.3 -6.7z"/>
  <path d="M165.5 123.1 c-1.1 -10.5 -1.7 -13 -3.5 -16.5 -2.2 -4.5 -1.3 -4.6 6.7 -0.6 6.2 3.1 15.8 12.1 15.1 14.2 -0.2 0.6 -4.3 2.8 -9 4.9 l-8.7 3.7 -0.6 -5.7z m5.9 -1.3 c0.6 -0.4 2.1 -0.8 3.2 -0.8 2.4 0 3.4 -1.7 3.4 -5.6 0 -2.1 -0.5 -2.4 -3.5 -2.4 -1.9 0 -3.5 -0.4 -3.5 -1 0 -0.5 -0.7 -1 -1.6 -1 -1.4 0 -1.6 0.8 -1 4.6 0.3 2.6 0.6 5.9 0.7 7.3 0 1.6 0.3 2 0.6 1.1 0.3 -0.8 1.1 -1.8 1.7 -2.2z"/>
  <path d="M619 126 c0 -2.7 0.4 -2.9 4.5 -3.6 2.5 -0.3 4.5 -1 4.5 -1.4 0 -0.5 0.9 -1.2 2.1 -1.5 l2.1 -0.7 -2.1 -1.5 c-1.2 -0.8 -2.1 -2.3 -2.1 -3.4 0 -1.4 -0.7 -1.9 -2.5 -1.9 -2 0 -2.5 -0.5 -2.5 -2.5 0 -1.4 0.4 -2.5 0.9 -2.5 1.5 0 9 6.4 11.6 10 l2.6 3.5 -7.3 3.4 c-12.2 5.6 -11.8 5.5 -11.8 2.1z"/>
  <path d="M189 122 c0 -3.3 0.3 -4 2 -4 1.7 0 2 0.7 2 4 0 3.3 -0.3 4 -2 4 -1.7 0 -2 -0.7 -2 -4z"/>
  <path d="M573 123.9 c0 -3.3 5 -11.7 8.7 -14.5 3.9 -3 11.1 -6.3 13.6 -6.4 1.6 0 1.6 0.2 0.3 2.3 -1.4 2.2 -2.9 7.6 -4.1 15 -0.4 2.5 -1.1 3.7 -2.2 3.7 -1.4 0 -1.5 -1.1 -1 -7.7 0.3 -4.3 0.4 -7.2 0.1 -6.5 -0.3 0.6 -1.4 1.2 -2.5 1.2 -1 0 -1.9 0.7 -1.9 1.5 0 0.8 -0.9 2 -2 2.7 -1.1 0.7 -2 1.8 -2 2.5 0 0.7 -0.7 1.3 -1.5 1.3 -1 0 -1.5 1.1 -1.5 3.5 0 2.8 -0.4 3.5 -2 3.5 -1.4 0 -2 -0.7 -2 -2.1z"/>
  <path d="M814.6 123.8 c-1 -3.8 -0.7 -4.8 1.4 -4.8 1.6 0 2 0.7 2 3.5 0 4 -2.4 4.9 -3.4 1.3z"/>
  <path d="M782 121.5 c0 -2.8 0.4 -3.5 2 -3.5 2.1 0 2.4 1 1.4 4.8 -1 3.6 -3.4 2.7 -3.4 -1.3z"/>
  <path d="M829 121.5 c0 -3.9 1.4 -4.6 3 -1.6 1.6 3.1 1.2 5.1 -1 5.1 -1.6 0 -2 -0.7 -2 -3.5z"/>
  <path d="M893.6 122.8 c-1 -3.8 -0.7 -4.8 1.4 -4.8 1.6 0 2 0.7 2 3.5 0 4 -2.4 4.9 -3.4 1.3z"/>
  <path d="M908 122 c0 -2 -0.5 -3 -1.5 -3 -1.1 0 -1.5 -1.1 -1.5 -3.6 0 -3.2 0.2 -3.5 1.6 -2.3 1.9 1.6 5.4 8.3 5.4 10.4 0 0.8 -0.9 1.5 -2 1.5 -1.6 0 -2 -0.7 -2 -3z"/>
  <path d="M98.6 120.8 c-1.1 -4.2 -0.7 -5.8 1.4 -5.8 1.7 0 2 0.7 2 4 0 4.5 -2.3 5.7 -3.4 1.8z"/>
  <path d="M861 119 c0 -3.3 0.3 -4 2 -4 2.1 0 2.5 1.6 1.4 5.8 -1.1 3.9 -3.4 2.7 -3.4 -1.8z"/>
  <path d="M311 117 c0 -6.7 5.1 -13 10.5 -13 2.2 0 1.9 3.8 -0.5 4.5 -2.9 0.9 -6 5.4 -6 8.6 0 2.2 -0.5 2.9 -2 2.9 -1.6 0 -2 -0.7 -2 -3z"/>
  <path d="M618.5 116.3 c-0.3 -2.1 -1.4 -5.9 -2.5 -8.5 -1 -2.7 -1.6 -4.8 -1.4 -4.8 0.3 0 1.9 0.6 3.7 1.3 3.1 1.4 3.2 1.5 3.5 8.5 0.2 5.8 0 7.2 -1.2 7.2 -1 0 -1.7 -1.4 -2.1 -3.7z"/>
  <path d="M135 115.5 c0 -2.8 0.4 -3.5 2 -3.5 2.1 0 2.4 1 1.4 4.8 -1 3.6 -3.4 2.7 -3.4 -1.3z"/>
  <path d="M813.4 114.3 c-0.4 -2.1 -1.5 -5.5 -2.6 -7.5 -1.7 -3.6 -1.7 -3.8 -0.1 -3.8 4.3 0.1 14.1 5.9 17 10 1.3 1.9 1.2 2 -1.7 2 -2.3 0 -3.3 -0.5 -3.7 -2 -0.3 -1.1 -1.4 -2 -2.4 -2 -1.1 0 -1.9 -0.7 -1.9 -1.5 0 -0.8 -0.7 -1.5 -1.5 -1.5 -0.8 0 -1.5 0.7 -1.5 1.5 0 0.8 0.5 1.5 1 1.5 0.6 0 1 1.6 1 3.5 0 4.9 -2.7 4.7 -3.6 -0.2z"/>
  <path d="M919.3 114.8 c1.9 -4.6 3.7 -4.8 3.7 -0.4 0 3.2 -0.3 3.6 -2.5 3.6 -2.4 0 -2.5 -0.1 -1.2 -3.2z"/>
  <path d="M660 115 c0 -3.4 2.8 -7.9 6 -9.5 3.9 -2 6 -1.9 6 0.3 0 1.8 -3.7 4.2 -6.5 4.2 -1 0 -1.5 1.1 -1.5 3.5 0 2.8 -0.4 3.5 -2 3.5 -1.3 0 -2 -0.7 -2 -2z"/>
  <path d="M850.5 113.6 c0.9 -1.4 2.7 -3.2 4.1 -4.1 2.3 -1.5 2.4 -1.5 2.4 1.3 0 3.6 -1.6 5.2 -5.2 5.2 -2.8 0 -2.8 -0.1 -1.3 -2.4z"/>
  <path d="M977 112.5 c0 -3.9 1.4 -4.6 3 -1.6 1.6 3.1 1.2 5.1 -1 5.1 -1.6 0 -2 -0.7 -2 -3.5z"/>
  <path d="M772.3 113 c2.9 -4.1 12.8 -9.9 17 -10 1.7 0 1.7 0.1 0.1 2.9 -1.5 2.5 -2.2 2.9 -4.6 2.4 -2.1 -0.4 -2.8 -0.2 -2.8 1.1 0 0.9 -0.8 1.6 -1.9 1.6 -1 0 -2.1 0.9 -2.4 2 -0.4 1.5 -1.4 2 -3.7 2 -2.9 0 -3 -0.1 -1.7 -2z"/>
  <path d="M890 106.9 l-2.1 -4.1 3.3 0.7 c4.2 0.9 10 3.9 11.7 5.9 1.2 1.4 0.9 1.6 -2.3 1.6 -2.5 0 -3.6 -0.4 -3.6 -1.5 0 -0.8 -0.7 -1.5 -1.5 -1.5 -0.8 0 -1.5 0.7 -1.5 1.5 0 2.8 -1.9 1.5 -4 -2.6z"/>
  <path d="M129 109.1 c0 -0.5 1.9 -1.8 4.3 -3 l4.2 -2.1 0.3 2.1 c0.2 1.2 -0.2 2.6 -1 3 -1.7 1.2 -7.8 1.1 -7.8 0z"/>
  <path d="M862.8 108.3 c-1.6 -0.2 -2.8 -0.9 -2.8 -1.4 0 -1.1 6.1 -3.9 8.5 -3.9 1.4 0 1.4 0.3 -0.2 3 -0.9 1.7 -2 2.9 -2.3 2.9 -0.3 -0.1 -1.7 -0.4 -3.2 -0.6z"/>
  <path d="M139.2 105.8 c0.2 -1.5 1.1 -2.4 2.7 -2.6 2.3 -0.4 2.3 -0.4 0.5 2.2 -2.4 3.2 -3.6 3.3 -3.2 0.4z"/>
  <path d="M969.3 107.3 c-0.7 -0.2 -1.3 -1.3 -1.3 -2.4 0 -2.7 3.3 -2.4 6.7 0.6 l2.8 2.4 -3.5 0 c-1.9 0 -4.1 -0.3 -4.7 -0.6z"/>
  <path d="M189.4 91.3 c0.7 -6.7 2.9 -10.2 7.4 -12 3.1 -1.3 3.2 -1.2 3.2 1.2 0 2 -0.6 2.7 -2.9 3.1 -2.4 0.5 -3 1.2 -3.5 4.3 -0.3 2 -0.6 4.8 -0.6 6.4 0 2.1 -0.5 2.7 -2.1 2.7 -2 0 -2.1 -0.3 -1.5 -5.7z"/>
  <path d="M853 93.8 c0 -2.1 5.3 -6.8 7.7 -6.8 1.3 0 2.3 0.3 2.3 0.8 0 1.2 -10 7.3 -10 6z"/>
  <path d="M279.8 92.4 c-2.8 -1.5 -5.8 -6.1 -5.8 -8.9 0 -2.4 3.6 -1.7 4.8 0.9 3.5 7.8 13.6 6.7 14.8 -1.6 0.5 -3.6 -0.6 -5.5 -4.6 -8.1 -3.7 -2.3 -9.6 -0.4 -10.4 3.5 -0.4 2 -1.2 2.8 -2.6 2.8 -5.1 0 0.4 -9.2 6.6 -10.9 7.7 -2.1 15.4 3.4 15.4 11.1 0 9.8 -9.8 15.8 -18.2 11.2z"/>
  <path d="M50 89.6 c0 -4.2 3.6 -9.6 6.4 -9.6 1.3 0 0.5 5.1 -0.9 5.6 -0.8 0.4 -1.5 1.7 -1.5 3 0 1.7 -0.6 2.4 -2 2.4 -1.1 0 -2 -0.6 -2 -1.4z"/>
  <path d="M913 86.5 c0 -5.3 1.3 -4.6 4.8 2.8 0.2 0.4 -0.8 0.7 -2.2 0.7 -2.3 0 -2.6 -0.4 -2.6 -3.5z"/>
  <path d="M868 83.5 c0 -2.4 2.2 -3.5 7.3 -3.5 4.5 0 3.1 2.5 -2.3 4.2 l-5 1.6 0 -2.3z"/>
  <path d="M205 80 c0 -1.3 0.7 -2 2 -2 1.3 0 2 0.7 2 2 0 1.3 -0.7 2 -2 2 -1.3 0 -2 -0.7 -2 -2z"/>
  <path d="M884 80 c0 -1.6 0.7 -2 3.5 -2 2.8 0 3.5 0.4 3.5 2 0 1.6 -0.7 2 -3.5 2 -2.8 0 -3.5 -0.4 -3.5 -2z"/>
  <path d="M902.2 79.1 c-0.8 -0.4 -1.2 -1.8 -1 -3 l0.3 -2.1 4.3 2.1 c2.3 1.2 4.2 2.5 4.2 3 0 1.1 -6.1 1.2 -7.8 0z"/>
  <path d="M890 74 c0 -2.1 1 -2.4 4.8 -1.4 3.6 1 2.7 3.4 -1.3 3.4 -2.8 0 -3.5 -0.4 -3.5 -2z"/>
  <path d="M223.5 57.4 c-1.6 -1.4 -5.6 -4.1 -8.7 -6 -3.2 -2 -5.8 -4.2 -5.8 -5 0 -1.6 -1.6 -1.9 -2.2 -0.5 -0.2 0.5 -1.7 0.3 -3.5 -0.4 -3 -1.3 -3.2 -1.7 -2.6 -4.7 0.3 -1.8 0.7 -3.5 0.9 -3.7 0.2 -0.2 2.3 0.9 4.6 2.5 5.1 3.5 21.5 19 20.8 19.7 -0.3 0.3 -1.8 -0.6 -3.5 -1.9z"/>
  <path d="M151.7 55.8 c0.9 -4.9 4.2 -12.4 6.4 -14.4 1 -0.9 1.9 -1.3 1.9 -0.7 0 0.5 1.4 0.8 3 0.5 3.8 -0.5 3.9 -2.2 0.3 -2.2 l-2.8 -0.1 2.8 -2.4 c2.5 -2.2 11.1 -5.5 14.4 -5.5 0.7 0 1.3 0.9 1.3 2 0 1.2 -0.7 2 -1.7 2 -1 0 -3.6 0.9 -5.8 1.9 l-4 1.9 5.8 -0.5 c4.8 -0.5 5.7 -0.3 5.7 1 0 1.1 -1.2 1.8 -3.7 2.2 -10.1 1.7 -18.4 7 -21.7 14 -2.1 4.4 -2.7 4.4 -1.9 0.3z"/>
  <path d="M193 42.5 c-0.8 -0.2 -3.2 -0.6 -5.2 -1 -2.4 -0.4 -3.8 -1.1 -3.8 -2 0 -1.7 2.2 -1.8 9.4 -0.9 3.6 0.5 4.6 1.1 4.6 2.5 0 1.8 -1.2 2.1 -5 1.4z"/>
  <path d="M187.3 35.7 c-3.2 -0.8 -4.3 -1.6 -4.3 -3 0 -1.7 0.5 -1.8 4.3 -1.2 5.4 0.9 10.7 3.1 10.7 4.4 0 1.3 -4.9 1.2 -10.7 -0.2z"/>
 </g>
 <g fill="#065c25">
  <path d="M613.9 163.2 c0.6 -1.1 1.7 -5.1 2.6 -8.9 2.3 -10.1 4.1 -11.5 15.2 -12.1 l8.6 -0.5 -0.7 3.4 c-1.5 7.9 -9.5 15.3 -19.6 18.3 -6.8 2 -7.3 2 -6.1 -0.2z m8.1 -4.2 c0 -0.5 1.4 -1 3 -1 2.3 0 3 -0.4 3 -2 0 -1.1 0.7 -2 1.5 -2 0.8 0 1.5 -0.7 1.5 -1.5 0 -0.7 0.6 -1.8 1.3 -2.2 0.8 -0.4 1.6 -1.6 2 -2.5 0.5 -1.5 0.1 -1.8 -2.7 -1.8 -6.7 0 -9.4 1 -10 3.9 -0.3 1.4 -1 4.3 -1.5 6.4 -0.7 2.9 -0.6 3.7 0.5 3.7 0.8 0 1.4 -0.4 1.4 -1z"/>
  <path d="M810.3 162.7 c1.6 -2.5 3 -7.5 4.2 -14.9 0.4 -2.5 1.1 -3.8 2.1 -3.8 1.4 0 1.5 1 0.9 7 l-0.7 7 3.1 0 c1.7 0 3.1 0.4 3.1 0.9 0 1.1 -7.2 4.6 -11.4 5.6 -2.9 0.6 -2.9 0.6 -1.3 -1.8z"/>
  <path d="M862.3 162.9 c-2.8 -1.1 -7.1 -3.9 -9.5 -6.2 l-4.3 -4.2 2.8 -0.3 c3.1 -0.4 5.7 1.2 5.7 3.4 0 0.8 0.9 1.4 2 1.4 1.1 0 2 0.5 2 1 0 0.6 0.5 1 1 1 0.6 0 1 -0.9 1 -2 0 -1.1 0.7 -2 1.5 -2 0.8 0 1.5 0.6 1.5 1.3 0 0.7 0.9 2.9 1.9 5 2.2 4.3 1.7 4.4 -5.6 1.6z"/>
  <path d="M889.6 162 c1 -1.6 2.7 -3.1 3.9 -3.1 1.8 -0.1 1.8 -0.2 0.2 -0.6 -1.6 -0.4 -1.7 -1.1 -1.2 -4.6 1.2 -8.4 1.7 -9.7 3.2 -9.7 1.3 0 1.4 1.1 0.8 7 l-0.7 7 3.1 0 c1.7 0 3.1 0.4 3.1 0.9 0 1.1 -7.2 4.6 -11.3 5.5 l-2.9 0.7 1.8 -3.1z"/>
  <path d="M240.4 162.4 c-4.8 -2.4 -7.4 -9.4 -3.4 -9.4 1.2 0 2 0.7 2 1.6 0 1.8 2.3 4.4 3.9 4.4 0.6 0 1.1 1.1 1.1 2.5 0 1.4 -0.1 2.5 -0.2 2.5 -0.2 0 -1.7 -0.7 -3.4 -1.6z"/>
  <path d="M362.8 162.9 c-2.9 -1.6 -2.1 -2.9 1.7 -2.9 2.8 0 3.5 0.4 3.5 2 0 2.2 -2.4 2.6 -5.2 0.9z"/>
  <path d="M394.2 162.2 c-5.1 -2.1 -10.6 -7.1 -13.2 -12.3 -2.6 -5 -2.9 -24.9 -0.4 -30.7 3 -7.2 10.5 -13.1 19.3 -15.1 l4.1 -0.9 -2 2.6 c-4.2 5.3 -5.5 12.5 -5.5 31.2 0 15.9 0.2 17.9 2.2 22.3 2.4 5.2 2.1 5.5 -4.5 2.9z"/>
  <path d="M428 126.1 c0 -24.2 0.4 -38.9 1.1 -40.9 1.3 -3.8 6.1 -6.2 12.3 -6.2 l4.6 0 0 42.5 0 42.5 -9 0 -9 0 0 -37.9z"/>
  <path d="M474 139.8 c0 -30.1 0.2 -31.1 7.8 -34.6 l5.7 -2.7 -6.3 -0.3 c-3.5 -0.2 -6.2 -0.6 -6 -1 0.2 -0.4 2.3 -4.7 4.7 -9.7 4.6 -9.8 7.4 -13.5 10.3 -13.5 1.7 0 1.8 2 1.8 43 l0 43 -9 0 -9 0 0 -24.2z"/>
  <path d="M506 127.3 c0 -22.8 0.4 -38.3 1.1 -40.6 1.3 -4.9 5.7 -7.7 12.2 -7.7 l4.7 0 0 42.5 0 42.5 -9 0 -9 0 0 -36.7z"/>
  <path d="M555.9 162.5 c-4.7 -2.6 -5.3 -5.3 -5.7 -28.7 -0.4 -21.6 -0.4 -21.8 1.7 -21.8 2.1 0 2.1 0.4 2.1 19.4 0 23.7 0.2 24.9 4.6 27.2 1.9 1 3.4 2.6 3.4 3.6 0 2.2 -2.5 2.3 -6.1 0.3z"/>
  <path d="M591.3 163.2 c-1.3 -0.8 -3.2 -8.1 -3.3 -12.4 0 -4.9 2.7 -3.3 3.9 2.2 0.6 2.8 1.8 6.4 2.6 8 1.4 2.8 1.4 3 -0.2 3 -1 0 -2.3 -0.4 -3 -0.8z"/>
  <path d="M707.4 162.1 c-3.7 -2.3 -5.2 -6.1 -2.4 -6.1 2.8 0 8.9 4.3 9 6.3 0 2.2 -2.7 2.2 -6.6 -0.2z"/>
  <path d="M750.4 162.4 c-4.8 -2.4 -7.4 -9.4 -3.4 -9.4 1.2 0 2 0.7 2 1.6 0 1.8 2.3 4.4 3.9 4.4 0.6 0 1.1 1.1 1.1 2.5 0 1.4 -0.1 2.5 -0.2 2.5 -0.2 0 -1.7 -0.7 -3.4 -1.6z"/>
  <path d="M760 157.3 c0 -3.8 -0.3 -9.2 -0.6 -12 -0.6 -4.4 -0.4 -5.3 0.9 -5.3 2 0 3.7 7.8 3.7 17 0 6.3 -0.2 7 -2 7 -1.8 0 -2 -0.7 -2 -6.7z"/>
  <path d="M781.4 162.1 c-2.3 -1 -5.8 -3.6 -8 -5.7 l-3.9 -3.9 2.8 -0.3 c3.1 -0.4 5.7 1.2 5.7 3.4 0 0.8 0.9 1.4 2 1.4 1.1 0 2 0.5 2 1 0 0.6 0.5 1 1 1 0.6 0 1 -0.9 1 -2 0 -3.3 2.6 -2.3 3.7 1.5 0.9 2.8 0.8 3.5 -0.2 3.5 -0.7 0 -1.5 0.4 -1.7 1 -0.2 0.5 -2.1 0.1 -4.4 -0.9z"/>
  <path d="M968.8 162.9 c-2.9 -1.6 -2.1 -2.9 1.7 -2.9 2.8 0 3.5 0.4 3.5 2 0 2.2 -2.4 2.6 -5.2 0.9z"/>
  <path d="M580.8 157.3 c-6.3 -5.8 -7.8 -9.9 -7.8 -22.3 0 -5.8 0.5 -12.1 1 -14.1 2 -7.2 11.2 -15.1 20.1 -17.2 l2.6 -0.7 -2.3 4.7 c-1.3 2.5 -2.4 5.6 -2.4 6.7 0 3.8 -1.2 6.6 -2.8 6.6 -1.2 0 -1.4 -1 -0.9 -5.5 0.3 -3.1 0.2 -5.5 -0.4 -5.5 -0.5 0 -0.9 0.5 -0.9 1 0 0.6 -1.3 1 -3 1 -2.7 0 -3 0.3 -3 3 0 1.7 -0.4 3 -0.8 3 -0.5 0 -1.5 1.7 -2.2 3.9 -1.6 5 -1 26.3 0.8 26.9 0.6 0.2 1.2 1.9 1.2 3.8 0 3.2 0.2 3.4 3.5 3.4 3.1 0 3.5 0.3 3.5 2.5 0 3.4 -1.3 3.1 -6.2 -1.2z"/>
  <path d="M98.5 153.8 c1.2 -8.6 1.7 -9.8 3.2 -9.8 1.3 0 1.5 0.9 0.9 5.3 -0.3 2.8 -0.6 6 -0.6 7 0 1.1 -0.8 1.7 -2.1 1.7 -1.9 0 -2 -0.4 -1.4 -4.2z"/>
  <path d="M356.6 154.8 c-1 -3.8 -0.7 -4.8 1.4 -4.8 1.6 0 2 0.7 2 3.5 0 4 -2.4 4.9 -3.4 1.3z"/>
  <path d="M702.6 152.8 c-1.2 -4.8 -0.7 -7.8 1.4 -7.8 1.7 0 2 0.7 2 5 0 3.6 -0.4 5 -1.4 5 -0.7 0 -1.6 -1 -2 -2.2z"/>
  <path d="M744.6 149.8 c-0.3 -1.3 -0.6 -10.5 -0.6 -20.5 0 -20.1 -0.6 -22.8 -5.5 -24.9 l-3 -1.2 3.8 -0.7 c10.9 -2.1 21.6 3.6 23.3 12.4 0.6 2.6 0.4 3.1 -1.4 3.1 -1.3 0 -2.2 -0.9 -2.6 -2.5 -0.7 -2.6 -5 -7.5 -6.6 -7.5 -0.6 0 -1 -0.4 -1 -1 0 -0.5 -0.8 -1 -1.7 -1 -1.7 0 -1.8 1.6 -1.5 23 0.3 19.8 0.2 23 -1.1 23 -0.8 0 -1.7 -1 -2.1 -2.2z"/>
  <path d="M782 148.5 c0 -4 2.4 -4.9 3.4 -1.2 1 3.7 0.7 4.7 -1.4 4.7 -1.6 0 -2 -0.7 -2 -3.5z"/>
  <path d="M861 148.5 c0 -4 2.4 -4.9 3.4 -1.2 1 3.7 0.7 4.7 -1.4 4.7 -1.6 0 -2 -0.7 -2 -3.5z"/>
  <path d="M234.6 147.8 c-0.3 -1.3 -0.6 -9.8 -0.6 -19 0 -16.1 0.1 -16.8 2 -16.8 1.9 0 2 0.7 2 19 0 15.5 -0.3 19 -1.4 19 -0.7 0 -1.6 -1 -2 -2.2z"/>
  <path d="M829 146.5 c0 -2.8 0.4 -3.5 2 -3.5 2.2 0 2.6 2 1 5.1 -1.6 3 -3 2.3 -3 -1.6z"/>
  <path d="M908 146.5 c0 -2.8 0.4 -3.5 2 -3.5 2.2 0 2.6 2 1 5.1 -1.6 3 -3 2.3 -3 -1.6z"/>
  <path d="M564.5 140.5 c-1 -9.3 0.3 -19.5 2.4 -19.5 1.4 0 1.6 1.6 1.6 13 0 11.4 -0.2 13 -1.6 13 -1.3 0 -1.8 -1.4 -2.4 -6.5z"/>
  <path d="M845.6 144.8 c-1 -3.8 -0.7 -4.8 1.4 -4.8 1.6 0 2 0.7 2 3.5 0 4 -2.4 4.9 -3.4 1.3z"/>
  <path d="M370 140.5 c0 -4 2.4 -4.9 3.4 -1.2 1 3.7 0.7 4.7 -1.4 4.7 -1.6 0 -2 -0.7 -2 -3.5z"/>
  <path d="M191 140.5 c0 -1.4 -0.4 -2.5 -1 -2.5 -0.5 0 -1 -0.4 -1 -1 0 -0.5 1.4 -1 3 -1 2.8 0 3 0.3 3 3.5 0 2.8 -0.4 3.5 -2 3.5 -1.5 0 -2 -0.7 -2 -2.5z"/>
  <path d="M587 133 c0 -7.3 0.2 -8 2 -8 1.8 0 2 0.7 2 8 0 7.3 -0.2 8 -2 8 -1.8 0 -2 -0.7 -2 -8z"/>
  <path d="M844.6 136.5 c-0.8 -3.3 0.3 -7.5 2 -7.5 1 0 1.4 1.4 1.4 5 0 5.5 -2.3 7.1 -3.4 2.5z"/>
  <path d="M758 134 c0 -3.3 0.3 -4 2 -4 1.7 0 2 0.7 2 4 0 3.3 -0.3 4 -2 4 -1.7 0 -2 -0.7 -2 -4z"/>
  <path d="M370.4 125.8 c0.3 -2.9 0.6 -6.8 0.6 -8.5 0 -4.2 2.6 -4.4 3.5 -0.3 1 4.3 -1.3 14 -3.2 14 -1.3 0 -1.5 -0.9 -0.9 -5.2z"/>
  <path d="M759 125 c0 -3.3 0.3 -4 2 -4 2.1 0 2.5 1.6 1.4 5.8 -1.1 3.9 -3.4 2.7 -3.4 -1.8z"/>
  <path d="M909 125.5 c0 -4 2.4 -4.9 3.4 -1.2 1 3.7 0.7 4.7 -1.4 4.7 -1.6 0 -2 -0.7 -2 -3.5z"/>
  <path d="M619.6 126.5 c-0.3 -0.9 -0.6 -3.2 -0.6 -5.1 0 -2.7 0.4 -3.4 2 -3.4 1.5 0 2 0.7 2 2.5 0 2.9 0.6 3.1 2.6 1 0.9 -0.8 2.6 -1.5 4 -1.5 2 0 2.4 -0.5 2.4 -3.2 l0.1 -3.3 2.4 2.8 c1.4 1.5 2.5 3.1 2.5 3.5 0 0.6 -10.6 6 -15.4 7.8 -0.8 0.3 -1.6 -0.2 -2 -1.1z"/>
  <path d="M767 124.8 c0 -3 1.3 -5.8 2.6 -5.8 0.9 0 1.4 1.2 1.4 3.5 0 2.8 -0.4 3.5 -2 3.5 -1.1 0 -2 -0.6 -2 -1.2z"/>
  <path d="M814.6 122.8 c-1 -3.8 -0.7 -4.8 1.4 -4.8 1.6 0 2 0.7 2 3.5 0 4 -2.4 4.9 -3.4 1.3z"/>
  <path d="M846 123.4 c0 -2.1 1.8 -5.4 3 -5.4 0.6 0 1 1.6 1 3.5 0 2.8 -0.4 3.5 -2 3.5 -1.1 0 -2 -0.7 -2 -1.6z"/>
  <path d="M718 122.3 c0 -2.6 -3.2 -11.3 -4.2 -11.3 -0.4 0 -0.8 -0.9 -0.8 -2 0 -1.5 -0.7 -2 -2.7 -2 -1.6 0 -3.9 -0.3 -5.3 -0.5 -1.4 -0.3 -1.9 -0.3 -1.2 0.1 1.7 0.8 1.6 7.4 -0.2 7.4 -0.8 0 -1.7 -1.2 -2.1 -2.7 -0.8 -3.4 -4.2 -7.3 -6.4 -7.4 -0.9 0 -0.5 -0.5 0.9 -1.1 3.7 -1.4 12.4 -0.3 17 2.3 5.4 3.1 8.6 9.7 8.1 17.2 -0.1 0.9 -0.8 1.7 -1.6 1.7 -0.8 0 -1.5 -0.8 -1.5 -1.7z"/>
  <path d="M782 121.3 c0 -1.4 0.5 -5.5 1.1 -9 1 -5.6 1.4 -6.3 3.4 -6.3 2.2 0 2.2 0.1 0.9 5.3 -0.7 2.8 -1.6 6.9 -1.9 9 -0.7 4.4 -3.5 5.3 -3.5 1z"/>
  <path d="M893.5 120.3 c-0.3 -2.1 -1.2 -6.2 -1.9 -9 -1.1 -4.3 -1.1 -5.3 0 -5.3 0.7 0 1.4 -0.4 1.6 -0.9 0.4 -1.2 6.8 1.5 6.8 2.9 0 0.5 -1.1 1 -2.3 1 -2.3 0 -2.3 0.2 -1.6 4.8 1.2 7.4 1.1 10.2 -0.6 10.2 -0.9 0 -1.6 -1.4 -2 -3.7z"/>
  <path d="M311 119.8 c0 -3 1.3 -5.8 2.6 -5.8 0.9 0 1.4 1.2 1.4 3.5 0 2.8 -0.4 3.5 -2 3.5 -1.1 0 -2 -0.6 -2 -1.2z"/>
  <path d="M861 117.5 c0 -6 2.2 -11.5 4.6 -11.5 l2.1 0 -2 7.5 c-2.2 8.1 -4.7 10.3 -4.7 4z"/>
  <path d="M978 117 c0 -1.6 -0.4 -3 -1 -3 -0.5 0 -1 -1.6 -1 -3.7 0 -3.4 0.1 -3.5 1.8 -1.9 1.7 1.5 4.2 7.7 4.2 10.5 0 0.6 -0.9 1.1 -2 1.1 -1.6 0 -2 -0.7 -2 -3z"/>
  <path d="M660 117.3 c0 -5.5 3.3 -11.3 6.4 -11.3 1.2 0 0.5 4.6 -0.9 6.4 -0.8 1.1 -1.5 3 -1.5 4.3 0 1.6 -0.6 2.3 -2 2.3 -1.2 0 -2 -0.7 -2 -1.7z"/>
  <path d="M826 115.3 l0.1 -3.8 2.4 2.8 c3.2 3.6 3.1 4.7 0 4.7 -2.2 0 -2.5 -0.4 -2.5 -3.7z"/>
  <path d="M962.5 115.3 c-1.1 -6.8 -3.1 -10.1 -6.7 -11.1 -3 -0.8 -3.1 -0.9 -1 -1.4 1.2 -0.3 2.2 -0.2 2.2 0.3 0 1.3 6.8 1.1 7.2 -0.2 0.6 -1.7 6.8 -0.1 6.8 1.7 0 0.9 -1.1 1.4 -3.1 1.4 l-3.1 0 0.7 6.5 c0.6 5.5 0.5 6.5 -0.8 6.5 -1.1 0 -1.8 -1.3 -2.2 -3.7z"/>
  <path d="M565 115 c0 -2 -0.5 -3 -1.5 -3 -0.8 0 -2 -0.9 -2.7 -2 -0.7 -1.1 -1.8 -2 -2.5 -2 -0.7 0 -1.3 -0.4 -1.3 -1 0 -0.5 -1.1 -1 -2.5 -1 -2 0 -2.5 0.5 -2.5 2.5 0 3.3 -1.7 3.2 -3.2 -0.1 -0.7 -1.5 -2.6 -3.3 -4.3 -4 l-3 -1.2 4 -0.8 c4.7 -0.8 13.3 0.7 17 3.2 2.7 1.8 6.5 8.1 6.5 10.9 0 0.8 -0.9 1.5 -2 1.5 -1.6 0 -2 -0.7 -2 -3z"/>
  <path d="M618.1 112.3 c-0.7 -2.7 -1.9 -5.8 -2.7 -7.1 l-1.5 -2.2 5.1 1.9 c2.8 1.1 6.8 3.2 8.8 4.8 l3.7 2.8 -3.5 0.3 c-1.9 0.2 -3.6 -0.1 -3.8 -0.7 -0.8 -2.3 -2.2 -1 -2.2 1.9 0 4.8 -2.6 3.7 -3.9 -1.7z"/>
  <path d="M813.6 114.8 c-1 -3.8 -0.7 -4.8 1.4 -4.8 1.6 0 2 0.7 2 3.5 0 4 -2.4 4.9 -3.4 1.3z"/>
  <path d="M277.4 112.8 c0.8 -3.9 2.9 -6.4 6.7 -7.7 2.7 -0.9 2.9 -0.8 2.9 1.4 0 1.8 -0.7 2.6 -2.4 3.1 -1.7 0.4 -2.7 1.5 -3.1 3.5 -0.5 2 -1.3 2.9 -2.7 2.9 -1.8 0 -2 -0.4 -1.4 -3.2z"/>
  <path d="M355.5 111.8 c-0.8 -3.7 -3.1 -6.7 -6 -7.8 -1.7 -0.6 -1.4 -0.9 1.8 -1.5 4.9 -0.9 10.7 0.2 10.7 2 0 1 -1 1.5 -3 1.5 -1.6 0 -3 0.5 -3 1 0 0.6 0.7 1 1.5 1 1 0 1.5 1.1 1.5 3.5 0 4.6 -2.6 4.7 -3.5 0.3z"/>
  <path d="M96.3 110.5 c-1.1 -3.3 -1 -3.5 1.3 -3.5 2.1 0 2.4 0.5 2.4 3.5 0 2.2 -0.5 3.5 -1.3 3.5 -0.8 0 -1.8 -1.6 -2.4 -3.5z"/>
  <path d="M172 110.9 l0 -3 3 2.1 c4.4 3.1 4.5 4 0.6 4 -3.3 0 -3.6 -0.2 -3.6 -3.1z"/>
  <path d="M232.8 108.4 c-0.7 -1.5 -2.6 -3.3 -4.3 -4 l-3 -1.2 3.8 -0.7 c4.9 -0.9 10.7 0.2 10.7 2 0 0.8 -0.9 1.5 -2 1.5 -1.5 0 -2 0.7 -2 2.5 0 3.3 -1.7 3.2 -3.2 -0.1z"/>
  <path d="M245 108 c0 -2.7 0.2 -2.9 1.9 -1.9 1 0.7 2.3 2 3 3 1 1.7 0.8 1.9 -1.9 1.9 -2.7 0 -3 -0.3 -3 -3z"/>
  <path d="M856.3 108.5 c3.6 -3.2 4.7 -3.1 4.7 0 0 2.2 -0.4 2.5 -3.7 2.5 l-3.8 -0.1 2.8 -2.4z"/>
  <path d="M921.7 108.1 c0.5 -1.9 4.2 -4.1 6.8 -4.1 0.8 0 1.5 0.9 1.5 2 0 1.3 -0.7 2 -2 2 -1.1 0 -2 0.5 -2 1 0 0.6 -1.1 1 -2.4 1 -1.9 0 -2.3 -0.4 -1.9 -1.9z"/>
  <path d="M364 106.5 c0 -3.1 1.1 -3.2 4.7 0 l2.8 2.4 -3.7 0.1 c-3.4 0 -3.8 -0.3 -3.8 -2.5z"/>
  <path d="M814 106.5 c0 -2.4 0.1 -2.5 3.2 -1.2 4.6 1.9 4.8 3.7 0.4 3.7 -3.2 0 -3.6 -0.3 -3.6 -2.5z"/>
  <path d="M317 107 c0 -1.2 3.3 -3 5.4 -3 0.9 0 1.6 0.9 1.6 2 0 1.6 -0.7 2 -3.5 2 -1.9 0 -3.5 -0.4 -3.5 -1z"/>
  <path d="M849.6 96 c2.9 -2.9 5.7 -5.1 6.5 -4.8 0.7 0.2 -1.6 2.5 -5.2 5.3 l-6.4 4.8 5.1 -5.3z"/>
  <path d="M281.8 92.9 c-3.2 -1.8 -1.9 -2.9 3.7 -2.9 4 0 5.5 0.4 5.5 1.4 0 2.3 -6.1 3.3 -9.2 1.5z"/>
  <path d="M860.7 87 c-1 -3.7 13.2 -12.8 22.6 -14.5 3.3 -0.7 3.7 -0.5 3.7 1.4 0 1.7 -0.6 2.1 -3.5 2.1 -1.9 0 -3.5 0.5 -3.5 1 0 0.6 -1.3 1 -3 1 -2 0 -3 0.5 -3 1.5 0 0.8 -0.6 1.5 -1.4 1.5 -0.8 0 -1.8 0.9 -2.1 2 -0.4 1.1 -2.4 2.9 -4.5 4 -4.8 2.4 -4.6 2.4 -5.3 0z"/>
  <path d="M294 84.5 c0 -2.8 0.4 -3.5 2 -3.5 2.2 0 2.6 2 1 5.1 -1.6 3 -3 2.3 -3 -1.6z"/>
  <path d="M907 85.5 c-1.4 -0.8 -4.6 -1.9 -7.2 -2.5 -3.2 -0.8 -4.8 -1.7 -4.8 -2.7 0 -1.3 0.9 -1.5 5.5 -0.9 4.5 0.5 5.5 0.3 5.5 -0.9 0 -0.8 0.5 -1.5 1.1 -1.5 1.5 0 8.9 7.4 8.9 8.9 0 1.6 -6 1.3 -9 -0.4z"/>
  <path d="M56 81 c0 -1.2 3.3 -3 5.4 -3 0.9 0 1.6 0.9 1.6 2 0 1.6 -0.7 2 -3.5 2 -1.9 0 -3.5 -0.4 -3.5 -1z"/>
  <path d="M196 81 c0 -1.2 3.3 -3 5.4 -3 0.9 0 1.6 0.9 1.6 2 0 1.6 -0.7 2 -3.5 2 -1.9 0 -3.5 -0.4 -3.5 -1z"/>
  <path d="M274 80.5 c0 -3.7 4.6 -9.5 7.4 -9.5 1.5 0 0.4 4.7 -1.4 6 -1.1 0.8 -2 2.2 -2 3.2 0 1.1 -0.7 1.8 -2 1.8 -1.1 0 -2 -0.7 -2 -1.5z"/>
  <path d="M881 79.9 c0 -1.7 0.7 -1.9 6.5 -1.9 5.8 0 6.5 0.2 6.5 1.9 0 1.8 -0.7 2 -6.5 2 -5.8 0 -6.5 -0.2 -6.5 -2z"/>
  <path d="M291 75.5 c0 -0.9 -0.9 -1.5 -2.5 -1.5 -1.8 0 -2.5 -0.5 -2.5 -2 0 -1.2 0.7 -2 1.6 -2 2.2 0 6.8 2.9 8.2 5.1 1.1 1.7 0.9 1.9 -1.8 1.9 -2 0 -3 -0.5 -3 -1.5z"/>
  <path d="M892.3 76.3 c-2.5 -0.3 -3.3 -0.9 -3.3 -2.5 0 -1.8 0.4 -1.9 3.8 -1.4 8.1 1.4 9.2 1.8 9.2 3.2 0 1.4 -2.4 1.6 -9.7 0.7z"/>
  <path d="M207.5 47.4 c-3.8 -1.9 -7.6 -3.4 -8.3 -3.4 -0.9 0 -1.1 -1 -0.6 -3.7 0.4 -2.1 0.8 -4 1 -4.1 0.1 -0.2 1.6 0.4 3.3 1.4 2.4 1.4 2.9 2.3 2.5 4.1 -0.6 2.1 -0.3 2.3 2.7 2.3 2.4 0 4.6 1 7.4 3.5 3.8 3.2 3.9 3.4 1.5 3.4 -1.4 0 -5.6 -1.6 -9.5 -3.5z"/>
  <path d="M163 42.5 c0 -2.2 0.4 -2.5 3.6 -2.5 4.4 0 4.2 1.8 -0.4 3.7 -3.1 1.3 -3.2 1.2 -3.2 -1.2z"/>
 </g>
 <g fill="#018b0b">
  <path d="M613.8 163.8 c0.6 -0.8 1.9 -4.8 2.8 -8.8 2.5 -10.7 4.1 -12 14.9 -12 5.2 0 8.5 0.4 8.5 1 0 2.1 -4 8.8 -7.1 11.9 -3.4 3.5 -8.7 6.4 -13.4 7.5 -1.6 0.4 -3.9 1 -5 1.3 -1.7 0.5 -1.8 0.4 -0.7 -0.9z"/>
  <path d="M786.9 164.1 c-4.3 -1.4 -9.9 -4.3 -9.9 -5.2 0 -0.5 1.3 -0.9 3 -0.9 l3 0 -0.7 -6 c-0.5 -5 -0.3 -6 1 -6 1.5 0 1.9 1 3.3 9.2 0.5 3 0.3 3.7 -1.3 4.1 -1.5 0.4 -1.5 0.5 0.3 0.6 1.2 0 2.9 1.2 3.8 2.6 1.7 2.7 1.6 2.8 -2.5 1.6z"/>
  <path d="M810.6 162.5 c1.1 -1.7 2.5 -2.5 4.5 -2.5 5.2 0 3 2.9 -3.4 4.4 -2.8 0.7 -2.8 0.7 -1.1 -1.9z"/>
  <path d="M865.9 164.1 c-4.3 -1.4 -9.9 -4.3 -9.9 -5.2 0 -0.5 1.3 -0.9 3 -0.9 l3 0 -0.7 -6 c-0.5 -5 -0.3 -6 1 -6 1.5 0 1.9 1 3.3 9.2 0.5 3 0.3 3.7 -1.3 4.1 -1.5 0.4 -1.5 0.5 0.3 0.6 1.2 0 2.9 1.2 3.8 2.6 1.7 2.7 1.6 2.8 -2.5 1.6z"/>
  <path d="M889.4 162.8 c1.5 -2.5 3.2 -8 4.1 -14 0.4 -2.4 1.1 -3.8 2 -3.8 1.7 0 1.9 4 0.6 10.8 -0.5 2.3 -0.4 4.2 0 4.2 1.6 0 1 1.9 -0.8 2.8 -1 0.5 -3.1 1.2 -4.6 1.6 -2.7 0.6 -2.7 0.6 -1.3 -1.6z"/>
  <path d="M556.2 162 c-1.8 -1.1 -3.7 -3.2 -4.2 -4.6 -0.6 -1.4 -1 -11.2 -1 -21.7 -0.1 -24.8 -1.6 -31.5 -7.4 -31.8 -1.3 -0.1 -0.7 -0.4 1.4 -1 7.9 -1.9 16.7 1.1 21.4 7.4 2.2 3 2.4 5.9 1.7 20.7 -0.2 3.6 0 12.5 0.4 19.8 l0.8 13.2 -4.9 0 c-3.1 0 -6.1 -0.7 -8.2 -2z"/>
  <path d="M588.4 162.1 c-2.2 -1 -5.6 -3.2 -7.6 -5 -5.9 -5.2 -6.8 -8.1 -6.8 -23.4 l0 -13.5 3.3 -4.8 c3.4 -5.2 10.2 -10 15.4 -11 l3.2 -0.6 -2 3.9 c-4.4 9 -4.5 43.5 -0.1 52.4 1.7 3.5 1.8 3.9 0.3 3.9 -0.9 0 -3.4 -0.9 -5.7 -1.9z"/>
  <path d="M660.2 138.3 c0.2 -19 0.6 -26.4 1.6 -28.1 2.1 -3.7 7.2 -6.2 12.5 -6.2 l4.7 0 0 30 0 30 -9.6 0 -9.5 0 0.3 -25.7z"/>
  <path d="M708.3 162 c-5.3 -3.2 -5.6 -4.6 -6 -28.5 -0.3 -12.7 -0.9 -23.2 -1.5 -24.9 -0.7 -1.6 -2.4 -3.4 -4.1 -4.1 l-3 -1.2 3.7 -0.7 c4.9 -0.9 13.8 1 17.2 3.6 5.7 4.6 6.4 7.9 6.4 34.1 l0 23.7 -4.7 0 c-3 0 -6 -0.7 -8 -2z"/>
  <path d="M750.4 162.1 c-1.8 -1.1 -3.6 -2.5 -4 -3.3 -0.5 -0.7 -1.1 -11.9 -1.4 -24.8 -0.4 -20.5 -0.7 -23.9 -2.3 -26.3 -1 -1.6 -2.8 -3.2 -4 -3.6 -1.9 -0.7 -1.7 -0.9 1.4 -1.5 4.6 -0.8 12.5 0.7 15.7 3.1 6.6 4.9 7.3 7.8 6.3 24.3 -0.1 3 0 11.9 0.5 19.8 l0.7 14.2 -4.9 0 c-3.1 0 -6.1 -0.7 -8 -1.9z"/>
  <path d="M969.5 163.1 c-3 -1.3 -5.4 -4.4 -6.1 -7.9 -0.6 -2.8 -0.4 -3.2 1.4 -3.2 1.6 0 2.3 0.8 2.8 3.5 0.4 2.5 1.1 3.5 2.5 3.5 1.4 0 1.9 0.7 1.9 2.5 0 1.4 -0.1 2.5 -0.2 2.4 -0.2 0 -1.2 -0.4 -2.3 -0.8z"/>
  <path d="M819 158.5 c0 -2.2 0.4 -2.5 3.5 -2.5 3.3 0 3.5 -0.2 3.5 -3.5 0 -1.9 0.5 -3.5 1 -3.5 0.6 0 1 -0.9 1 -2 0 -1.1 0.5 -2 1 -2 0.6 0 1 -1.3 1 -3 0 -2.3 0.4 -3 2 -3 2.5 0 2.5 1.6 0 8.4 -1.4 3.6 -3.6 6.8 -6.5 9.5 -5.2 4.7 -6.5 5.1 -6.5 1.6z"/>
  <path d="M898 158.5 c0 -2.2 0.4 -2.5 3.5 -2.5 3.3 0 3.5 -0.2 3.5 -3.5 0 -1.9 0.5 -3.5 1 -3.5 0.6 0 1 -0.9 1 -2 0 -1.1 0.5 -2 1 -2 0.6 0 1 -1.3 1 -3 0 -2.3 0.4 -3 2 -3 2.5 0 2.5 1.6 0 8.4 -1.4 3.6 -3.6 6.8 -6.5 9.5 -5.2 4.7 -6.5 5.1 -6.5 1.6z"/>
  <path d="M813.5 154.8 c1.2 -8.4 1.7 -9.8 3.1 -9.8 1.6 0 1.7 2.2 0.8 9.4 -0.5 3.7 -1.1 4.6 -2.6 4.6 -1.8 0 -1.9 -0.5 -1.3 -4.2z"/>
  <path d="M771.7 154.2 c-3.5 -3.8 -4.7 -8.9 -4.7 -19.4 0 -11.8 1.1 -16.6 4.5 -20.5 l2.4 -2.8 0 3.5 c0 1.9 -0.6 4.6 -1.4 6 -2.1 3.7 -2.1 28 0 28 1 0 1.5 1.1 1.5 3.5 0 4 -0.1 4.1 -2.3 1.7z"/>
  <path d="M850.8 154.3 c-2.4 -2.7 -4.6 -7.5 -5.3 -11.6 -0.6 -3.3 -0.5 -3.7 1.4 -3.7 1.7 0 2.1 0.8 2.7 5 0.4 3.2 1.1 5 2 5 0.9 0 1.4 1.2 1.4 3.5 0 4 -0.1 4.1 -2.2 1.8z"/>
  <path d="M828.6 124 c-1 -3.3 -2.2 -6 -2.7 -6 -0.5 0 -0.9 -1.3 -0.9 -3 0 -2.7 -0.3 -3 -3 -3 -1.6 0 -3 -0.4 -3 -1 0 -0.5 -0.5 -1 -1 -1 -0.6 0 -0.8 2.5 -0.4 7 0.6 6 0.5 7 -0.9 7 -1 0 -1.8 -1.1 -2.1 -3.2 -0.3 -1.8 -0.8 -4.9 -1.1 -6.9 -0.3 -1.9 -1.4 -5.2 -2.4 -7.3 l-2 -3.8 2.6 0.7 c9.3 2.3 17.9 9.8 20.7 18.2 2.1 6.1 2 8.3 -0.1 8.3 -1.3 0 -2.3 -1.7 -3.7 -6z"/>
  <path d="M907.6 124 c-1 -3.3 -2.2 -6 -2.7 -6 -0.5 0 -0.9 -1.3 -0.9 -3 0 -2.7 -0.3 -3 -3 -3 -1.6 0 -3 -0.4 -3 -1 0 -0.5 -0.5 -1 -1 -1 -0.7 0 -0.8 2.3 -0.4 6.5 0.6 5.5 0.4 6.5 -0.9 6.5 -1.5 0 -2 -1.3 -3.2 -9.7 -0.5 -3.5 -0.4 -4.2 1.2 -4.6 1.5 -0.4 1.5 -0.5 -0.3 -0.6 -1.2 0 -2.9 -1.3 -3.9 -2.7 l-1.7 -2.7 2.7 0.7 c9.8 2.5 18.4 10.2 21 18.9 1.9 6.5 1.9 7.7 -0.2 7.7 -1.3 0 -2.3 -1.7 -3.7 -6z"/>
  <path d="M845 127.5 c0 -2.8 4.1 -12.2 6 -14 2 -1.8 2 -1.7 2 1.3 0 3.4 -1.8 8.2 -3.2 8.2 -0.4 0 -0.8 1.4 -0.8 3 0 2.3 -0.4 3 -2 3 -1.1 0 -2 -0.7 -2 -1.5z"/>
  <path d="M619.2 119 c-0.6 -4.9 -1.8 -10.2 -2.7 -11.9 -0.9 -1.9 -1.1 -3.1 -0.5 -3.1 1.8 0 10.6 4.8 13.8 7.5 3.4 2.8 7.7 8.4 7 9 -0.2 0.2 -4 1.9 -8.4 3.8 l-8.1 3.5 -1.1 -8.8z"/>
  <path d="M782.4 116 l0.7 -6 -3.1 0 c-1.6 0 -3 -0.4 -3 -0.9 0 -1.1 7.2 -4.7 11.4 -5.7 l2.8 -0.7 -1.7 2.7 c-1 1.4 -2 2.6 -2.4 2.6 -0.3 0 -0.6 1.5 -0.7 3.3 -0.1 6.2 -1.4 10.7 -3.1 10.7 -1.3 0 -1.5 -0.9 -0.9 -6z"/>
  <path d="M977.6 117.9 c-0.9 -4.6 -0.7 -7.9 0.4 -7.9 1.3 0 2.7 2.8 3.5 7.3 0.6 3.3 0.5 3.7 -1.3 3.7 -1.4 0 -2.1 -0.9 -2.6 -3.1z"/>
  <path d="M861 114 c0 -3.6 -0.2 -4 -2.5 -4 -1.4 0 -2.5 -0.4 -2.5 -0.9 0 -1.1 7.2 -4.7 11.3 -5.7 2.7 -0.6 2.8 -0.6 1.5 1.5 -0.7 1.1 -1.9 2.1 -2.6 2.1 -0.9 0 -1.1 0.7 -0.7 2 0.8 2.5 -1.5 9 -3.2 9 -0.8 0 -1.3 -1.4 -1.3 -4z"/>
  <path d="M962.6 115.8 c-1.1 -4.2 -0.7 -5.8 1.4 -5.8 1.7 0 2 0.7 2 4 0 4.5 -2.3 5.7 -3.4 1.8z"/>
  <path d="M920.6 111.8 c1.7 -5 2.8 -6.4 5.4 -7.1 1.6 -0.4 2 0 2 1.9 0 1.4 -0.6 2.4 -1.4 2.4 -0.8 0 -1.7 1.5 -2 3.5 -0.6 2.9 -1.1 3.5 -3.1 3.5 -2.4 0 -2.4 0 -0.9 -4.2z"/>
  <path d="M957.2 105 c-2.5 -1.4 -2.9 -1.9 -1.6 -2.4 3.5 -1.3 5.4 -0.7 5.4 1.9 0 1.4 -0.1 2.4 -0.2 2.4 -0.2 -0.1 -1.8 -0.9 -3.6 -1.9z"/>
  <path d="M965.3 106.3 c-1.5 -0.3 -2.3 -1.2 -2.3 -2.5 0 -1.8 0.4 -1.9 3.7 -1.3 4.5 0.8 7.3 2.2 7.3 3.5 0 1 -4.4 1.1 -8.7 0.3z"/>
  <path d="M855.2 90.5 c5.3 -5.2 10.1 -9.5 10.5 -9.4 2.5 0.4 4.2 -0.2 3.7 -1.5 -0.4 -0.9 1.4 -2.3 5.3 -4.2 4.9 -2.4 7 -2.8 13.8 -2.7 8.3 0 15.5 1.9 16.3 4.1 0.5 1.5 -2.5 1.6 -9.7 0.1 -3.3 -0.7 -7.9 -0.9 -11.3 -0.5 -6.8 0.9 -7.8 2.3 -1.3 1.8 3.6 -0.3 4.5 -0.1 4.5 1.2 0 0.9 -0.3 1.6 -0.7 1.6 -0.5 0 -3.8 0.7 -7.5 1.4 -8.5 1.8 -15.8 5.3 -25.5 12.2 l-7.8 5.5 9.7 -9.6z"/>
  <path d="M917.6 95.3 c-1.9 -5.7 -14.7 -13.3 -22.5 -13.3 -4.3 0 -7.1 -1.1 -7.1 -2.8 0 -1.3 1.1 -1.4 7.3 -0.8 3.9 0.4 7.4 1.1 7.5 1.6 0.7 2 4.1 1 4.4 -1.2 0.3 -2.2 0.6 -2 4.4 1.8 4.3 4.3 7.9 11.8 7.2 15 -0.4 1.7 -0.5 1.7 -1.2 -0.3z"/>
 </g>
 <g fill="#00804e">
  <path d="M95.5 161.4 c1.3 -2 2.7 -5.2 3 -7.3 1.4 -8.2 1.7 -9.1 3.2 -9.1 1.3 0 1.5 1 1 6.3 l-0.6 6.2 4.2 -0.4 4.2 -0.3 -1.9 2.1 c-1.8 2 -11.2 6.1 -14.1 6.1 -1.1 0 -0.8 -0.9 1 -3.6z"/>
  <path d="M135.6 162.5 c-6.4 -2.6 -11.8 -7.2 -13.6 -11.6 -1.6 -3.7 0.4 -13.9 2.7 -13.9 1.3 0 1.5 1 0.9 6.5 -0.4 4.2 -0.3 6.5 0.4 6.5 0.5 0 1 1.1 1 2.5 0 2 0.5 2.5 2.4 2.5 1.4 0 2.8 0.5 3.1 1 1.8 2.9 2.5 0.4 1.9 -7 -0.6 -6.9 -0.5 -8 0.9 -8 1.6 0 1.9 1.1 3.2 11.1 0.3 2.6 1.5 6.4 2.5 8.5 1.1 2.1 2 4 2 4.1 0 0.7 -1.8 0.1 -7.4 -2.2z"/>
  <path d="M159.7 163.8 c0.7 -0.8 2 -4.7 2.9 -8.7 2.1 -9.3 4.5 -12.1 10.7 -12.8 4.3 -0.5 4.7 -0.4 4.7 1.6 0 1.5 -0.6 2.1 -2.2 2.1 -5.2 0 -6.5 1.1 -8.2 6.2 -2.1 6.6 -2.1 6.8 1.4 6.8 2 0 3 -0.5 3 -1.5 0 -1.1 1.1 -1.5 3.7 -1.5 3.5 0 3.6 0.1 1.9 1.9 -2.1 2.3 -9.7 5.7 -15.1 6.7 -3.5 0.6 -3.8 0.5 -2.8 -0.8z"/>
  <path d="M189 157.3 c0.1 -3.8 0.7 -9.4 1.5 -12.6 1.1 -4.9 1.1 -5.9 0 -6.3 -1.1 -0.5 -1.4 -4.8 -1.4 -21.6 -0.1 -22.2 0.3 -25.8 2.5 -25.8 1.2 0 1.4 3.9 1.4 22 0 15.6 0.3 22 1.1 22 0.8 0 0.9 1.8 0.5 5.8 -0.4 3.1 -0.9 9.6 -1.3 14.5 -0.5 7.6 -0.8 8.7 -2.4 8.7 -1.7 0 -1.9 -0.8 -1.9 -6.7z"/>
  <path d="M205 122.9 l0 -41.1 -3.6 0.7 c-3.6 0.6 -7.3 3.8 -7.4 6.3 0 1.7 -4 1.5 -4 -0.2 0 -5.9 7.3 -11 14.8 -10.4 l3.7 0.3 0.3 42.8 c0.2 42.2 0.2 42.7 -1.8 42.7 -2 0 -2 -0.6 -2 -41.1z"/>
  <path d="M240.2 162 c-1.8 -1.1 -3.7 -3.2 -4.2 -4.6 -0.6 -1.4 -1 -11.2 -1 -21.7 -0.1 -24.8 -1.6 -31.5 -7.4 -31.8 -1.6 -0.1 -1.4 -0.3 0.9 -1 4.3 -1.3 13 0 16.7 2.5 1.7 1.1 4.1 3.4 5.2 4.9 2 2.7 2.1 4.3 2.4 28.3 l0.3 25.4 -4.8 0 c-3 0 -6 -0.7 -8.1 -2z"/>
  <path d="M277 139.1 c0 -15.6 0.4 -26 1.1 -28 1.4 -3.9 7.1 -7.1 12.9 -7.1 l4 0 0 30 0 30 -9 0 -9 0 0 -24.9z"/>
  <path d="M311.2 138.2 c0.3 -22.9 0.5 -26.1 2.1 -28.6 2.3 -3.4 7.3 -5.6 12.7 -5.6 l4 0 0 30 0 30 -9.6 0 -9.6 0 0.4 -25.8z"/>
  <path d="M362.3 162.5 c-5.4 -2.3 -5.7 -3.8 -6.3 -29.5 -0.5 -25.3 -0.9 -27.1 -6 -28.8 -2.3 -0.9 -2.3 -0.9 1.5 -1.6 5 -0.9 12.8 0.8 16.7 3.5 4.4 3.1 6.2 7.5 5.8 14.2 -0.4 9.7 -0.3 20.7 0.5 32.5 l0.8 11.2 -4.9 0 c-2.7 -0.1 -6.3 -0.7 -8.1 -1.5z"/>
  <path d="M111.2 146.2 c0 -7.8 0.3 -10.2 1.3 -10.2 1.4 0 2.1 2 3 9.6 0.6 4.4 0.4 5.4 -1.8 7.9 l-2.4 2.9 -0.1 -10.2z"/>
  <path d="M180 152.6 c0 -4.7 2.3 -10.6 4.2 -10.6 3.2 0 1.3 8.7 -2.5 11.9 -1.5 1.2 -1.7 1 -1.7 -1.3z"/>
  <path d="M111 128.6 c0 -6.3 1.1 -9.6 3.2 -9.6 2.1 0 2.1 0.5 0.2 10.3 -0.8 4 -3.4 3.5 -3.4 -0.7z"/>
  <path d="M122 125.4 c-1.8 -8.6 2.1 -14.6 12.5 -19.5 8.2 -3.9 8.8 -3.8 6.5 1.4 -1.1 2.4 -2.2 6.3 -2.5 8.7 -1.4 10.3 -1.6 11 -3.2 11 -1.4 0 -1.5 -1.1 -0.9 -8 0.6 -7.4 -0.1 -9.9 -1.9 -7 -0.3 0.6 -1.5 1 -2.6 1 -1.2 0 -1.9 0.7 -1.9 1.9 0 1.1 -0.6 2.1 -1.2 2.4 -0.9 0.2 -1.2 2.4 -1 7 0.2 5.3 -0.1 6.7 -1.2 6.7 -1 0 -1.9 -1.9 -2.6 -5.6z"/>
  <path d="M99.6 126.8 c-0.3 -1.8 -0.7 -5.1 -1 -7.3 -1 -6.8 -2.5 -11.1 -5.1 -13.9 -2.1 -2.2 -2.2 -2.6 -0.6 -2.6 5.1 0 12.5 3.4 17.2 7.9 5.5 5.3 6.1 7.1 2.4 7.1 -2.1 0 -2.5 -0.5 -2.5 -3 0 -2.7 -0.3 -3 -3 -3 -1.6 0 -3 -0.4 -3 -1 0 -0.5 -0.7 -1 -1.6 -1 -1.2 0 -1.5 0.6 -1 2.3 0.3 1.2 0.9 5.7 1.2 10 0.6 6.7 0.5 7.7 -0.9 7.7 -1 0 -1.8 -1.1 -2.1 -3.2z"/>
  <path d="M166.1 125.3 c0.1 -4.3 -2 -15.2 -3.6 -18.4 -0.8 -1.5 -1.5 -3 -1.5 -3.3 0 -1.2 8.6 2.7 13 5.9 4.4 3.2 10.7 10.2 9.9 11 -0.7 0.7 -16.2 7.5 -17 7.5 -0.5 0 -0.9 -1.2 -0.8 -2.7z m9 -5.1 c1.9 -1.9 1.9 -1.9 -0.1 -3.7 -1.1 -1 -2 -2.4 -2 -3.2 0 -0.7 -0.9 -1.3 -1.9 -1.3 -1.1 0 -2.2 -0.6 -2.5 -1.2 -0.4 -0.7 -0.4 0.2 -0.1 2.1 0.3 1.8 0.5 4.6 0.5 6.2 0 2.3 0.5 2.9 2 2.9 1.2 0 3 -0.8 4.1 -1.8z"/>
  <path d="M281.3 92.5 c-3.6 -1.6 -7.3 -6.8 -7.3 -10.3 0 -3.8 2.8 -8.6 6.1 -10.6 4.2 -2.5 10.2 -1.6 14 2 9.2 8.8 -1.1 24.1 -12.8 18.9z"/>
  <path d="M50.4 88.8 c1.1 -6.9 6.3 -10.8 14.6 -10.8 3.3 0 4 0.3 4 2 0 1.6 -0.7 2 -3 2 -1.7 0 -4.8 0.6 -7 1.2 -3.6 1.2 -4 1.6 -4.6 5.5 -0.5 3.4 -1 4.3 -2.6 4.3 -1.8 0 -2 -0.4 -1.4 -4.2z"/>
  <path d="M221.2 55.6 c-8.5 -6.8 -20.3 -12.1 -31.4 -14 -2.4 -0.4 -3.8 -1.2 -3.8 -2.1 0 -1 1.2 -1.5 3.8 -1.6 l3.7 0 -4 -1.5 c-3.9 -1.5 -9 -1.4 -18.7 0.2 -5.6 0.9 -4.6 2.2 1.2 1.6 4 -0.4 5 -0.1 5 1 0 1 -2 2 -6 3 -4.9 1.2 -6 1.2 -6 0.1 0 -0.7 -0.9 -1.3 -2 -1.3 -1.1 0 -2 0.5 -2 1 0 0.6 0.7 1 1.5 1 2.4 0 1.8 1.3 -1.6 3.5 -1.7 1.1 -4.4 4 -6 6.4 -3.2 5 -3.7 3.8 -1.3 -3.2 4.7 -13.8 20.5 -21.3 36.3 -17.3 8.2 2.1 14.7 5.9 24.2 14 6 5.1 14.2 13.9 12.7 13.5 -0.2 0 -2.7 -1.9 -5.6 -4.3z"/>
 </g>
 <g fill="#ce2f69">
  <path d="M426.8 240.8 c1.3 -2.6 1.7 -6 1.7 -15.3 0 -10.2 -0.3 -12.6 -2.1 -16.2 -1.2 -2.4 -1.7 -4.3 -1.2 -4.3 1.7 0 8.2 3.1 10.2 4.8 5.1 4.6 7.1 15.7 4.1 22.9 -2.5 5.8 -5.8 8.7 -12.2 10.7 -2.2 0.7 -2.2 0.7 -0.5 -2.6z"/>
  <path d="M461 243.3 c-9.3 -3.4 -13.4 -9 -13.4 -18.7 0 -9.5 4.8 -16.5 13.1 -19 2.2 -0.7 2.2 -0.7 0.7 3.1 -2.3 5.3 -2.3 26.3 -0.1 31.6 0.9 2 1.5 3.7 1.4 3.6 -0.1 0 -0.9 -0.3 -1.7 -0.6z"/>
  <path d="M606.9 243 c-4 -1.2 -7.5 -3.8 -8.7 -6.6 -1.9 -4 -1.5 -4.4 4.1 -4.4 l5.2 0 1.1 4.3 c0.6 2.3 1.4 5 1.9 6 0.8 1.8 0.4 1.9 -3.6 0.7z"/>
  <path d="M398.2 217.9 c0.3 -28.2 0.2 -27.9 8 -27.9 l3.8 0 0 26.5 0 26.5 -6 0 -6.1 0 0.3 -25.1z"/>
  <path d="M476.6 239.3 c1.8 -5.2 1.8 -24.6 -0.1 -29.8 -0.8 -2.1 -1.3 -4.1 -1.1 -4.2 0.2 -0.2 1.9 0.3 3.8 1.1 4.6 2 9.5 7.7 10.4 12.1 1.1 5.8 -0.1 14.3 -2.3 17.3 -2.5 3.3 -8 7.2 -10.3 7.2 -1.6 0 -1.6 -0.3 -0.4 -3.7z"/>
  <path d="M549 218.5 c0 -23.2 0.1 -24.6 2 -26.5 1.3 -1.3 3.3 -2 6 -2 l4 0 0 26.5 0 26.5 -6 0 -6 0 0 -24.5z"/>
  <path d="M579 241 c-1.6 -1.6 -2 -3.4 -2 -9.2 0 -4 -0.4 -9 -0.9 -11 -0.9 -3.7 -0.8 -3.8 1.9 -3.8 3.6 0 9.2 3.9 10.1 7 0.4 1.4 0.7 6.2 0.8 10.8 l0.1 8.2 -4 0 c-2.7 0 -4.7 -0.7 -6 -2z"/>
  <path d="M623 240.2 c0 -3.4 -2.5 -5.8 -13.3 -13.2 -10.6 -7.2 -13.1 -12.3 -8.4 -17.4 2.7 -3.1 8.1 -4.7 7.1 -2.2 -1 2.7 2.1 6.2 11.6 12.7 9.6 6.5 13 10.2 13 14.1 0 2.7 -2.5 6.1 -5.7 7.7 -3.4 1.7 -4.3 1.3 -4.3 -1.7z"/>
  <path d="M535 231.5 c0 -2.8 0.4 -3.5 2 -3.5 2.2 0 2.6 2 1 5.1 -1.6 3 -3 2.3 -3 -1.6z"/>
  <path d="M527 232.8 c0 -3 1.3 -5.8 2.6 -5.8 0.9 0 1.4 1.2 1.4 3.5 0 2.8 -0.4 3.5 -2 3.5 -1.1 0 -2 -0.6 -2 -1.2z"/>
  <path d="M536 222.5 c0 -4 2.4 -4.9 3.4 -1.2 1 3.7 0.7 4.7 -1.4 4.7 -1.6 0 -2 -0.7 -2 -3.5z"/>
  <path d="M527.6 219.8 c-1 -3.8 -0.7 -4.8 1.4 -4.8 1.6 0 2 0.7 2 3.5 0 4 -2.4 4.9 -3.4 1.3z"/>
  <path d="M498 216.1 c0 -0.6 1.1 -2.3 2.5 -3.8 l2.4 -2.8 0.1 3.8 c0 3.3 -0.3 3.7 -2.5 3.7 -1.4 0 -2.5 -0.4 -2.5 -0.9z"/>
  <path d="M468 213 c-2.3 -2.3 -2.5 -4.1 -0.8 -5.8 2.9 -2.9 7.8 0.5 7.8 5.5 0 3 -4.1 3.2 -7 0.3z"/>
  <path d="M623 212.3 c-2.3 -2.8 -4.2 -6.4 -3.7 -7 0.8 -0.8 7.1 2.4 9.1 4.6 2.2 2.4 2.1 2.7 -1.4 3.6 -1.8 0.4 -3 0.1 -4 -1.2z"/>
  <path d="M507 209.5 c0 -1.7 0.7 -2.8 2.3 -3.4 2.9 -1.1 2.9 -1.1 1.5 2.7 -1.5 3.8 -3.8 4.2 -3.8 0.7z"/>
  <path d="M539 196.4 l-3.4 -3.4 2.6 0 c1.9 0 2.9 0.8 3.8 3 1.8 4.3 1 4.4 -3 0.4z"/>
 </g>
 <g fill="#2cce8f">
  <path d="M97 159.6 c2.4 -4.9 2.5 -5.8 2.5 -23.1 -0.1 -19.2 -0.8 -23.7 -4.9 -29.8 l-2.5 -3.6 3.2 0.5 c10 1.7 21.6 11.7 20.2 17.3 -1.4 5.8 -1.7 18.1 -0.5 22.9 1 4.2 0.9 5.5 -0.3 7.9 -2.9 5.4 -9.2 10 -16.7 12 l-3.6 1 2.6 -5.1z"/>
  <path d="M160.5 163.3 c0.5 -1 1.6 -4.7 2.5 -8.3 3.1 -11.6 3.2 -11.7 14.5 -12.7 l7.5 -0.6 0 3.2 c0 7.3 -7.5 14.9 -17.8 18.1 -7.8 2.4 -7.6 2.4 -6.7 0.3z"/>
  <path d="M50.2 125.3 c0.2 -29.2 0.6 -39.4 1.6 -41 1.9 -3.3 6.4 -5.3 12.2 -5.3 l5 0 0 42.5 0 42.5 -9.6 0 -9.5 0 0.3 -38.7z"/>
  <path d="M136.5 162.8 c-4.9 -1.8 -11.2 -6.5 -13.4 -10.2 -1.9 -3 -2 -4 -1.1 -7.8 1.3 -5.7 1.3 -15.9 -0.1 -21.2 -1 -4 -0.9 -4.7 1.6 -8.5 3 -4.5 10 -9.4 15.7 -10.9 l3.6 -1 -1.8 3.2 c-4.7 7.8 -5.4 41.5 -1.2 52.4 2.1 5.5 1.9 5.8 -3.3 4z"/>
  <path d="M190 155.8 c0 -4.6 0.5 -10.3 1.1 -12.7 0.7 -3.1 0.7 -4.6 -0.1 -5.1 -0.8 -0.5 -1 -8.7 -0.8 -26.8 l0.3 -26.2 2.7 -2.7 c2.2 -2.2 3.9 -2.7 8.8 -3.1 l6 -0.4 0 42.6 0 42.6 -9 0 -9 0 0 -8.2z"/>
  <path d="M165.7 120.1 c-0.4 -4.4 -1.3 -9.7 -2.2 -11.7 -0.8 -2 -1.3 -3.9 -1 -4.2 1.2 -1.2 11.8 5.4 16.5 10.4 l5.3 5.6 -8.8 3.9 c-4.8 2.1 -8.8 3.9 -9 3.9 -0.1 0 -0.5 -3.6 -0.8 -7.9z"/>
  <path d="M220.1 54.4 c-11.6 -9 -26.4 -13.8 -41 -13.2 -8.3 0.3 -10.3 0.8 -15.1 3.3 -3.1 1.8 -6.9 4.9 -8.9 7.5 -3.8 5.1 -3.7 3.1 0.5 -5.7 4.8 -10.1 13.9 -14.7 27.7 -14.2 12 0.6 20.6 5 33 16.9 5.1 4.9 9 8.9 8.7 8.9 -0.3 0 -2.5 -1.6 -4.9 -3.5z"/>
 </g>
 <g fill="#ce40b6">
  <path d="M505 240.8 c-6.2 -4.3 -7.5 -7 -7.5 -16.2 0 -7.6 0.2 -8.6 2.9 -12 1.6 -2.1 4.7 -4.6 7 -5.6 4.5 -2.1 5.6 -1.9 3.5 0.6 -2.2 2.6 -2.6 26.8 -0.5 31.7 1.4 3.5 1.4 3.7 -0.3 3.7 -1 0 -3.3 -1 -5.1 -2.2z"/>
  <path d="M525.5 241.3 c2.9 -7.4 2.9 -26 0 -32.9 -0.8 -1.9 -1.3 -3.4 -1.1 -3.4 0.9 0 7.3 3.1 8.7 4.2 2.7 2.2 4.7 6.1 5.9 11.2 1.9 8.6 -2.1 17.6 -9.7 21.5 -3.2 1.6 -4.6 1.4 -3.8 -0.6z"/>
  <path d="M503 197.6 c2.5 -2.6 6.7 -6.1 9.5 -7.9 4.4 -2.8 5.8 -3.2 12 -3.2 9.8 0 15.9 3.9 18 11.5 l0.8 2.5 -2.7 -2.8 c-3.8 -4.1 -8.6 -5.7 -16.8 -5.7 -7.9 0 -14.2 2.3 -21.6 7.7 -3.7 2.7 -3.7 2.6 0.8 -2.1z"/>
 </g>
 <g fill="#d1ed52">
  <path d="M781.5 161.6 c-2.7 -1.3 -6.2 -3.6 -7.6 -5.2 -5.8 -6.4 -5.9 -6.9 -5.9 -21.7 0 -15.5 1 -18.9 7.4 -24.4 2.6 -2.4 12.8 -7.3 15 -7.3 0.2 0 -0.9 2.4 -2.3 5.2 -2.5 5.2 -2.6 5.7 -2.6 25.8 0 19 0.2 20.8 2.2 25.3 2 4.2 2 4.7 0.5 4.7 -0.9 0 -3.9 -1.1 -6.7 -2.4z"/>
  <path d="M812.3 159.3 c2 -4.5 2.2 -6.3 2.2 -25.3 0 -20.1 -0.1 -20.6 -2.6 -25.8 -2.5 -5.1 -2.6 -5.2 -0.5 -4.7 5.8 1.7 13.3 6.4 16.3 10.3 8.6 11.2 8.4 30.9 -0.4 41.1 -3.3 3.9 -12.1 9.1 -15.4 9.1 -1.6 0 -1.6 -0.4 0.4 -4.7z"/>
  <path d="M860.4 161.6 c-10.7 -5 -16 -15.4 -15.2 -30 0.8 -14.7 8.8 -24.8 21.9 -27.9 l2.7 -0.7 -3 5.7 -3 5.8 0.4 20 c0.3 18 0.5 20.5 2.5 24.8 2 4.2 2 4.7 0.5 4.7 -0.9 0 -4 -1.1 -6.8 -2.4z"/>
  <path d="M891.3 159.3 c2 -4.5 2.2 -6.3 2.2 -25.3 0 -20.1 -0.1 -20.6 -2.6 -25.8 -2.5 -5.1 -2.6 -5.2 -0.5 -4.7 5.8 1.7 13.3 6.4 16.3 10.3 8.6 11.2 8.4 30.9 -0.4 41.1 -3.3 3.9 -12.1 9.1 -15.4 9.1 -1.6 0 -1.6 -0.4 0.4 -4.7z"/>
  <path d="M918 141.3 c0 -21.8 0.1 -23.1 2.4 -28.7 2.8 -6.9 5.1 -8.5 11.9 -8.6 l4.7 0 0 30 0 30 -9.5 0 -9.5 0 0 -22.7z"/>
  <path d="M968.8 162.4 c-4.9 -2.6 -5.3 -4.3 -5.8 -29.1 -0.5 -21.5 -0.6 -23.4 -2.6 -26 -1.1 -1.5 -3.2 -3 -4.5 -3.4 -5 -1.3 6.8 -2.2 12.1 -0.9 12.3 3 14 7.6 14 38.7 l0 22.3 -5.2 0 c-2.9 -0.1 -6.5 -0.7 -8 -1.6z"/>
  <path d="M856.5 89.5 c7.3 -7 11.9 -10.6 17.2 -13.2 7 -3.4 7.4 -3.5 16.5 -3.1 14.6 0.7 23.7 6.2 27.2 16.6 2.3 6.5 2 7 -1.3 2.5 -6 -8.3 -22 -12.9 -35.9 -10.4 -8.3 1.5 -18.1 6 -27.2 12.5 -6.4 4.6 -6.3 4.5 3.5 -4.9z"/>
 </g>
</svg>