<?xml version="1.0" encoding="utf-8"?>
<!DOCTYPE svg PUBLIC "-//W3C//DTD SVG 1.0//EN" "http://www.w3.org/TR/2001/REC-SVG-20010904/DTD/svg10.dtd">
<svg height="400px" preserveAspectRatio="xMidYMid meet" version="1.0" viewBox="150 600 1250 400" width="1250px" xmlns="http://www.w3.org/2000/svg">
<g fill="#ffffff">
<path d="M0 1000 l0 -1000 772.5 0 772.5 0 0 1000 0 1000 -772.5 0 -772.5 0 0 -1000z m743.7 -264.7 c-0.2 -3.2 -0.3 -0.8 -0.3 5.2 0 6.1 0.1 8.7 0.3 5.8 0.2 -2.9 0.2 -7.8 0 -11z m69.2 5 c-0.1 -7 -0.4 -9.9 -0.9 -8.3 -1.2 3.7 -1.2 19 0 19 0.6 0 1 -4.2 0.9 -10.7z m12.7 6 c-1 -2.6 -1.8 -0.8 -0.9 2.3 0.5 2.1 0.8 2.4 1.1 1.1 0.2 -1 0.1 -2.5 -0.2 -3.4z m-45.4 -1.1 c0.3 -0.9 0.1 -2.6 -0.3 -3.7 -0.6 -1.5 -0.8 -1.1 -0.8 1.8 -0.1 4 0.4 4.8 1.1 1.9z m-190.2 -48.2 l0 -18 -2.9 0 c-2.6 0 -2.9 0.3 -3.5 4.6 -0.3 2.6 -0.6 10.7 -0.6 18 l0 13.4 3.5 0 3.5 0 0 -18z m63 0 l0 -18 -2.5 0 c-1.4 0 -2.6 0.1 -2.6 0.3 -0.1 0.1 -0.5 6.5 -0.8 14.2 l-0.6 14 -4.3 0.3 c-3.2 0.2 -4.6 0.9 -5.9 2.8 -2.1 3.3 -1.2 3.9 2 1.4 1.4 -1.1 3.9 -2 5.6 -2 2.6 0 3.1 0.4 3.1 2.5 0 2.1 0.5 2.5 3 2.5 l3 0 0 -18z m20.8 7.9 c-0.3 -9.8 -0.4 -10.2 -3.3 -12.7 l-3 -2.5 -0.3 5.4 c-0.2 3 -0.1 8.7 0.3 12.7 0.7 7.2 0.7 7.2 3.7 7.2 l3 0 -0.4 -10.1z m19.2 -2.4 c0 -12.5 0 -12.5 -2.4 -12.5 -3 0 -3.6 2.7 -3.6 15.6 l0 9.4 3 0 3 0 0 -12.5z m16 1.6 c0 -6 0.3 -11.6 0.6 -12.5 0.5 -1.3 -0.1 -1.6 -2.9 -1.6 -3.4 0 -3.4 0 -4.1 5.3 -0.3 2.8 -0.6 8.5 -0.6 12.5 l0 7.2 3.5 0 3.5 0 0 -10.9z m20 8.4 c0 -2.2 0.4 -2.5 3.5 -2.5 2.2 0 3.8 0.6 4.1 1.5 1.5 3.9 2.4 0.6 2.4 -9.2 l0 -10.6 -2.3 2.1 c-3 2.9 -8.3 3 -9.2 0.2 -0.3 -1.1 -1.5 -2.5 -2.6 -3 -1.8 -1 -1.9 -0.7 -1.9 8.3 0 13 0.6 15.7 3.6 15.7 1.9 0 2.4 -0.5 2.4 -2.5z m33 -15.5 l0 -18 -2.9 0 c-2.6 0 -2.9 0.3 -3.5 4.6 -0.3 2.6 -0.6 10.7 -0.6 18 l0 13.4 3.5 0 3.5 0 0 -18z m21 0.5 c0 -9.6 -0.2 -17.5 -0.5 -17.5 -1 0 -3.9 6.7 -4.8 11 -0.5 2.5 -1.1 8.9 -1.4 14.3 l-0.5 9.7 3.6 0 3.6 0 0 -17.5z m14.2 6.8 c0.2 -6 0.2 -14.1 0 -18 -0.3 -6.9 -0.4 -7.3 -2.6 -7.3 -3.1 0 -3.6 2.7 -3.6 21.1 l0 14.9 2.9 0 3 0 0.3 -10.7z m20.8 8.2 c0 -2.2 0.4 -2.5 3.5 -2.5 2.2 0 3.8 0.6 4.1 1.5 1.4 3.6 2 0.8 2 -8.9 l-0.1 -10.5 -2.1 2 c-3 2.8 -6.7 2.4 -10.6 -1.3 l-3.3 -3.3 -0.3 5.5 c-0.2 3 -0.1 8.8 0.3 12.8 0.7 7.1 0.7 7.2 3.6 7.2 2.4 0 2.9 -0.4 2.9 -2.5z m50.2 -10 l0.3 -12.5 -2.5 0 c-2.2 0 -2.8 0.7 -3.8 4.5 -0.7 2.5 -1.2 8.1 -1.2 12.5 l0 8 3.4 0 3.5 0 0.3 -12.5z m18.8 2.5 c0 -9.8 -0.1 -10.2 -2.7 -12.5 -1.6 -1.3 -3 -2.5 -3.3 -2.5 -0.4 0 0.5 23.6 0.9 24.8 0.1 0.1 1.2 0.2 2.6 0.2 l2.5 0 0 -10z m19 7.5 c0 -2.1 0.5 -2.5 3.2 -2.5 1.7 0 4 0.7 5 1.7 1.7 1.5 1.8 1.2 1.8 -8.5 0 -6.4 -0.4 -10.2 -1 -10.2 -0.6 0 -1.3 0.7 -1.6 1.5 -0.9 2.4 -8 2 -8.7 -0.4 -0.2 -1 -1.4 -2.4 -2.6 -3 -2.1 -1.2 -2.1 -1 -2.1 8.2 0 13 0.6 15.7 3.6 15.7 1.9 0 2.4 -0.5 2.4 -2.5z m79 -8.1 c0 -5.8 0.5 -11.4 1 -12.5 1 -1.7 0.7 -1.9 -2.5 -1.9 -2.8 0 -3.5 0.4 -3.5 1.9 0 3.9 -1.1 5.1 -4.6 5.1 -2.1 0 -3.7 -0.6 -4 -1.4 -0.3 -0.8 -1.2 -1.7 -2 -2 -1.2 -0.4 -1.4 1.2 -1.4 9.7 l0.1 10.2 2.4 -2.7 c1.6 -1.9 3.4 -2.8 5.5 -2.8 2.8 0 3 0.3 3 3.5 0 3.2 0.2 3.5 3 3.5 l3 0 0 -10.6z m20.8 0.5 c-0.3 -9.8 -0.4 -10.2 -3.3 -12.7 l-3 -2.5 -0.3 5.4 c-0.2 3 -0.1 8.7 0.3 12.7 0.7 7.2 0.7 7.2 3.7 7.2 l3 0 -0.4 -10.1z m-159.5 6.3 c2 -1.7 2.2 -3.2 0.5 -3.2 -1.7 0 -4.8 3.1 -4.8 4.7 0 1.5 1.3 1.1 4.3 -1.5z m-232.8 -2.2 c1.6 0 3.9 1 5.2 2.2 l2.3 2.1 0 -10.9 -0.1 -10.9 -2.4 2.8 c-3.2 3.6 -7.6 3.7 -9.9 0.2 -0.9 -1.4 -2 -2.5 -2.4 -2.5 -0.4 0 -0.6 4.8 -0.4 10.6 l0.3 10.6 2.3 -2.1 c1.2 -1.1 3.5 -2.1 5.1 -2.1z m323.1 -1.2 c1.1 -2.2 1.3 -4.4 0.8 -8.4 -0.3 -3 -1 -5.4 -1.4 -5.4 -0.5 0 -1.5 -0.3 -2.4 -0.6 -1.4 -0.5 -1.6 0.7 -1.6 9.6 0 9.2 0.2 10.1 1.6 8.9 0.8 -0.7 2.2 -2.6 3 -4.1z m15.4 -4.8 c0 -5.5 -0.4 -10 -0.9 -10 -1.6 0 -5.1 6.6 -5.1 9.4 0 1.5 0.5 3.7 1.1 4.9 1.2 2.2 3.9 5.7 4.6 5.7 0.1 0 0.3 -4.5 0.3 -10z m-313.1 -6.9 c1.1 -0.7 0.9 -1.1 -0.8 -2 -1.8 -1 -2.1 -0.9 -2.1 0.9 0 2.2 0.7 2.5 2.9 1.1z m206.5 0 c0.3 -0.5 -0.1 -1.4 -0.9 -2.1 -1.3 -1 -1.5 -0.9 -1.5 0.9 0 2.1 1.4 2.8 2.4 1.2z m-154.2 -14.8 c2.3 -2.1 2.3 -4 -0.1 -5.2 -1.4 -0.8 -2.2 -0.6 -3.5 0.8 -3.8 4.2 -0.6 8.2 3.6 4.4z m-46.9 -23.3 c-1.4 -0.6 -3.2 -0.6 -4.5 0 -1.9 0.7 -1.5 0.9 2.2 0.9 3.7 0 4.1 -0.2 2.3 -0.9z"/>
</g>
<g fill="#caee1f">
<path d="M916.5 717.5 c-2.4 -0.9 -4.2 -1 -4.5 -0.4 -0.4 0.5 -1.7 -0.2 -3.1 -1.7 -2 -2.2 -2.4 -3.7 -2.8 -10.5 -0.3 -8.4 0.4 -13.3 1.9 -12.4 0.5 0.3 2 -0.5 3.5 -1.9 1.4 -1.3 4.3 -2.8 6.5 -3.4 4 -1 4 -1 4 1.8 0 3.7 -1 6.1 -2.1 5.4 -1.5 -0.9 -1 15.3 0.6 19.3 2.5 5.9 2.3 6 -4 3.8z"/>
<path d="M926 718.1 c0 -0.5 0.7 -2.5 1.5 -4.4 1.7 -4 2 -14.4 0.5 -16.7 -0.5 -0.9 -0.5 -1.7 0 -2 0.5 -0.3 0.3 -1.8 -0.5 -3.4 -3.2 -6.1 -1.5 -6.7 6.8 -2.5 2.1 1.1 4.3 1.7 4.8 1.4 0.5 -0.4 0.9 -0.5 1 -0.3 0 0.2 0.2 4.4 0.5 9.3 0.4 7.8 0.2 9.4 -1.5 12.2 -1.1 1.8 -3.3 3.8 -4.8 4.6 -3.8 1.9 -8.3 2.9 -8.3 1.8z"/>
<path d="M952.7 717.6 c-7.2 -2.6 -9.7 -6.6 -9.7 -15.3 0 -8.5 3.3 -12.9 11.3 -15.1 3.2 -0.9 3.7 -0.8 3.7 0.7 0 0.9 -0.5 2.2 -1.1 2.8 -1.8 1.8 -2.2 18.7 -0.4 22.9 2.5 6 2.3 6.1 -3.8 4z"/>
<path d="M962 717.6 c0 -0.7 0.6 -2.6 1.4 -4.1 1.9 -3.7 1.9 -18.3 0 -22 -0.8 -1.5 -1.4 -3.3 -1.4 -4 0 -2.2 7.5 0.4 10.9 3.7 1.7 1.7 3.2 2.6 3.2 2.2 0.7 -5.6 0.6 -6.7 -1.4 -9 -4.5 -5.2 -14.8 -5.1 -22.9 0.2 -4.5 2.9 -5.8 3 -5.8 0.5 0 -2.1 6.3 -8.1 10.9 -10.5 9.2 -4.8 23.1 1.5 23.1 10.4 0 1.7 0.6 2 4.4 2 l4.3 0 -0.1 15.5 -0.1 15.5 -6.8 0 -6.8 0 0.7 -3.7 c0.6 -3.7 0.6 -3.8 -1.1 -1.5 -2.8 3.9 -12.5 7.6 -12.5 4.8z"/>
<path d="M996.9 717.3 c-0.4 -3 -0.5 -7.1 -0.7 -16 -0.2 -8.4 -0.5 -10.3 -1.7 -10.3 -0.8 0 -1.5 -0.9 -1.5 -2 0 -2.6 3.8 -3.5 8.3 -2.1 5.5 1.8 7.1 4.3 7.4 11.7 0.2 3.5 0.4 9.3 0.6 12.9 l0.3 6.5 -6.3 0 c-3.5 0 -6.3 -0.3 -6.4 -0.7z"/>
</g>
<g fill="#e02ebb">
<path d="M738 753.2 c0 -1.9 3 -3.3 6.2 -3 2.1 0.2 3.3 0.8 3.3 1.8 0 1.1 -1.3 1.6 -4.7 1.8 -2.7 0.2 -4.8 -0.1 -4.8 -0.6z"/>
<path d="M750.8 753.4 c-0.4 -0.3 0.2 -1.4 1.3 -2.5 1 -1 1.9 -2.6 1.9 -3.5 0 -1.1 0.6 -1.5 2 -1.1 1.7 0.4 2 0 2 -2.8 0 -1.8 0.6 -3.6 1.3 -3.8 0.7 -0.3 0.5 -0.6 -0.5 -0.6 -1.3 -0.1 -1.8 0.7 -1.8 2.4 0 3.9 -2.6 3 -3.7 -1.3 -0.7 -2.7 -0.6 -4.1 0.2 -4.9 2 -1.8 5.8 0.8 7.2 4.7 l1.1 3.5 0.7 -2.7 c0.4 -1.4 1.5 -3.4 2.6 -4.4 1.8 -1.7 1.9 -1.6 1.9 1.9 0 2.1 -0.4 3.7 -1 3.7 -0.5 0 -1 1.4 -1 3 0 3.3 -1.4 3.9 -2.8 1.4 -0.7 -1.3 -1 -1 -1.5 1.4 -0.8 4 -7.7 7.9 -9.9 5.6z"/>
<path d="M772 753 c0 -0.5 0.7 -1 1.5 -1 0.8 0 1.7 -1.1 2.1 -2.5 0.8 -3.1 3 -3.3 3.8 -0.2 0.4 1.4 0 2.6 -1.1 3.5 -2 1.4 -6.3 1.6 -6.3 0.2z"/>
<path d="M791 753.3 c-3.9 -1.4 -6 -4.6 -6 -9.3 0 -5.2 2.3 -8.5 6.6 -9.6 2.9 -0.7 4.5 0.3 2.5 1.6 -1 0.5 -1.2 1.9 -0.8 4.4 0.3 2 0.2 3.6 -0.4 3.6 -1.4 0 -1.1 3.1 0.6 6.4 0.8 1.5 1.5 3 1.5 3.2 0 0.5 -2.2 0.4 -4 -0.3z"/>
<path d="M796 753.3 c0 -0.5 0.4 -1.3 0.9 -1.8 1.6 -1.8 2.2 -6.3 0.8 -6.8 -0.9 -0.4 -0.9 -0.7 0.1 -1.5 1.5 -1 0.6 -6.2 -1.2 -7.4 -0.6 -0.4 -0.7 -1 -0.4 -1.4 1 -0.9 5.4 0.3 7.2 2.1 2 2.1 2.6 1.9 2.6 -0.9 0 -3.2 -3.5 -5.6 -8.1 -5.6 -2.6 0 -5.2 1.1 -9.3 4 l-5.7 4 1.8 -3.1 c2.5 -4.3 8.1 -8.8 12 -9.5 2 -0.4 4.4 0 6.4 1 1.7 0.9 3.5 1.3 4 1.1 1.9 -1.2 4.9 2 4.9 5.2 0 2.9 -0.3 3.3 -2.5 3.3 -1.4 0 -2.5 0.6 -2.6 1.3 -0.6 8.9 -1.2 11.4 -3.2 13.4 -2.3 2.3 -7.7 4.1 -7.7 2.6z"/>
<path d="M811 752 c0 -2.4 3.4 -2.8 5.5 -0.6 1.8 1.7 0.9 2.6 -2.7 2.6 -2.1 0 -2.8 -0.5 -2.8 -2z"/>
<path d="M822 752 c0 -1.5 0.7 -2 2.5 -2 2 0 2.5 -0.5 2.5 -2.5 0 -1.4 0.5 -2.5 1 -2.5 0.6 0 1 1.3 1 2.9 0 1.6 0.3 3.6 0.6 4.5 0.5 1.3 -0.2 1.6 -3.5 1.6 -3.4 0 -4.1 -0.3 -4.1 -2z"/>
<path d="M840 753 c0 -0.5 0.5 -1 1 -1 1.8 0 1.1 -2.5 -1.1 -3.9 -2 -1.2 -2.1 -1.1 -1.7 1.3 0.3 1.4 0.1 2.6 -0.3 2.6 -0.5 0 -0.9 -1.6 -0.9 -3.5 0 -3.3 0.2 -3.5 3.5 -3.5 3.1 0 3.5 0.3 3.5 2.5 0 1.6 0.6 2.5 1.5 2.5 2.1 0 1.9 1.7 -0.4 3 -2.5 1.3 -5.1 1.3 -5.1 0z"/>
<path d="M808.3 748.5 c0 -2.2 0.2 -3 0.4 -1.7 0.2 1.2 0.2 3 0 4 -0.3 0.9 -0.5 -0.1 -0.4 -2.3z"/>
<path d="M831 750 c-1.2 -2.3 -0.6 -4 1.6 -4 0.9 0 1.4 1.1 1.4 3 0 3.5 -1.4 3.9 -3 1z"/>
<path d="M783.3 743.5 c0 -2.2 0.2 -3 0.4 -1.7 0.2 1.2 0.2 3 0 4 -0.3 0.9 -0.5 -0.1 -0.4 -2.3z"/>
<path d="M838 739.5 c0 -1.3 0.4 -1.4 2 -0.5 1.1 0.6 2 1.3 2 1.5 0 0.3 -0.9 0.5 -2 0.5 -1.1 0 -2 -0.7 -2 -1.5z"/>
<path d="M841.8 738 c-0.7 -1.1 -1.8 -2 -2.5 -2 -0.7 0 -1.3 -0.5 -1.3 -1.1 0 -0.6 1.4 -0.9 3.3 -0.7 2.7 0.2 3.3 0.8 3.5 3.1 0.4 3.2 -1.2 3.6 -3 0.7z"/>
<path d="M595.2 718.1 c-0.7 -0.4 -2.4 -0.6 -3.8 -0.3 l-2.4 0.4 0 -21.1 0 -21.1 3.5 0 c1.9 0 3.5 0.5 3.5 1 0 0.6 -0.7 1 -1.5 1 -1.1 0 -1.5 1.2 -1.5 4.9 l0 4.8 4.9 -0.5 c6.1 -0.5 11.7 1.2 13.7 4.4 l1.6 2.4 2 -2.5 c2.5 -3.1 11.4 -5.9 16.2 -4.9 2 0.3 5.6 1.9 8.1 3.5 l4.5 2.9 0 -2.6 c0 -2.2 0.2 -2.5 1.5 -1.4 1.1 0.9 1.5 3.5 1.5 10.1 l0 8.9 -3.5 0 c-3.9 0 -5 -2.4 -1.5 -3.3 1.4 -0.3 2 -1.4 2 -3.1 0 -1.4 -0.4 -2.6 -0.8 -2.6 -0.5 0 -4.9 1.7 -9.8 3.9 -9.5 4.1 -10.4 5.2 -8.4 10.5 1.6 4.2 5.1 3.2 6.8 -1.8 1.6 -5 2.9 -6.6 5.3 -6.6 2.3 0 2.5 2.6 0.4 4.6 -2.5 2.5 -1.8 2.9 4 2.6 l5.5 -0.4 0 3.1 c0 2.8 -0.3 3.1 -3 3.1 -3.1 0 -4.1 -1.6 -1.5 -2.6 0.8 -0.4 1.5 -1 1.5 -1.5 0 -0.5 -1.6 0.2 -3.6 1.6 -7 4.7 -18.9 4.2 -24.5 -1.1 l-2.5 -2.4 -2.3 2.3 c-3.4 3.7 -12.6 5.9 -15.9 3.8z m5.6 -3.4 c0.6 -0.6 1.3 -2.4 1.7 -4 0.9 -3.4 3.5 -3.6 3.5 -0.2 0 1.6 0.6 2.5 1.5 2.5 0.8 0 1.5 -0.9 1.5 -2 0 -1.7 0.7 -2 4.5 -2 3.8 0 4.5 0.3 4.5 2 0 1.1 0.7 2 1.5 2 1.3 0 1.4 -1.2 0.9 -8 -0.7 -7.7 -0.6 -8 1.5 -8 1.7 0 2.1 0.6 2.1 3.5 l0 3.4 4.3 -1.9 c3.6 -1.6 4.2 -2.4 4.5 -5.3 0.4 -4.2 -2.6 -8.4 -5.2 -7.4 -1 0.4 -2.3 2.1 -2.9 3.7 -1.2 3.2 -3.7 4.1 -3.7 1.3 0 -1.5 -0.1 -1.5 -1.8 0 -2.3 2.1 -6.8 2.2 -10.4 0.3 -2.8 -1.5 -2.8 -1.4 -2.8 1.5 0 4 -2.6 3.8 -3.5 -0.3 -0.9 -4.3 -2.2 -5.8 -4.9 -5.8 -4 0 -4.6 1.8 -4.6 13.2 0 9.1 0.3 10.8 1.8 11.7 2.3 1.4 4.8 1.3 6 -0.2z m39.2 -17.6 c0 -0.6 -0.4 -1.3 -1 -1.6 -0.5 -0.3 -1 -1.5 -1 -2.6 0 -1 -0.4 -1.9 -1 -1.9 -1.1 0 -1.3 3 -0.4 5.4 0.7 1.7 3.4 2.2 3.4 0.7z"/>
<path d="M610 703 l0 -5 3.5 0 3.5 0 0 5 0 5 -3.5 0 -3.5 0 0 -5z"/>
<path d="M738.8 717.5 c-2.1 -0.8 -3.8 -1 -3.8 -0.4 0 0.5 -1.3 0.9 -3 0.9 -2.7 0 -3 -0.3 -3 -3.1 l0 -3.1 5.5 0.4 c3.4 0.3 5.6 0.1 5.9 -0.6 0.2 -0.6 1.5 0.2 2.9 1.9 2.2 2.6 2.8 2.9 5.3 2 l2.9 -1 0.3 -10.3 c0.2 -5.9 -0.2 -11 -0.8 -12.2 -1.1 -2.1 -5.4 -2.8 -6.5 -1 -0.4 0.6 -1.1 0.8 -1.6 0.5 -1 -0.7 -6.9 2.5 -6.9 3.7 0 0.4 -1.6 0.8 -3.5 0.8 -2.3 0 -3.5 -0.5 -3.5 -1.4 0 -0.7 -0.8 -1.6 -1.7 -2 -1 -0.3 -2.4 -0.9 -3 -1.2 -0.9 -0.4 -1.3 0.3 -1.3 2 0 3.4 -2.6 3.4 -3.4 0.1 -0.8 -3.2 -3.9 -3.3 -6 -0.3 -2.2 3.2 -2.3 21.3 -0.1 22.2 2.8 1 1.5 2.6 -2.1 2.6 l-3.6 0 0.4 -13.5 c0.3 -13.2 0.3 -13.5 -1.8 -13.5 -2.9 0 -3.4 2.2 -3.4 15.8 l0 11.2 -5 0 c-4.9 0 -5 -0.1 -5 -3 0 -2 0.5 -3 1.5 -3 0.8 0 1.5 0.7 1.5 1.5 0 0.8 0.7 1.5 1.5 1.5 1.2 0 1.5 -1.7 1.5 -9.4 0 -5.1 0.3 -10.8 0.6 -12.5 l0.7 -3.2 -5.1 0.7 c-6.9 0.9 -14.2 -0.3 -14.2 -2.2 0 -1.3 2.4 -1.5 17.3 -1.4 9.4 0.2 18.5 -0.1 20 -0.5 4.2 -1.1 10.6 1.1 11.9 4.1 1.1 2.4 1.1 2.4 3.2 0.5 1.2 -1.1 3.4 -2.4 4.9 -3 3.8 -1.5 11 -1.4 12.5 0.1 0.9 0.9 1.2 0.6 1.2 -1.4 0 -1.4 0.3 -4 0.6 -5.7 0.6 -2.7 0.4 -3.1 -1.5 -3.1 -1.1 0 -2.1 -0.4 -2.1 -1 0 -0.5 1.9 -1 4.1 -1 l4.2 0 -0.7 5.3 c-0.3 2.8 -0.6 12.3 -0.6 21 l0 15.7 -2.7 0 c-1.6 0 -4.6 0.2 -6.8 0.5 -2.2 0.2 -5.7 -0.2 -7.7 -1z"/>
<path d="M577 717 c0 -0.5 0.6 -1.3 1.4 -1.7 1.1 -0.6 1.5 -4.7 1.8 -19.1 0.3 -16.8 0.2 -18.2 -1.4 -18.2 -1 0 -1.8 -0.4 -1.8 -1 0 -0.5 1.9 -1 4.1 -1 l4.2 0 -0.7 4.6 c-0.3 2.6 -0.6 12 -0.6 21 l0 16.4 -3.5 0 c-1.9 0 -3.5 -0.4 -3.5 -1z"/>
<path d="M654 715 c0 -1.6 0.5 -3 1 -3 0.6 0 1 0.6 1 1.4 0 0.8 0.7 1.6 1.5 2 2.4 0.9 1.7 2.6 -1 2.6 -2.1 0 -2.5 -0.5 -2.5 -3z"/>
<path d="M661 717.1 c0 -0.5 1 -1.1 2.1 -1.4 1.8 -0.5 2.1 -1.1 1.5 -3.8 -0.3 -1.7 -0.6 -7.1 -0.6 -12 0 -8.1 -0.2 -8.9 -1.9 -8.9 -2.1 0 -6.1 4.4 -6.1 6.6 0 0.8 -0.7 1.4 -1.6 1.4 -1.4 0 -1.6 -0.9 -1 -6.2 0.8 -6.4 2.6 -10.4 2.6 -5.6 l0 2.6 3.7 -1.9 c4.8 -2.4 8 -2.4 12.1 0.1 4.4 2.7 5.2 5.4 5.2 17 0 7.8 0.3 9.9 1.5 10.4 2.7 1 1.5 2.6 -2 2.6 l-3.5 0 0 -10.2 c0 -14 -0.7 -17.8 -3.3 -17.8 -1.9 0 -2 0.4 -1.4 14 l0.5 14 -3.9 0 c-2.1 0 -3.9 -0.4 -3.9 -0.9z"/>
<path d="M681 716.5 c0 -0.8 0.7 -1.5 1.5 -1.5 0.8 0 1.5 -0.7 1.5 -1.5 0 -0.8 0.5 -1.5 1 -1.5 0.6 0 1 1.4 1 3 0 2.5 -0.4 3 -2.5 3 -1.6 0 -2.5 -0.6 -2.5 -1.5z"/>
<path d="M717 716.6 c0 -0.9 0.7 -1.3 2 -1.1 1.6 0.3 1.8 0 1.3 -2.6 -0.5 -2.5 -0.2 -2.9 1.6 -2.9 1.9 0 2.2 0.5 1.9 3.8 -0.3 3.4 -0.6 3.7 -3.5 4 -2.4 0.2 -3.3 -0.1 -3.3 -1.2z"/>
<path d="M763 715 c0 -1.6 0.5 -3 1 -3 0.6 0 1 0.9 1 2 0 1.1 0.5 1.9 1.1 1.8 0.6 -0.2 1.4 0.3 1.6 1 0.3 0.7 -0.5 1.2 -2.1 1.2 -2.2 0 -2.6 -0.4 -2.6 -3z"/>
<path d="M738 703.5 c0 -4.8 0.2 -5.5 2 -5.5 1.8 0 2 0.7 2 5.5 0 4.8 -0.2 5.5 -2 5.5 -1.8 0 -2 -0.7 -2 -5.5z"/>
<path d="M644 685.2 c0 -1.5 -0.6 -1.7 -3.5 -1.4 -4.8 0.6 -9.1 -1.4 -11.5 -5.3 -2.4 -3.8 -2.6 -7.5 -0.5 -7.5 0.9 0 1.5 0.9 1.5 2.4 0 6.2 8.5 10.5 13 6.7 l2.5 -2 -2.2 -0.1 c-1.3 0 -2.3 -0.4 -2.3 -1 0 -0.5 1.6 -1 3.5 -1 3.2 0 3.5 0.3 3.5 2.8 0 3 -2 8.2 -3.2 8.2 -0.5 0 -0.8 -0.8 -0.8 -1.8z"/>
<path d="M679.4 683.6 c-2.8 -1.3 -8.2 -5 -12 -8.3 -9.3 -8 -14 -11 -19.6 -12.4 -5.5 -1.3 -6.3 -3.6 -1.5 -4.2 2.8 -0.3 2.6 -0.4 -1 -0.5 -3.6 -0.2 -4.3 -0.5 -4.3 -2.2 0 -2.6 3.1 -2.6 9 0.1 4.8 2.1 13 9.5 13 11.6 0 0.7 0.6 1.3 1.4 1.3 0.8 0 2.5 1.3 3.8 2.9 3.3 3.8 11.6 10.1 13.4 10.1 1 0 1.3 -0.7 0.9 -2.3 -0.4 -1.5 0.1 -3.2 1.5 -5 2.6 -3.2 6 -3.6 6 -0.7 0 1.1 -0.6 2 -1.4 2 -1.2 0 -2.5 2.8 -2.6 5.3 0 0.4 1.6 0.7 3.5 0.7 3.1 0 3.5 -0.3 3.5 -2.5 0 -1.4 -0.4 -2.5 -1 -2.5 -0.5 0 -1 -1.1 -1 -2.5 0 -3 1.3 -3.2 4 -0.5 2.7 2.7 2.6 7.1 -0.3 9.8 -3.1 2.9 -8.8 2.8 -15.3 -0.2z"/>
<path d="M761 679.5 c0 -3.3 0.2 -3.5 3.5 -3.5 1.9 0 3.5 0.5 3.5 1 0 0.6 -0.7 1 -1.5 1 -0.9 0 -1.5 0.9 -1.5 2.5 0 1.8 -0.5 2.5 -2 2.5 -1.6 0 -2 -0.7 -2 -3.5z"/>
<path d="M653 679 c0 -2.6 0.4 -3 2.6 -3 1.7 0 2.4 0.4 2 1.3 -0.3 0.6 -0.9 2 -1.2 3 -1.1 2.9 -3.4 2 -3.4 -1.3z"/>
<path d="M627 666.5 c0 -2.1 2.5 -6.8 4.4 -8.4 1.3 -1.1 1.6 -1.1 1.6 0.1 0 1 1.1 1.3 4 1 5.5 -0.5 5.4 2 0 3.7 -2.2 0.7 -4.6 2.1 -5.3 3.1 -1.4 2.4 -4.7 2.7 -4.7 0.5z"/>
</g>
<g fill="#e00d69">
<path d="M738 753 c0 -0.5 0.5 -1.2 1 -1.5 0.6 -0.4 1 -5.3 1 -11.6 0 -6.6 -0.4 -10.9 -1 -10.9 -0.5 0 -1 -0.4 -1 -1 0 -0.5 2.5 -1 5.5 -1 3 0 5.5 0.5 5.5 1 0 0.6 -0.4 1 -1 1 -0.5 0 -1 1.3 -1 3 0 2.7 0.2 2.9 3 2.4 3.5 -0.8 8.7 1.1 10 3.7 1.4 2.6 1.2 10.1 -0.4 12.2 -1.5 1.9 -7.4 4.3 -8.3 3.3 -0.3 -0.3 0.1 -1.4 1 -2.4 2.1 -2.3 2.3 -11 0.3 -13.8 -1.2 -1.5 -1.8 -1.7 -3.3 -0.8 -2.2 1.3 -3.1 12.7 -1.2 15 0.6 0.8 0.8 1.4 0.3 1.5 -4.9 0.6 -10.4 0.5 -10.4 -0.1z"/>
<path d="M767.1 752.6 c-2.8 -1.6 -5 -5.2 -5.1 -8.4 0 -3.1 2.6 -7.9 4.9 -9.2 2.8 -1.5 10.4 -1.2 12.7 0.4 1.2 1 2.3 1.1 3.1 0.5 0.7 -0.7 1.3 -0.6 1.7 0 0.4 0.5 0.2 1.2 -0.3 1.5 -0.5 0.3 -0.7 2.3 -0.4 4.4 0.7 5.4 -1.1 9 -5.2 10.7 -4.2 1.8 -8.2 1.9 -11.4 0.1z m8.7 -6.3 c0.2 -4.2 0 -5.3 -1.2 -5.3 -0.8 0 -2.2 -0.7 -3 -1.6 -1.5 -1.4 -1.6 -1 -1.6 3.9 0 7.1 0.7 8.9 3.4 8.5 1.8 -0.3 2.1 -1.1 2.4 -5.5z"/>
<path d="M791 753.2 c-3.9 -1.2 -6 -4.5 -6 -9.3 0 -2.6 0.4 -5 0.8 -5.3 0.5 -0.3 0.7 1.6 0.5 4.2 -0.4 3.8 -0.1 5.1 1.7 7 3.1 3.3 4.2 2.8 3.4 -1.5 -0.8 -4.4 -0.2 -4.2 1.3 0.3 1.2 3.5 0.5 5.3 -1.7 4.6z"/>
<path d="M797.1 753 c-0.9 -0.5 -1 -1 -0.2 -1.4 0.6 -0.4 1.1 -1.6 1.1 -2.6 0 -1 0.5 -2.2 1.2 -2.6 0.8 -0.5 0.9 0.2 0.5 2.4 -0.7 3.7 0.4 4.1 3.3 1.2 1.1 -1.1 2 -1.6 2 -1.2 0 2.4 -5.9 5.5 -7.9 4.2z"/>
<path d="M807.7 745.3 c0.2 -6.8 0.1 -8.2 -0.7 -6.4 -0.6 1.4 -0.8 3.1 -0.5 3.8 0.3 0.8 0 1.1 -0.6 0.7 -0.7 -0.4 -0.8 -2.4 -0.4 -5.4 0.6 -4.2 0.4 -5 -1.6 -6.4 -3.2 -2.2 -8.5 -2 -12.5 0.5 -3.4 2.1 -3.4 2.1 -3.4 0 0 -2.3 4.6 -5.9 8.7 -6.7 1.5 -0.3 4.2 0 5.8 0.7 1.7 0.7 5.5 1.1 8.5 1 l5.5 -0.3 -0.3 8.4 -0.3 8.3 2.9 -3.3 2.8 -3.4 3.7 3.3 c3.2 2.8 3.7 3.9 3.7 7.6 0 2.4 0.5 4.3 1.1 4.3 0.5 0 0.8 0.4 0.5 0.8 -0.7 1.2 -10.4 1.3 -11.1 0.1 -0.4 -0.5 0 -0.9 0.7 -0.9 0.9 0 1.2 -1.4 1 -5 -0.4 -5.5 -1.3 -6.1 -3.6 -2.8 -1.8 2.5 -2.1 7.8 -0.5 7.8 0.5 0 0.8 0.4 0.5 0.8 -0.3 0.5 -2.7 1 -5.3 1 l-4.8 0.2 0.2 -8.7z m-9.7 -16.3 c1.9 0 4.7 0.6 6.1 1.4 2.6 1.3 6.1 0.5 4.6 -1.1 -0.5 -0.4 -1.2 -0.1 -1.7 0.7 -0.7 1.1 -1 1.1 -1 0.2 0 -0.7 -1.6 -2 -3.6 -2.8 -4.2 -1.7 -8.9 -0.7 -12 2.7 -1.8 2 -1.8 2 1.2 0.4 1.6 -0.8 4.5 -1.5 6.4 -1.5z"/>
<path d="M833.9 752.5 c-2.5 -1.4 -4.3 -4.8 -3.1 -5.9 0.3 -0.3 1.6 -0.6 3 -0.6 l2.4 0 -2.2 -1.8 c-2.8 -2.2 -3 -7 -0.4 -8.9 4.1 -3 16.2 0 14 3.5 -1.1 1.9 -4.4 1.4 -5.6 -0.8 -0.6 -1.1 -1.8 -2 -2.6 -2 -2.4 0 -1.4 1.4 4.4 5.9 6.6 5.3 6.9 8.7 0.9 11 -3.8 1.5 -7.7 1.3 -10.8 -0.4z m8.1 -2 c0 -0.8 -0.9 -1.9 -2 -2.5 -1.7 -0.9 -2 -0.8 -2 0.8 0 1 0.3 2.2 0.7 2.5 1.2 1.2 3.3 0.7 3.3 -0.8z"/>
<path d="M791.4 738.4 c0.7 -3.4 0.6 -3.5 -1.6 -2.4 -2.2 1.1 -2.2 1 -0.4 -0.4 3.8 -3 9.2 -1.6 10.1 2.6 0.9 3.8 -0.2 4.9 -1.1 1.2 -1.3 -5.2 -5.4 -5.4 -5.4 -0.3 0 1.6 -0.5 2.9 -1.1 2.9 -0.7 0 -0.9 -1.2 -0.5 -3.6z"/>
<path d="M594.1 717.4 c-2.2 -1.7 -1.2 -2.3 2.7 -1.7 1.7 0.3 3.2 1.1 3.2 1.9 0 1.5 -3.6 1.4 -5.9 -0.2z"/>
<path d="M623.8 718.2 c-2 -0.4 -2.5 -3.2 -0.5 -3.2 2.8 0 5.7 1.3 5.7 2.6 0 1.2 -1.4 1.4 -5.2 0.6z"/>
<path d="M743 718.3 c-2.7 -1.1 -4 -3.1 -4 -6.2 0 -4 2.6 -4.1 3.5 -0.1 0.7 3.2 3.3 4.5 7.1 3.6 2.4 -0.6 3.3 0.7 1.3 1.9 -1.5 1 -6.2 1.4 -7.9 0.8z"/>
<path d="M829.8 718 c-2.5 -1.5 -2.7 -15.6 -0.3 -14.6 0.9 0.3 3.9 -0.6 6.7 -1.9 5.6 -2.7 7.8 -3.1 7.8 -1.5 0 0.6 -2.9 2.4 -6.5 4 -5.6 2.5 -6.5 3.3 -6.5 5.5 0 1.5 0.5 3.5 1 4.6 1.4 2.5 5 2.5 5.7 -0.1 0.7 -2.5 3.3 -2.7 3.4 -0.2 0 1 0.3 1.2 0.6 0.5 0.2 -0.7 1.1 -1.3 1.9 -1.3 0.8 0 1.4 -0.4 1.4 -1 0 -0.5 0.9 -1 2 -1 1.6 0 2 -0.7 2 -3 0 -2.3 0.4 -3 2 -3 4.3 0 0.5 8.7 -5.1 11.6 -4 2 -13.8 2.9 -16.1 1.4z"/>
<path d="M924 717.7 c0 -0.8 0.8 -1.7 1.8 -2.1 0.9 -0.3 2.3 -0.9 3.1 -1.2 0.9 -0.4 1.1 -0.2 0.7 0.5 -0.4 0.6 -0.1 1.1 0.8 1.1 2 0 9.3 -7 9.9 -9.5 l0.5 -2 0.1 2 c0.1 2.9 -3.4 8.2 -6.6 9.9 -1.6 0.8 -4.5 1.7 -6.6 2.1 -2.9 0.6 -3.7 0.4 -3.7 -0.8z"/>
<path d="M960 717.7 c0 -0.8 0.7 -1.8 1.5 -2.1 0.9 -0.3 2.1 -1.9 2.6 -3.6 0.6 -1.6 1.5 -3 2 -3 1.2 0 1.1 1.2 -0.1 4.4 -1.1 2.9 -0.2 3.3 3.1 1.6 1.2 -0.7 1.9 -0.7 1.9 -0.1 0 1.4 -2.8 2.8 -7.3 3.6 -2.9 0.6 -3.7 0.4 -3.7 -0.8z"/>
<path d="M653 715 c0 -2 0.5 -3 1.5 -3 0.8 0 1.5 0.7 1.5 1.5 0 0.9 0.7 1.8 1.5 2.1 2.5 1 1.7 2.4 -1.5 2.4 -2.7 0 -3 -0.3 -3 -3z"/>
<path d="M681 717.1 c0 -0.5 0.7 -1.1 1.5 -1.5 0.8 -0.3 1.5 -1.2 1.5 -2.1 0 -0.8 0.7 -1.5 1.5 -1.5 1 0 1.5 1 1.5 3 0 2.7 -0.3 3 -3 3 -1.6 0 -3 -0.4 -3 -0.9z"/>
<path d="M694 715 c0 -1.6 0.5 -3 1 -3 0.6 0 1 0.9 1 1.9 0 2.5 3.1 2.1 4.1 -0.5 0.6 -1.5 0.8 -1.2 0.8 1.4 0.1 3 -0.1 3.2 -3.4 3.2 -3.2 0 -3.5 -0.2 -3.5 -3z"/>
<path d="M761 697 l0 -21 3 0 c2.9 0 4.2 1.4 1.9 2.2 -1.4 0.5 -1.3 37.1 0.1 37.6 2.2 0.8 0.8 2.2 -2 2.2 l-3 0 0 -21z"/>
<path d="M770.3 716.8 c0.2 -0.7 1 -1.2 1.6 -1 0.8 0.1 1.1 -3.2 1.1 -10.8 0 -10.3 0.1 -11 2 -11 1.9 0 2 0.7 2 12 l0 12 -3.6 0 c-2.4 0 -3.4 -0.4 -3.1 -1.2z"/>
<path d="M782 696.4 l0 -21.7 3.3 0.7 c1.7 0.4 3.4 1.1 3.5 1.6 0.2 0.6 1 1 1.8 1 0.9 0 1.4 1.1 1.4 3.5 0 2.4 -0.5 3.5 -1.5 3.5 -1.3 0 -1.5 2.2 -1.5 13.5 0 8.3 0.4 13.5 1 13.5 0.6 0 1 1.4 1 3 0 2.9 -0.2 3 -4.5 3 l-4.5 0 0 -21.6z m6 6.1 c0 -7.7 -0.4 -12.5 -1 -12.5 -0.6 0 -1 4.8 -1 12.5 0 7.7 0.4 12.5 1 12.5 0.6 0 1 -4.8 1 -12.5z m0 -18.4 c0 -1.6 0.3 -3.6 0.6 -4.5 0.4 -1.1 0.1 -1.6 -1 -1.6 -1.2 0 -1.6 1 -1.6 4.5 0 2.5 0.5 4.5 1 4.5 0.6 0 1 -1.3 1 -2.9z"/>
<path d="M797 715 c0 -3.5 2.5 -4.2 3.3 -0.9 0.3 1.2 1 1.8 1.6 1.4 0.6 -0.3 1.1 0.1 1.1 0.9 0 1.1 -0.9 1.6 -3 1.6 -2.7 0 -3 -0.3 -3 -3z"/>
<path d="M806 716.5 c0 -0.9 0.6 -1.2 1.5 -0.9 1 0.4 1.5 0 1.5 -1.5 0 -1.4 0.6 -2.1 2 -2.1 1.6 0 2 0.7 2 3 0 2.8 -0.3 3 -3.5 3 -2.4 0 -3.5 -0.5 -3.5 -1.5z"/>
<path d="M817 714 c0 -3.9 0.1 -4 3.5 -4 1.9 0 3.5 0.5 3.5 1 0 0.6 0.7 1 1.5 1 0.9 0 1.5 1 1.5 2.6 0 1.9 -0.4 2.5 -1.5 2 -0.8 -0.3 -1.5 -0.1 -1.5 0.4 0 0.6 -1.6 1 -3.5 1 -3.4 0 -3.5 -0.1 -3.5 -4z"/>
<path d="M855.2 716.9 c0.2 -0.6 0.8 -1 1.3 -0.9 0.5 0.1 1.2 -0.7 1.6 -1.7 0.6 -1.4 0.8 -1.2 0.8 1 0.1 2.1 -0.4 2.7 -2 2.7 -1.1 0 -1.9 -0.5 -1.7 -1.1z"/>
<path d="M867 707.1 c0 -15 0.5 -17.1 4.1 -17.1 1.8 0 2.9 -0.5 2.9 -1.4 0 -1.5 2.1 -2.6 5.1 -2.6 1.2 0 1.9 0.7 1.9 2 0 1.6 -0.7 2 -3 2 -5.8 0 -7 2.6 -7 15 0 9.1 0.3 11 1.5 11 0.8 0 1.5 0.5 1.5 1 0 0.6 -1.6 1 -3.5 1 l-3.5 0 0 -10.9z"/>
<path d="M914.8 716.9 c-2.5 -1.4 -2.3 -3.3 0.1 -1.9 2.5 1.3 4.4 1.3 3.6 0 -0.3 -0.5 -0.1 -1 0.4 -1 0.6 0 1.1 0.9 1.1 2 0 2.2 -2.4 2.6 -5.2 0.9z"/>
<path d="M949.3 716 c-3.2 -1.9 -6.3 -6.6 -6.3 -9.5 0 -2.7 1.8 -1.6 2.5 1.5 0.7 3.1 5.6 8 8.1 8 0.9 0 1.2 -0.4 0.9 -1 -0.3 -0.5 -0.1 -1 0.4 -1 0.6 0 1.1 0.9 1.1 2 0 2.6 -2.5 2.6 -6.7 0z"/>
<path d="M985.4 716.4 c0.3 -0.9 0.6 -2.2 0.6 -3 0 -0.8 0.5 -1.4 1 -1.4 0.6 0 1 0.7 1 1.5 0 0.9 0.7 1.8 1.5 2.1 2.6 1 1.6 2.4 -1.6 2.4 -2.4 0 -3 -0.3 -2.5 -1.6z"/>
<path d="M994 717 c0 -0.5 0.7 -1 1.6 -1 1.4 0 1.5 -0.7 1 -3.7 -0.3 -2.1 -0.6 -7.7 -0.6 -12.5 l0 -8.8 -4.7 0.3 c-4.4 0.2 -4.8 0 -5.1 -2.2 -0.3 -2.1 -0.1 -2.3 2.4 -1.8 1.5 0.3 3.8 0.1 5.1 -0.4 1.9 -0.7 2.3 -0.5 2.3 0.9 0 1 0.4 2.2 0.9 2.7 0.5 0.6 1.1 5.8 1.3 11.7 0.2 6.7 0.8 11.2 1.6 12 2.3 2.3 1.3 3.8 -2.3 3.8 -1.9 0 -3.5 -0.4 -3.5 -1z"/>
<path d="M1008.1 715.3 c0 -2.2 0.2 -2.4 0.8 -1 0.4 1 1.1 1.8 1.6 1.7 0.5 -0.1 1.1 0.3 1.3 0.9 0.2 0.6 -0.6 1.1 -1.7 1.1 -1.6 0 -2.1 -0.6 -2 -2.7z"/>
<path d="M616.4 714.5 c-3 -3 -3.3 -3 -5 -0.7 -1.2 1.5 -1.3 1.3 -1.4 -2 0 -3.7 0.1 -3.8 3.5 -3.8 2.8 0 3.5 0.4 3.5 2 0 1.3 0.7 2 2 2 1.5 0 2 0.7 2 2.5 0 1.4 -0.5 2.5 -1 2.5 -0.6 0 -2.2 -1.1 -3.6 -2.5z"/>
<path d="M953 702.5 c0 -1.9 0.3 -3.5 0.7 -3.5 1.6 0 9.3 3.5 9.3 4.3 0 1 -3.8 0.9 -6.1 -0.3 -1.6 -0.9 -1.9 -0.7 -1.9 1 0 1.1 -0.4 2 -1 2 -0.5 0 -1 -1.6 -1 -3.5z"/>
<path d="M610 700.5 c0 -3.3 0.2 -3.5 3.5 -3.5 3.3 0 3.5 0.2 3.5 3.5 0 3.7 -2.5 5 -3.3 1.8 -0.4 -1.7 -0.5 -1.7 -0.6 0 0 0.9 -0.8 1.7 -1.6 1.7 -1 0 -1.5 -1.1 -1.5 -3.5z"/>
<path d="M635 699.6 c0 -2.6 1.7 -3.6 6.1 -3.6 5 0 3.4 2.4 -3.5 5 -2.3 0.9 -2.6 0.7 -2.6 -1.4z"/>
<path d="M846 697.5 c0 -2.1 0.5 -2.5 3 -2.5 3.7 0 4 2.2 0.5 3.8 -3.5 1.6 -3.5 1.6 -3.5 -1.3z"/>
<path d="M589 695.5 c0 -2.8 0.4 -3.5 2 -3.5 1.5 0 1.9 0.5 1.6 2.3 -0.3 1.2 -0.5 2.8 -0.5 3.5 -0.1 0.6 -0.8 1.2 -1.6 1.2 -1 0 -1.5 -1.1 -1.5 -3.5z"/>
<path d="M673 695.5 c0 -3.7 2.4 -5 3.2 -1.7 0.6 2.7 -0.2 5.2 -1.8 5.2 -0.9 0 -1.4 -1.1 -1.4 -3.5z"/>
<path d="M602.6 695.8 c-1 -3.8 -0.7 -4.8 1.4 -4.8 1.6 0 2 0.7 2 3.5 0 4 -2.4 4.9 -3.4 1.3z"/>
<path d="M739 695.1 c0 -1.6 0.4 -4.1 1 -5.5 0.8 -2.1 1.6 -2.6 4.5 -2.6 4.1 0 4.3 0.6 1.1 3.1 -1.4 1.1 -2.7 3.3 -3.1 4.9 -0.9 3.9 -3.5 4 -3.5 0.1z"/>
<path d="M921.7 695.8 c-1.4 -1.3 -2.8 -3.7 -3.1 -5.5 -0.5 -3 -0.3 -3.3 2.9 -3.9 5.6 -1 8.2 0.1 8.3 3.6 0.1 3.5 -1.3 4.9 -2.1 2 -0.6 -2.4 -3.4 -3.7 -4.9 -2.2 -1.9 1.9 0.1 5.2 3.3 5.2 1.9 0 2.9 0.5 2.9 1.5 0 2.3 -4.5 1.8 -7.3 -0.7z"/>
<path d="M798 693.7 c0 -2.7 0.5 -3.5 3.3 -4.6 1.7 -0.8 4 -1.8 5 -2.2 1.4 -0.7 1.7 -0.4 1.7 1.6 0 1.8 -0.6 2.5 -1.8 2.5 -2.1 0 -5.2 2.9 -5.2 4.8 0 0.7 -0.7 1.2 -1.5 1.2 -1 0 -1.5 -1 -1.5 -3.3z"/>
<path d="M937.2 694.5 c-1.6 -3.4 -1.5 -4.6 0.1 -3.9 0.7 0.2 2.2 -0.4 3.2 -1.6 1 -1.1 3 -2 4.4 -2 2.6 0.1 2.6 0.1 -1.1 3.4 -2.1 1.8 -3.8 4.1 -3.8 5 0 2.4 -1.5 1.9 -2.8 -0.9z"/>
<path d="M953 695.6 c0 -0.8 0.4 -2.6 1 -4 0.6 -1.7 0.6 -2.6 0 -2.6 -0.6 0 -1 -0.4 -1 -0.9 0 -1.2 6.6 -2.3 9.9 -1.6 2.3 0.5 2.8 1.2 2.9 3.5 0.1 3.5 -0.8 3.8 -2.6 1 -2.4 -3.8 -6.4 -2.2 -7.7 3.3 -0.7 2.8 -2.5 3.8 -2.5 1.3z"/>
<path d="M684.2 692.5 c0.4 -1.9 0.1 -2.5 -1.3 -2.5 -1.1 0 -1.9 -0.4 -1.9 -1 0 -0.5 1.6 -1 3.5 -1 3.3 0 3.5 0.2 3.5 3.5 0 2.9 -0.4 3.5 -2.1 3.5 -1.7 0 -2 -0.5 -1.7 -2.5z"/>
<path d="M730 692.8 c0 -1.9 0.2 -2 1 -0.8 0.6 0.9 1.3 1.1 1.8 0.5 0.4 -0.5 1.5 -1.6 2.5 -2.4 1.5 -1.2 1.7 -1.1 1.7 1.8 0 2.9 -0.2 3.1 -3.5 3.1 -3 0 -3.5 -0.3 -3.5 -2.2z"/>
<path d="M822.1 691.4 c2.9 -3.5 11.5 -6 16.3 -4.8 2 0.5 2.6 1.2 2.6 3.5 0 3.4 -1 3.7 -2.8 0.9 -1.3 -2.1 -4.7 -2.7 -5.7 -1 -0.3 0.6 -1.5 1 -2.6 1 -1 0 -1.9 0.5 -1.9 1 0 0.6 -1.6 1 -3.6 1 -3.2 0 -3.5 -0.2 -2.3 -1.6z"/>
<path d="M842 690.5 c0 -3.1 1.1 -3.2 4.7 0 l2.8 2.4 -3.7 0.1 c-3.4 0 -3.8 -0.3 -3.8 -2.5z"/>
<path d="M887 691.3 c0 -0.9 0.3 -1.3 0.6 -1 0.4 0.3 1.8 -0.3 3.3 -1.4 2.2 -1.8 2.6 -1.9 2.9 -0.5 0.2 0.9 -0.3 2.3 -1.2 3.1 -2 2 -5.6 1.9 -5.6 -0.2z"/>
<path d="M903 689.9 c0 -3 0.1 -3.1 2.3 -1.7 3.3 2.2 3.4 4.8 0.3 4.8 -2.2 0 -2.6 -0.4 -2.6 -3.1z"/>
<path d="M702 689.5 c0 -1.5 0.7 -1.7 5.5 -1.7 4.8 0 5.5 0.2 5.5 1.7 0 1.2 -1.3 1.5 -5.5 1.5 -4.2 0 -5.5 -0.3 -5.5 -1.5z"/>
<path d="M580.7 687.8 c-0.4 -1.3 -0.2 -4 0.2 -6 0.8 -3.4 0.7 -3.8 -1 -3.8 -1 0 -1.9 -0.4 -1.9 -1 0 -0.5 1.6 -1 3.6 -1 l3.7 0 -0.7 5.3 c-0.3 2.8 -0.6 6 -0.6 7 0 2.5 -2.7 2.1 -3.3 -0.5z"/>
<path d="M661 688.5 c0 -1.4 1.2 -1.8 5.5 -1.8 3.9 0.1 4.5 0.3 4.5 1.8 0 1.1 -1.2 1.5 -5 1.5 -3.8 0 -5 -0.4 -5 -1.5z"/>
<path d="M717 688.6 c0 -1.7 3.7 -2.7 6.8 -1.9 4.1 1 2.6 3.3 -2.3 3.3 -3.2 0 -4.5 -0.4 -4.5 -1.4z"/>
<path d="M770.2 688.8 c0.7 -1.9 3.8 -2.2 3.8 -0.4 0 1 -0.9 1.6 -2.1 1.6 -1.2 0 -1.9 -0.5 -1.7 -1.2z"/>
<path d="M855.2 688.8 c0.7 -1.9 3.8 -2.2 3.8 -0.4 0 1 -0.9 1.6 -2.1 1.6 -1.2 0 -1.9 -0.5 -1.7 -1.2z"/>
<path d="M973 688.5 c0 -0.8 0.7 -1.5 1.5 -1.5 1.2 0 1.4 -0.7 0.9 -2.6 -0.5 -1.9 -0.4 -2.5 0.5 -2 0.6 0.4 1.1 2.3 1.1 4.2 0 2.7 -0.4 3.4 -2 3.4 -1.1 0 -2 -0.7 -2 -1.5z"/>
<path d="M684.1 685.3 c-2.9 -0.6 -10.8 -4.9 -13.5 -7.4 -3.6 -3.4 0.7 -2.2 6.5 1.7 5.1 3.4 5.4 3.5 5.7 1.5 0.2 -1.3 1.1 -2.1 2.3 -2.1 1.5 0 1.9 0.7 1.9 3.5 0 1.9 -0.1 3.4 -0.2 3.4 -0.2 -0.1 -1.4 -0.4 -2.7 -0.6z"/>
<path d="M775 685.5 c0 -1.4 3.2 -6.5 4 -6.5 0.6 0 1 1.6 1 3.5 0 3.1 -0.3 3.5 -2.5 3.5 -1.4 0 -2.5 -0.2 -2.5 -0.5z"/>
<path d="M977.1 681.7 c-0.5 -1.3 -1.6 -2.9 -2.5 -3.6 -2.3 -1.9 -2 -3.4 0.4 -2.1 1.7 0.9 5 5.8 5 7.5 0 1.5 -2.2 0.2 -2.9 -1.8z"/>
<path d="M950 679.5 c1.8 -2.2 8 -5.8 8.7 -5.1 0.4 0.3 0.4 0.7 0.2 0.9 -0.2 0.2 -2.1 1.5 -4.1 3 -4.1 3 -6.9 3.7 -4.8 1.2z"/>
<path d="M692 675 c0 -2.7 0.2 -2.9 1.9 -1.8 1.1 0.7 2.2 2 2.4 3 0.4 1.4 -0.1 1.8 -1.9 1.8 -2 0 -2.4 -0.5 -2.4 -3z"/>
<path d="M749.5 677 c0.3 -0.5 1.3 -1 2.1 -1 0.8 0 1.4 0.5 1.4 1 0 0.6 -0.9 1 -2.1 1 -1.1 0 -1.7 -0.4 -1.4 -1z"/>
<path d="M654.8 665.2 c-3.7 -2.2 -3.5 -3.2 0.7 -3.2 3.1 0 3.5 0.3 3.5 2.5 0 2.9 -0.6 3 -4.2 0.7z"/>
<path d="M631.1 658.3 c1.5 -1.8 7 -4.3 9.4 -4.3 0.8 0 1.5 0.8 1.5 1.8 0 2 -4.9 4.2 -9.4 4.2 -2.5 0 -2.7 -0.2 -1.5 -1.7z"/>
</g>
<g fill="#02c582">
<path d="M805.1 743.3 c0 -2.9 0.2 -3.3 0.8 -1.8 0.7 1.8 0.4 5.5 -0.5 5.5 -0.2 0 -0.4 -1.7 -0.3 -3.7z"/>
<path d="M808.3 743.5 c0 -2.2 0.2 -3 0.4 -1.7 0.2 1.2 0.2 3 0 4 -0.3 0.9 -0.5 -0.1 -0.4 -2.3z"/>
<path d="M600 717.9 c0 -0.5 0.7 -2.1 1.6 -3.4 2.3 -3.6 1.7 -22.1 -0.8 -23.9 -2.4 -1.7 -2.3 -3.6 0.1 -3.6 3.1 0 7.4 1.9 10.2 4.6 l2.6 2.4 1.9 -2.1 c2.4 -2.7 6.7 -4.9 9.4 -4.9 2.4 0 2.4 0.4 0.6 3.3 -1.6 2.6 -3 13.7 -1.7 13.7 0.5 0 0.7 1.8 0.4 4 -0.4 2.8 0 4.7 1.2 6.6 0.9 1.4 1.4 2.8 1.1 3.1 -1.2 1.3 -7.8 -1 -10.4 -3.7 l-2.9 -2.9 -1.9 2.5 c-2 2.6 -11.4 6.1 -11.4 4.3z"/>
<path d="M630 718.1 c0 -1.8 4.1 -11.6 5.2 -12.3 0.7 -0.4 3 -0.8 5.1 -0.8 3.6 0 3.7 -0.1 3.7 -3.5 0 -3.3 -0.1 -3.4 -2.5 -2.5 -1.4 0.5 -3.9 1.7 -5.6 2.6 -3.3 1.7 -4.6 1.4 -3.3 -0.8 1.2 -1.9 0.5 -7.9 -1.3 -10.6 -0.8 -1.3 -1.2 -2.6 -1 -2.9 1.2 -1.2 7.1 1.1 10.4 4 l3.5 3.1 -0.3 -6.5 c-0.2 -3.5 0 -6.9 0.4 -7.6 0.4 -0.6 0.4 -1.8 0.1 -2.7 -0.5 -1.4 0.3 -1.6 5.7 -1.6 l6.4 0 0 21 0 21.1 -7.7 -0.2 c-4.3 -0.1 -7.8 -0.6 -7.8 -1 0 -0.5 0.7 -0.9 1.5 -0.9 0.8 0 1.5 -0.7 1.5 -1.5 0 -1.1 -0.7 -1 -3.5 0.6 -3.7 2.2 -10.5 4.2 -10.5 3z"/>
<path d="M579 717.2 c0 -0.4 0.4 -1.2 0.9 -1.7 1.2 -1.2 1.9 -37.5 0.9 -37.5 -0.5 0 -0.8 -0.4 -0.8 -1 0 -0.6 3 -1 7 -1 6.4 0 8.6 0.9 6 2.5 -1.5 0.9 -1.3 10.2 0.2 10.7 1 0.4 1 1 0 3.2 -1.6 3.6 -1.6 19 0 21.6 1.1 1.7 1 2.2 -0.2 3 -1.8 1.2 -14 1.3 -14 0.2z"/>
<path d="M627.4 665.9 c2.1 -10.5 14.4 -14.8 24.6 -8.6 5 3.1 11 8.7 11 10.3 0 2 -1.5 1.7 -5.8 -1 -5.5 -3.5 -10.7 -4.9 -17 -4.4 -4.8 0.4 -6 1 -8.2 3.6 -3.5 4.2 -5.5 4.2 -4.6 0.1z"/>
</g>
<g fill="#788111">
<path d="M738 753.6 c0 -0.2 0.7 -1.7 1.5 -3.2 1.4 -2.7 1.5 -2.7 1.5 -0.6 0 1.2 0.6 2.2 1.3 2.2 0.8 0 0.7 0.4 -0.3 1 -1.5 1 -4 1.3 -4 0.6z"/>
<path d="M749 753 c0 -0.5 0.6 -1 1.4 -1 0.8 0 2.2 -1 3.1 -2.2 l1.7 -2.3 -0.7 2.3 c-0.4 1.5 -0.2 2.2 0.7 2.2 1 0 0.9 0.3 -0.2 1 -2 1.3 -6 1.3 -6 0z"/>
<path d="M791 753.2 c-2.7 -0.8 -6 -4.5 -6 -6.6 0 -1.6 0.4 -1.2 1.8 1.4 0.9 1.9 2.5 3.6 3.5 3.8 1.5 0.3 1.7 -0.2 1.1 -5.1 -0.4 -3.2 -0.2 -6.8 0.4 -8.6 1.4 -3.8 0.1 -4 -3.5 -0.5 -2.7 2.7 -3.9 2.9 -2 0.3 1.9 -2.5 5.3 -3.9 9.4 -3.9 l3.8 0 0.1 4.8 0.2 4.7 -1.1 -3.5 c-1.2 -3.9 -2.4 -5.1 -4.4 -4.3 -0.9 0.4 -1.3 1.7 -1.1 3.7 0.2 2.5 0.9 3.3 3.6 4.1 3.2 0.9 3.4 1.1 2.8 4.7 -0.4 2.7 -0.3 3.8 0.6 3.8 2.3 0 -1.6 2 -3.9 2 -2.8 0 -3 -1.6 -0.4 -2.3 1 -0.2 2.1 -1.7 2.4 -3.3 0.6 -3.4 1 -3 -3 -3.9 -3.6 -0.7 -4.1 0.3 -2.4 4.8 1.1 2.8 0.2 4.6 -1.9 3.9z"/>
<path d="M807 753.3 c0.1 -2.1 1.5 -3 2.7 -1.8 1 1 0.9 1.4 -0.3 1.9 -2 0.8 -2.4 0.8 -2.4 -0.1z"/>
<path d="M819.5 753 c-0.3 -0.5 0.1 -1 1 -1 0.9 0 1.3 -0.4 1 -1 -0.3 -0.5 -0.1 -1 0.4 -1 0.6 0 1.1 0.5 1.1 1 0 0.6 0.8 1 1.8 1.1 1.4 0 1.4 0.2 -0.3 0.9 -2.7 1.2 -4.3 1.2 -5 0z"/>
<path d="M827.7 750.8 c0.8 -4.3 1.3 -4.8 1.3 -1.5 0 1.5 0.5 2.7 1.1 2.7 0.5 0 0.7 0.5 0.4 1 -0.3 0.6 -1.3 1 -2 1 -1.1 0 -1.3 -0.8 -0.8 -3.2z"/>
<path d="M765 750.8 c-1.1 -1.2 -2 -2.9 -1.9 -3.7 0 -1.1 0.3 -0.9 0.9 0.5 0.5 1.2 1.9 2.9 3.2 3.8 1.2 0.9 1.7 1.6 1.1 1.6 -0.7 0 -2.1 -1 -3.3 -2.2z"/>
<path d="M832.8 751.8 c-1.9 -1.6 -3.1 -4.8 -1.8 -4.8 0.6 0 1 0.5 1 1.2 0 0.6 0.7 2 1.7 3 1.9 2.1 1.4 2.4 -0.9 0.6z"/>
<path d="M758.8 748.8 c1 -2.1 1.8 -2.9 2 -2 0.2 0.8 -0.5 2.4 -1.7 3.5 l-2 2.1 1.7 -3.6z"/>
<path d="M769.4 740.1 c0.1 -3.1 2.6 -6 2.6 -3 0 0.6 0.8 1.8 1.8 2.5 0.9 0.7 1.2 1.4 0.5 1.4 -0.6 0 -1.8 -0.7 -2.7 -1.5 -1.3 -1.3 -1.5 -1.2 -1.9 1.2 -0.4 2.2 -0.5 2 -0.3 -0.6z"/>
<path d="M804.8 741.5 c-0.3 -1.1 -0.9 -2.9 -1.3 -4 -0.6 -1.7 -0.5 -1.7 0.5 -0.5 0.9 1.1 1.3 1.2 1.7 0.3 0.7 -1.9 3.3 -1.5 3.2 0.5 0 1.3 -0.2 1.4 -0.6 0.2 -0.4 -1 -1 -0.4 -1.8 2 -1 2.8 -1.3 3.1 -1.7 1.5z"/>
<path d="M819.3 739.6 c1.5 -1.8 2.4 -3.6 2.1 -3.9 -0.3 -0.2 0.7 -0.8 2.2 -1.1 1.5 -0.4 3.2 -0.2 3.7 0.3 0.8 0.8 0.5 1.1 -1 1.1 -3.1 0 -4 2 -1.7 3.8 1.8 1.4 1.8 1.4 -0.3 0.9 -1.7 -0.4 -2.3 -0.1 -2.3 1.1 0 1.4 -0.2 1.4 -0.9 0.3 -0.6 -0.9 -1.1 -1 -1.5 -0.2 -0.4 0.6 -1.2 1.1 -1.8 1.1 -0.6 0 0.1 -1.5 1.5 -3.4z"/>
<path d="M832.1 741.1 c-0.8 -1.3 -0.6 -2.3 0.5 -3.7 1.5 -1.8 1.5 -1.8 0.5 0.1 -0.6 1.2 -0.6 2.6 0 3.7 0.5 1 0.7 1.8 0.5 1.8 -0.3 0 -1 -0.8 -1.5 -1.9z"/>
<path d="M746.2 736.5 c0 -2.2 0.2 -3.4 0.5 -2.8 0.3 0.8 1.4 1.1 2.9 0.7 1.3 -0.3 2.4 -0.2 2.4 0.4 0 0.5 -1.1 1.3 -2.4 1.6 -1.4 0.3 -2.7 1.4 -2.9 2.4 -0.3 0.9 -0.5 -0.1 -0.5 -2.3z"/>
<path d="M842.5 738.9 c-0.4 -0.6 -0.4 -1.3 -0.1 -1.6 0.3 -0.4 0.6 -0.1 0.6 0.5 0 0.7 0.7 1.2 1.5 1.2 2.2 0 1.8 -1.5 -0.7 -3.3 l-2.3 -1.6 2.3 0.6 c2.3 0.6 4.6 3.6 3.5 4.7 -1 1 -4.1 0.7 -4.8 -0.5z"/>
<path d="M784 735.8 c0 -0.7 2 -3.2 4.5 -5.5 5.4 -5 9.9 -6.2 14.4 -4 1.7 0.8 4 1.3 5.1 1 1.7 -0.4 2 -0.1 1.9 2.3 -0.1 1.7 -0.3 2.2 -0.6 1.2 -0.5 -2.1 -1.9 -2.3 -2.6 -0.5 -0.4 0.9 -0.6 0.9 -0.6 0 -0.1 -0.7 -1.5 -2 -3.2 -2.9 -4.1 -2.1 -8.8 -1.2 -12 2.3 l-2.4 2.6 2.3 -1.2 c4.3 -2.2 3.1 -0.7 -1.9 2.7 -2.8 1.8 -4.9 2.7 -4.9 2z"/>
<path d="M828.2 717.5 c-1.7 -0.5 -3.9 -1.8 -4.9 -2.7 -1.6 -1.7 -1.6 -1.8 2 -1.8 2 0 3.7 0.4 3.7 0.9 0 0.5 1.4 1.1 3 1.5 1.7 0.3 3 1.2 3 2 0 1.7 -2.3 1.7 -6.8 0.1z"/>
<path d="M836 717.5 c0 -0.8 0.4 -1.5 0.9 -1.5 0.5 0 1.2 -1.8 1.6 -3.9 0.3 -2.2 1.6 -4.7 2.7 -5.8 2.1 -1.8 2.1 -1.8 1.6 3 -0.3 2.6 -0.2 4.7 0.3 4.7 0.5 0 0.9 -0.4 0.9 -1 0 -0.5 0.7 -1 1.5 -1 0.8 0 1.5 -0.7 1.5 -1.5 0 -0.9 0.9 -1.5 2.5 -1.5 3.1 0 3.2 1.2 0.3 4.2 -4.3 4.4 -13.8 7.4 -13.8 4.3z"/>
<path d="M916.6 717.4 c-2.2 -0.8 -4.8 -2.2 -5.8 -3.1 -1.1 -1 -1.8 -1.2 -1.8 -0.4 0 0.6 0.7 1.4 1.5 1.7 2.5 1 1.7 2.4 -1.5 2.4 l-3 0 0 -6.5 c0 -4.9 0.3 -6.5 1.4 -6.5 0.8 0 1.7 1.3 2.1 3 0.7 3.1 5.6 8 8.1 8 1 0 1.1 -0.6 0.4 -2.6 -1.3 -3.3 -1.3 -8.4 0 -8.4 0.6 0 1 1.1 1 2.4 0 1.2 0.5 3.7 1.1 5.5 0.9 2.5 1.7 3.1 3.9 3.1 2.2 0 3 -0.6 3.9 -3.1 0.6 -1.8 1.1 -4.3 1.1 -5.5 0 -1.3 0.5 -2.4 1 -2.4 1.3 0 1.3 5.1 0 8.4 -1.4 3.8 1 3.4 5.4 -0.8 3.3 -3.1 3.6 -3.8 3.6 -9 0 -6.8 -1.9 -11 -6 -13.1 -3.9 -2 -4.1 -1.9 -3 1.1 1.3 3.3 1.3 8.4 0 8.4 -0.5 0 -1 -0.4 -1 -0.9 0 -0.5 -1.4 -1.1 -3.2 -1.5 -1.7 -0.3 -4 -1.4 -5 -2.3 -1.7 -1.5 -1.8 -1.4 -1.8 1.5 0 1.8 -0.4 3.2 -1 3.2 -1.3 0 -1.3 -5.1 0 -8.4 1.1 -3.1 0.5 -3.2 -3.7 -0.7 -1.8 1.2 -3.7 3.5 -4.4 5.5 -1.5 4.2 -3.9 4.8 -3.9 1.1 0 -3.2 -4.1 -7.5 -7.2 -7.5 -4.7 0 -6.8 1.2 -8 4.6 -1.6 4.4 -3.4 4.3 -4.2 -0.1 -0.6 -2.9 -1.1 -3.5 -3.1 -3.5 -2.1 0 -2.5 0.5 -2.5 3 0 1.9 -0.5 3 -1.4 3 -0.8 0 -1.7 -1.3 -2.1 -3 -0.4 -1.6 -1.3 -3 -2 -3 -2.3 0 -2.9 -2.2 -1.1 -3.6 2.6 -1.9 9.3 -1 12 1.5 l2.3 2.1 2.3 -2 c2.9 -2.5 7.8 -3.4 11.3 -2.1 3.2 1.2 5.7 3.4 5.7 5 0 1.6 1.7 1.4 2.3 -0.2 0.6 -1.7 6.8 -4.7 9.6 -4.7 1.7 0 2.1 0.6 2.1 3.5 0 3.7 2 5.6 5.1 4.8 1.5 -0.4 1.6 -0.9 0.7 -3.4 -0.5 -1.6 -1.6 -2.9 -2.4 -2.9 -2 0 -1.7 -2 0.4 -2.1 3 -0.2 4.6 0.2 8.6 2.2 4.4 2.3 4.2 2.3 11.8 -5.8 6.3 -6.7 12.7 -10.3 18.2 -10.3 8.3 0 15.6 5.6 15.6 12 0 1.7 0.7 2 4.4 2 2.5 0 4.8 0.4 5.1 1 0.4 0.6 1.8 0.4 3.7 -0.6 6.2 -3.2 14.4 0.9 15.5 7.9 0.7 4.7 -1.2 5 -2.1 0.3 -0.8 -4 -3 -6.1 -7.4 -7.1 -3.2 -0.7 -3.3 -0.6 -2.3 1.3 0.6 1.2 1.1 2.9 1 3.9 0 1.5 -0.2 1.4 -1.1 -0.4 -1.1 -2.3 -3.3 -2.9 -5.4 -1.5 -2.5 1.6 -3.4 5.6 -3.4 14.6 0 7.9 0.3 9.6 1.5 9.6 0.8 0 1.5 0.5 1.5 1 0 0.6 -3.7 1 -9 1 -8.3 0 -11.2 -0.9 -7.5 -2.4 0.8 -0.3 1.5 -1.4 1.5 -2.5 0 -1.7 -0.3 -1.6 -2.8 0.9 -3.9 3.9 -12.6 5.8 -18.4 4.1 -8.8 -2.7 -11.8 -6.8 -11.8 -16.2 0 -9.7 6.1 -15.2 16.9 -15.1 6.7 0 9.7 1.1 13.2 4.6 2.3 2.2 2.8 2.4 3.3 1 0.9 -2.3 0.8 -2.4 -1.4 -2.4 -2.5 0 -2.6 -1.5 -0.2 -2.9 1.6 -1 1.5 -1.3 -0.9 -3.5 -3.5 -3.1 -9.4 -3.9 -15.2 -2.2 -4.1 1.2 -12.6 6.6 -16.5 10.3 -0.7 0.7 -1.7 1.3 -2.2 1.3 -0.6 0 -0.5 1.1 0 2.6 1.8 4.5 1.2 12.4 -1.2 16.1 -3.6 5.9 -14.4 8.7 -22.2 5.7z m37.4 -4 c-1.3 -3.3 -1.3 -7.4 0 -7.4 0.6 0 1 0.8 1 1.9 0 4.1 2.2 8.1 4.4 8.1 2 0 6.5 -3.6 5.9 -4.6 -0.8 -1.1 -0.2 -5.4 0.7 -5.4 1.3 0 1.3 4.1 0 7.4 -1.3 3.6 1 3.5 5.2 -0.3 2.7 -2.4 3.2 -3.6 3.6 -8.8 0.5 -7.1 -1.3 -11.5 -5.8 -13.8 -3.9 -2 -4 -2 -2.9 1.7 1.2 4.3 1.2 6.8 -0.1 6.8 -0.5 0 -1 -0.8 -1 -1.9 0 -1 -0.5 -3.2 -1.1 -5 -0.9 -2.5 -1.6 -3.1 -4 -3.1 -2.3 0 -3.2 0.6 -4 2.7 -1.4 3.7 -0.3 7.8 2.6 9.3 1.4 0.7 2.5 1.7 2.5 2.2 0 1.1 -0.7 1 -3.2 -0.3 -1.6 -0.8 -2.2 -0.8 -2.8 0.2 -1.4 2.2 -2.4 -6.2 -1.3 -10.3 1.2 -4.3 1.2 -4.3 -2.7 -2.3 -4.5 2.3 -6.3 6.7 -5.8 13.8 0.4 5.2 0.9 6.4 3.6 8.8 4.2 3.8 6.5 3.9 5.2 0.3z m32 -10.9 c0 -12.2 -0.2 -13.5 -1.7 -13.5 -4.9 0.1 -6.3 3.9 -6.3 16.4 l0 10.6 4 0 4 0 0 -13.5z m-25 -23.9 c4.5 -0.7 10.6 0.7 14.1 3.3 l2.8 2.1 -0.8 -2.2 c-1.8 -4.9 -9.2 -7.7 -16.4 -6.4 -2 0.4 -5.4 2.3 -7.9 4.6 l-4.3 4 4.5 -2.4 c2.5 -1.3 6.1 -2.6 8 -3z"/>
<path d="M771 716.4 c0 -0.8 0.5 -1.2 1 -0.9 0.6 0.3 1.4 -0.4 1.9 -1.7 0.9 -2.1 1 -2.1 1 1 0.1 2.6 -0.3 3.2 -1.9 3.2 -1.1 0 -2 -0.7 -2 -1.6z"/>
<path d="M783 715 c0 -1.6 0.5 -3 1 -3 0.6 0 1 0.6 1 1.4 0 0.8 0.7 1.6 1.5 2 1 0.4 1.5 -0.1 1.5 -1.4 0 -1.1 0.5 -2 1 -2 0.6 0 1 1.4 1 3 0 2.8 -0.3 3 -3.5 3 -3.2 0 -3.5 -0.2 -3.5 -3z"/>
<path d="M799.1 714.8 c0.1 -2.5 0.3 -2.7 0.6 -1 0.3 1.5 1 2.2 1.9 1.8 0.8 -0.3 1.4 0.1 1.4 0.9 0 0.8 -0.9 1.5 -2 1.5 -1.6 0 -2 -0.6 -1.9 -3.2z"/>
<path d="M805.3 716.8 c0.2 -0.7 1.3 -1.2 2.5 -1 1.9 0.3 2 0 1.1 -3 -0.5 -1.8 -0.9 -7.5 -0.9 -12.5 0 -8.6 0.1 -9.3 2 -9.3 1.8 0 2 0.7 2 8.3 0 4.5 0.3 10.6 0.6 13.5 l0.7 5.2 -4.2 0 c-3 0 -4.1 -0.4 -3.8 -1.2z"/>
<path d="M856 716.4 c0 -0.8 0.5 -1.2 1 -0.9 0.6 0.4 1 -3.1 1 -9.7 0 -11.6 0.6 -14.8 2.6 -14.8 1.1 0 1.4 2.7 1.4 13.5 l0 13.5 -3 0 c-2.1 0 -3 -0.5 -3 -1.6z"/>
<path d="M870 716.6 c0 -0.9 0.7 -1.2 2 -0.9 1.1 0.3 2 0.9 2 1.4 0 0.5 -0.9 0.9 -2 0.9 -1.1 0 -2 -0.6 -2 -1.4z"/>
<path d="M875 716.6 c0 -0.8 0.8 -1.3 1.8 -1.2 1.1 0.1 1.6 -0.5 1.4 -1.6 -0.2 -1.2 0.4 -1.8 1.8 -1.8 1.6 0 2 0.6 2 3 0 2.8 -0.3 3 -3.5 3 -2.3 0 -3.5 -0.5 -3.5 -1.4z"/>
<path d="M993 717 c0 -0.5 1.1 -1 2.4 -1 2.3 0 2.4 -0.2 1.6 -3.1 -0.5 -1.6 -0.5 -4 -0.1 -5.2 0.7 -1.8 0.9 -1.6 1.5 1.8 1 5.1 2.2 6.5 5.7 6.5 2.2 0 2.9 -0.5 2.9 -2 0 -1.1 0.5 -2 1 -2 0.6 0 1 0.9 1 2.1 0 1.1 0.5 1.7 1 1.4 0.6 -0.3 1 0.1 1 0.9 0 1.3 -1.5 1.6 -9 1.6 -5.3 0 -9 -0.4 -9 -1z"/>
<path d="M895.7 716.3 c1.9 -0.4 2.1 -0.9 1.6 -3.4 -0.5 -2.5 -0.2 -2.9 1.6 -2.9 1.7 0 2.1 0.6 2.1 3.5 0 3.4 -0.1 3.5 -3.7 3.4 -2.3 -0.1 -2.9 -0.3 -1.6 -0.6z"/>
<path d="M827 708 c0 -3.9 0.1 -4 3.5 -4 1.9 0 3.5 0.5 3.5 1 0 0.6 -0.7 1 -1.5 1 -1 0 -1.5 1 -1.5 3 0 2.3 -0.4 3 -2 3 -1.7 0 -2 -0.7 -2 -4z"/>
<path d="M827 697.5 c0 -3.8 0.3 -4.5 2 -4.5 2.1 0 2.6 2.3 1.4 6.8 -1.1 4.1 -3.4 2.6 -3.4 -2.3z"/>
<path d="M842 699.5 c0 -1.4 -0.4 -2.5 -0.8 -2.5 -0.5 0 -1.4 -1.8 -2.1 -4 -0.9 -2.9 -1.7 -4 -3.1 -4 -2.5 0 -2.6 -1.7 -0.2 -2.2 3.7 -0.9 11.6 2.8 8.5 3.9 -0.7 0.3 -1.3 1.7 -1.3 3.2 0 2.5 0.3 2.8 2.5 2.3 1.7 -0.3 2.5 -1.1 2.5 -2.5 0 -1.9 0.1 -2 2 -0.2 3.4 3.1 2.5 4.2 -5.7 7.5 -2 0.8 -2.3 0.6 -2.3 -1.5z"/>
<path d="M773.7 697.8 c-0.8 -3.1 0.2 -6.8 1.9 -6.8 1 0 1.4 1.3 1.4 4.5 0 4.9 -2.3 6.4 -3.3 2.3z"/>
<path d="M797 698.3 c0 -4.6 1.4 -12.3 2.1 -12.3 0.5 0 0.9 0.9 0.9 2 0 2 0 2 4.1 -0.1 3 -1.5 5.1 -1.9 7.5 -1.4 5.4 1 4.2 3.2 -2 3.7 -6 0.5 -8 2 -9.1 6.6 -0.7 3.3 -3.5 4.5 -3.5 1.5z"/>
<path d="M816 691.3 l0.1 -3.8 2.3 2.7 c1.7 1.9 2.7 2.3 3.5 1.5 0.8 -0.8 1.1 -0.5 1.1 1.1 0 1.8 -0.6 2.2 -3.5 2.2 -3.4 0 -3.5 -0.1 -3.5 -3.7z"/>
<path d="M770.6 688.5 c0.4 -0.8 1.2 -1.5 2 -1.5 0.7 0 2.1 -1.3 3.1 -3 2.3 -3.9 3.3 -3.8 3.3 0.5 0 3.1 -0.3 3.5 -2.5 3.5 -1.4 0 -2.5 0.5 -2.5 1 0 0.6 -0.9 1 -2 1 -1.3 0 -1.8 -0.5 -1.4 -1.5z"/>
<path d="M855.6 688.5 c0.4 -0.8 1.2 -1.5 2 -1.5 0.8 0 1.4 0.7 1.4 1.5 0 0.8 -0.9 1.5 -2 1.5 -1.3 0 -1.8 -0.5 -1.4 -1.5z"/>
<path d="M788.5 681.1 l0.5 -3 -5.7 0.6 -5.8 0.6 1.9 -2.2 c2 -2.2 5.6 -2.9 5.6 -1.1 0 0.6 1.6 1 3.5 1 3.3 0 3.5 0.2 3.5 3.5 0 2.8 -0.4 3.5 -2 3.5 -1.7 0 -1.9 -0.5 -1.5 -2.9z"/>
<path d="M797 679 c0 -2.6 0.4 -3 2.6 -3 1.7 0 2.4 0.4 2 1.3 -0.3 0.6 -0.9 2 -1.2 3 -1.1 2.9 -3.4 2 -3.4 -1.3z"/>
</g>
<g fill="#027b49">
<path d="M738.5 753 c-0.2 -0.3 0.3 -1.1 1.1 -1.8 0.8 -0.7 1.4 -0.8 1.4 -0.2 0 0.5 1.1 1 2.5 1 1.4 0 2.5 -0.5 2.5 -1 0 -0.6 0.8 -0.5 2 0.2 1.1 0.7 2 1.5 2 1.8 0 0.7 -11.1 0.7 -11.5 0z"/>
<path d="M767.4 752.5 c-1.8 -1.3 -1.8 -1.4 0.5 -0.8 1.8 0.4 2.2 0.3 1.7 -0.6 -0.6 -0.9 -0.3 -0.9 1.3 0.1 1.2 0.7 2.1 1.6 2.1 2 0 1.3 -3.5 0.9 -5.6 -0.7z"/>
<path d="M791 753 c-1 -0.6 -1.1 -1 -0.2 -1 0.6 0 1.2 -0.8 1.2 -1.7 0.1 -1.7 0.1 -1.7 1.1 0 0.5 0.9 1.7 1.7 2.4 1.7 0.8 0 1.5 0.5 1.5 1 0 1.3 -4 1.3 -6 0z"/>
<path d="M798.1 751.2 c0 -1.5 0.5 -3.6 1 -4.7 0.7 -1.5 0.8 -1 0.4 1.8 -0.7 4.2 0.5 4.8 3.9 2 2.1 -1.8 2.1 -1.8 0.3 0.4 -1 1.1 -2.7 2.3 -3.8 2.6 -1.5 0.4 -1.9 0 -1.8 -2.1z"/>
<path d="M807.5 753 c-0.2 -0.3 0 -1.2 0.6 -2 0.6 -1 0.9 -1.1 0.9 -0.2 0 0.7 1.3 1.2 3 1.2 1.7 0 3 -0.5 3 -1 0 -0.6 0.6 -0.5 1.4 0.2 0.8 0.7 1.2 1.5 1 1.8 -0.7 0.6 -9.5 0.6 -9.9 0z"/>
<path d="M823 753 c-2.5 -0.4 -3.8 -0.8 -2.9 -0.8 1.2 -0.2 1.5 -1 1.3 -2.9 l-0.4 -2.8 1.1 2.8 c0.7 1.9 1.8 2.7 3.5 2.7 2.1 0 2.4 -0.4 2.4 -3.8 0 -4.1 -1.4 -6.5 -4.2 -7.5 -1.3 -0.5 -1.8 -0.1 -1.9 1.1 0 1.3 -0.3 1.2 -1.1 -0.5 -1.1 -2.3 0.3 -5.3 2.4 -5.3 0.6 0 0.6 0.6 -0.1 1.4 -1 1.1 -0.8 1.6 0.7 2 1.1 0.4 2.6 1.4 3.4 2.4 1.9 2.1 3 12.3 1.4 12 -0.6 0 -3.1 -0.4 -5.6 -0.8z"/>
<path d="M834.4 752.8 c-3 -1.4 -4.8 -5.4 -2.8 -6.2 2.3 -0.9 3.1 -0.7 1.5 0.3 -0.8 0.5 -1.1 1.6 -0.8 2.5 0.8 2.1 4 3.3 4.5 1.7 0.3 -0.9 0.7 -0.9 1.8 0 3.2 2.6 0.2 3.9 -4.2 1.7z"/>
<path d="M791 741.5 c0 -1.1 0.5 -2.7 1.1 -3.5 0.9 -1.3 1 -1.2 0.5 0.3 -0.3 1 0.2 2.5 1.4 3.7 2 2 2 2 -0.5 1.8 -1.8 -0.2 -2.5 -0.8 -2.5 -2.3z"/>
<path d="M760.1 741.6 c-0.1 -1.1 -0.8 -2.8 -1.8 -3.8 -0.9 -1 -1.2 -1.8 -0.6 -1.8 1.4 0 3.6 4.6 3 6.2 -0.3 0.8 -0.6 0.6 -0.6 -0.6z"/>
<path d="M782.6 741.4 c-0.3 -0.9 -0.6 -2.2 -0.6 -3 0 -2.3 5 -7.3 7.2 -7.1 1.6 0.1 1.2 0.8 -2.2 3.7 -3.4 2.9 -4.1 4.1 -3.6 5.8 0.8 2.5 0.1 3 -0.8 0.6z"/>
<path d="M785 741.4 c0 -2 3.8 -6.4 5.6 -6.4 0.5 0 0.1 0.5 -0.9 1.1 -1.1 0.6 -2.5 2.5 -3.3 4.3 -1 2.4 -1.3 2.6 -1.4 1z"/>
<path d="M798.3 738.5 c-0.6 -1.9 -0.8 -3.5 -0.3 -3.5 0.8 0 2.3 6 1.7 6.7 -0.2 0.1 -0.8 -1.3 -1.4 -3.2z"/>
<path d="M802.9 737.9 c-2.7 -2.9 -2.3 -4.1 0.5 -1.4 2 2.1 2.6 1.9 2.6 -1 0 -1.6 0.6 -2.5 1.5 -2.5 1 0 1.5 1 1.4 3.3 0 1.7 -0.3 2.6 -0.6 1.8 -0.4 -1.1 -0.8 -0.9 -1.7 0.6 -1.1 2 -1.2 2 -3.7 -0.8z"/>
<path d="M753 738 c-0.6 -1.1 -1.7 -2 -2.5 -2 -0.8 0 -1.5 -0.4 -1.5 -1 0 -1.3 5.7 -1.3 6.5 0 0.3 0.6 -0.1 0.7 -1 0.4 -1.3 -0.5 -1.4 -0.2 -0.5 2 1.1 3.1 0.5 3.5 -1 0.6z"/>
<path d="M837 737.1 c-1.5 -2.9 -1.3 -3.1 2.3 -3.1 2.8 0 3.2 0.4 3.4 2.7 0.1 2.2 -0.1 2.4 -0.8 1 -1.2 -2.1 -4.4 -2.3 -3.5 -0.2 0.8 2.2 -0.1 1.9 -1.4 -0.4z"/>
<path d="M740.1 730.8 c-0.1 -1 -0.5 -1.8 -1.1 -1.8 -0.5 0 -1 -0.4 -1 -1 0 -0.5 0.9 -1 2 -1 2.2 0 2.3 0.5 1 3.5 -0.7 1.7 -0.9 1.7 -0.9 0.3z"/>
<path d="M791.4 728.3 c1.1 -1.3 2.6 -2.3 3.5 -2.2 1.4 0 1.4 0.1 0.1 0.6 -0.8 0.3 -2.4 1.3 -3.5 2.2 -2 1.6 -2 1.6 -0.1 -0.6z"/>
<path d="M803.5 727.9 c-1.8 -1.1 -2.4 -1.9 -1.4 -1.9 0.9 0 2.4 0.9 3.4 2 2.2 2.4 1.9 2.4 -2 -0.1z"/>
<path d="M599 718 c0 -0.5 0.9 -1.9 2 -3 1.1 -1.1 2 -3.1 2 -4.5 0 -1.4 0.5 -2.5 1 -2.5 1.3 0 1.3 2.1 0 5.4 -1.3 3.4 0.8 3.5 4.7 0.2 2.8 -2.4 2.9 -2.7 2.8 -11 -0.2 -9.4 -0.9 -10.9 -6.1 -12.8 -1.9 -0.6 -3.4 -1.6 -3.4 -2.1 0 -0.5 0.7 -0.6 1.6 -0.3 0.9 0.3 2 0.6 2.4 0.6 0.5 0 2.5 1.4 4.4 3.1 l3.5 3 1.8 -2.1 c2.2 -2.7 6.5 -5 9.3 -5 2.4 0 2.5 0.8 0.5 3.4 -0.8 1.1 -1.5 3 -1.5 4.3 0 1.3 -0.4 2.3 -1 2.3 -1.3 0 -1.3 -2.1 0 -5.4 1.2 -3.2 0.3 -3.3 -4.1 -0.3 l-3.4 2.3 -0.1 8.7 c-0.2 8.5 -0.1 8.8 2.8 11.2 4 3.4 6.1 3.4 4.8 -0.1 -1.3 -3.3 -1.3 -5.4 0 -5.4 0.6 0 1 1 1 2.3 0 1.2 0.7 3.3 1.6 4.5 0.9 1.3 1.4 2.6 1 2.9 -1.3 1.3 -7.8 -1 -10.5 -3.8 -3 -2.9 -3 -2.9 -4.1 -0.8 -1.6 2.9 -13 7.3 -13 4.9z"/>
<path d="M629 717.5 c0 -0.8 0.4 -1.5 1 -1.5 0.5 0 1.4 -1.8 2 -4 1.4 -5.3 3.4 -7 8 -7 2.2 0 4 -0.5 4.3 -1.2 1 -3 2.1 0.8 1.9 6.3 l-0.3 5.9 4 0 4.1 0 0 -19 0 -19 -3.1 0 c-2.5 0 -3.3 0.6 -4.2 3 -0.6 1.7 -1.5 3 -1.9 3 -1.5 0 -1.9 -2.2 -0.7 -3.6 1 -1.3 1 -1.7 0 -2.3 -0.8 -0.6 -0.2 -1 1.9 -1.5 4.9 -0.9 12 -0.7 12 0.4 0 0.6 -0.4 1 -1 1 -1.5 0 -1.3 11.7 0.2 12.2 1 0.4 1 1 0 3.2 -1.5 3.3 -1.7 22.6 -0.2 22.6 0.6 0 1 0.5 1 1 0 1.3 -14 1.3 -16 0 -1.3 -0.8 -1.2 -1 0.3 -1 0.9 0 1.7 -0.6 1.7 -1.4 0 -1.1 -1 -0.9 -4.2 0.8 -5.7 3.1 -10.8 4.1 -10.8 2.1z m11.6 -4.9 c4.4 -4.4 4.3 -5.6 -0.5 -5.6 -4.3 0 -5.5 1.1 -6.4 5.8 -0.6 2.8 -0.4 3.2 1.4 3.2 1.2 0 3.6 -1.5 5.5 -3.4z"/>
<path d="M580 716.8 c0 -0.7 0.5 -2 1 -2.8 0.8 -1.3 1 -1.2 1 0.3 0 1.4 0.9 1.7 4.5 1.7 3.3 0 4.5 -0.4 4.5 -1.5 0 -2 1.9 -1.9 2.7 0.1 0.9 2.4 -1.5 3.4 -7.9 3.4 -4 0 -5.8 -0.4 -5.8 -1.2z"/>
<path d="M664.5 717 c-0.3 -0.5 -0.3 -1 0.2 -1 0.8 0 0.6 -18.7 -0.2 -22.7 -0.3 -1.3 -1.2 -2.3 -2 -2.3 -0.8 0 -1.5 -0.9 -1.5 -2 0 -1.7 0.7 -2 5 -2 4.1 0 5.6 0.5 7.5 2.5 2.4 2.3 2.5 3 2.5 13.9 0 6.6 0.4 11.7 1 12.1 0.6 0.3 1 1 1 1.6 0 1.2 -12.7 1.2 -13.5 -0.1z"/>
<path d="M682 717.1 c0 -0.5 0.4 -1.1 0.9 -1.3 1.3 -0.4 1.9 -25.8 0.7 -25.8 -0.6 0 -0.6 -0.3 0 -0.9 0.5 -0.5 3.6 -1.1 6.9 -1.3 l6 -0.3 0 15.2 0 15.3 -7.2 0 c-4 0 -7.3 -0.4 -7.3 -0.9z"/>
<path d="M698 717.2 c0 -0.4 0.4 -1.2 0.9 -1.7 1.2 -1.2 1.9 -25.5 0.9 -25.5 -0.5 0 -0.8 -0.4 -0.8 -1 0 -0.6 3 -1 7.1 -1 l7.1 0 -0.6 3.8 c-1.4 7.6 -1.8 22.4 -0.7 23.5 2.2 2.2 1 2.7 -6.4 2.7 -4.1 0 -7.5 -0.4 -7.5 -0.8z"/>
<path d="M719.5 717 c-0.3 -0.5 -0.3 -1 0.2 -1 1.2 0 0.3 -23.2 -0.9 -24.7 -0.6 -0.7 -1.4 -1 -1.9 -0.7 -0.5 0.3 -0.9 -0.4 -0.9 -1.5 0 -1.8 0.6 -2.1 5 -2.1 4.4 0 5.6 0.4 8.6 3.4 l3.5 3.4 -0.2 12.1 -0.3 12.1 -6.2 0 c-3.5 0 -6.6 -0.4 -6.9 -1z"/>
<path d="M633.2 700.7 c0.1 -1.2 -0.2 -4.9 -0.6 -8.1 -0.7 -5.3 -0.6 -5.8 0.9 -5.2 0.9 0.3 2.1 0.6 2.5 0.6 0.5 0 2.5 1.4 4.5 3.1 1.9 1.7 3.5 2.6 3.5 2 0 -0.6 0.5 -1.1 1 -1.1 0.6 0 1 1.6 1 3.6 0 2.7 -0.4 3.5 -1.4 3.1 -0.7 -0.3 -3.6 0.5 -6.5 1.8 l-5.1 2.4 0.2 -2.2z m8.8 -5.7 c-0.9 -1.7 -6.9 -6 -8.3 -6 -0.4 0 -0.2 1.2 0.3 2.6 0.6 1.4 1 3.8 1 5.4 l0 2.8 4 -1.5 c3.3 -1.3 3.8 -1.9 3 -3.3z"/>
<path d="M603 698.1 c0 -1 -0.2 -3.4 -0.5 -5.2 l-0.5 -3.4 1.4 3 c1.7 3.5 2 7.5 0.6 7.5 -0.5 0 -1 -0.8 -1 -1.9z"/>
<path d="M581.3 681.3 l0.1 -5.3 6.3 0 c6.7 0 7.1 0.3 4.8 3.4 -1.3 1.7 -1.5 1.8 -1.5 0.3 0 -1.2 -0.8 -1.7 -2.7 -1.7 -3.7 0 -4.7 0.9 -6 5 -1.1 3.5 -1.1 3.5 -1 -1.7z"/>
<path d="M684.3 685.3 c-1.2 -0.2 -2.4 -1 -2.7 -1.8 -0.3 -0.8 0 -1.2 0.8 -0.9 0.8 0.3 1.1 -0.5 0.8 -3 -0.8 -6.9 7.4 -10.4 11.7 -5 2.7 3.5 2.6 5.9 -0.4 8.9 -2.3 2.4 -4.8 2.8 -10.2 1.8z"/>
<path d="M659.1 668 c-6.1 -5.2 -17 -7.5 -23.6 -5 -1.4 0.5 -3.4 2.3 -4.3 4 -2.4 4.2 -4.6 4 -3.9 -0.4 1 -6.2 4.5 -9.9 11.5 -12 1.2 -0.4 2.2 -0.3 2.2 0.2 0 0.6 -1.1 1.3 -2.4 1.6 -2.7 0.7 -8.6 5.3 -8.6 6.7 0 0.5 1.9 0 4.2 -1.2 5.4 -2.8 13.3 -2.2 20.6 1.5 2.9 1.5 5.2 2.4 5.2 2.2 0 -1.2 -11.4 -8.5 -14.1 -9.1 -1.6 -0.4 -2.9 -1 -2.9 -1.5 0 -1.3 6.6 0.6 10.2 3 4.9 3.4 11.8 10.2 11.8 11.7 0 2.1 -2.2 1.4 -5.9 -1.7z"/>
</g>
<g fill="#0c4e36">
<path d="M791 753 c-0.9 -0.6 -1 -1 -0.3 -1 0.6 0 1.4 -0.8 1.6 -1.7 0.4 -1.7 0.5 -1.7 0.6 0 0.1 1.1 0.9 1.7 2.5 1.7 1.7 0 2.6 -0.8 3.4 -3.2 l1.1 -3.3 -0.5 3.3 c-0.4 2.3 -0.2 3.2 0.8 3.2 1 0 0.9 0.3 -0.2 1 -0.8 0.5 -2.8 1 -4.5 1 -1.6 0 -3.7 -0.5 -4.5 -1z"/>
<path d="M836 753 c-1.1 -0.7 -1.2 -1 -0.2 -1 0.8 0 1.2 -0.9 1 -2.2 -0.4 -2.7 -4.4 -3.8 -5.1 -1.3 -0.4 1.2 -0.5 1.1 -0.3 -0.2 0.1 -1.1 1.1 -1.9 2.4 -2.1 2 -0.3 2.1 -0.6 1 -2 -0.7 -0.9 0.8 -0.1 3.5 1.7 2.6 1.7 4.7 3.8 4.7 4.6 0 0.8 0.8 1.5 1.8 1.6 1.4 0 1.4 0.2 -0.3 0.9 -2.7 1.2 -6.7 1.2 -8.5 0z m6 -2.5 c0 -0.8 -0.9 -1.9 -2 -2.5 -1.7 -0.9 -2 -0.8 -2 0.8 0 1 0.3 2.2 0.7 2.5 1.2 1.2 3.3 0.7 3.3 -0.8z"/>
<path d="M780.3 750.1 c1.5 -1.8 2.7 -4.4 2.7 -5.7 0 -3.1 -2.7 -8.4 -4.2 -8.4 -0.6 0 -0.8 -0.3 -0.5 -0.6 0.4 -0.4 1.3 -0.2 2 0.4 0.8 0.7 1.6 0.9 1.9 0.6 0.3 -0.3 0.9 1.6 1.3 4.2 0.8 5.3 -0.5 9.3 -3.7 11.3 -1.9 1.2 -1.8 0.9 0.5 -1.8z"/>
<path d="M808 746.3 l0.5 -6.8 0.3 6.2 c0.2 4.8 0.7 6.3 2 6.6 1.1 0.3 0.8 0.5 -0.8 0.6 -2.5 0.1 -2.5 0 -2 -6.6z"/>
<path d="M820.7 752.4 c0.8 -0.3 1 -1.8 0.8 -3.7 l-0.5 -3.2 1 2.9 c0.5 1.6 1.5 3.3 2.2 3.7 0.8 0.6 0.2 0.8 -1.7 0.8 -1.6 0 -2.5 -0.3 -1.8 -0.5z"/>
<path d="M785.6 748.4 c-0.8 -2.2 -0.7 -7.6 0.2 -9.1 0.4 -0.6 0.7 1.5 0.7 4.8 0 3.2 -0.1 5.9 -0.1 5.9 -0.1 0 -0.5 -0.7 -0.8 -1.6z"/>
<path d="M805.3 740.5 l0.2 -8 -3.5 -1.7 c-1.9 -1 -2.9 -1.8 -2.2 -1.8 0.6 0 2.9 0.9 5 2 3.3 1.8 3.7 1.8 4 0.4 0.5 -1.9 -0.7 -3.2 -1.6 -1.8 -0.4 0.6 -1.3 0.3 -2.4 -0.8 -1 -1 -1.4 -1.8 -1 -1.8 0.4 0 1.3 0.5 2 1.2 0.9 0.9 1.2 0.9 1.2 0 0 -0.7 1.2 -1.2 2.6 -1.2 2 0 2.4 0.3 1.7 1.3 -0.6 0.6 -1.3 2.5 -1.7 4.2 -0.4 1.6 -1.2 3.3 -1.8 3.6 -0.6 0.4 -1.4 3.3 -1.8 6.5 -0.9 5.9 -0.9 5.9 -0.7 -2.1z"/>
<path d="M844.3 743.7 c-1.8 -1.2 -3.3 -2.6 -3.3 -3 0 -0.9 5.6 2.8 6.5 4.3 0.8 1.4 0.5 1.2 -3.2 -1.3z"/>
<path d="M793.1 743.4 c-1.8 -1.3 -2.1 -2.2 -1.6 -4.3 0.3 -1.4 1.1 -3 1.6 -3.6 0.6 -0.6 0.6 0.2 -0.1 1.9 -1.3 3.5 0.1 5.6 3.6 5.6 1.3 0 2.4 0.5 2.4 1 0 1.5 -3.3 1.2 -5.9 -0.6z"/>
<path d="M821.1 742.3 c-0.1 -0.7 -0.8 -1 -1.8 -0.6 -1.4 0.6 -1.4 0.2 0.4 -2.3 1.1 -1.6 1.8 -3.5 1.6 -4.1 -0.3 -0.8 0.5 -1.3 2.1 -1.3 3.2 0 3.3 0.6 0.4 3 l-2.3 1.9 2.5 1.1 c2.1 0.9 2.2 1 0.3 0.6 -1.4 -0.2 -2.3 0.2 -2.6 1.3 -0.3 0.9 -0.5 1.1 -0.6 0.4z"/>
<path d="M753.6 739.3 c-0.4 -1.7 -1.5 -3.4 -2.4 -3.6 -1.5 -0.4 -1.5 -0.5 0.1 -0.6 1.8 -0.1 4.1 4.2 3.4 6.3 -0.2 0.6 -0.7 -0.3 -1.1 -2.1z"/>
<path d="M757.1 737 c-1.3 -1.1 -1.9 -2 -1.3 -2 1 0 4.2 2.7 4.2 3.6 0 0.7 -0.4 0.5 -2.9 -1.6z"/>
<path d="M836.8 737.1 c-2 -2.3 -1.4 -3.1 2.4 -3.1 1.9 0 2.8 0.5 2.8 1.6 0 1.3 -0.3 1.4 -1.4 0.5 -1.6 -1.3 -3.2 0.2 -2.1 1.9 1 1.7 0.1 1.1 -1.7 -0.9z"/>
<path d="M786.5 732 c0.3 -0.5 2 -1.9 3.8 -3.1 l3.2 -2.3 -2.5 2.9 -2.5 2.8 2.5 -1.2 c2.4 -1.1 2.4 -1.1 0.6 0.3 -2.1 1.7 -6.1 2.2 -5.1 0.6z"/>
<path d="M739.3 729.5 c-1 -2.3 -0.9 -2.5 1.4 -2.5 1.9 0 2.3 0.3 1.6 1.3 -0.6 0.6 -1.2 1.7 -1.4 2.4 -0.2 0.7 -0.9 0.1 -1.6 -1.2z"/>
<path d="M745.8 729.8 c-0.4 -2.3 -0.2 -2.8 1.3 -2.8 1.1 0 1.9 0.5 1.9 1 0 0.6 -0.4 1 -0.9 1 -0.5 0 -1.1 0.8 -1.3 1.8 -0.3 1.2 -0.6 0.9 -1 -1z"/>
<path d="M815.1 730.3 c-0.1 -1.2 -0.7 -2.4 -1.3 -2.6 -0.7 -0.3 -0.3 -0.6 1 -0.6 2.4 -0.1 2.5 0.3 1.2 3.4 -0.8 1.9 -0.9 1.9 -0.9 -0.2z"/>
<path d="M597.3 718.3 c-2.2 -0.8 -1.4 -2.3 1.2 -2.3 3.8 0 4.7 -3 4.3 -14.2 -0.3 -9.1 -0.5 -10.2 -2.5 -11.6 -3 -1.9 -2.9 -3.2 0.1 -3.2 3.6 0 7.7 1.8 10.7 4.6 l2.6 2.4 1.9 -2.1 c2.5 -2.8 6.7 -4.9 9.9 -4.9 3 0 3.1 0.4 0.5 3 -1.2 1.2 -2 3.4 -2.1 5.8 0 2 -0.5 4.6 -1 5.7 -1.1 2.4 -0.6 -8 0.6 -10.7 1.2 -3.1 -2.4 -2.1 -6 1.5 -2.5 2.5 -3.2 3.9 -2.8 5.8 0.3 1.9 0 2.6 -1.1 2.6 -1.1 0 -1.6 -1 -1.6 -3.3 0 -3.6 -4.6 -8.4 -8.1 -8.4 -1.7 0 -1.8 0.3 -0.8 2.2 2 3.8 2.4 17.8 0.5 22.2 -1.4 3.4 -1.4 3.7 0 3.2 0.9 -0.3 1.9 -0.6 2.3 -0.6 0.5 0 2 -1.1 3.5 -2.5 1.8 -1.7 2.6 -3.4 2.6 -5.8 0 -2.4 0.4 -3.4 1.6 -3.4 1.2 0 1.4 0.7 1 2.8 -0.4 2.2 0.1 3.4 2.4 5.7 1.6 1.6 3.9 3.2 5 3.5 1.9 0.5 2.1 0.2 1.6 -1.6 -1.6 -5.2 -1.8 -8.7 -0.7 -8.7 0.6 0 1.1 1.4 1.1 3.1 0 4.3 1.7 6.9 4.5 6.9 2 0 2.6 -0.7 3.5 -4 1.3 -4.7 3.4 -7 6.3 -6.9 1.9 0 1.9 0.2 -0.5 1.1 -2.1 0.7 -3.1 2.1 -4.2 5.6 -0.7 2.6 -1.2 4.9 -1 5.1 0.2 0.2 2.5 -0.7 5.1 -2 5.2 -2.6 8 -7.2 5.4 -8.8 -1 -0.6 -1 -1 -0.1 -1.3 0.7 -0.2 1 -1.7 0.8 -3.5 l-0.3 -3.2 -7.8 3.5 c-8.7 3.8 -8.7 3.8 -8.7 2.3 0 -0.5 1.5 -1.6 3.3 -2.4 3.3 -1.4 3.4 -1.5 2.7 -5.9 -0.4 -2.5 -1.3 -5.2 -2 -6.1 -3.4 -4.1 4.6 -2.7 9.6 1.7 l3.4 3 0 -5.5 c0 -3.5 -0.5 -5.7 -1.2 -6 -0.9 -0.3 -0.7 -1 0.7 -2.1 1.4 -1.2 1.6 -1.9 0.8 -2.2 -3.3 -1.4 -0.6 -2.4 6.2 -2.4 4.3 0 7.5 0.4 7.5 1 0 0.6 -0.4 1 -1 1 -0.5 0 -1 0.8 -1.1 1.8 0 1.3 -0.2 1.2 -0.9 -0.5 -1.1 -2.7 -3.6 -2.9 -6.8 -0.7 -2.1 1.5 -2.2 2 -2.2 19.9 0.1 16.4 0.3 18.4 1.8 18.8 0.9 0.3 -0.2 0.5 -2.5 0.6 -2.4 0 -4.3 -0.3 -4.3 -0.9 0 -0.5 0.7 -1 1.5 -1 0.8 0 1.5 -0.7 1.5 -1.5 0 -1.1 -0.7 -1 -3.5 0.6 -8.2 4.8 -18.9 4.3 -24.4 -1.1 l-2.9 -3 -1.6 2.5 c-1 1.5 -3.5 3 -6.8 4 -5.5 1.6 -5.6 1.6 -7.5 0.8z m42.2 -20 c1.9 -0.9 3.5 -2 3.5 -2.4 0 -1.1 -7.2 -6.9 -8.5 -6.9 -0.8 0 -0.8 1.6 -0.1 5.5 0.6 3 1.1 5.5 1.3 5.5 0.1 0 1.8 -0.8 3.8 -1.7z"/>
<path d="M740.2 717.5 c-2.4 -0.7 -5.2 -2.1 -6.3 -3.1 -1.7 -1.6 -1.9 -1.6 -1.9 -0.1 0 1 0.7 1.7 1.6 1.7 0.8 0 1.2 0.5 0.9 1 -0.3 0.6 -4 1 -8.1 1 -4.3 0 -7.4 -0.4 -7.4 -1 0 -0.5 0.3 -1 0.8 -1 1.1 0 0.2 -23.3 -1 -24.7 -1.2 -1.4 -4.4 -0.1 -6.5 2.6 -1 1.3 -1.2 1 -1.3 -2.2 0 -3.3 0.3 -3.8 1.9 -3.2 1.1 0.3 2.2 0.1 2.6 -0.5 0.3 -0.5 2.9 -1 5.6 -1 4.3 0 5.5 0.5 8.1 3.1 l3.1 3 2.1 -2 c2.7 -2.5 7.1 -4.2 9.1 -3.5 1.8 0.7 1.8 0.4 -0.1 4.4 -2 4 -2.3 18.4 -0.5 21.8 0.6 1.2 2.1 2.2 3.2 2.2 1.2 0 1.9 0.5 1.7 1.3 -0.6 1.7 -2.7 1.8 -7.6 0.2z m-10.4 -13.1 c-0.2 -13.2 -0.9 -14.9 -7.2 -16 l-3.9 -0.7 1.6 2.4 c1.3 1.8 1.7 4.7 1.7 12.9 0 11.5 0.6 13 5.1 13 l2.8 0 -0.1 -11.6z m8.2 -0.6 c0 -3.6 -0.9 -5.8 -2.5 -5.8 -2.6 0 -3.5 6.7 -1 7.6 0.8 0.4 1.5 1.4 1.5 2.3 0 1.4 0.2 1.4 1 0.1 0.5 -0.8 1 -2.7 1 -4.2z"/>
<path d="M579 717.3 c0 -0.5 0.7 -1.7 1.5 -2.7 1.3 -1.8 1.5 -1.8 1.5 -0.3 0 1 1 2.2 2.3 2.7 1.9 0.8 1.7 0.9 -1.5 0.9 -2.1 0.1 -3.8 -0.2 -3.8 -0.6z"/>
<path d="M652.4 717.1 c1.1 -0.4 2.3 -1.6 2.7 -2.7 0.7 -1.7 0.8 -1.7 0.8 -0.1 0.1 0.9 0.6 1.7 1.1 1.7 0.6 0 1 0.5 1 1 0 0.6 -1.7 1 -3.7 0.9 -2.8 0 -3.3 -0.2 -1.9 -0.8z"/>
<path d="M664 717 c0 -0.5 0.4 -1 0.9 -1 0.5 0 0.7 -1.9 0.5 -4.2 -0.4 -4.2 -0.4 -4.2 0.7 -1.3 1.7 4.5 2.8 5.5 6 5.5 2.1 0 2.9 -0.5 2.9 -1.7 0 -1.5 0.2 -1.4 1.5 0.3 0.8 1 1.5 2.2 1.5 2.7 0 0.4 -3.1 0.7 -7 0.7 -4 0 -7 -0.4 -7 -1z"/>
<path d="M682 717.1 c0 -0.5 0.4 -1.1 0.9 -1.3 1.1 -0.4 1.9 -25.8 0.9 -25.8 -0.5 0 -0.8 -0.4 -0.8 -1 0 -0.5 2.1 -1 4.8 -0.9 4.1 0 4.4 0.2 2.2 1 -1.3 0.6 -2.7 1.2 -3 1.5 -0.3 0.3 -0.7 6.1 -1 13 l-0.5 12.4 4.3 0 c3.1 0 4.2 -0.4 4.2 -1.5 0 -0.8 0.5 -1.5 1 -1.5 0.6 0 1 0.7 1 1.5 0 2.3 3 1.8 4 -0.7 l0.9 -2.3 0 2.3 c0.1 1.9 0.6 2.2 4.6 2.2 3.6 0 4.5 -0.4 4.5 -1.7 0 -1.5 0.2 -1.4 1.5 0.3 0.8 1 1.5 2.2 1.5 2.7 0 0.4 -7 0.7 -15.5 0.7 -8.7 0 -15.5 -0.4 -15.5 -0.9z"/>
<path d="M752.1 717.1 c-2.6 -1.7 -0.4 -4.1 3.6 -4.1 2.1 0 4.8 -0.3 6.1 -0.6 1.6 -0.5 2.2 -0.2 2.2 1 0 0.9 0.7 1.9 1.5 2.2 0.8 0.4 1.5 1 1.5 1.5 0 1.2 -13.1 1.1 -14.9 0z"/>
<path d="M674.5 695.1 c-0.8 -3.7 -3.2 -5.9 -7.4 -6.7 -3.1 -0.7 -3.3 -0.6 -2.2 1.4 0.6 1.1 1.1 3.1 1 4.4 -0.1 2.1 -0.1 2.1 -1.1 -0.5 -0.9 -2.5 -1.5 -2.8 -3.9 -2.5 -1.9 0.3 -2.9 0 -2.9 -0.8 0 -2 3.4 -3.4 8.5 -3.4 5.6 0 9.5 3.2 9.5 8 0 3.8 -0.7 3.9 -1.5 0.1z"/>
<path d="M752.3 694.5 c-1.1 -3.3 -1 -3.5 1.3 -3.5 2.1 0 2.4 0.5 2.4 3.5 0 2.2 -0.5 3.5 -1.3 3.5 -0.8 0 -1.8 -1.6 -2.4 -3.5z"/>
<path d="M774.2 694 c0.2 -2.2 -0.1 -4.2 -0.7 -4.4 -0.6 -0.2 -0.5 -1 0.3 -2.2 0.7 -1.1 2.1 -3.8 3.1 -6.1 3 -6.4 8.1 -8.5 8.1 -3.3 0 2 -0.5 3 -1.5 3 -0.8 0 -1.5 0.9 -1.5 2 0 1.1 0.5 2 1 2 0.6 0 1 1.6 1 3.5 0 3.1 -0.3 3.5 -2.5 3.5 -2.1 0 -2.5 0.5 -2.5 3 0 2.6 -0.4 3 -2.6 3 -2.4 0 -2.6 -0.3 -2.2 -4z"/>
<path d="M700.3 693.6 c0.3 -3.8 0.3 -3.8 -2.9 -3.3 -2.2 0.4 -3.4 0.1 -3.8 -0.8 -0.6 -1.8 1.9 -2.3 8.8 -1.7 5.6 0.4 5.8 0.5 3.1 1.6 -1.8 0.8 -3.3 2.5 -4.2 4.6 l-1.3 3.5 0.3 -3.9z"/>
<path d="M683.3 685 c-1.8 -0.4 -4.5 -1.5 -6 -2.5 -3.2 -2.1 -2.4 -1.5 -13.2 -10.5 -9.8 -8.1 -15.5 -10.5 -23.9 -9.8 -4.5 0.4 -6 1 -7.9 3.2 -1.3 1.5 -2.3 3.4 -2.3 4.2 0 0.8 -0.7 1.4 -1.6 1.4 -1.4 0 -1.6 -0.7 -1.1 -4 0.7 -5.3 3.9 -9.4 8.9 -11.4 8.7 -3.5 16 0 30.3 14.4 7.3 7.4 14.5 13 16.8 13 0.1 0 0.1 -1.5 -0.1 -3.4 -0.8 -6.9 7.5 -10.4 11.7 -5 2.7 3.5 2.6 5.9 -0.4 8.9 -2.5 2.6 -5.2 3 -11.2 1.5z m10.1 -2.6 c0.9 -0.8 1.6 -2.2 1.6 -3 0 -5.5 -6.6 -7.5 -9.6 -2.9 -1.5 2.3 -1.5 2.7 0 5 1.9 2.9 5.6 3.3 8 0.9z m-35.6 -18.8 c-5.8 -5.4 -10.4 -7.6 -15.8 -7.6 -5.2 0 -9.6 2.2 -11.5 6 -2.3 4.4 -1.8 5.2 1.3 2.1 5.2 -5.2 16.6 -4.8 25.3 0.9 6 3.9 6.2 3.6 0.7 -1.4z"/>
<path d="M753.3 681.5 c0.5 -2.8 0.3 -3.5 -1.1 -3.5 -1.5 0 -1.5 -0.2 -0.2 -1 2 -1.3 14 -1.3 14 0 0 0.6 -0.4 1 -1 1 -0.5 0 -1 0.6 -1 1.4 0 0.7 -1.3 1.6 -3 2 -1.8 0.3 -3 1.2 -3 2.1 0 1 -0.9 1.5 -2.6 1.5 -2.5 0 -2.6 -0.2 -2.1 -3.5z"/>
<path d="M581.4 681.3 c0.4 -2.6 0.2 -3.3 -1.2 -3.4 -1.4 0 -1.4 -0.2 0.3 -0.9 2.8 -1.2 14.5 -1.2 14.5 0 0 0.6 -0.5 1 -1 1 -0.6 0 -1.5 1 -2 2.3 -0.8 2.1 -0.9 2.1 -0.9 -0.5 -0.1 -4.7 -6.4 -3.6 -8.8 1.6 l-1.4 3.1 0.5 -3.2z"/>
<path d="M788.7 681 c0.4 -2.1 0.2 -3 -0.8 -3.1 -3.1 -0.2 3.9 -1.7 8.5 -1.8 4 -0.1 4.7 0.2 4.2 1.5 -0.3 0.9 -0.6 2 -0.6 2.5 0 0.5 -1.3 0.9 -3 0.9 -2 0 -3 0.5 -3 1.5 0 1 -1 1.5 -3 1.5 -2.7 0 -2.9 -0.2 -2.3 -3z"/>
<path d="M629.6 679.1 c-1.8 -2.8 -2.5 -6.1 -1.3 -6.1 1.7 0.1 4.9 7 3.1 7 -0.7 0 -1.5 -0.4 -1.8 -0.9z"/>
</g>
<g fill="#008d00">
<path d="M837 718.1 c0 -1.7 3.1 -10.5 4.1 -11.7 1.4 -1.7 11.9 -1.9 11.9 -0.3 0 2.7 -3.3 7.6 -6.1 9.3 -3.4 2 -9.9 3.8 -9.9 2.7z"/>
<path d="M808.6 717.1 c-0.4 -0.5 -0.3 -1.1 0.1 -1.3 1.4 -0.6 -0.1 -24.1 -1.5 -24.6 -2 -0.6 -1.4 -3.9 0.8 -4.5 3.3 -0.8 8.9 1.2 10.6 3.8 l1.6 2.5 3.2 -2.5 c3.4 -2.6 9.6 -4.4 9.6 -2.9 0 0.5 -0.7 2.7 -1.5 4.9 -1.7 4.8 -1.9 10.7 -0.4 12.2 0.7 0.7 0.8 1.3 0 1.7 -1.1 0.7 -0.4 6.5 1 8 1.7 1.8 0.9 3.6 -1.5 3.6 -1.3 0 -4 -1.1 -6.1 -2.5 -3.7 -2.5 -6.7 -2.6 -3.3 -0.1 1 0.7 1.5 1.6 1.1 1.9 -1 1.1 -13.1 0.8 -13.7 -0.2z"/>
<path d="M858.7 708.3 c0.2 -5.4 0.5 -11.7 0.6 -14 0.1 -2.4 -0.2 -4.4 -0.7 -4.6 -0.5 -0.2 -0.6 -0.9 -0.2 -1.5 0.4 -0.7 3.3 -1.2 7.3 -1.2 l6.5 0 -0.6 3.8 c-1.4 8.1 -1.8 23.4 -0.7 24.5 2.2 2.2 1 2.7 -5.7 2.7 l-6.8 0 0.3 -9.7z"/>
<path d="M877.5 717 c-0.3 -0.5 -0.3 -1 0.2 -1 0.4 0 0.7 -5.3 0.5 -11.7 -0.2 -8.8 -0.7 -12.1 -1.8 -12.9 -2 -1.6 -1.7 -4.1 0.6 -4.7 2.7 -0.7 8.5 0.9 10 2.8 0.7 0.8 1.8 1.5 2.4 1.5 0.8 0 1.1 4.1 1.1 13.5 l0 13.5 -6.2 0 c-3.4 0 -6.5 -0.4 -6.8 -1z"/>
<path d="M897.1 705.3 c-0.1 -9.8 -0.5 -13.1 -1.6 -13.9 -2.1 -1.5 -1.9 -4.1 0.3 -4.6 3.7 -1 8.1 0.4 10.9 3.6 2.7 3 2.8 3.3 2.8 15.4 l0 12.2 -6.1 0 -6 0 -0.3 -12.7z"/>
<path d="M839.7 698.1 c0.4 -2.5 0 -5.1 -1.1 -7.2 -1.9 -3.9 -1.7 -4.3 2.4 -3.4 3 0.7 11 7.3 11 9.1 0 0.9 -9.7 5.4 -11.7 5.4 -0.7 0 -0.9 -1.3 -0.6 -3.9z"/>
</g>
<g fill="#045a16">
<path d="M830.1 717.9 c-1.8 -0.4 -4.7 -1.7 -6.3 -2.9 -1.6 -1.2 -3.3 -1.9 -3.6 -1.5 -0.4 0.4 0.1 1.2 1.1 1.9 2.9 2.2 2 2.6 -5.8 2.6 -4.3 0 -7.5 -0.4 -7.5 -1 0 -0.5 0.3 -1 0.8 -1 0.7 0 0.5 -16.3 -0.4 -21.7 -0.4 -2.5 -1 -3.3 -2.5 -3.3 -3 0 -2 -3.2 1.4 -4.1 3.8 -1 9.4 0.8 11.3 3.6 l1.6 2.5 3.3 -2.6 c3.1 -2.3 10.5 -4.5 10.5 -3 0 0.4 -0.7 1.7 -1.5 3 -2.3 3.4 -3.2 12.6 -1.4 13.7 1.1 0.6 1.1 1.1 0.2 2 -1.4 1.4 -0.6 6.7 1.4 9.1 2.2 2.5 1.2 3.5 -2.6 2.7z m-11.6 -13.6 c-0.5 -12.8 -1.6 -15.3 -6.6 -15.3 -2.6 0 -2.7 0.1 -1.8 3.2 0.5 1.8 0.9 7.4 0.9 12.3 0 9.9 0.7 11.5 5.1 11.5 l2.8 0 -0.4 -11.7z m10.7 8 c-0.9 -4.9 -0.9 -14.7 0 -19.5 l0.7 -3.8 -2.9 1.5 c-4.6 2.4 -6 5.2 -6 12.3 0 5.9 0.2 6.6 3.4 9.8 4.5 4.5 5.7 4.4 4.8 -0.3z"/>
<path d="M836 717.5 c0 -0.8 0.4 -1.5 0.9 -1.5 0.5 0 1.2 -1.5 1.6 -3.2 1.3 -6.4 3 -7.8 9 -7.8 3.3 0 5.5 0.4 5.5 1.1 0 2.9 -3.4 7.8 -6.8 9.6 -5.1 2.8 -10.2 3.7 -10.2 1.8z m9 -3 c1.6 -0.9 3.7 -2.9 4.5 -4.5 l1.6 -3 -4 0 c-4.3 0 -5.6 1.1 -6.6 5.8 -0.8 3.7 0.1 4 4.5 1.7z"/>
<path d="M733.6 717.1 c-0.4 -0.6 -0.2 -1.1 0.5 -1.1 0.8 0 0.8 -0.4 -0.1 -1.5 -1 -1.2 -1.5 -1.3 -2.1 -0.4 -0.4 0.7 -1 -2.1 -1.3 -6.2 -0.8 -10 -0.5 -16 0.6 -15.3 0.5 0.3 1.9 -0.3 3.1 -1.4 3.8 -3.6 11.7 -5.6 11.7 -3.1 0 0.7 -0.7 1.7 -1.5 2.3 -3.6 2.7 -4.2 19.2 -0.8 24.4 2 3.2 1 3.8 -4 2.5 -2.8 -0.8 -4.4 -0.8 -4.8 -0.1 -0.4 0.7 -0.9 0.7 -1.3 -0.1z"/>
<path d="M752 717 c-1.2 -0.8 -1.3 -1.3 -0.2 -3 1.6 -2.6 1.6 -18 0 -21.6 -1 -2.2 -1 -2.8 0 -3.2 0.7 -0.2 1.2 -2.2 1.2 -5 0 -3.4 0.3 -4.3 1 -3.2 0.6 0.9 1 1 1 0.3 0 -0.6 -0.7 -1.8 -1.5 -2.7 -0.8 -0.8 -1.5 -1.7 -1.5 -2 0 -0.3 3.2 -0.6 7 -0.6 4 0 7 0.4 7 1 0 0.6 -0.4 1 -1 1 -0.6 0 -1 7 -1 19 0 12 0.4 19 1 19 0.6 0 1 0.5 1 1 0 1.3 -12 1.3 -14 0z m8.3 -0.7 c-1.3 -0.2 -3.3 -0.2 -4.5 0 -1.3 0.2 -0.3 0.4 2.2 0.4 2.5 0 3.5 -0.2 2.3 -0.4z"/>
<path d="M772 717.2 c0 -0.4 0.4 -1.2 0.9 -1.7 1.4 -1.4 1.9 -25.4 0.6 -25.9 -0.6 -0.2 -0.5 -1.1 0.3 -2.2 0.7 -1.1 2.1 -3.8 3.1 -6.1 1.1 -2.3 2.9 -4.7 4.1 -5.3 3.3 -1.8 8.1 0.6 5 2.5 -1.6 1 -1.3 8.5 0.4 8.5 1.5 0 3 -6.9 2 -9.4 -0.5 -1.4 0.4 -1.6 5.7 -1.6 l6.4 0 0 21 0 21 -14.2 0 c-7.9 0 -14.3 -0.4 -14.3 -0.8z m16 -14.2 c0 -10.9 -0.2 -13 -1.5 -13 -1.3 0 -1.5 2 -1.5 12.3 0 6.8 0.3 12.7 0.7 13 1.9 1.9 2.3 -0.4 2.3 -12.3z"/>
<path d="M857 717.2 c0 -0.4 0.4 -1.2 0.9 -1.7 0.6 -0.6 1.1 -6.5 1.3 -13.2 0.2 -10.2 0.1 -12.3 -1.2 -12.7 -1.1 -0.3 -1.1 -0.4 0.3 -0.5 0.9 0 1.7 -0.5 1.7 -1.1 0 -0.5 1.6 -1 3.5 -1 4.3 0 4.5 1.2 0.5 2.7 l-3 1.1 0 12.6 0 12.6 4 0 c3.1 0 4 -0.4 4 -1.7 0 -1.5 0.2 -1.4 1.5 0.3 0.8 1 1.5 2.2 1.5 2.7 0 0.4 -3.4 0.7 -7.5 0.7 -4.1 0 -7.5 -0.4 -7.5 -0.8z"/>
<path d="M877 717.1 c0 -0.5 0.3 -1.1 0.8 -1.3 0.4 -0.1 0.5 -5.7 0.2 -12.3 -0.5 -11.5 -0.6 -12 -2.7 -12.3 -2.4 -0.4 -3.1 -2.6 -1.2 -3.8 2.4 -1.5 9.1 -0.6 12 1.5 1.6 1.2 3.4 1.9 3.9 1.6 1.1 -0.7 1.3 0.9 0.4 4.3 -0.7 2.4 -2.4 3 -2.4 0.8 0 -2.8 -4.1 -6.6 -7.1 -6.6 -2.6 0 -2.9 0.2 -1.9 1.9 0.5 1.1 1 6.6 1 12.3 0 6.8 0.4 10.8 1.2 11.6 1.8 1.8 6.8 1.5 6.8 -0.3 0 -0.8 0.5 -1.5 1 -1.5 0.6 0 1 0.4 1 0.9 0 0.5 0.3 1.6 0.6 2.5 0.5 1.4 -0.4 1.6 -6.5 1.6 -3.9 0 -7.1 -0.4 -7.1 -0.9z"/>
<path d="M897.1 717.1 c-0.7 -0.5 -0.9 -1 -0.5 -1.2 0.5 -0.2 0.7 -5.8 0.4 -12.4 -0.5 -11.5 -0.6 -12 -2.7 -12.3 -2.4 -0.4 -3.1 -2.6 -1.1 -3.8 0.6 -0.4 3.2 -0.7 5.7 -0.6 3.8 0 5 0.5 7.4 3.2 1.5 1.7 3.2 2.8 3.9 2.4 0.8 -0.5 0.9 -0.2 0.3 1.2 -1.4 3 -1.8 15.5 -0.6 16.7 1.4 1.4 1.5 4 0.1 3.2 -0.5 -0.3 -1 0.1 -1 0.9 0 0.9 0.5 1.6 1 1.6 0.6 0 1 0.5 1 1 0 1.2 -12 1.3 -13.9 0.1z m9.7 -12.8 c-0.2 -13.1 -1.1 -15.3 -7 -15.3 -2.5 0 -2.9 0.3 -2 1.2 0.8 0.8 1.2 4.9 1.2 11.9 0 11.7 0.9 13.9 5.5 13.9 2.4 0 2.4 0 2.3 -11.7z"/>
<path d="M974 717 c0 -0.5 0.5 -1 1 -1 0.6 0 1 -1.2 1 -2.6 0 -1.5 -0.4 -2.3 -1 -1.9 -0.7 0.5 -0.8 -0.3 -0.3 -2.2 1 -3.6 1 -10 -0.1 -13.6 -0.6 -2.1 -0.5 -2.7 0.5 -2.5 1.9 0.4 2.4 -4.9 0.8 -7.8 -0.7 -1.3 -3.2 -3.1 -5.6 -4 -2.4 -0.9 -4.1 -1.9 -3.9 -2.1 1 -1 6.6 1 9 3.2 2.9 2.6 3.5 1.2 1 -2.3 -0.8 -1.2 -1 -2.2 -0.5 -2.2 1.3 0 4.2 5.5 3.9 7.2 -0.2 0.7 0.7 1.4 2 1.6 2.4 0.4 3.1 2.2 0.8 2.2 -3.5 0 -4.6 4.1 -4.6 16.1 0 10.4 0.2 11.8 1.8 12.2 0.9 0.3 0 0.5 -2 0.6 -2.1 0 -3.8 -0.3 -3.8 -0.9z"/>
<path d="M947.6 714.5 c-2.9 -2.7 -4.6 -6.5 -4.5 -9.8 0 -1.8 0.2 -1.6 1.1 0.8 1.8 5.4 3.1 7.5 6.2 9.5 1.9 1.2 2.5 2 1.5 2 -0.9 0 -2.8 -1.1 -4.3 -2.5z"/>
<path d="M963.4 714.8 c0.9 -1.2 1.6 -3.9 1.6 -6 0 -2.1 0.5 -3.8 1.1 -3.8 0.7 0 0.8 1.4 0.4 4.3 -0.8 4.9 -2.1 7.7 -3.6 7.7 -0.6 0 -0.3 -1 0.5 -2.2z"/>
<path d="M953.6 709.2 c-0.4 -1.8 -0.5 -3.6 -0.2 -3.9 1.1 -1.2 1.7 0.5 1.4 3.9 l-0.3 3.3 -0.9 -3.3z"/>
<path d="M917.6 707.7 c-0.8 -3.7 -0.2 -14.1 1.1 -17.4 0.5 -1.3 0.2 -1.5 -1.5 -1.1 -1.2 0.4 -2.2 0.3 -2.2 -0.2 0 -1.1 2.6 -2 5.7 -2 2.1 0 2.4 0.3 1.9 2.3 -0.3 1.2 -0.6 3 -0.6 4.1 0 1.5 -0.3 1.6 -1.5 0.6 -1.2 -1 -1.5 0.1 -1.7 8.2 -0.3 7.9 -0.4 8.7 -1.2 5.5z"/>
<path d="M929.1 707.3 c-0.1 -2.4 0.4 -4.3 0.9 -4.3 1.2 0 1.2 3.7 0 6.5 -0.7 1.5 -0.9 1 -0.9 -2.2z"/>
<path d="M839.6 698.6 c0.5 -3.1 0.2 -5.4 -1 -7.7 -1.9 -3.9 -1.7 -4.3 2.4 -3.4 3 0.7 11 7.3 11 9.1 0 0.5 -1.2 1.5 -2.7 2.1 -1.6 0.6 -4.5 1.8 -6.5 2.7 l-3.8 1.6 0.6 -4.4z m6.9 -0.8 c1.4 -0.6 2.5 -1.4 2.5 -1.8 0 -0.9 -4.1 -4.5 -6.7 -5.9 -2.2 -1.1 -2.2 -1 -1.3 1.4 0.6 1.5 1 3.7 1 5.1 0 2.7 0.8 2.9 4.5 1.2z"/>
<path d="M929 700.1 c0 -1.1 -0.6 -2.2 -1.2 -2.4 -1 -0.4 -1 -0.7 0 -1.5 1.6 -1.1 0.6 -6.1 -1.4 -6.9 -0.8 -0.3 -1.4 -0.9 -1.4 -1.4 0 -1 4 -1.2 6.4 -0.3 2.4 0.9 1.9 2.3 -0.5 1.7 -1.7 -0.5 -2 -0.2 -1.6 1.3 1.4 4.8 1.9 11.4 0.8 11.4 -0.6 0 -1.1 -0.9 -1.1 -1.9z"/>
<path d="M939.3 698.6 c-0.6 -2 -0.7 -3.6 -0.2 -3.6 1 0 2.3 4.4 1.7 6.1 -0.2 0.6 -0.9 -0.5 -1.5 -2.5z"/>
<path d="M965 697 c0 -3.2 -1.9 -8 -3.2 -8 -0.4 0 -0.8 -0.4 -0.8 -1 0 -1.1 3.9 -1.3 6.4 -0.4 2.4 0.9 1.9 2.3 -0.5 1.7 -2 -0.6 -2.1 -0.3 -1.5 2.2 1.7 6.6 1.8 8.5 0.7 8.5 -0.6 0 -1.1 -1.3 -1.1 -3z"/>
<path d="M953.4 696.3 c0.3 -1.6 0.9 -3.9 1.2 -5.2 0.6 -2.1 0.4 -2.3 -1.4 -1.9 -2.5 0.7 -3 -0.7 -0.6 -1.6 2.1 -0.8 6.4 -0.8 6.4 0 0 0.4 -0.8 1.2 -1.7 1.9 -1.1 0.8 -1.7 2.7 -1.7 5.4 -0.1 2.8 -0.5 4.1 -1.5 4.1 -1 0 -1.2 -0.8 -0.7 -2.7z"/>
<path d="M993.8 691.2 c-1.6 -0.2 -2.8 -1 -2.8 -1.8 0 -0.8 0.1 -1.4 0.3 -1.4 0.1 0 1.7 -0.4 3.5 -0.9 2 -0.6 3.2 -0.6 3.2 0 0 0.5 -0.7 0.9 -1.6 0.9 -1.4 0 -1.4 0.3 -0.4 1.5 1.6 1.9 1.3 2.1 -2.2 1.7z"/>
<path d="M942 688.7 c0 -1.4 4.1 -5.7 5.4 -5.7 0.5 0 0.2 0.8 -0.5 1.7 -1.2 1.5 -1.2 1.6 0.4 1 2.4 -0.9 2.1 0.1 -0.5 2.4 -2.7 2.2 -4.8 2.4 -4.8 0.6z"/>
<path d="M956.1 675.6 c1.8 -1.8 5.9 -3 5.9 -1.8 0 0.5 -1.7 1.4 -3.7 2 -3.1 0.9 -3.4 0.9 -2.2 -0.2z"/>
</g>
<g fill="#142818">
<path d="M619.3 1070.3 c1.5 -0.2 3.9 -0.2 5.5 0 1.5 0.2 0.2 0.4 -2.8 0.4 -3 0 -4.3 -0.2 -2.7 -0.4z"/>
<path d="M746.5 753 c-1.6 -0.4 -2.4 -0.8 -1.7 -0.9 0.6 0 1.2 -1.1 1.3 -2.3 l0 -2.3 0.9 2.3 c1.1 2.7 4.7 2.9 6.6 0.5 1.3 -1.7 1.4 -1.7 0.8 0 -0.8 2.2 1.3 2.2 4 0 l2.1 -1.7 -2.1 2.2 c-2.3 2.5 -7.3 3.5 -11.9 2.2z"/>
<path d="M768.5 753.1 c-1.2 -0.5 -2.7 -1.7 -3.5 -2.7 -1.4 -1.8 -1.4 -1.8 0.6 -0.1 1.1 0.9 2.6 1.7 3.2 1.7 0.6 0 0.9 -0.8 0.5 -1.7 -0.5 -1.6 -0.4 -1.6 0.9 0.1 0.8 1 2.3 1.7 3.4 1.4 1.5 -0.2 2 -1.3 2.2 -5.6 0.2 -3.4 -0.1 -5.2 -0.8 -5.2 -2 0 -5.7 -3.5 -5.2 -4.9 0.6 -1.9 -3.3 0.3 -5.4 3.2 -1.2 1.6 -1.5 1.7 -1 0.4 0.3 -1 0.6 -2 0.6 -2.3 0 -0.7 5.9 -3.4 7.5 -3.4 1.1 0 1.4 0.6 0.9 2.4 -0.7 2.9 2 4.3 3.6 1.8 0.8 -1.3 1 0.3 0.8 6.1 -0.3 7.2 -0.2 7.8 1.6 7.3 1.3 -0.3 1.6 -0.2 0.9 0.5 -1.4 1.4 -8.4 2.1 -10.8 1z"/>
<path d="M792.3 752.5 c-0.3 -0.9 -0.3 -1.9 0.1 -2.2 0.3 -0.4 0.6 -0.1 0.6 0.5 0 0.7 1.1 1.2 2.5 1.2 1.4 0 2.5 -0.5 2.5 -1 0 -0.6 0.6 -0.5 1.4 0.2 1.2 1.1 1.1 1.4 -0.3 2 -2.9 1.2 -6.1 0.8 -6.8 -0.7z"/>
<path d="M835.5 753 c-1.7 -0.7 -1.7 -0.9 -0.2 -0.9 2.1 -0.1 2.2 -2.6 0.2 -6.4 l-1.4 -2.7 4.5 3 c2.4 1.7 4.4 3.3 4.4 3.6 0 0.3 -1 -0.2 -2.2 -1 -3.1 -2.2 -3.6 -2 -3 0.9 0.4 2.2 1 2.5 4.6 2.6 3.2 0 3.7 0.2 2.1 0.9 -1.1 0.5 -3.1 0.9 -4.5 0.9 -1.4 0 -3.4 -0.4 -4.5 -0.9z"/>
<path d="M814.8 750.8 c0.4 -1.6 0.7 -1.8 1 -0.8 0.3 0.8 1 1.8 1.6 2.2 0.6 0.5 0.2 0.8 -1.1 0.8 -1.7 0 -2 -0.4 -1.5 -2.2z"/>
<path d="M826.3 752.3 c1.2 -0.3 1.7 -1.5 1.7 -4.2 0 -3.9 -1.4 -6.5 -4 -7.4 -1.3 -0.5 -1.2 -0.6 0.1 -0.6 2.5 -0.1 4.2 2.6 4.9 8 0.6 4.8 0.6 4.9 -1.9 4.8 -1.7 -0.1 -2 -0.3 -0.8 -0.6z"/>
<path d="M786.6 749.8 c-2.7 -3.8 -2 -9.5 1.3 -12.9 3.7 -3.6 10.4 -4.1 14.4 -0.9 1.4 1.1 2.8 2 3.1 2 1.3 0 0.5 -4.4 -1 -6.1 -1.6 -1.7 -1.5 -1.8 1 -0.6 2.8 1.3 3 2.5 1.2 7.6 l-1.2 3.3 -1.1 -2.5 c-0.7 -1.4 -2.1 -3.1 -3.3 -3.7 -1.7 -0.9 -2 -0.8 -2 0.7 -0.1 1.7 -0.1 1.7 -1.1 0.1 -0.5 -1 -1.6 -1.8 -2.4 -1.8 -0.8 0 -1.9 0.8 -2.5 1.8 -1.1 1.6 -1.1 1.6 -0.6 0 0.8 -2.5 -1.1 -2.2 -3.9 0.7 -2.9 2.9 -3.4 8.8 -0.9 12.3 0.8 1.2 1.3 2.2 1 2.2 -0.3 0 -1.2 -1 -2 -2.2z"/>
<path d="M803.5 750.2 c0.4 -0.8 1.1 -2.6 1.5 -4 0.7 -2.2 0.8 -2.3 0.9 -0.6 0.1 1.1 -0.6 2.9 -1.5 4 -0.8 1 -1.2 1.3 -0.9 0.6z"/>
<path d="M799 747.2 c0 -2.6 -6.7 -4.7 -7.3 -2.3 -0.3 0.9 -0.5 -0.2 -0.6 -2.4 -0.1 -3.8 -0.1 -3.9 1.5 -1.7 2 3 6.1 2.9 6.7 0 0.2 -1.3 0.5 0.1 0.6 3 0 2.8 -0.1 5.2 -0.4 5.2 -0.3 0 -0.5 -0.8 -0.5 -1.8z"/>
<path d="M821.2 745.1 l-0.2 -4.4 -2.5 2.3 c-3.5 3.2 -3.1 1.5 0.5 -2.6 1.6 -1.9 2.7 -4 2.4 -4.7 -0.3 -0.8 0.6 -1.3 2.6 -1.5 3.5 -0.3 3.9 0.9 0.8 2.3 -1.9 0.8 -2.4 2 -2.9 7 -0.5 5.4 -0.6 5.6 -0.7 1.6z"/>
<path d="M839.8 740 c-2.5 -2.5 -4.8 -3.9 -5.7 -3.5 -1 0.3 -0.9 0 0.3 -1 2.3 -1.8 6.5 -1.9 10 -0.4 3.3 1.6 4 3.6 1.4 4.5 -1.6 0.5 -2.6 0 -4.1 -2 -2 -2.8 -3.7 -3.4 -3.7 -1.3 0 0.6 1.7 2.6 3.7 4.4 2.1 1.8 3.5 3.2 3.1 3.3 -0.4 0 -2.6 -1.8 -5 -4z m6.2 -2 c0 -0.5 -0.9 -1.4 -2 -2 -2.2 -1.2 -2.3 -1 -1.4 1.4 0.7 1.7 3.4 2.2 3.4 0.6z"/>
<path d="M781.2 738.5 c-0.7 -1.4 -0.8 -2.4 -0.3 -2.1 0.4 0.3 1.7 -0.4 2.7 -1.5 1.1 -1.2 3.7 -3.5 5.9 -5.2 3.1 -2.5 3.6 -2.6 2 -0.7 -1.7 2 -1.8 2.3 -0.2 1.7 4.7 -1.8 4.8 -1.7 0.7 0.8 -5.6 3.3 -8 5.5 -8.9 7.8 -0.6 1.7 -0.8 1.6 -1.9 -0.8z"/>
<path d="M746 733.8 c0 -5.1 -0.2 -5.8 -2 -5.8 -1 0 -2.3 0.7 -2.8 1.6 -0.8 1.4 -1 1.3 -1.5 -0.5 -0.5 -1.9 -0.1 -2.1 4.6 -2.1 4 0 4.8 0.3 3.9 1.2 -0.7 0.7 -1.2 2.4 -1.2 3.9 0 2.5 0.2 2.7 3.8 2.2 2.5 -0.3 4.3 0.1 5.7 1.2 2 1.6 2 1.6 -0.2 0.6 -2.8 -1.4 -3.3 -1.4 -2.9 0.2 0.1 0.6 0.1 0.9 -0.1 0.5 -0.9 -1.5 -5.2 -0.8 -6.2 1 -0.8 1.3 -1 0.3 -1.1 -4z"/>
<path d="M808.7 729.1 c-0.5 -1.9 -0.1 -2.1 3.8 -2.1 4 0 4.3 0.2 3.7 2.3 -0.5 1.8 -0.7 1.9 -1 0.5 -0.4 -2.2 -3.8 -2.3 -5 -0.2 -0.8 1.4 -1 1.3 -1.5 -0.5z"/>
<path d="M597.5 718.2 c-0.3 -0.3 -4.8 -0.4 -10 -0.3 -6 0.1 -9.5 -0.2 -9.5 -0.9 0 -0.5 0.5 -1 1 -1 0.6 0 1.5 -1 2 -2.2 0.8 -2.2 0.9 -2.2 0.9 0.5 0.1 2.5 0.4 2.7 4.6 2.7 l4.5 0 0 -20 0 -20 -2.8 0 c-2.9 0 -5.5 2.1 -6.5 5 -0.2 0.8 -0.3 0.3 -0.1 -1.2 0.3 -2.2 -0.1 -2.8 -1.6 -2.8 -1.1 0 -2 -0.4 -2 -1 0 -0.6 3.5 -1 8.5 -1 5 0 8.5 0.4 8.5 1 0 0.6 -0.7 1 -1.5 1 -1.2 0 -1.5 1.3 -1.5 5.6 0 5 0.2 5.5 1.8 4.9 5.9 -2.5 11.9 -1.6 16.6 2.5 l3.3 3 1.9 -2.2 c5.9 -6.6 18.6 -6.4 26.2 0.5 l2.2 2 0 -5.5 0 -5.6 -3.7 0.5 c-8.2 1 -14.4 -7.1 -12.9 -17 1.3 -8.6 9.3 -13.7 18.4 -11.6 5.8 1.3 11.2 5.1 19.5 13.8 7.3 7.7 15.1 14.1 17.1 14.1 0.8 0 1.1 -1.2 0.8 -3.4 -0.7 -6.3 5.8 -9.8 10.9 -5.8 3.1 2.6 3.1 7.8 -0.1 10.4 -2 1.6 -3.3 1.8 -7 1.3 -6.6 -1 -11.5 -3.7 -21.4 -12.1 -11.9 -10 -13.5 -10.8 -22.8 -10.9 -6.7 0 -7.9 0.3 -10.2 2.4 -2.1 2 -2.6 3.4 -2.6 7.2 0 4 0.4 5.1 3.1 7.3 3.2 2.7 6.7 3.3 10 1.6 2.5 -1.4 2.4 -3 -0.1 -3 -1.1 0 -2 -0.4 -2 -1 0 -0.6 3.5 -1 8.5 -1 5 0 8.5 0.4 8.5 1 0 0.6 -0.4 1 -1 1 -0.6 0 -1 2.7 -1 6 0 6.4 0.3 6.8 3.4 4.5 3.3 -2.5 10.9 -1.9 14 1 2.5 2.3 2.6 2.7 2.6 14 0 9.4 0.3 11.7 1.5 12.1 3.7 1.4 0.8 2.4 -7 2.4 -5 0 -8.5 -0.4 -8.5 -1 0 -0.5 0.8 -1 1.8 -1 1.5 0 1.7 -1.1 1.4 -11.7 -0.5 -14.6 -1.7 -16.8 -6.7 -11.8 -2.3 2.3 -2.5 3.1 -2.5 13 0 8.7 0.3 10.5 1.5 10.5 0.8 0 1.5 0.5 1.5 1 0 0.6 -3.7 1 -9 1 -5.3 0 -9 -0.4 -9 -1 0 -0.5 0.7 -1 1.5 -1 0.8 0 1.5 -0.7 1.5 -1.5 0 -1.3 -0.9 -1 -4.5 1.1 -7.7 4.5 -21.5 2.9 -24.6 -2.8 -0.9 -1.7 -1.2 -1.7 -4 1.2 -1.7 1.6 -3.4 3 -3.7 3 -0.4 0.1 -2.6 0.5 -4.9 0.9 -2.3 0.5 -4.5 0.6 -4.8 0.3z m9.4 -2.6 c4.6 -2.4 5.3 -4 5.5 -12.8 0.1 -7.6 -0.1 -8.3 -2.6 -10.9 -2.5 -2.5 -7.5 -4.6 -8.5 -3.5 -0.3 0.2 0.3 1.6 1.2 2.9 1.9 3 2.4 21.2 0.6 23 -2.8 2.8 -0.5 3.5 3.8 1.3z m17 -0.7 c-1.9 -3.7 -2.3 -16.9 -0.5 -21.9 0.8 -2.4 1.3 -4.6 1.1 -4.8 -0.8 -0.8 -7.7 3.2 -8.7 5.2 -0.6 1.1 -1.2 5.6 -1.3 9.9 -0.1 8.1 0.6 9.5 6 12.5 3.4 1.9 4.7 1.5 3.4 -0.9z m8.1 -3 c1.3 -4.6 3.4 -6.9 6.3 -6.8 2.2 0.2 2.2 0.2 -0.1 0.6 -2.6 0.5 -4.7 3.5 -5.6 8.1 -0.6 3.5 0.7 4.1 4.7 2.1 5.9 -3.1 9.2 -9.7 5 -10 -1.7 -0.1 -1.7 -0.2 0 -0.6 1.2 -0.3 1.7 -1.5 1.7 -4 0 -1.9 -0.4 -3.3 -0.9 -3.1 -0.5 0.2 -5 2.1 -10 4.3 -9.1 4 -9.1 4 -9.1 7.7 0 2.6 0.6 4.1 2.1 5.2 3 2 4.7 1 5.9 -3.5z m23 -14.9 l0 -20 -2.8 0 c-1.6 0 -3.7 0.6 -4.8 1.4 -1.7 1.3 -1.9 2.9 -2.1 18.8 -0.1 9.5 0 17.9 0.2 18.6 0.3 0.7 2.2 1.2 5 1.2 l4.5 0 0 -20z m20 8 c0 -11.5 -0.1 -12.2 -2.5 -14.5 -1.8 -1.8 -3.5 -2.5 -6.5 -2.5 l-4 0 2 2 c1.7 1.7 2 3.3 2 12.5 0 9.2 0.3 10.8 2 12.5 1.1 1.1 3.1 2 4.5 2 l2.5 0 0 -12z m-72.9 8.9 c0.6 -1.3 1 -5.9 0.7 -12.1 -0.2 -8.5 -0.6 -10.2 -2.2 -11.4 -2.7 -1.9 -3.3 -1.8 -6.1 1.1 -2.3 2.2 -2.5 3.2 -2.5 11.6 0 7.2 0.4 9.6 1.7 11.1 2.2 2.5 6.9 2.4 8.4 -0.3z m27.3 -11.9 c2.9 -1.2 4.6 -2.6 4.7 -3.7 0.1 -1.7 0.2 -1.7 0.6 0 0.5 1.9 2.4 1.7 7 -0.7 l2.3 -1.1 -2.5 -2.8 c-1.4 -1.5 -3.9 -3.4 -5.5 -4.2 l-3 -1.6 0.5 4.3 0.6 4.3 -1.3 -3.5 c-1 -2.6 -2 -3.6 -4 -3.8 -3.3 -0.4 -4.5 1.6 -5.4 9.2 -0.8 6.4 -0.6 6.5 6 3.6z m63.4 -18.6 c2.6 -1.8 2.9 -6 0.5 -8.6 -2 -2.2 -4.2 -2.3 -7.1 -0.2 -2.8 1.9 -2.9 5.7 -0.2 8.4 2.4 2.4 3.8 2.5 6.8 0.4z m-33.8 -19 c-6 -6.1 -10.7 -8.4 -17.3 -8.4 -6.4 0 -10.1 2.4 -12.4 7.8 -1.7 4.1 -1.1 5.3 1.1 1.9 2.3 -3.4 5.8 -4.7 12.4 -4.7 5.7 0 13 2.7 17.7 6.4 3.6 2.8 3 1.7 -1.5 -3z"/>
<path d="M740.7 717.6 c-2.6 -0.7 -5.6 -2.1 -6.7 -3.1 -1.8 -1.6 -2 -1.6 -2 -0.2 0 1 0.7 1.7 1.5 1.7 0.8 0 1.5 0.5 1.5 1 0 0.6 -3.7 1 -9 1 -5.3 0 -9 -0.4 -9 -1 0 -0.5 0.9 -1 1.9 -1 1.8 0 1.9 -0.6 1.6 -5.7 l-0.4 -5.8 1 5.1 c1.1 5.4 3.7 8 7.5 7.2 1.7 -0.3 1.9 -1.3 1.7 -12.3 -0.2 -11.6 -0.3 -12.1 -2.8 -14.2 -1.7 -1.5 -3.9 -2.3 -6.2 -2.3 -3.4 0 -3.5 0.1 -2 1.8 1 1 1.7 2.7 1.7 3.8 0 1.6 -0.2 1.6 -1.3 -0.5 -0.6 -1.3 -1.5 -2.3 -1.9 -2.2 -0.5 0 -1.5 0.1 -2.4 0.1 -2.6 0 -4.4 6.3 -4.4 15.5 0 6.7 0.3 8.7 1.5 9.1 4.3 1.7 -0.1 2.4 -15 2.4 -10.3 0 -16.5 -0.4 -16.5 -1 0 -0.5 0.6 -1 1.4 -1 0.8 0 1.7 -0.8 1.9 -1.7 0.4 -1.4 0.5 -1.2 0.6 0.5 0.1 1.9 0.6 2.2 4.6 2.2 l4.5 0 0 -14 0 -14 -2.9 0 c-3.4 0 -5.2 1.9 -6.2 6.8 -0.8 3.5 -0.8 3.4 -0.5 -1 0.3 -4.2 0.1 -4.8 -1.5 -4.8 -1.1 0 -1.9 -0.4 -1.9 -0.9 0 -1.2 14.9 -1.8 25.5 -1 4.4 0.3 8.4 0.2 9 -0.3 0.5 -0.4 3.1 -0.8 5.8 -0.8 4.1 0 5.3 0.5 7.9 3 l3 3 2.9 -2.4 c4.4 -3.7 10.5 -4.5 16.2 -2.1 1.4 0.6 1.7 0.1 1.7 -3.3 0 -2.2 0.3 -4.7 0.6 -5.6 0.4 -1.2 0 -1.6 -1.5 -1.6 -1.2 0 -2.1 -0.4 -2.1 -1 0 -0.6 3.5 -1 8.5 -1 5 0 8.5 0.4 8.5 1 0 0.6 -0.7 1 -1.5 1 -1.3 0 -1.5 2.8 -1.5 19 0 16.2 0.2 19 1.5 19 0.8 0 1.5 0.5 1.5 1.1 0 0.6 -3.2 0.9 -8.7 0.8 -4.9 -0.1 -9.7 0 -10.8 0.4 -1.1 0.3 -4.1 0 -6.8 -0.7z m-30.7 -14.6 l0 -14 -2.9 0 c-5.4 0 -6.1 1.8 -6.1 15.6 l0 12.4 4.5 0 4.5 0 0 -14z m31.3 9.8 c-1.7 -4.8 -1.3 -18.1 0.6 -21.7 1.9 -3.5 -2.5 -2.7 -6.5 1.3 -3.2 3.2 -3.4 3.8 -3.4 10.3 0 7.5 1.3 10.1 6.5 12.7 4.3 2.2 4.4 2.1 2.8 -2.6z m21.5 -16 l0.2 -19.8 -2.3 0 c-1.2 0 -3.3 0.7 -4.5 1.6 -2.1 1.5 -2.2 2 -2.2 20 l0 18.5 4.3 -0.3 4.2 -0.3 0.3 -19.7z m-62.6 6.2 c0.3 -12.9 0.3 -13 -1.9 -13 -2.3 0 -2.3 0.2 -2.3 13 0 12.2 0.1 13 1.9 13 1.9 0 2 -0.9 2.3 -13z m51 11.3 c1.5 -1.3 1.8 -3.2 1.8 -11 0 -8.6 -0.2 -9.6 -2.5 -11.8 -2.8 -2.8 -3.5 -3 -5.8 -1.2 -3.5 2.5 -4.5 18.5 -1.6 24 1.2 2.2 5.7 2.2 8.1 0z"/>
<path d="M830.1 718 c-1.8 -0.4 -4.7 -1.8 -6.3 -3 -1.6 -1.2 -3.3 -1.9 -3.6 -1.5 -0.4 0.4 0.1 1.2 1.1 1.9 2.8 2.1 2 2.6 -4.5 2.5 -5.8 0 -13.1 -1.6 -8.6 -1.8 1.4 -0.1 1.6 -0.8 1.2 -3.3 l-0.5 -3.3 1.4 3.1 c1.5 3.2 3.4 4.4 6.7 4.4 1.8 0 1.9 -0.8 1.7 -12.6 -0.2 -11.9 -0.4 -12.7 -2.6 -14.5 -1.3 -1.1 -3.9 -1.9 -5.9 -1.9 -3.3 0 -3.4 0.1 -1.9 1.8 1 1 1.7 2.9 1.6 4.3 -0.1 2.4 -0.1 2.4 -1.2 -0.3 -0.7 -1.9 -1.8 -2.8 -3.4 -2.8 -3.6 0 -2.7 -2.8 1.2 -3.9 4.6 -1.2 10 0.3 12.1 3.4 l1.6 2.5 3.4 -2.6 c3.4 -2.7 11.4 -4.5 11.4 -2.6 0 0.5 -0.6 1.2 -1.4 1.5 -0.8 0.3 -2.1 2.7 -2.9 5.4 -1.2 3.7 -1.5 4.2 -1.6 2.1 -0.1 -1.5 0.3 -3.8 0.9 -5.2 1.1 -3.1 0.2 -3.3 -4 -1.1 -4.1 2.1 -5 4.3 -5 12.3 0 7.9 1.8 11.2 7.1 13.1 2.8 0.9 3 0.9 2.4 -0.7 -1.2 -3 -1.8 -9.2 -0.9 -9.2 0.5 0 1 1.7 1.2 3.7 0.3 4.4 1.7 6.3 4.7 6.3 1.8 0 2.5 -0.7 3 -3.2 1.1 -5.2 3.2 -7.8 6.3 -7.8 l2.7 0.1 -3.1 1.3 c-2.4 1.1 -3.3 2.3 -4.2 5.7 -0.6 2.4 -0.9 4.5 -0.7 4.7 0.8 0.8 4.8 -1.2 8.1 -4 3.7 -3.3 4.4 -6.4 1.7 -7.1 -1.1 -0.3 -0.7 -0.5 1 -0.6 3.1 -0.1 3.3 0.8 1.2 5.3 -2.8 5.9 -13.3 9.6 -21.4 7.6z"/>
<path d="M953.8 717.8 c-2.1 -0.6 -3.8 -1.4 -3.8 -1.9 0 -0.5 1.2 -0.4 2.6 0.1 3.4 1.3 3.6 1.3 2.6 -0.7 -1.4 -2.7 -2.5 -11.3 -1.4 -11.3 0.5 0 1.2 2.3 1.4 5.2 0.3 3.1 1.2 5.6 2.2 6.3 1.6 1.2 2.2 3.6 0.9 3.4 -0.5 -0.1 -2.5 -0.6 -4.5 -1.1z"/>
<path d="M961 718.1 c0 -0.6 1.1 -2.2 2.6 -3.8 l2.5 -2.7 -1 2.8 c-1 2.6 -1 2.7 1.1 2 3.6 -1.1 6.4 -3.2 7.8 -5.9 1.9 -3.6 3 -3.1 2.9 1.3 -0.1 3.2 -0.2 3.4 -0.8 1.2 -0.7 -2.5 -0.7 -2.5 -1.9 -0.4 -1.7 3.1 -13.2 7.9 -13.2 5.5z"/>
<path d="M772 717.3 c0 -0.5 0.7 -1.7 1.5 -2.7 1.3 -1.7 1.5 -1.8 1.5 -0.3 0 1.3 0.9 1.7 4.5 1.7 3.6 0 4.5 -0.3 4.5 -1.7 0.1 -1.7 0.1 -1.7 1.1 0 2.2 3.8 2.9 1.3 2.9 -11.3 0 -8 -0.4 -13 -1 -13 -1.2 0 -1.3 -2.7 -0.1 -3.2 0.5 -0.1 1.2 -2.2 1.6 -4.5 0.7 -4.5 -0.6 -5.8 -3.3 -3.1 -0.9 0.9 -1.2 0.8 -1.2 -0.5 0 -3.5 -3.1 -1.5 -5.5 3.5 -1.4 2.8 -2.5 5.3 -2.5 5.5 0 0.2 1 0.3 2.3 0.3 l2.2 0 -2.2 1.8 c-1.2 0.9 -2.7 2.8 -3.3 4.2 -1 2.4 -1 2.4 -0.7 -0.7 0.2 -2.3 -0.1 -3.3 -1 -3.3 -1.8 0 -1.6 -2.7 0.2 -3.4 0.9 -0.3 2.4 -2.5 3.4 -5 1.1 -2.4 2.5 -4.8 3.3 -5.2 0.7 -0.5 5.8 -0.7 11.3 -0.5 9.5 0.3 12.5 0.8 9.8 1.8 -1.7 0.6 -1.8 12 -0.1 12.5 0.9 0.3 0.9 1.2 0 3.8 -1.5 4.1 -1.6 22 -0.2 22 0.6 0 1 0.5 1 1 0 0.6 -5.7 1 -15 1 -8.2 0 -15 -0.3 -15 -0.7z m26 -20.8 c0 -18 -0.1 -19.5 -1.8 -19.5 -1 0 -2.8 0.7 -4 1.6 -2.1 1.5 -2.2 2 -2.2 19.5 l0 17.9 4 0 4 0 0 -19.5z"/>
<path d="M857 717.3 c0 -0.5 0.7 -1.7 1.5 -2.7 1.3 -1.8 1.5 -1.8 1.5 -0.3 0 1 1 2.2 2.3 2.7 1.9 0.8 1.7 0.9 -1.5 0.9 -2.1 0.1 -3.8 -0.2 -3.8 -0.6z"/>
<path d="M877 717 c-1.3 -0.8 -1.3 -1 0.2 -1 1.3 0 1.6 -0.7 1.3 -3.7 l-0.5 -3.8 1.1 3.1 c1.1 3 4.3 5.4 7.4 5.4 1.2 0 1.5 -2.2 1.5 -12 0 -11.5 -0.1 -12.2 -2.5 -14.5 -1.7 -1.8 -3.5 -2.5 -6.1 -2.5 -3.5 0 -3.6 0.1 -2.1 1.8 1 1 1.7 2.7 1.6 3.8 0 1.6 -0.2 1.5 -1 -0.4 -0.8 -2.1 -1.3 -2.3 -4.9 -1.7 -3.3 0.6 -4 0.4 -4 -0.9 0 -1.1 -0.9 -1.6 -2.8 -1.6 -2.8 0 -5.3 1.9 -6.6 5 -0.3 0.8 -0.4 0.3 -0.2 -1.2 0.2 -1.9 -0.1 -2.8 -1.1 -2.8 -0.8 0 -1.3 -0.6 -1 -1.2 0.2 -0.9 3.1 -1.4 8.8 -1.5 4.6 -0.2 10.3 -0.3 12.7 -0.4 3.1 -0.1 5.2 0.5 7.3 2 1.6 1.2 3.3 2 3.7 1.7 0.4 -0.2 0.6 5.4 0.4 12.5 -0.3 9.1 -0.1 12.9 0.7 12.9 0.6 0 1.1 0.5 1.1 1 0 1.3 -13 1.3 -15 0z"/>
<path d="M896 717 c0 -0.5 0.4 -1 0.9 -1 0.6 0 0.7 -2.5 0.4 -5.7 -0.7 -6.6 0.4 -6.7 1.5 -0.2 0.8 4.8 4.4 7.8 7.7 6.5 1.5 -0.6 1.7 -1.4 1.2 -6.6 -0.4 -3.7 -0.3 -6 0.3 -6 0.6 0 1 1.3 1 2.9 0 2.8 4.9 9.1 7 9.1 0.5 0 1.6 0.3 2.5 0.7 1.5 0.5 1.6 0.3 0.6 -1.5 -0.6 -1.1 -1.1 -2.9 -1.1 -3.9 0.1 -1.2 0.7 -0.6 1.9 1.7 1 1.9 1.4 3.9 1 4.4 -1 1.2 -6.4 -0.2 -9.4 -2.5 -2.1 -1.7 -2.5 -1.8 -2.5 -0.5 0 0.9 0.7 1.6 1.5 1.6 0.8 0 1.5 0.5 1.5 1 0 0.6 -3.3 1 -8 1 -4.7 0 -8 -0.4 -8 -1z"/>
<path d="M926.7 717.3 c-0.2 -0.5 0.4 -2.4 1.4 -4.3 1.2 -2.3 1.8 -2.9 1.9 -1.7 0 1 -0.5 2.7 -1.1 3.9 -1 1.8 -0.8 1.9 1.3 1.3 5.1 -1.7 7.5 -4.4 10.1 -11.5 0.4 -1.1 0.6 -0.9 0.6 0.5 0.2 3.4 -3.4 8.7 -7 10.7 -3.5 1.9 -6.5 2.3 -7.2 1.1z"/>
<path d="M984.4 717.1 c1.1 -0.4 2.3 -1.6 2.7 -2.7 0.7 -1.7 0.8 -1.7 0.8 -0.1 0.1 0.9 0.6 1.7 1.1 1.7 0.6 0 1 0.5 1 1 0 0.6 -1.7 1 -3.7 0.9 -2.8 0 -3.3 -0.2 -1.9 -0.8z"/>
<path d="M996.1 716.3 c1.1 -0.3 1.4 -1.3 1.2 -3.6 -0.3 -3.1 -0.3 -3.1 0.7 -0.7 0.6 1.4 1.8 3.1 2.7 3.8 1.4 1 1.1 1.2 -2.3 1.1 -2.1 -0.1 -3.2 -0.3 -2.3 -0.6z"/>
<path d="M965.1 707.8 c-0.1 -2.1 0.4 -3.8 0.9 -3.8 1.2 0 1.2 2.7 0 5.5 -0.7 1.6 -0.9 1.3 -0.9 -1.7z"/>
<path d="M917.4 705.6 c-0.3 -1.9 -0.1 -4.8 0.4 -6.3 0.9 -2.4 1.1 -2 1.1 3.5 0.1 6.9 -0.5 8 -1.5 2.8z"/>
<path d="M929.1 703.8 c-0.1 -3.2 -0.5 -5.8 -1.1 -5.8 -0.5 0 -1 -0.4 -1 -1 0 -0.5 0.7 -1 1.5 -1 1.9 0 3 6.3 1.7 10.3 -0.9 3 -1 2.8 -1.1 -2.5z"/>
<path d="M838 702.1 c0 -0.6 0.5 -1.3 1.1 -1.7 1.6 -1 0.4 -9.5 -1.5 -10.9 -2.2 -1.7 -2 -2.5 0.7 -2.5 2.7 0 8.9 3.2 9.5 4.9 0.2 0.6 -1.3 0.2 -3.3 -1 -2 -1.2 -3.8 -2 -4 -1.8 -0.4 0.4 1.3 10 1.9 10.6 0.9 0.9 7.6 -3.2 7.2 -4.4 -0.3 -0.7 -0.1 -1.3 0.3 -1.3 0.8 0 2.5 3.1 1.9 3.5 -1.1 0.6 -12.7 5.5 -13.2 5.5 -0.3 0 -0.6 -0.4 -0.6 -0.9z"/>
<path d="M907.2 697.4 c0.2 -3.9 -0.2 -5 -2.5 -7 -1.9 -1.6 -4 -2.4 -6.5 -2.4 -3.3 0.1 -3.5 0.2 -1.9 1.4 0.9 0.7 1.7 2.1 1.7 3 0 1.4 -0.3 1.3 -2 -0.4 -3.5 -3.5 -2.6 -5 2.9 -5 4.3 0 5.3 0.4 7.6 3.1 l2.6 3.2 2.2 -2 c2.7 -2.5 6.7 -4.6 7.4 -4 0.3 0.3 -0.9 1.3 -2.5 2.1 -4.1 2.1 -7.2 6.3 -7.2 9.7 0 1.6 -0.4 2.9 -1 2.9 -0.5 0 -0.9 -2.1 -0.8 -4.6z"/>
<path d="M943.1 700 c-0.1 -1.4 0.8 -4 1.9 -5.8 1.9 -3.1 7.4 -7.3 9.5 -7.1 0.6 0 0.2 0.6 -0.9 1.2 -4.9 3.1 -7.6 6.1 -8.9 10 -1.2 3.3 -1.6 3.7 -1.6 1.7z"/>
<path d="M975.6 699.3 c-0.9 -4 -4 -7.9 -7.6 -9.8 -3.3 -1.7 -4.3 -1 -2.9 1.9 0.9 1.7 0.6 1.5 -1.5 -0.6 -3.2 -3.4 -3.2 -3.8 -0.1 -3.8 3.2 0 7.4 2.1 9.9 4.9 2 2.2 3.6 2 3.6 -0.5 0 -0.8 -0.9 -1.4 -2 -1.4 -2.5 0 -2.6 -1.8 -0.1 -2.8 2.9 -1.1 0.4 -3.9 -5.6 -6.2 -2.6 -1.1 -3.9 -1.9 -2.8 -1.9 3.4 0.1 6.3 1.3 8.9 3.6 2.4 2.1 2.6 2.2 2.6 0.4 0 -1 -1.6 -3.3 -3.6 -5.1 -2 -1.7 -3.4 -3.4 -3 -3.7 1.1 -1.1 7.6 6.5 8.2 9.6 0.6 2.9 0.9 3.1 5 3.1 4 0 4.4 0.2 4.4 2.5 0 1.4 -0.4 2.5 -1 2.5 -0.5 0 -1 -0.7 -1 -1.5 0 -1 -1 -1.5 -3.4 -1.5 -3.1 0 -3.6 0.4 -5 4.3 -0.8 2.3 -1.7 5.3 -1.9 6.7 -0.3 2.3 -0.3 2.3 -1.1 -0.7z"/>
<path d="M953.1 698.8 c0.1 -1.3 0.5 -3.4 0.9 -4.8 l0.8 -2.5 0.1 2.8 c0.1 1.6 0.6 3.7 1.1 4.8 0.9 1.6 0.7 1.9 -1 1.9 -1.4 0 -2 -0.6 -1.9 -2.2z"/>
<path d="M965.1 697.3 c0 -3.1 0.2 -3.4 0.9 -1.8 1.2 2.8 1.2 5.5 0 5.5 -0.5 0 -1 -1.7 -0.9 -3.7z"/>
<path d="M938.2 695.6 c-1.9 -3.2 -7.4 -7.6 -9.4 -7.6 -0.4 0 -0.3 1.1 0.2 2.5 0.6 1.6 0.6 2.5 0 2.5 -0.6 0 -1 -0.7 -1 -1.5 0 -0.9 -0.7 -1.8 -1.5 -2.1 -2.5 -1 -1.7 -2.4 1.3 -2.4 1.5 0 4.2 0.9 6.1 2.1 1.8 1.1 3.9 1.8 4.6 1.5 0.8 -0.3 1.6 0.1 1.9 0.9 0.3 0.8 0 1.5 -0.6 1.7 -0.8 0.3 -0.7 1.1 0.1 2.7 2.1 3.8 0.5 3.5 -1.7 -0.3z"/>
<path d="M1007 694.6 c0 -3.2 -4.6 -6.6 -9 -6.6 l-4 0 2.1 2.1 c1.1 1.1 1.7 2.4 1.3 2.7 -0.3 0.4 -0.9 0.1 -1.1 -0.5 -0.3 -0.7 -1.3 -1.3 -2.4 -1.3 -2 0 -2.6 -2.4 -0.8 -3.6 2 -1.2 9 -0.6 11.5 1.1 2.3 1.5 4.2 6 3 7.2 -0.3 0.4 -0.6 -0.1 -0.6 -1.1z"/>
<path d="M943 688.2 c0 -1.1 0.8 -2.6 1.8 -3.5 2.7 -2.5 3.8 -2.1 1.6 0.5 l-1.9 2.2 2.8 -1.7 c3.6 -2.3 3.5 -0.6 -0.3 2.1 -3.6 2.7 -4 2.7 -4 0.4z"/>
<path d="M956.5 680.5 c1.7 -0.8 4.1 -1.4 5.5 -1.4 2.3 0 2.3 0.1 0.5 0.8 -1.1 0.5 -3.6 1.1 -5.5 1.5 l-3.5 0.6 3 -1.5z"/>
<path d="M950.1 680.1 c0.3 -0.7 2 -2.2 3.9 -3.4 4.1 -2.6 3.2 -0.7 -1.2 2.4 -1.7 1.2 -2.9 1.7 -2.7 1z"/>
<path d="M964.5 674 c-1.7 -0.7 -1.5 -0.9 1.2 -0.9 1.7 -0.1 3.5 0.4 3.8 0.9 0.7 1.2 -2.2 1.2 -5 0z"/>
</g>
<g fill="#1b0701">
<path d="M744 753 c-3.6 -0.4 -5.9 -0.7 -5.2 -0.8 0.9 -0.2 1.2 -3.3 1.2 -12.1 0 -8.6 -0.3 -12.1 -1.2 -12.4 -0.7 -0.3 -0.4 -0.6 0.7 -0.6 1.9 -0.1 2 0.4 1.7 12.4 l-0.4 12.5 2.6 0 2.5 0 0.3 -12.2 c0.2 -8.8 0.6 -12.2 1.6 -12.4 0.7 -0.1 0.8 0 0.2 0.3 -0.5 0.2 -1 2.2 -1 4.4 0 3.6 0.2 3.9 1.9 2.9 3 -1.6 4.7 -1.2 4.8 1.1 0.2 2 0.1 2 -1.1 0.4 -1 -1.4 -1.6 -1.5 -3.4 -0.6 -2 1 -2.2 2 -2.2 8.6 l0 7.5 3 0 c3.2 0 3.6 -0.8 4.3 -8.5 0.3 -2.2 0.4 -1.2 0.3 2.3 -0.1 3.7 0.2 6.2 0.9 6.3 0.5 0 0.1 0.4 -1 0.9 -1.1 0.5 -2.4 0.8 -3 0.8 -0.5 -0.1 -3.9 -0.4 -7.5 -0.8z"/>
<path d="M770 753 c-1.4 -0.4 -2 -0.8 -1.5 -0.9 0.6 -0.1 0.9 -2.4 0.7 -5.7 -0.2 -3 -0.1 -7.1 0.2 -9 0.6 -3 1 -3.4 3.9 -3.4 2.8 0 3.2 0.3 3.4 3 0.1 1.7 -0.2 3 -0.7 3 -0.5 0 -0.7 -0.6 -0.4 -1.3 0.3 -0.8 -0.2 -2 -1 -2.7 -1.3 -1 -1.7 -0.9 -2.2 0.5 -0.4 1 -0.1 2.1 0.7 2.6 0.8 0.5 0.9 0.9 0.4 0.9 -0.6 0 -1.6 -0.5 -2.3 -1.2 -0.9 -0.9 -1.2 0.3 -1.2 5.4 0 4.8 0.4 6.9 1.6 7.9 1.4 1.1 1.9 1 3.7 -1.1 1.3 -1.6 1.8 -1.9 1.4 -0.7 -1 2.7 1.9 2.1 4.2 -0.9 1.2 -1.5 2.1 -2.2 2.1 -1.7 0 1.7 -4.5 5.1 -7.5 5.6 -1.6 0.3 -4.1 0.2 -5.5 -0.3z"/>
<path d="M791.8 753.3 c-1.4 -0.3 -1.5 -0.7 -0.6 -1.7 1 -1.1 1.5 -1 2.6 0 0.9 1 1.9 1.1 3.1 0.5 0.9 -0.5 2.3 -0.6 3 -0.2 0.8 0.6 0.2 1 -1.9 1.5 -3.4 0.6 -3.5 0.6 -6.2 -0.1z"/>
<path d="M837 753.3 c-3.1 -0.6 -6 -3.1 -5.9 -5.2 0 -1 0.4 -0.8 0.9 0.7 1.1 2.6 4.2 4.2 4.8 2.4 0.3 -0.9 0.7 -0.8 1.7 0.2 1.5 1.4 6 1.1 8.5 -0.7 1.3 -1 1.3 -0.9 0 0.5 -1.7 1.8 -6.3 2.8 -10 2.1z"/>
<path d="M810.8 752.3 l4.2 -0.4 0 -12.5 c0 -6.8 0.3 -12.4 0.8 -12.4 0.4 0 0.6 3.7 0.4 8.2 l-0.4 8.3 2.6 -2.4 c1.4 -1.3 2.8 -3.2 3.2 -4.3 0.3 -1 1.2 -1.8 2.1 -1.8 1.4 0 1.4 0.2 0 1.8 -1 1 -1.8 3.2 -1.8 4.8 -0.1 1.7 -0.3 2.2 -0.6 1.2 -0.6 -2.4 -1.5 -2.2 -3.7 0.8 -1.2 1.7 -1.7 3.7 -1.4 6 l0.4 3.4 -5.1 -0.2 c-5 -0.1 -5 -0.2 -0.7 -0.5z"/>
<path d="M821.2 751.6 c0.7 -0.8 1.5 -1 1.8 -0.6 0.3 0.5 2.1 1 4 1.3 2.7 0.3 2.3 0.4 -1.8 0.5 -4.5 0.2 -5.1 0 -4 -1.2z"/>
<path d="M758.5 750.2 c0.5 -0.8 1.2 -3.5 1.6 -6.1 l0.6 -4.6 0.2 4.1 c0.1 2.7 -0.5 4.8 -1.6 6.1 -1 1 -1.4 1.3 -0.8 0.5z"/>
<path d="M764.6 750.1 c-1 -1.1 -1.6 -2.6 -1.3 -3.3 0.4 -1 0.6 -1 0.6 0.1 0.1 0.8 0.8 2.3 1.8 3.3 0.9 1 1.4 1.8 1.1 1.8 -0.3 0 -1.3 -0.9 -2.2 -1.9z"/>
<path d="M799 747 c0 -1.1 -0.6 -2 -1.2 -2 -1 0 -1 -0.2 -0.2 -0.8 0.7 -0.4 1.4 -1.8 1.7 -3.2 0.2 -1.4 0.5 -0.1 0.6 2.8 0 2.8 -0.1 5.2 -0.4 5.2 -0.3 0 -0.5 -0.9 -0.5 -2z"/>
<path d="M791.2 743.5 c-0.1 -4.2 0.1 -4.7 1 -2.8 0.6 1.2 1.6 2.4 2.2 2.6 0.6 0.2 0.3 0.3 -0.6 0.2 -1.1 -0.2 -1.8 0.6 -2.1 2.4 -0.2 1.4 -0.4 0.4 -0.5 -2.4z"/>
<path d="M836.3 747.4 c0.4 -0.4 -0.5 -2 -2 -3.6 -3.7 -3.9 -2.5 -4 1.4 -0.2 2.8 2.8 3 3.3 1.6 3.9 -1 0.3 -1.4 0.3 -1 -0.1z"/>
<path d="M785.2 744 c0 -1.9 0.2 -2.7 0.5 -1.7 0.2 0.9 0.2 2.5 0 3.5 -0.3 0.9 -0.5 0.1 -0.5 -1.8z"/>
<path d="M805 743.6 c0 -2.6 -0.7 -4.4 -2.5 -6.1 -1.3 -1.4 -2 -2.5 -1.6 -2.5 0.4 0 1.6 0.9 2.6 2 1.3 1.4 2.1 1.7 2.6 0.9 0.4 -0.6 0.4 1 0.2 3.7 -0.7 6 -1.3 7 -1.3 2z"/>
<path d="M842.8 742.5 c-2.5 -1.8 -4.9 -3.9 -5.3 -4.5 -0.3 -0.6 1.9 0.8 4.9 3.1 4.9 3.6 6.3 5 5.4 4.9 -0.2 0 -2.4 -1.6 -5 -3.5z"/>
<path d="M763 740.4 c0 -1.4 3.8 -5.4 5.3 -5.4 0.6 0 0.2 0.7 -1 1.5 -1.3 0.9 -2.7 2.3 -3.2 3.3 -0.6 0.9 -1.1 1.2 -1.1 0.6z"/>
<path d="M781.6 739.4 c-0.4 -0.9 -0.5 -1.7 -0.4 -1.8 0.2 -0.1 2.8 -2.3 5.8 -5.1 3 -2.7 4.9 -4.3 4.2 -3.4 -0.6 0.9 -1 1.8 -0.7 2.1 0.3 0.2 -1.5 1.9 -4 3.7 -2.9 2 -4.2 3.7 -3.8 4.6 0.3 0.8 0.3 1.5 0 1.5 -0.3 0 -0.8 -0.7 -1.1 -1.6z"/>
<path d="M786 739.1 c0 -1 3.9 -4.6 4.3 -4 0.2 0.2 -0.7 1.4 -2 2.6 -1.3 1.2 -2.3 1.9 -2.3 1.4z"/>
<path d="M841.8 737.5 c-1 -2.2 -1.6 -2.5 -4.2 -1.9 -1.7 0.3 -3.7 1.3 -4.3 2.2 -0.7 0.9 -1.3 1.1 -1.3 0.5 0 -1.7 2.6 -3.4 6.3 -4 3.1 -0.5 3.5 -0.2 4.1 2.1 0.3 1.4 1.3 2.6 2.1 2.6 2 0 1.9 -1.7 -0.2 -2.9 -1 -0.6 -1.3 -1.1 -0.7 -1.1 0.6 0 1.9 0.8 2.8 1.9 1.5 1.7 1.5 1.9 0.1 2.5 -2.7 1 -3.5 0.7 -4.7 -1.9z"/>
<path d="M792.3 736.1 c0.1 -1.7 0.8 -2.1 3.4 -2.1 2.3 0 3.3 0.5 3.3 1.5 0 1.3 -0.3 1.3 -2.1 0.3 -1.7 -1.1 -2.2 -1 -3.4 0.6 -1.3 1.8 -1.4 1.8 -1.2 -0.3z"/>
<path d="M806 733.5 c0 -0.8 0.5 -1.5 1 -1.5 0.6 0 1 0.7 1 1.5 0 0.8 -0.4 1.5 -1 1.5 -0.5 0 -1 -0.7 -1 -1.5z"/>
<path d="M809 730.8 c0 -1.5 -0.6 -2.9 -1.2 -3.1 -0.7 -0.3 -0.3 -0.6 1 -0.6 1.9 -0.1 2.2 0.3 1.6 2.7 -0.9 3.7 -1.4 4 -1.4 1z"/>
<path d="M793.1 729.9 c1.3 -0.8 9.7 -1.3 8.8 -0.5 -0.2 0.2 -2.6 0.6 -5.3 0.9 -3 0.3 -4.3 0.1 -3.5 -0.4z"/>
<path d="M806 730.2 c0 -0.6 -1.2 -1.8 -2.7 -2.6 -1.6 -0.8 -2.3 -1.5 -1.7 -1.6 1.8 0 6 3.7 5.2 4.6 -0.5 0.4 -0.8 0.2 -0.8 -0.4z"/>
<path d="M830.2 718.1 c-5.1 -1.3 -10 -5.2 -10.6 -8.4 -0.3 -1.6 -0.6 -6.2 -0.6 -10.2 0 -8.9 -2 -11.5 -9.1 -11.5 -4.1 0.1 -4.3 0.2 -2.4 1.6 1.8 1.3 2 2.9 2.3 12.7 0.3 8.4 0.8 11.6 1.9 13 1.7 1.8 6.8 2.3 7.8 0.7 0.7 -1.1 3.5 -0.2 3.5 1.1 0 0.5 -3.8 0.9 -8.5 0.9 -5 0 -8.5 -0.4 -8.5 -1 0 -0.5 0.8 -1 1.8 -1 1.5 0 1.7 -1 1.4 -9.2 -0.4 -14.4 -0.8 -16 -4 -15.6 -4 0.5 -5.2 3.9 -5.2 15.1 0 8 0.3 9.7 1.5 9.7 0.8 0 1.5 0.5 1.5 1 0 0.6 -6 1 -16 1 -14.4 0 -18.8 -0.7 -14.6 -2.3 1.2 -0.5 1.6 -3.3 1.8 -13.1 0.3 -11.5 0.1 -12.6 -1.4 -12.6 -2.5 0 -2.3 -2.6 0.2 -3.3 1.2 -0.3 2.8 -2.4 3.9 -5 1.1 -2.5 2.5 -4.9 3.3 -5.3 0.7 -0.5 5.8 -0.7 11.3 -0.5 9.5 0.3 12.5 0.8 9.8 1.8 -0.9 0.3 -1.3 2.6 -1.3 6.4 0 5.4 1 7.4 2.5 4.9 0.3 -0.5 2.1 -1.4 4 -1.9 4.6 -1.2 10.1 0.3 12.1 3.4 l1.6 2.5 3.4 -2.7 c3.8 -2.8 10.7 -4 16.9 -2.9 3.3 0.7 11.5 7.2 11.5 9.2 0 0.5 -4.9 3 -10.8 5.6 l-10.7 4.7 0.3 3.3 c0.5 4.1 1.8 5.8 4.7 5.8 1.8 0 2.5 -0.7 3 -3.2 1.3 -6.4 3 -7.8 9 -7.8 6 0 6.3 0.4 4 5.4 -2.8 5.9 -13.3 9.6 -21.3 7.7z m-46.2 -21.6 c0 -11.3 -0.4 -20.5 -0.8 -20.5 -1.3 0 -3.7 3.1 -5.9 7.8 -1.7 3.5 -1.9 4.4 -0.7 4.9 1.1 0.4 1.1 0.7 -0.1 2 -1.2 1.1 -1.5 4.3 -1.5 13.9 l0 12.4 4.5 0 4.5 0 0 -20.5z m15 0.5 l0 -20 -2.8 0 c-1.6 0 -3.7 0.6 -4.8 1.4 -1.7 1.3 -1.9 3 -2.3 18.5 -0.1 9.4 0 17.8 0.3 18.6 0.4 1 2 1.5 5.1 1.5 l4.5 0 0 -20z m31.9 18.3 c-1.9 -2.2 -1.9 -21.9 -0.1 -25 2.5 -4.5 -5.3 -1.2 -8.7 3.6 -2.4 3.4 -2.9 13.1 -0.7 16.9 1.5 2.8 6.4 6.2 9 6.2 1.6 0 1.7 -0.2 0.5 -1.7z m14.2 0.2 c2.7 -1.4 6.9 -6.8 6.9 -8.7 0 -1 -8.2 -1 -9.6 0 -0.6 0.4 -1.7 2.8 -2.6 5.5 -1.5 4.5 -1.4 4.7 0.4 4.7 1 0 3.2 -0.7 4.9 -1.5z m-57.1 -12.5 c0 -10.9 -0.2 -13 -1.5 -13 -1.3 0 -1.5 2 -1.5 12.3 0 6.8 0.3 12.7 0.7 13 1.9 1.9 2.3 -0.4 2.3 -12.3z m47.4 -1 c4 -1.7 4.6 -2.3 4.6 -4.9 0 -5.1 -1.7 -8.1 -4.4 -8.1 -1.5 0 -3 0.8 -3.6 2.1 -1.3 2.2 -2.6 12.9 -1.7 12.9 0.3 0 2.6 -0.9 5.1 -2z m11.1 -3.4 c1.9 -0.8 3.5 -1.9 3.5 -2.4 0 -2 -9.5 -9.1 -10.7 -7.9 -0.2 0.3 0 1.4 0.6 2.5 0.6 1.2 1.1 3.7 1.1 5.6 0 4 0.6 4.2 5.5 2.2z m-58.1 -15.7 c0.7 -4.6 0.4 -5.4 -1.9 -4.6 -1 0.4 -1.5 2 -1.5 4.7 0 5.5 2.5 5.4 3.4 -0.1z"/>
<path d="M917 717.5 c-2.7 -0.9 -4.6 -1.1 -4.8 -0.5 -0.5 1.3 -18.2 1.3 -18.2 0 0 -0.5 0.8 -1 1.8 -1 1.6 0 1.7 -1 1.4 -11.2 -0.4 -13.2 -0.5 -13.8 -3.1 -13.8 -3.2 0 -4.1 3.1 -4.1 14.4 0 8.8 0.3 10.6 1.5 10.6 0.8 0 1.5 0.5 1.5 1 0 0.6 -3.7 1 -9 1 -5.3 0 -9 -0.4 -9 -1 0 -0.5 0.8 -1 1.8 -1 1.5 0 1.7 -1.1 1.4 -11.2 -0.3 -13.1 -0.5 -13.8 -3 -13.8 -3.6 0 -4.6 2.8 -5 13.6 -0.4 8.9 -0.2 10.5 1.2 11 3.8 1.4 1 2.4 -6.9 2.4 -7.8 0 -10.7 -1 -7.1 -2.3 1.2 -0.5 1.6 -3.3 1.8 -13.1 0.3 -11.5 0.1 -12.6 -1.4 -12.6 -1 0 -1.8 -0.7 -1.8 -1.5 0 -1.6 3.1 -1.7 24.5 -1.6 1.6 0 4.2 1 5.8 2.2 l2.9 2.1 2.4 -2.3 c1.8 -1.7 3.5 -2.2 7.1 -2.1 4 0 5.2 0.5 7.6 3.2 l2.9 3.2 2.1 -2 c3.7 -3.3 6.3 -4.2 12.7 -4.2 4.5 0 7.3 0.6 10.1 2.2 l3.8 2.1 7.8 -7.4 c4.3 -4.1 9.4 -8.2 11.5 -9.2 9.2 -4.4 20.7 0.5 22.5 9.5 0.5 2.5 0.9 2.8 4.9 2.8 2.3 0 4.6 0.5 4.9 1 0.4 0.7 1.3 0.6 2.7 -0.1 3 -1.6 9.5 -1.3 12.3 0.5 3.2 2.1 4.5 7.3 4.5 18.4 0 5.4 0.4 9.2 1 9.2 0.6 0 1 0.5 1 1 0 0.6 -3.5 1 -8.5 1 -5 0 -8.5 -0.4 -8.5 -1 0 -0.5 0.8 -1 1.8 -1 1.5 0 1.7 -1 1.4 -10.2 -0.3 -13.5 -0.6 -14.8 -3.7 -14.8 -4 0 -5.5 4.3 -5.5 15.5 0 7.8 0.3 9.5 1.5 9.5 0.8 0 1.5 0.5 1.5 1 0 0.6 -3.7 1 -9 1 -5.3 0 -9 -0.4 -9 -1 0 -0.5 0.7 -1 1.5 -1 0.9 0 1.5 -1 1.5 -2.6 l0 -2.6 -3 3 c-5.6 5.6 -17.2 6.4 -24.5 1.6 -5.4 -3.5 -7.3 -14.9 -3.5 -21.2 3.1 -5.1 7.5 -7.2 14.8 -7.2 6.6 0 10.4 1.4 13.6 4.9 2 2.2 3.6 2 3.6 -0.5 0 -0.8 -0.9 -1.4 -2 -1.4 -3 0 -2.4 -2 1 -3.1 3.5 -1.3 3.4 -1 1.6 -5.4 -2.3 -5.5 -10.3 -8.5 -17.5 -6.5 -3.9 1 -15.8 10.6 -14.6 11.8 0.3 0.3 1.5 -0.4 2.8 -1.5 4.3 -4 9 -5.7 15.9 -5.7 6.8 -0.1 11.5 1.9 12.6 5.5 0.3 0.8 -0.5 0.5 -1.6 -0.8 -4.5 -4.6 -13.8 -5.3 -20.8 -1.5 -7.2 4 -15.3 10.7 -14.7 12.2 1.7 3.7 1.4 12.5 -0.5 15.9 -3.5 6.4 -13.6 9.4 -22.2 6.6z m-48 -15 c0 -16 -0.1 -16.1 -6 -13 l-3 1.6 0 12.9 0 13 4.5 0 4.5 0 0 -14.5z m20 4.1 c0 -15.6 -1.6 -18.6 -10.1 -18.6 l-4.3 0 2.2 2 c2 1.9 2.2 3.1 2.2 13 0 10.1 0.2 11 2.2 12.4 1.2 0.9 3.5 1.6 5 1.6 l2.8 0 0 -10.4z m18.6 -1.3 c-0.3 -15.4 -1.4 -17.3 -9.3 -17.3 -3.4 0 -3.5 0.1 -2 1.8 1.4 1.5 1.7 4 1.7 12.5 0 12 1.3 14.7 7 14.7 l2.9 0 -0.3 -11.7z m11.4 9.1 c-1.3 -3.4 -1.3 -21 0.1 -23.6 0.6 -1.1 0.9 -2.2 0.6 -2.4 -0.9 -0.9 -5.8 1.7 -8.2 4.2 -2.2 2.3 -2.5 3.6 -2.5 9.6 0 8 0.9 10.2 5.3 12.8 4.5 2.8 5.9 2.6 4.7 -0.6z m14.7 0.6 c8.9 -5.4 8.3 -20.5 -1.1 -25.3 -4.2 -2.2 -5.3 -1.8 -3.7 1.1 1.4 2.6 1.4 20.2 0.1 23.6 -1.2 3.2 0.2 3.4 4.7 0.6z m21.8 0.3 c-2.7 -6.4 -2.8 -19.9 -0.3 -24.6 1.5 -2.8 0.3 -3.2 -3.8 -1 -9.2 4.8 -10 19.9 -1.2 25.3 4.2 2.5 6.3 2.6 5.3 0.3z m14.3 -0.3 c8.8 -5.4 8 -20.5 -1.2 -25.3 -4.1 -2.2 -5.3 -1.8 -3.8 1 2.5 4.7 2.4 18.2 -0.3 24.6 -1 2.3 1.1 2.2 5.3 -0.3z m17.2 -11.9 c0 -8.8 -0.4 -14.2 -1.1 -14.6 -2.3 -1.5 -5.9 0.6 -7.4 4.1 -1.5 3.7 -2.2 22.4 -0.8 23.7 0.3 0.4 2.6 0.7 5 0.7 l4.3 0 0 -13.9z m20 1.7 c0 -11.1 -0.2 -12.4 -2.2 -14.5 -1.6 -1.7 -3.2 -2.3 -6.7 -2.3 l-4.5 0 2.2 2 c2 1.9 2.2 3.1 2.2 13 0 10.1 0.2 11 2.2 12.4 1.2 0.9 3.3 1.6 4.5 1.6 2.3 0 2.3 -0.2 2.3 -12.2z m-95 10.8 c0 -0.2 -0.7 -0.9 -1.5 -1.6 -1.2 -1 -1.5 -1 -1.5 0.4 0 0.9 0.7 1.6 1.5 1.6 0.8 0 1.5 -0.2 1.5 -0.4z m16 -2.2 c0.6 -1.4 1 -5.4 1 -8.8 l0 -6.3 -3.2 -0.7 c-1.8 -0.3 -4.1 -1.6 -5 -2.9 -1.7 -2.1 -1.8 -1.9 -1.8 7 0 11.6 0.9 14.3 5 14.3 2.4 0 3.3 -0.6 4 -2.6z m36 0.7 c0.5 -1.1 1 -3.7 1 -5.9 0 -3.7 -0.2 -4 -3.2 -4.4 -1.8 -0.3 -4.1 -0.8 -5 -1.3 -1.6 -0.6 -1.8 -0.1 -1.8 3.8 0 7 1.4 9.7 4.9 9.7 2 0 3.4 -0.7 4.1 -1.9z m1 -16.1 c0 -5.9 -1.8 -9 -5.2 -9 -2.9 0 -4.8 2.7 -4.8 7.1 0 2.9 3.6 5.9 7 5.9 2.8 0 3 -0.2 3 -4z m-36 -2.9 c0 -0.5 -0.5 -2.2 -1 -3.6 -0.7 -1.9 -1.6 -2.6 -3.2 -2.3 -2.9 0.4 -3.6 3.7 -1.2 5.5 2.1 1.5 5.4 1.7 5.4 0.4z"/>
<path d="M581 699.2 l0.5 -18.7 0.3 17.9 c0.1 9.9 -0.1 18.3 -0.5 18.7 -0.5 0.5 -0.6 -7.6 -0.3 -17.9z"/>
<path d="M684.4 706.5 c0 -6 0.1 -8.4 0.3 -5.2 0.2 3.2 0.2 8.1 0 11 -0.2 2.9 -0.3 0.3 -0.3 -5.8z"/>
<path d="M720.3 700 c0 -4.7 0.2 -6.6 0.4 -4.2 0.2 2.3 0.2 6.1 0 8.5 -0.2 2.3 -0.4 0.4 -0.4 -4.3z"/>
<path d="M637 705.7 c0.7 -0.7 7.8 -1.2 8.4 -0.6 0.3 0.3 -1.6 0.6 -4.1 0.8 -2.6 0.1 -4.5 0 -4.3 -0.2z"/>
<path d="M730.3 702.5 c0 -2.2 0.2 -3 0.4 -1.7 0.2 1.2 0.2 3 0 4 -0.3 0.9 -0.5 -0.1 -0.4 -2.3z"/>
<path d="M655.3 694.5 c0 -2.2 0.2 -3 0.4 -1.7 0.2 1.2 0.2 3 0 4 -0.3 0.9 -0.5 -0.1 -0.4 -2.3z"/>
</g>
</svg>