<?xml version="1.0" encoding="utf-8"?>
<!DOCTYPE svg PUBLIC "-//W3C//DTD SVG 1.0//EN" "http://www.w3.org/TR/2001/REC-SVG-20010904/DTD/svg10.dtd">
<svg version="1.0" xmlns="http://www.w3.org/2000/svg" width="1024px" height="1024px" viewBox="0 0 1024 1024" preserveAspectRatio="xMidYMid meet">
 <g fill="#fbfdfc">
  <path d="M289.2 948.4 c-120.2 -62.7 -209.3 -172.1 -246.3 -302.8 -7.1 -25.3 -13.8 -60.7 -16.4 -87.8 -0.6 -6.2 -0.5 -6.8 1.2 -6.8 1.6 0 2.1 1.6 3.7 12.3 11.4 76.4 28.8 128.6 62.2 186.5 16 27.7 30.3 49.1 44.8 67.2 35 43.6 69.9 75.3 114.6 104.1 18.1 11.6 29.2 18.3 41.7 25 6.6 3.5 8.3 4.9 8.3 6.7 0 1.2 -0.2 2.2 -0.5 2.2 -0.3 0 -6.2 -3 -13.3 -6.6z"/>
  <path d="M758 931.7 c0 -1.9 2.3 -3.9 11.3 -9.9 12.8 -8.7 35.1 -25.3 41.6 -31 3.3 -2.9 5.2 -3.8 8 -3.8 l3.5 0 -4.9 5.1 c-2.8 2.8 -9.9 8.8 -16 13.4 -11.5 8.7 -41.2 28.5 -42.6 28.5 -0.5 0 -0.9 -1 -0.9 -2.3z"/>
  <path d="M829 878.7 c0 -1.9 3.8 -6.3 15.8 -18.3 40 -40.3 71.1 -83.4 96.7 -133.9 19.5 -38.5 32.7 -75 40 -110.3 1.3 -6.4 3.3 -16 4.4 -21.3 2.2 -10.2 7.1 -43.1 7.1 -47.3 0 -2 0.5 -2.6 2.1 -2.6 2.1 0 2.1 0.3 1.4 7.8 -8.5 95.7 -42.1 182.8 -99.6 258.2 -17.7 23.1 -39.3 46.6 -55.4 60 -13.5 11.3 -12.5 10.7 -12.5 7.7z"/>
  <path d="M943 671.8 c0 -4.5 3.1 -17.2 4.9 -20.7 1.8 -3.3 10.6 -40.9 15.6 -66 5 -25.6 7.5 -50.1 7.5 -73.8 l0 -13.3 4.2 0 4.1 0 -0.6 25.8 c-0.4 14.1 -1.1 29.5 -1.7 34.2 -3.3 28.3 -17.6 93.2 -23.5 106.5 -0.7 1.7 -1.9 4.9 -2.6 7.3 -1.1 3.9 -1.5 4.2 -4.6 4.2 -3.2 0 -3.3 -0.1 -3.3 -4.2z"/>
  <path d="M25.6 544.8 c-1.2 -4.8 -0.7 -7.8 1.4 -7.8 1.7 0 2 0.7 2 5 0 3.6 -0.4 5 -1.4 5 -0.7 0 -1.6 -1 -2 -2.2z"/>
  <path d="M24.6 517.8 c-1.5 -5.8 -0.3 -14.8 2 -14.8 1.1 0 1.4 1.9 1.4 8.5 0 6.6 -0.3 8.5 -1.4 8.5 -0.7 0 -1.6 -1 -2 -2.2z"/>
  <path d="M994 495.3 c0 -7 -1.8 -25.5 -4.6 -47.3 -1.8 -14.4 -6.4 -38.3 -9.9 -51.8 -1.4 -5.2 -2.5 -10.4 -2.5 -11.7 0 -1.3 -0.3 -2.5 -0.7 -2.7 -0.5 -0.1 -3.6 -8.6 -7 -18.8 -16.4 -49.5 -41.9 -98.8 -70.4 -136.2 -4.4 -5.8 -5.9 -8.6 -5.9 -11 l0 -3.2 7.1 6.9 c3.8 3.9 8.6 9.7 10.6 13 2 3.3 5.7 8.7 8.3 12 5.1 6.7 13.2 19.9 17.8 29 1.6 3.3 6.5 12.8 10.7 21 4.2 8.3 9 18.8 10.7 23.5 1.7 4.7 4.3 11 5.8 14 4.3 8.5 11.6 30.6 13.5 40.5 0.9 4.9 2.7 11.4 4 14.4 6.4 15.4 14.4 65.4 16.1 100.9 0.7 14.1 0.7 14.2 -1.5 14.2 -1.9 0 -2.1 -0.5 -2.1 -6.7z"/>
  <path d="M25 483.8 c0 -4.8 1 -7.8 2.6 -7.8 1 0 1.4 1.5 1.4 5.5 0 4.8 -0.2 5.5 -2 5.5 -1.6 0 -2 -0.7 -2 -3.2z"/>
  <path d="M26.4 467.3 c5.4 -60.5 22.4 -120.6 49.6 -175.1 15.8 -31.6 34.3 -61.4 40.5 -65 l3.5 -2.1 0 3.4 c0 2 -0.9 4.5 -2.3 6.2 -6.2 7.6 -29 45.8 -37.6 63 -25 50.1 -45.1 118.7 -49.6 169.6 -0.7 6.8 -1 7.7 -2.8 7.7 -1.9 0 -1.9 -0.4 -1.3 -7.7z"/>
  <path d="M241 471.3 c-3.9 -1.5 -5 -3.6 -5 -9.8 0 -9 3.7 -12.5 13 -12.5 8.3 0 13 3.6 13 10.1 0 4.4 -2.8 8.2 -8.1 10.9 -3.6 1.9 -9.6 2.5 -12.9 1.3z"/>
  <path d="M85.6 407.4 c-0.9 -2.3 -0.7 -8.7 0.3 -10.2 0.5 -0.9 2.5 -1.2 6.2 -1 l5.4 0.3 0.3 3.9 c0.2 2.2 0.1 5 -0.2 6.3 -0.6 2.1 -1.2 2.3 -6 2.3 -4 0 -5.5 -0.4 -6 -1.6z"/>
  <path d="M131 209.5 c3.3 -8.8 7.5 -14.3 26.5 -34.9 49 -53.2 118.1 -99 187.2 -124.2 14.8 -5.4 21.5 -7.4 56.8 -16.8 29.3 -7.8 71.5 -12.6 110 -12.6 63.3 0 126.6 12.4 182.5 35.7 10.9 4.5 31 15.9 31 17.6 0 0.4 -1.6 0.7 -3.5 0.7 -1.9 0 -3.5 -0.4 -3.5 -1 0 -0.5 -0.8 -1 -1.8 -1 -1 0 -2.2 -0.4 -2.7 -0.9 -1.2 -1 -24 -10.8 -36.8 -15.7 -11 -4.2 -41.4 -13.5 -56.8 -17.4 -14.5 -3.7 -42.7 -8.6 -61.9 -10.7 -34.1 -3.8 -96.3 -1.3 -129 5.3 -81.2 16.4 -152.1 48.2 -213.1 95.7 -26.2 20.3 -58 51.8 -74.7 74 -4.9 6.4 -7.2 8.7 -8.9 8.7 -2 0 -2.1 -0.3 -1.3 -2.5z"/>
  <path d="M776 107.4 c-1.9 -1.4 -7.7 -5 -12.7 -8.1 -7.5 -4.5 -9.3 -6 -9.3 -7.9 0 -2.8 0.4 -2.7 11 2.9 7.4 4 17.3 11 19.9 14.1 2.3 2.7 -4.8 1.9 -8.9 -1z"/>
  <path d="M737.3 84.3 c-6.8 -3.6 -8.3 -4.9 -8.3 -6.8 0 -2.2 0.2 -2.3 3.8 -1.3 3.8 1 15.9 8.6 18.2 11.3 2.7 3.2 -5.4 1.4 -13.7 -3.2z"/>
 </g>
 <g fill="#f2ff33">
  <path d="M490 987.4 c-60.5 -4.3 -117.9 -19.1 -170 -44 -13.4 -6.4 -18.7 -9.3 -41.5 -22.7 -61 -35.6 -107.1 -78.2 -149.1 -137.7 -15.1 -21.3 -35.3 -57.5 -44.9 -80 -3.1 -7.4 -6.7 -16 -8 -19 -4.6 -11 -16.5 -50.7 -21.4 -71.5 -1.6 -7.1 -3.9 -18.8 -5.1 -26 -1.1 -7.1 -2.7 -16.7 -3.5 -21.2 -2.2 -13.3 -3.8 -47.9 -3.2 -69.8 1.8 -58.9 20 -132.6 45.9 -185.2 5.9 -11.9 6.2 -12.3 9.3 -12.3 3 0 3.3 0.3 3.9 3.7 0.7 4.9 3.9 10 7 11.4 4.7 2.2 21.9 -6.7 31.7 -16.4 15.7 -15.6 27.8 -37.3 33.6 -60.1 2.4 -9.7 2.6 -11.2 1.5 -16.3 -1.3 -6.5 -5.5 -11.6 -10.9 -13.4 -2.8 -0.9 -3.3 -1.5 -3.3 -4.3 0 -2.6 1.3 -4.7 6.2 -10.2 11.6 -13 21.3 -22.5 35.8 -35.2 7.9 -7 17.4 -15.5 21.1 -19 5.2 -4.9 7.2 -6.2 9.7 -6.2 3 0 3.2 0.2 3.2 3.7 0 2.1 -1 6.1 -2.2 9 -2 5 -2.1 5.5 -0.6 8.6 2.4 5 7.6 7.1 15.4 6.4 20.7 -2 48.7 -19.4 62.5 -39 5.9 -8.4 8.4 -15.3 7 -19.1 -1.2 -3 -6.5 -6.6 -9.8 -6.6 -2 0 -2.3 -0.5 -2.3 -3.7 0 -4.3 -1.1 -3.7 20.5 -12.5 37.6 -15.5 79.1 -26.7 117 -31.8 34.4 -4.5 87.6 -5.4 118 -2 19.9 2.3 33.5 4.2 46.8 6.6 l8.7 1.6 0 3.8 0 3.8 -6 1 c-3.2 0.6 -7.3 2.1 -8.9 3.3 -4 2.9 -7.5 10.3 -7.5 15.5 0.2 16 33.9 40.9 66.9 49.5 9.9 2.6 14.1 3.1 24.1 3.3 11.6 0.1 12.3 0 17.9 -2.9 6.3 -3.2 10.5 -8.1 10.5 -12.2 0 -7.9 -19 -28.9 -31.2 -34.4 -2.3 -1 -2.8 -1.9 -2.8 -4.6 0 -3.2 0.2 -3.3 3.8 -3.3 11.5 0 67.8 30.6 99.9 54.3 29.5 21.8 59.9 50.7 84.9 80.7 23.6 28.4 50 69.5 63.5 99.2 8.5 18.8 17.9 43.7 20.5 54.7 1.3 5.7 2.9 11.1 3.4 12.1 1.9 3.5 10.9 38.9 12.9 50.5 2.9 17.5 4.4 47 3.6 75.5 -1.1 39.9 -2.8 58.5 -8 85.1 -5 25.1 -13.8 62.7 -15.6 66 -1.3 2.5 -5 16.6 -4.8 18.2 0.4 2.3 -2.6 12.3 -6.1 20.2 -1.2 2.8 -3.5 8.6 -5 13 -6.2 18.2 -13.2 32.9 -24.5 52 -11.9 20.1 -16 25.5 -19.5 25.5 -2.5 0 -3.4 1 -7.6 8.3 -6.9 12 -11 18.4 -19.3 29.9 -9.9 13.6 -12.9 16.8 -16.1 16.8 -2.1 0 -3.8 1.6 -8.9 8.5 -10.3 14 -39.2 39.5 -44.6 39.5 -1.9 0 -6.1 3.1 -15.8 11.9 -14.3 12.8 -22.1 18.2 -39.1 27.1 -6.1 3.1 -13.1 7.1 -15.6 8.7 -6.4 4.3 -31.8 16 -36.2 16.8 -2.1 0.3 -7 2.1 -11 4 -7.5 3.5 -24.3 8.5 -28.9 8.5 -1.4 0 -7.2 1.6 -13 3.5 -23.8 8.1 -68.7 15.5 -103.1 17.1 -10 0.5 -12.8 0.9 -12.8 2 0 1 -1.3 1.4 -4.3 1.4 -2.4 0 -7.7 0.2 -11.8 0.4 -4.1 0.2 -9.9 0.2 -12.9 0z m-58 -70.2 c0 -0.5 2.6 -1.5 5.8 -2.2 9.3 -2 13 -3.9 17.6 -9.1 5.9 -6.5 7.4 -12.6 5.2 -20.1 -4.6 -15.5 -17.6 -28.8 -38.1 -39.1 -25 -12.4 -41.1 -14.3 -57.2 -6.6 -7 3.3 -11.5 8.3 -14.4 15.9 -1.8 4.7 -1.8 5.3 -0.3 12.2 1.4 6.1 2.6 8.5 7.5 15.1 3.3 4.3 5.9 8.2 5.9 8.7 0 1.1 18.9 13.5 26.2 17.2 10.5 5.2 41.8 11.2 41.8 8z m-173.6 -99.7 c9.3 -9.3 9.2 -16.9 -0.3 -34.5 -3.5 -6.4 -7 -10.9 -14.6 -18.5 -11 -11.1 -18 -16.3 -27 -19.9 -5.4 -2.2 -6.1 -2.3 -10.4 -1 -5.5 1.6 -11.5 7.5 -12.9 12.8 -0.8 2.8 -0.6 5.5 0.9 11.9 4.4 18.6 20.7 37.5 41.4 48 7.2 3.7 10.1 4.6 14.2 4.6 4.7 0.1 5.6 -0.3 8.7 -3.4z m275.6 2 c1.7 -0.9 3 -1.7 3 -1.8 0 -0.1 -2.5 0 -5.5 0.1 -7 0.5 -8.5 -0.7 -8.5 -6.7 -0.1 -4.3 -0.2 -4.5 -1.5 -2.7 -2.3 3.1 -1.8 5.5 1.9 9.2 3.7 3.7 6.2 4.2 10.6 1.9z m205 -0.5 c9 -1.2 15.9 -3.4 24 -7.5 2.7 -1.4 5.4 -2.5 6 -2.5 1.4 0 18.7 -13.1 25.9 -19.6 11.2 -10.1 22 -27.4 25.6 -41.1 5 -18.6 -2.2 -37.6 -17.7 -46.7 -5.7 -3.3 -18.5 -6.6 -25.7 -6.6 -15.4 0.1 -44.2 10.4 -58.7 21.1 -17 12.5 -29.4 30.5 -35.1 50.9 -2.6 9.7 -2.9 16.2 -0.9 23.8 3.4 12.7 12.2 21.7 24.9 25.8 8.8 2.7 17.9 4.4 21.2 3.9 1.1 -0.2 5.8 -0.9 10.5 -1.5z m-198.3 -10.7 c-0.3 -1 -0.5 -0.2 -0.5 1.7 0 1.9 0.2 2.7 0.5 1.8 0.2 -1 0.2 -2.6 0 -3.5z m-4.2 -5.3 c-3.5 -2.3 -5.8 -2.5 -8.8 -0.7 -2 1.1 -1.6 1.3 3.8 1.8 3.3 0.3 6.5 0.6 7 0.7 0.6 0.1 -0.3 -0.7 -2 -1.8z m-224.5 -82 c1.6 -6.5 3.3 -10.5 6.2 -14.7 l4 -5.8 -3.5 3.3 c-1.9 1.9 -4.3 4.9 -5.3 6.8 -1.5 2.8 -2.4 3.4 -5.1 3.4 -2.7 0 -3.7 -0.7 -5.6 -3.7 -2.8 -4.5 -10.6 -11.9 -14.2 -13.5 -2 -0.9 -2.5 -1.8 -2.5 -4.8 0 -3.2 0.4 -3.9 3 -5 3.6 -1.5 9.2 -7.5 12 -13 1.8 -3.5 2.5 -4 5.4 -4 3.1 0 3.8 0.6 7.1 6 3 4.9 4.8 6.6 10.1 9.6 5.8 3.3 6.4 3.9 6.4 6.9 0 2.2 -0.7 3.7 -2.2 4.8 -1.3 0.9 1.3 0.3 5.6 -1.3 4.4 -1.6 8.4 -3.4 8.9 -3.9 1.1 -1.1 -4.3 -3.8 -14.5 -7.5 -9.3 -3.4 -12.7 -8.1 -18.6 -25.2 -2.1 -5.8 -4.1 -10.6 -4.7 -10.6 -0.5 0.1 -1.6 3.4 -2.3 7.4 -3.9 21.3 -7.6 27.6 -17.4 29.8 -7.7 1.7 -14.8 4.1 -14.8 4.9 0 1 4.9 3.7 9.5 5.1 14.3 4.5 21 11.5 25.7 26.8 1.1 3.7 2.2 7 2.5 7.5 1 1.7 2.2 -0.8 4.3 -9.3z m-152.7 -33.4 c9.1 -3.9 16.1 -18.8 17.3 -37.1 2.1 -29.7 -19.6 -82.7 -44.1 -107.8 -11.3 -11.7 -22.6 -17.1 -30.2 -14.6 -9 2.9 -16.6 13.9 -20.5 29.7 -1.9 7.3 -2.2 11.3 -2.1 25.2 0.1 14.2 0.4 17.8 2.6 26.2 3.1 11.6 7.9 22.1 17.5 38.3 4 6.6 7.2 12.3 7.2 12.7 0 0.4 0.7 0.8 1.5 0.8 0.8 0 4.5 3.1 8.3 6.8 11 11.1 28 21.1 36 21.2 1.8 0 4.7 -0.6 6.5 -1.4z m369.4 -22.6 c11.3 -3.9 20 -10.7 31.4 -24.1 14.9 -17.7 21.1 -33.1 26.2 -64.4 1.7 -10.7 2.1 -17.7 2.1 -40 0.1 -14.8 0.5 -27.6 0.9 -28.3 1.2 -1.8 0.1 -5.9 -1.8 -6.6 -1.1 -0.4 -2.3 1 -4.3 5.2 -4.9 10.2 -15.7 15.1 -31.2 13.9 -4.1 -0.4 -9.8 -1.3 -12.6 -2.2 -5.6 -1.6 -17.1 -8.9 -24.6 -15.5 l-4.6 -4.1 -6.4 5.6 c-12.4 10.8 -25.4 15.9 -41 15.8 -12.8 0 -18.8 -2.7 -23.7 -10.5 -1.8 -2.9 -3.7 -6 -4.2 -6.8 -1.6 -2.6 -4.2 1.8 -3.3 5.5 0.9 3.3 0.9 4.5 0.4 32.5 -0.5 34.1 4.1 58.1 15.5 81 9.8 19.5 30.1 38.2 46.9 43.1 3.9 1.1 7.6 2.3 8.1 2.5 2.9 1.1 20.5 -0.6 26.2 -2.6z m336.5 -40.9 c8.3 -5.3 20.7 -21.9 25.2 -33.9 4.2 -11 4.9 -16 3.1 -19.8 -1.8 -3.8 -6.6 -8.1 -10.1 -9 -9 -2.3 -27.7 9.3 -35.2 21.8 -3.6 6 -6.7 20 -5.6 25.3 0.9 4.5 6.4 14.4 9.2 16.6 3.5 2.7 8.1 2.4 13.4 -1z m-209 -41.6 c0 -2 -0.3 -3.9 -0.6 -4.2 -0.3 -0.4 -0.6 1.5 -0.6 4.2 0 2.7 0.3 4.6 0.6 4.2 0.3 -0.3 0.6 -2.2 0.6 -4.2z m-332.7 -41.9 c17.9 -3.9 34 -12.3 44.7 -23.2 7.7 -7.9 15.8 -18.6 19.5 -25.9 12 -23.6 16 -58.1 9.7 -85.3 -2.1 -9.2 -9 -26.5 -14.1 -35.1 -12.5 -21.1 -32.9 -38.7 -54.6 -47.1 -32.6 -12.7 -70.3 -5.5 -104.4 19.8 -5.7 4.2 -11.8 8.8 -13.6 10 -3 2.2 -3.9 2.4 -14.2 2 -9.6 -0.4 -11.7 -0.8 -16.8 -3.3 -3.3 -1.6 -7.9 -4.7 -10.3 -6.8 -5.2 -4.5 -5.5 -3.5 -1.4 5.1 3.7 7.8 11.1 15.8 18.4 19.7 7.5 4 7.5 6.2 -0.1 15.8 -8.9 11.3 -12.2 14.6 -21.6 20.8 -12.7 8.4 -17.9 10.2 -31.7 10.7 -8.4 0.3 -12.6 0 -15.7 -1.1 -2.4 -0.8 -4.3 -1.2 -4.3 -0.8 0 0.4 1.3 2.7 2.8 5.2 8.3 12.9 27.5 23.9 41.8 23.9 l5.2 0 0.4 9.3 c0.5 12.4 2.8 16.9 16.5 32.7 33.3 38.5 49.9 51 72.7 54.7 2.7 0.4 18 0.8 34 0.7 23.8 0 30.5 -0.4 37.1 -1.8z m446 0.4 c16.3 -2.9 40.1 -19.8 63.5 -45.2 6.5 -7.1 13 -15.2 14.8 -18.5 4 -7.6 7.2 -19.3 7.2 -26.5 l0 -5.8 4.9 0 c6.6 0 19.5 -4.1 25.6 -8.2 2.8 -1.8 6.9 -5.2 9.2 -7.4 4.5 -4.6 9.9 -12.1 9.1 -12.9 -0.3 -0.3 -2.9 0 -5.8 0.6 -2.9 0.6 -9.8 0.9 -15.4 0.7 -9.3 -0.3 -10.7 -0.6 -17.6 -4.1 -10.7 -5.4 -19.4 -12.8 -28.2 -24.2 -6.4 -8.3 -7.7 -10.6 -7.8 -13.7 0 -3.4 0.4 -3.9 4.3 -5.9 9.7 -4.9 18.1 -14.1 21.8 -23.9 l2 -5.3 -4.2 3.7 c-2.3 2.1 -7.5 5.4 -11.7 7.4 -6.3 3 -8.9 3.6 -15.8 4 -12.2 0.7 -14.3 0 -25.2 -8.2 -17.1 -12.8 -33.9 -21.2 -52.3 -26 -20.1 -5.3 -34.1 -5.3 -51.2 0 -35.8 11.3 -60.3 35.4 -71.5 70.4 -5.4 16.9 -6.6 25.5 -6.6 47 0 21.9 1.2 29 7.9 44.3 7.9 18.4 16.6 29.6 31.5 40.6 14.2 10.6 27.3 15.8 44.5 17.9 10.1 1.2 58.6 0.6 67 -0.8z m-674.1 -133.1 c4.7 -4 5.2 -6.2 2.6 -10.4 -3.3 -5.3 -6.9 -5.6 -11.2 -0.8 -3.2 3.5 -3.3 7.6 -0.3 11.1 3.3 4 4.5 4 8.9 0.1z m827.6 -14.1 c7.4 -5.1 11.2 -19 9.1 -33.1 -1.5 -9.8 -5.2 -19.1 -12.7 -31.8 -6.1 -10.4 -11.7 -16.8 -18.1 -20.5 -6.3 -3.8 -9.6 -3.5 -14.4 1.2 -12.8 12.4 -10.2 45.6 5.3 68.1 5.5 8 11.1 13.5 16.3 15.9 6.3 3 10.3 3 14.5 0.2z m-101.4 -130.7 c1.8 -3.5 4.3 -7.5 5.6 -9 1.2 -1.5 0.4 -0.8 -1.9 1.6 -6 6.2 -9.1 6 -16.6 -1.2 -4.4 -4.3 -5.7 -6.2 -5.7 -8.5 0 -2.3 0.6 -3.3 2.5 -4 1.3 -0.5 3.1 -2.3 4 -4 1.3 -2.6 2.1 -3 5.6 -3 3.2 0 4.5 0.6 6.5 3 1.4 1.6 3.9 3.8 5.5 4.7 2.2 1.3 2.9 2.5 2.9 4.7 l0 2.9 2.5 -2.3 c1.4 -1.3 2.5 -2.6 2.5 -3 0 -0.4 -2.1 -1.8 -4.7 -3.3 -6.5 -3.5 -9.4 -7 -12.8 -15 -1.8 -4.4 -3.1 -6.5 -3.7 -5.9 -0.6 0.6 -1.9 4.3 -3 8.4 -2.3 8.5 -3.5 10.1 -10.3 13.6 l-5 2.5 2.9 2.1 c7.1 5 11 9.4 14.2 15.9 1.9 3.7 4 6.7 4.6 6.5 0.7 -0.3 2.6 -3.3 4.4 -6.7z m-306.5 -11.6 c20.6 -7.2 33.8 -21.2 39.4 -41.9 1.6 -5.9 1.7 -7.8 0.7 -13.4 -1.6 -9.7 -6.4 -18.6 -14.1 -26.2 -11.3 -11.2 -27.7 -17.8 -41.6 -16.7 -15.9 1.3 -26.9 6.1 -37.1 16.2 -8.3 8.2 -13.2 17.5 -16 30.2 -1.4 6.8 -1.5 9.1 -0.6 14 2.7 13.1 12.2 26.5 23.6 32.7 15.8 8.7 30.7 10.4 45.7 5.1z m-230 -11.4 c16.2 -8.6 32.8 -13.1 56.1 -14.9 10.9 -0.9 15.8 -2.7 15.8 -5.7 0 -2.5 -6.5 -8.9 -11.7 -11.5 -6.9 -3.6 -21.3 -3.4 -32.8 0.3 -19.8 6.5 -40.9 25 -48.1 42.2 l-1.5 3.7 6.3 -4.5 c3.5 -2.5 10.6 -6.8 15.9 -9.6z m470.3 6.8 c-6.1 -11.3 -26.1 -29.3 -39.6 -35.7 -14.7 -6.9 -31.8 -7.8 -42.9 -2.2 -1.9 1 -5.2 3.7 -7.3 6 -3.5 3.8 -3.6 4.3 -2.3 6.3 2.1 3.2 7.1 4.6 16.8 4.6 10.9 0.1 23 2.2 34.9 6.1 12.3 4 19.6 7.6 31.6 15.4 5.6 3.7 10.3 6.1 10.8 5.6 0.4 -0.4 -0.4 -3.1 -2 -6.1z"/>
  <path d="M255.5 539 c-13.1 -1.7 -23.8 -7.4 -35.7 -19.2 -13.9 -13.8 -25.4 -35.2 -27.8 -51.4 -1.7 -12.3 -1.2 -34.4 1.1 -45.7 3.6 -17.7 7.4 -25.1 21.9 -42.1 5.6 -6.6 6.9 -7.6 9.7 -7.6 3.1 0 3.3 0.2 3.3 3.5 0 2 -1.4 6 -3.4 9.7 -3.3 6 -7.9 20.5 -10.7 33.3 -0.8 3.4 -1.3 12.3 -1.3 20.5 0 12.7 0.3 15.7 2.6 24 1.5 5.2 3.8 12.2 5.1 15.5 2.8 7.2 13.5 24.5 19.1 31.1 4.5 5.2 16.8 14.8 24.6 19 4.7 2.5 5 3 5 6.6 0 3.8 0 3.8 -3.7 3.7 -2.1 -0.1 -6.5 -0.5 -9.8 -0.9z"/>
  <path d="M747.4 539.6 c-0.3 -0.8 -0.4 -2.7 -0.2 -4.2 0.2 -2.2 1.7 -3.5 8.1 -7 17.5 -9.7 28.6 -21.3 37.2 -38.9 7.1 -14.4 10.2 -24.3 12 -38.2 1.9 -14.3 1.9 -17.6 -0.1 -28.8 -2.2 -13 -5.8 -24.1 -10.9 -33.9 -2.9 -5.4 -4.5 -9.7 -4.5 -12 0 -3.4 0.2 -3.6 3.3 -3.6 2.8 0 4.3 1 8.9 5.8 13.3 13.9 21.1 30 24.3 49.7 1.9 11.6 1.9 37.8 0.1 46.6 -6.9 32.2 -36.4 61.6 -65.2 64.9 -11.6 1.3 -12.4 1.3 -13 -0.4z"/>
 </g>
 <g fill="#e3dc00">
  <path d="M416 914.1 c0 -0.6 -1.8 -1.1 -4.3 -1.1 -2.4 0 -4.7 -0.4 -5.2 -0.8 -0.6 -0.5 -3.6 -1.5 -6.7 -2.2 -3.2 -0.7 -5.8 -1.7 -5.8 -2.2 0 -0.4 -1.3 -0.8 -3 -0.8 -1.7 0 -3.9 -0.9 -5 -2 -1.1 -1.1 -3.4 -2.3 -5 -2.7 -1.7 -0.3 -3 -1 -3 -1.4 0 -0.5 -1 -1.4 -2.2 -2 -1.3 -0.6 -3.4 -2.6 -4.8 -4.4 -1.4 -1.9 -3.3 -3.7 -4.2 -4 -1 -0.4 -1.8 -1.2 -1.8 -2 0 -0.8 -0.9 -1.7 -2 -2 -1.1 -0.3 -2 -1.3 -2 -2 0 -0.8 -1.1 -3.5 -2.5 -6.1 -4.8 -9.1 -4.3 -23 1 -28.8 1.4 -1.5 2.5 -3.1 2.5 -3.7 0 -0.5 0.6 -0.9 1.4 -0.9 0.8 0 1.6 -0.4 1.8 -0.9 0.4 -1.3 14.3 -3.1 23.3 -3.1 8.2 0 17.5 1.6 17.5 3.1 0 0.5 1.6 0.9 3.5 0.9 1.9 0 3.5 0.4 3.5 0.9 0 0.9 9.4 5.1 11.5 5.1 0.7 0 2.7 1.4 4.5 3 1.8 1.7 3.8 3 4.6 3 0.8 0 1.4 0.5 1.4 1 0 0.6 0.7 1 1.5 1 0.8 0 1.5 0.5 1.5 1 0 0.6 0.7 1 1.5 1 0.8 0 1.5 0.7 1.5 1.5 0 0.8 0.9 1.9 1.9 2.4 2.4 1.3 9 10.3 11.5 15.6 1 2.2 2.1 7.3 2.4 11.3 0.4 6.4 0.2 7.7 -1.7 10.2 -1.1 1.6 -2.1 3.4 -2.1 4 0 0.5 -0.7 1 -1.5 1 -0.8 0 -1.5 0.3 -1.5 0.8 0 1.5 -12.7 5.6 -18.5 5.9 -3.3 0.2 -8.1 0.6 -10.7 0.9 -3.3 0.5 -4.8 0.3 -4.8 -0.5z"/>
  <path d="M237.5 815.4 c-2.2 -1.3 -4.8 -2.4 -5.7 -2.4 -1 0 -1.8 -0.3 -1.8 -0.8 0 -0.4 -1.5 -1.4 -3.2 -2.1 -4.1 -1.8 -16.4 -14.2 -20.4 -20.4 -1.6 -2.6 -3.5 -4.7 -4.1 -4.7 -0.7 0 -1.3 -1.2 -1.3 -2.8 0 -1.5 -0.8 -3.9 -1.7 -5.2 -1.3 -1.9 -1.8 -5.1 -2.1 -13.5 l-0.3 -11 4.2 -2.7 c2.4 -1.6 5.5 -2.8 6.9 -2.8 5.4 0 18.5 4.4 21 7 2.1 2.2 9.7 7 11.2 7 1.1 0 1.8 0.7 1.8 1.9 0 1.1 2.3 4.6 5 7.7 7.2 8.2 10.5 14.6 13 24.7 3.5 14.3 1.7 19.4 -7.7 21.4 -8 1.6 -10.2 1.5 -14.8 -1.3z"/>
  <path d="M710.5 813.4 c-0.6 -0.8 -3.4 -2 -6.2 -2.6 -2.9 -0.7 -5.3 -1.7 -5.3 -2.3 0 -0.6 -1.2 -1.8 -2.7 -2.7 -4.9 -2.8 -6.8 -5.2 -8.2 -9.8 -1.8 -6.1 -3.7 -28 -2.5 -28.8 1.3 -1 3.4 -7.4 3.4 -10.6 0 -1.9 0.6 -2.9 2 -3.3 1.2 -0.3 2 -1.4 2 -2.5 0 -1.1 1.2 -3.2 2.8 -4.7 3.9 -4 7.2 -8.4 7.2 -9.8 0 -0.7 0.4 -1.3 0.9 -1.3 0.5 0 1.2 -1.1 1.5 -2.5 0.4 -1.4 2 -3.1 3.9 -4 1.7 -0.8 4.7 -2.9 6.6 -4.5 1.8 -1.7 3.8 -3 4.2 -3 0.5 0 0.9 -0.6 0.9 -1.4 0 -0.8 1.6 -2 3.6 -2.6 1.9 -0.7 3.8 -1.8 4.1 -2.6 0.3 -0.8 1.3 -1.4 2.3 -1.4 0.9 0 2.9 -0.9 4.3 -2 1.4 -1.1 3.5 -2 4.6 -2 1.2 0 3 -0.9 4.1 -2 1.2 -1.2 3.3 -2 5.5 -2 2.3 0 3.5 -0.5 3.5 -1.4 0 -1.9 17.5 -3.1 32.9 -2.3 9.7 0.6 12 1 14.7 2.9 4.8 3.5 11.4 9.7 11.4 10.7 0 0.6 1 2.7 2.3 4.8 2 3.4 2.2 5.1 2.2 15.8 -0.1 13.8 -1.1 18.5 -6 29 -1.9 4.1 -3.5 8.1 -3.5 8.8 0 0.7 -1 1.7 -2.2 2.2 -1.3 0.6 -2.4 1.8 -2.6 2.8 -0.2 0.9 -2.8 4 -5.8 6.9 -3 2.8 -5.4 5.9 -5.4 6.9 0 1.3 -0.7 1.9 -2.3 1.9 -1.3 0 -5 1.9 -8.2 4.3 -5.8 4.1 -9.9 6.4 -15.8 8.6 -1.5 0.6 -2.7 1.7 -2.7 2.5 0 0.9 -1.7 1.6 -5.2 2 -9.2 1 -13.3 1.8 -14.4 2.7 -0.5 0.4 -7.8 0.8 -16 0.8 -12 0 -15.2 -0.3 -15.9 -1.5z m84.1 -61.5 c1.4 -2.8 2.4 -5.3 2.2 -5.5 -0.2 -0.2 -1.6 2.1 -3.1 5.1 -1.5 3 -2.5 5.5 -2.2 5.5 0.3 0 1.6 -2.3 3.1 -5.1z"/>
  <path d="M145.5 681.9 c-8 -1.9 -13.1 -4.3 -19.5 -9.4 -3.6 -2.9 -7.6 -5.5 -8.8 -5.9 -1.2 -0.4 -2.2 -1.3 -2.2 -2.1 0 -0.7 -1.3 -2.7 -3 -4.5 -1.6 -1.8 -3 -3.5 -3 -4 0 -0.4 -1.1 -1.9 -2.4 -3.3 -1.4 -1.5 -2.7 -3.5 -3.1 -4.6 -0.3 -1.1 -1.9 -3.4 -3.6 -5.2 -1.6 -1.7 -2.9 -3.7 -2.9 -4.4 0 -0.6 -0.6 -2.5 -1.4 -4.1 -3.3 -6.9 -5.5 -12.2 -6.5 -16.1 -0.7 -2.4 -1.5 -4.3 -2 -4.3 -0.4 0 -1.3 -5.3 -1.9 -11.7 -0.6 -6.5 -1.6 -16.4 -2.3 -22 -1 -9.1 -1 -10.6 0.5 -12.8 1 -1.5 1.6 -4.6 1.6 -8.5 0 -3.3 0.4 -6 1 -6 0.6 0 1 -1.1 1 -2.4 0 -1.4 0.5 -2.8 1 -3.1 0.6 -0.3 1 -1.8 1 -3.2 0 -1.6 0.7 -2.7 2 -3 1 -0.3 2.2 -1.3 2.5 -2.2 0.3 -0.9 2.3 -2.4 4.4 -3.5 4.8 -2.3 17.8 -2 20.3 0.4 0.9 0.8 3.8 3.3 6.4 5.5 2.6 2.2 5.1 4.5 5.6 5 0.4 0.6 2 2.6 3.6 4.5 1.6 1.9 3.7 5 4.7 6.8 1.1 1.7 2.3 3.2 2.7 3.2 0.4 0 0.8 0.4 0.8 0.9 0 0.5 1.7 3.8 3.8 7.2 2.1 3.5 4.6 8.1 5.6 10.2 0.9 2 2.1 3.7 2.6 3.7 0.6 0 1 0.8 1 1.8 0 1 0.4 2.2 0.8 2.7 0.5 0.6 1.4 3 2.1 5.4 0.8 2.8 1.9 4.5 3.2 4.8 1.5 0.4 1.9 1.4 1.9 4.9 0 2.3 0.4 4.5 0.9 4.8 0.5 0.3 1.1 2 1.3 3.8 0.7 5.2 4.2 17.2 5.2 17.9 1.3 1 0.3 39.9 -1.1 40.7 -0.6 0.4 -1.9 2.6 -2.9 5 -1 2.3 -2.4 4.2 -3.1 4.2 -0.7 0 -1.3 0.4 -1.3 1 0 1.1 -6.5 3 -10 2.9 -1.4 -0.1 -4.3 -0.5 -6.5 -1z"/>
  <path d="M851 622.8 c-1.4 -0.8 -3.4 -2.8 -4.5 -4.5 -1.1 -1.8 -2.5 -3.2 -3.1 -3.3 -0.7 0 -1.1 -4 -1.2 -11.8 -0.1 -11.2 0 -12.2 2.8 -18.1 7.9 -16.6 29.6 -28.7 43.4 -24.1 5.9 1.9 7 4.5 6.4 15.6 -0.3 5.3 -0.9 9.9 -1.4 10.3 -1 0.7 -3.3 6.2 -4.1 9.9 -0.3 1.2 -0.9 2.2 -1.4 2.2 -0.5 0 -0.9 1.8 -0.9 4 0 3.2 -0.4 4 -1.9 4 -1 0 -4 2.5 -6.6 5.5 -2.6 3.1 -6.1 6.3 -7.8 7.2 -1.8 0.9 -3.5 2 -3.8 2.5 -1 1.6 -13.2 2 -15.9 0.6z"/>
  <path d="M907 390 c0 -0.5 -0.6 -1 -1.4 -1 -1.2 0 -8.6 -6.3 -8.6 -7.4 0 -1.1 -6.4 -10.6 -7.1 -10.6 -0.5 0 -0.9 -0.7 -0.9 -1.5 0 -0.8 -0.4 -2.3 -0.9 -3.3 -0.5 -0.9 -1.4 -3.5 -1.9 -5.7 -0.6 -2.2 -1.7 -6.5 -2.6 -9.5 -1.8 -6.5 -1.6 -33.2 0.3 -33.8 0.6 -0.2 1.1 -1.2 1.1 -2.3 0 -1 0.6 -1.9 1.4 -1.9 0.8 0 1.8 -0.9 2.1 -2 0.9 -2.9 5.1 -2.6 12.4 0.9 7.5 3.5 14.6 11.5 19.8 22.3 2.1 4.3 4.1 7.8 4.6 7.8 0.4 0 0.7 1 0.7 2.3 0 1.3 0.6 2.9 1.3 3.5 0.9 1 1.2 6.1 1.2 18.6 0 16.7 -0.1 17.3 -2.5 20.9 l-2.5 3.7 -8.2 0 c-4.9 0 -8.3 -0.4 -8.3 -1z"/>
  <path d="M105.4 304.3 c-0.4 -1.6 -0.1 -5.1 0.8 -8.3 0.9 -3 2.4 -8.2 3.3 -11.5 0.9 -3.3 2.1 -6.4 2.6 -6.9 0.5 -0.6 0.9 -1.7 0.9 -2.6 0 -2.8 6.9 -15 16.1 -28.7 4.9 -7.3 8.9 -13.5 8.9 -13.8 0 -1.5 15.3 -17.5 16.8 -17.5 0.5 0 2.3 -0.7 3.8 -1.5 1.6 -0.8 5.1 -1.5 7.8 -1.5 l4.9 0 -0.6 15 c-0.4 10.7 -1 15.9 -2.1 18.1 -0.9 1.8 -1.6 4.7 -1.6 6.6 0 1.8 -0.4 3.3 -0.8 3.3 -1.1 0 -5.2 7.4 -5.2 9.3 0 0.9 -1.1 2.8 -2.5 4.3 -1.4 1.5 -2.5 3.1 -2.5 3.7 0 0.5 -1.6 3.1 -3.5 5.7 -1.9 2.6 -3.5 5.3 -3.5 5.9 0 0.6 -0.4 1.1 -1 1.1 -0.5 0 -1 0.5 -1 1.1 0 1.2 -9.9 10.9 -11.2 10.9 -0.4 0 -0.8 1.1 -0.8 2.5 0 2.1 -0.5 2.5 -2.9 2.5 -1.6 0 -3.6 0.6 -4.3 1.3 -2.7 2.5 -7.1 3.7 -14.3 3.7 -7.3 0 -7.5 -0.1 -8.1 -2.7z"/>
  <path d="M501.5 249.9 c-0.5 -0.7 -2.9 -0.8 -6.9 -0.4 -4.4 0.5 -7.2 0.3 -9.7 -0.8 -1.9 -0.8 -5.6 -1.7 -8.3 -2.1 -2.7 -0.4 -5.5 -1.4 -6.3 -2.2 -0.8 -0.8 -2.3 -1.4 -3.4 -1.4 -1.2 0 -1.9 -0.7 -1.9 -2 0 -1.1 -0.5 -2 -1 -2 -1 0 -3.2 -2.1 -7 -6.7 -2.8 -3.3 -6.1 -11.5 -7.1 -17.2 -1.1 -6.7 -0.3 -17.1 1.7 -22.4 0.8 -2 1.4 -5.3 1.4 -7.2 0 -2.2 0.5 -3.5 1.3 -3.5 0.8 0 3.1 -2.5 5.3 -5.5 2.1 -3 4.4 -5.5 5.1 -5.5 0.7 0 1.7 -0.8 2.2 -1.9 0.6 -1 2.1 -2.1 3.4 -2.5 1.3 -0.3 3.3 -1.4 4.5 -2.5 1.3 -1 3.9 -2.2 6 -2.6 2 -0.4 4 -1.2 4.4 -1.8 0.8 -1.3 32.8 -1.2 33.8 0.1 0.8 1.1 9.9 5.2 11.5 5.2 0.8 0 1.5 0.4 1.5 1 0 0.5 1.6 2 3.5 3.2 1.9 1.3 3.5 2.7 3.5 3.2 0 0.4 1.1 2.2 2.6 3.8 6.4 7.7 9.2 17.4 9.2 31.6 0 6.9 -0.3 8.7 -1.9 10.3 -1 1 -2.2 3.1 -2.5 4.6 -0.4 1.4 -3.1 5.2 -6 8.2 -3 3.1 -5.4 5.9 -5.4 6.4 0 0.4 -0.5 0.7 -1.1 0.7 -0.6 0 -2.8 1.4 -4.9 3 -2.1 1.7 -4.3 3 -4.9 3 -0.6 0 -1.1 0.4 -1.1 0.9 0 0.6 -2 1.3 -4.5 1.7 -2.5 0.3 -4.5 1 -4.5 1.5 0 0.5 -1.1 0.9 -2.5 0.9 -1.4 0 -2.5 0.5 -2.5 1 0 1.3 -6.7 1.3 -7.5 -0.1z m2 -14.9 c2.1 -0.5 0.4 -0.8 -5.5 -0.8 -5.9 0 -7.6 0.3 -5.5 0.8 1.7 0.4 4.1 0.8 5.5 0.8 1.4 0 3.9 -0.4 5.5 -0.8z"/>
  <path d="M240.3 153.9 c-0.7 -0.7 -1.3 -2.6 -1.3 -4.1 0 -1.5 -0.4 -2.8 -1 -2.8 -0.5 0 -1 -1.6 -1 -3.5 0 -2.6 0.4 -3.5 1.6 -3.5 1.7 0 3.8 -2 8.4 -7.9 4.2 -5.4 8.2 -9.1 9.9 -9.1 0.6 0 1.5 -0.9 2.1 -2 0.6 -1.1 1.7 -2 2.5 -2 0.8 0 1.5 -0.4 1.5 -0.9 0 -0.5 1.1 -1.2 2.5 -1.5 1.4 -0.4 2.5 -1.3 2.5 -2.1 0 -0.8 0.6 -1.5 1.4 -1.5 2.4 0 12.7 -5.1 13.3 -6.6 0.3 -0.8 1 -1.4 1.6 -1.4 1.5 0 12 -4.3 12.7 -5.1 1 -1.3 12.5 -2 15.4 -0.9 l2.9 1 -0.5 7.9 c-0.4 7 -0.8 8.3 -3.6 11.7 -1.8 2.1 -3.2 4.3 -3.2 4.7 0 0.5 -1.1 1.8 -2.5 2.9 -1.4 1.1 -2.5 2.8 -2.5 3.9 0 1 -0.5 1.9 -1.2 1.9 -1 0 -15.4 9.4 -16.8 10.9 -0.3 0.3 -3.9 2.2 -8 4.1 -4.1 1.9 -8.3 4.1 -9.3 4.9 -2.5 2.1 -25.6 2.9 -27.4 1z"/>
  <path d="M669.5 128.9 c-0.4 -1.1 -1.6 -1.9 -2.8 -1.9 -1.2 0 -4.6 -0.9 -7.5 -2 -2.9 -1.1 -6.6 -2 -8.2 -2 -1.7 0 -3 -0.4 -3 -1 0 -0.5 -1.9 -1.5 -4.2 -2.2 -2.4 -0.6 -4.5 -1.5 -4.8 -1.9 -0.3 -0.3 -2.3 -1.4 -4.5 -2.4 -6.4 -2.9 -20 -12.1 -24 -16.1 -4.6 -4.6 -9.5 -14.7 -9.5 -19.7 0 -6.5 5.2 -12.6 10.7 -12.7 1.7 0 3.5 -0.4 3.8 -1 1 -1.5 7.5 -1.2 7.5 0.3 0 1 3.2 1.7 11.5 2.7 6.3 0.7 11.5 1.6 11.5 2 0 0.7 10.8 5 21.5 8.6 2.8 0.9 5.2 2 5.5 2.4 0.9 1.3 4.8 3 6.9 3 1.2 0 2.1 0.4 2.1 0.9 0 0.5 1.5 1.5 3.3 2.2 1.7 0.7 4.1 2.1 5.1 3.1 1.1 1 3 1.8 4.3 1.8 1.3 0 2.3 0.6 2.3 1.3 0 0.6 3.2 4.4 7 8.4 l7 7.2 0 7 c0 5.9 -0.3 7.1 -1.9 7.6 -1 0.3 -2.9 1.4 -4.1 2.5 -1.8 1.6 -3.8 2 -9.1 2 -3.7 0 -7 0.4 -7.3 0.9 -0.4 0.5 -4.6 0.9 -9.6 0.9 -7.9 0 -9 -0.2 -9.5 -1.9z"/>
 </g>
 <g fill="#00e3cc">
  <path d="M292.6 531.9 c-9.3 -1.3 -16.2 -3.4 -20.8 -6.4 -3.2 -2.1 -3.8 -3.1 -3.8 -6 l0 -3.5 -5.2 0 c-2.9 0 -6.9 -0.5 -9 -1 -4.7 -1.3 -10.4 -7.6 -11.9 -13.2 -1.2 -4.5 -0.7 -13.5 1.2 -20.1 1.2 -4.3 5.9 -10.1 10 -12.3 4.1 -2.1 13.7 -2.8 19.9 -1.5 7.1 1.5 11.2 4.8 14.5 11.5 2.3 4.8 2.6 6.4 2.3 13.5 -0.4 9.5 -1.1 8.9 13.8 9.8 12.1 0.7 17.6 -0.4 29.2 -5.8 l8.3 -3.8 -0.6 -6.8 c-0.4 -3.7 -1.1 -8 -1.7 -9.5 -0.6 -1.5 -0.9 -6.3 -0.7 -10.7 0.4 -7.2 0.7 -8.3 3.4 -11.2 4.2 -4.4 8.3 -5.9 16.7 -5.9 9.4 0.1 13.8 2.1 20.6 9.4 5.2 5.8 5.2 5.8 5.2 12.5 0 8.4 -2.4 15.9 -5.5 17.1 -1.7 0.6 -2.4 1.9 -2.8 5.2 -0.7 5.3 -5.2 9.8 -9.7 9.8 -2.8 0 -3 0.3 -3 3.5 0 2 -0.6 4.8 -1.4 6.3 -2.7 5.2 -16.1 13.1 -29.1 17.2 -8.1 2.5 -28.3 3.5 -39.9 1.9z"/>
  <path d="M693 531.5 c-11.5 -2.4 -23.2 -7.5 -32.1 -14.1 -5.6 -4.1 -12.9 -13.3 -12.9 -16.2 0 -1.2 -0.4 -2.2 -1 -2.2 -0.5 0 -1 -0.5 -1 -1.1 0 -0.5 -1.3 -2.4 -3 -4.2 -1.6 -1.8 -3 -4.2 -3 -5.4 0 -1.6 -0.6 -2.3 -1.9 -2.3 -3.3 0 -6.1 -7.4 -6.1 -16.2 0 -9 1.9 -12.5 9.4 -17.6 4.6 -3 5.3 -3.2 13.9 -3.2 15.4 0 21.8 4.9 22.5 17 0.3 5.2 0.1 6.9 -1.2 7.9 -1.2 1 -1.6 3.2 -1.6 8.6 0 6.8 0.2 7.5 2.7 9.5 4.9 3.8 16.7 9 24 10.5 6.3 1.3 8.1 1.3 15.5 0 4.5 -0.8 8.6 -1.5 9 -1.5 0.4 0 0.3 -1.2 -0.2 -2.6 -1.6 -4.2 -1.1 -14.5 0.9 -18.9 2.2 -4.7 7.4 -9.9 11.4 -11.4 3.5 -1.4 11.1 -1.4 15.5 -0.2 l3.2 1 -2 -2.6 c-1.1 -1.4 -2 -4 -2 -5.7 0 -8.9 11.6 -13.4 21.7 -8.5 6.1 2.9 8.3 6.1 8.3 12 0 6.7 -2.9 8.9 -11.6 8.9 -6.5 0 -7.6 0.7 -4.8 3.1 4.4 3.7 7.2 14.8 5.9 24.1 -1 7.1 -5.9 12.3 -13.2 14 -4.8 1.2 -5.3 1.5 -5.3 4 0 3.6 -6.8 8.3 -16.9 11.6 -6.5 2.2 -9.8 2.6 -22.6 2.8 -10 0.2 -17.2 -0.1 -21.5 -1.1z"/>
  <path d="M306.4 485.6 c-3.3 -3.3 -3.4 -3.6 -3.4 -11.6 0 -8.2 0 -8.2 3.9 -12.1 3.7 -3.8 4.1 -3.9 10.5 -3.9 11.6 0 16.6 4.6 16.6 15.3 0 6.5 -1.7 10.5 -5.6 13.6 -2.2 1.7 -4.1 2.1 -10.6 2.1 -7.8 0 -8.1 -0.1 -11.4 -3.4z"/>
  <path d="M686.9 486.7 c-4.9 -3.3 -6 -6.1 -5.7 -13.9 0.4 -7.5 2.5 -10.9 8.5 -13.4 4.5 -1.9 13.1 -1.8 17.2 0.4 6.7 3.4 9 13.3 5.2 21.9 -2.6 5.5 -6.2 7.3 -14.9 7.3 -5.5 0 -7.6 -0.5 -10.3 -2.3z"/>
  <path d="M713 439.2 c-10.9 -3.6 -17.2 -9.6 -20.6 -19.6 -2.2 -6.3 -1.5 -23 1.1 -29.6 4.3 -10.6 14 -19.7 23.8 -22.1 2.6 -0.6 8.6 -1 13.5 -0.7 19.7 0.9 30.1 11.5 31 31.3 0.9 19 -6 32 -20.7 39.2 -7.2 3.6 -19.9 4.2 -28.1 1.5z"/>
  <path d="M279.7 438.6 c-8.6 -3.1 -18.5 -12 -22.7 -20.2 -2.2 -4.4 -2.5 -6.1 -2.5 -16.4 0 -10.6 0.2 -11.9 2.8 -17 3.4 -6.7 7.7 -11.3 13.7 -14.8 4.2 -2.5 5.3 -2.7 16.5 -2.7 11.3 0 12.4 0.2 18.5 3.1 7.4 3.5 12.1 7.2 16 12.6 l2.7 3.7 0.5 -7.2 c0.6 -8.7 2.5 -12.8 8 -16.7 3.8 -2.8 4.8 -3 12.5 -3 15.8 0 22.3 6.3 22.3 21.6 0 15 -6.1 21.4 -20.4 21.4 -8.8 0 -13.5 -1.6 -17.5 -5.9 l-2.8 -3 0.9 4.7 c1.1 5.8 0.3 16 -1.9 22.6 -1.8 5.7 -8.6 13.1 -14.8 16.1 -5.2 2.6 -25.9 3.3 -31.8 1.1z"/>
  <path d="M661 401.9 c-7 -2.8 -11 -10 -11 -19.9 0 -8.7 1.5 -12.4 6.8 -17.2 4.7 -4.2 8.4 -5.2 18.1 -4.6 5.6 0.3 7.5 0.9 10.5 3.2 6.7 5 7.7 7.8 7.4 18.7 -0.3 8.8 -0.5 9.9 -3.2 13.3 -4.7 6.3 -7.9 7.6 -17.6 7.5 -4.7 0 -9.6 -0.5 -11 -1z"/>
  <path d="M976 382.5 c0 -4 2.4 -4.9 3.4 -1.2 1 3.7 0.7 4.7 -1.4 4.7 -1.6 0 -2 -0.7 -2 -3.5z"/>
 </g>
 <g fill="#ff007e">
  <path d="M498.8 659 c-11.6 -2 -27.1 -13.5 -36.5 -27.2 -6.4 -9.3 -9.3 -15.1 -13.2 -26.4 -4.5 -13.2 -4.3 -16.1 2.1 -24.7 6.2 -8.3 11.8 -12.9 22.4 -18.4 12.7 -6.6 21 -8.7 33.9 -8.7 22.1 0.2 36.7 6.5 53.6 23.4 13.7 13.7 14.6 17.7 7.3 35 -15 35.8 -39.2 52.1 -69.6 47z"/>
 </g>
 <g fill="#000000">
  <path d="M473.5 1001 c-62.5 -5.5 -122 -21.7 -172 -47 -58.3 -29.5 -110.2 -69 -147.9 -112.5 -27.5 -31.6 -41.2 -51 -63 -88.7 -28.8 -49.9 -47.9 -102.5 -57.5 -157.8 -7.9 -46.2 -7.6 -42.3 -7.6 -81 0 -28.4 0.4 -38.5 1.8 -50.5 4.6 -37.7 11.8 -69.6 23.2 -103.4 14.4 -42.9 29.3 -74 53.4 -112.1 10.2 -16.2 11.3 -17.7 17.2 -24.3 2.5 -2.9 6.3 -7.8 8.3 -11 11.1 -17.6 32.4 -41.4 58.1 -64.9 37.1 -34 79.7 -61.3 130.7 -83.9 29.4 -13 71.2 -25.9 107.8 -33.3 33 -6.6 99.9 -9.3 135 -5.3 59.6 6.7 116.1 23.5 167.5 49.8 45.8 23.3 77.4 46.6 114.8 84.4 40.1 40.4 40 40.3 57.5 62.9 39.7 51.3 73 125.4 86.6 192.7 8.2 40.9 12.7 99.6 9.7 127.4 -1.9 17.2 -5.9 44.9 -8.2 55.4 -1.1 5.3 -3.1 14.9 -4.4 21.3 -11.3 54.8 -36.3 111.4 -75.1 169.8 -10.4 15.8 -16.8 24.1 -35.4 46.1 -12.7 15.1 -43.7 46.1 -54.6 54.6 -30.5 23.8 -56.3 42.1 -72.1 51.1 -13.7 7.8 -41.9 21.3 -57.8 27.5 -39.5 15.5 -81.9 26.1 -125 31.2 -16.2 2 -74.8 2.9 -91 1.5z m42.4 -17.6 c0.2 -0.2 -4 -0.4 -9.5 -0.4 -5.4 0 -16 -0.9 -23.4 -2 -7.4 -1.1 -18.2 -2.7 -24 -3.5 -25.5 -3.6 -62.9 -13.4 -90.2 -23.6 -21.5 -8.1 -48 -20.2 -62.8 -28.8 -5.2 -3 -14.5 -8.2 -20.6 -11.7 -14 -7.8 -41 -25.7 -48.9 -32.4 -3.3 -2.7 -11.4 -9.4 -18 -14.9 -19.3 -15.8 -36.1 -31.7 -47.5 -45.1 -3 -3.5 -7.1 -8.2 -9.1 -10.4 -18.1 -20.6 -32.2 -40.8 -46.9 -67.6 -3.4 -6.3 -8.2 -14.6 -10.5 -18.5 -4.4 -7.3 -8.8 -16.7 -12.6 -27 -1.2 -3.3 -2.6 -6.5 -3.1 -7.1 -1.5 -2 -10.6 -26.9 -15.3 -41.9 -6.2 -20.3 -18.4 -71.7 -21.2 -90 -0.9 -5.8 -1.5 -20.2 -1.8 -40.5 l-0.3 -31.5 0.8 23.5 c0.8 23.2 3.2 52.7 5 60.5 0.4 2.2 2.2 10.1 3.8 17.5 4.2 18.8 11.6 47.2 16.3 61.9 4.5 14.4 12.3 35.5 14.3 39.1 0.8 1.4 2.5 5.5 3.9 9 1.3 3.6 4 9.9 5.9 14 1.9 4.1 3.9 8.6 4.3 10 1.2 3.9 2.6 5.4 3.6 3.8 0.6 -0.9 0.9 -0.8 0.9 0.6 0 4.3 25.1 44.6 38.1 61.3 14.7 19 38 45.3 49.1 55.6 5.7 5.2 15.5 13.7 21.9 18.8 6.4 5.2 15 12.1 19 15.5 11.2 9.3 41.2 28.9 61.9 40.4 50 28 98.4 45.5 152.5 55.4 36.7 6.7 39.9 7 67.5 6.9 27.6 0 33.8 -0.6 65 -5.9 26.8 -4.6 35 -6.5 49.4 -11.3 6.5 -2.2 12.3 -3.8 12.7 -3.5 1.5 0.9 20.1 -4.5 27.7 -8.1 4 -1.9 8.9 -3.7 11 -4 4.4 -0.8 29.8 -12.5 36.2 -16.8 2.5 -1.6 9.5 -5.6 15.5 -8.7 6.1 -3.1 14.4 -7.9 18.6 -10.6 10.5 -6.7 38.7 -32.2 50.6 -45.7 29.5 -33.5 37.4 -45.5 62.9 -95.7 24.3 -47.8 29.9 -60.2 43.9 -98 10.1 -27.2 15.3 -45.8 22.6 -80 6.5 -30.2 6.8 -32.2 11 -72.5 0.6 -6 1.4 -27.6 1.8 -48 l0.7 -37 0.2 33 c0.2 37 -0.7 54 -4.3 82.7 -6.9 54.4 -22 109.2 -44.7 162.3 -7.3 16.9 -34.2 71.3 -38.5 77.7 -1.6 2.4 -4.7 7.5 -6.8 11.3 -17.7 32.3 -34.7 55.2 -55.3 74.8 -3.4 3.3 -6 6.2 -5.8 6.4 0.7 0.7 15.2 -11 26 -21 17.3 -15.9 31.5 -37 56.1 -83.2 16.3 -30.6 23.4 -45.2 34.2 -71 17.2 -40.9 29 -81.6 38.9 -134.5 0.8 -4.1 2.3 -16 3.4 -26.5 1.1 -10.4 2.5 -22.3 3.2 -26.4 1.6 -10.3 0.4 -95.6 -1.7 -114.6 -1.7 -16 -1.7 -16 -1 -15.3 0.3 0.3 1.2 7 2.1 14.9 1 9.8 1.7 29.7 2.1 62.9 0.6 51.6 -0.1 65.3 -4.7 97 -2.1 13.9 -8 44.2 -10.6 54 -0.8 3 -2.6 9.8 -4 15 -5.6 21.4 -17.3 56.1 -24.7 73 -3 6.9 -7.8 17.9 -10.6 24.5 -6.7 15.4 -15.2 32.2 -25.7 50.6 -4.5 8 -11.3 20.4 -15 27.5 -3.7 7.1 -8.5 15.5 -10.6 18.6 -8.9 13.2 -1.6 6.3 9.5 -9 16.9 -23.3 38 -60.3 48.1 -84.3 2.4 -5.7 6.7 -15.8 9.6 -22.4 13.8 -32 28.3 -78.1 33.6 -106.9 1.4 -7.7 2.7 -14.3 3 -14.8 0.7 -1.1 4 -20.6 6.5 -38.3 3.4 -24.4 3.6 -90 0.4 -136.5 -0.4 -5 -0.3 -4.8 1 2 3.3 17.7 4.2 99.3 1.5 125.8 -2 19.1 -10.4 65.1 -14.9 81.7 -8.9 32.6 -22.7 74.1 -30.6 91.5 -2.6 5.8 -6.3 14.3 -8.2 19 -1.9 4.7 -7.5 16.2 -12.4 25.7 -4.9 9.4 -8.9 17.4 -8.9 17.7 0 2 2.5 -0.2 6.3 -5.6 4.8 -6.7 18.3 -29.1 22.3 -37.1 3.8 -7.5 11.4 -25.4 14.4 -34.2 1.5 -4.4 3.8 -10.2 5 -13 2.4 -5.5 3.2 -8 7.9 -23.5 1.8 -5.8 3.6 -11.6 4.1 -13 2.6 -7.2 7 -24.7 12.2 -48.5 3.6 -16.7 8.8 -50.9 9.8 -64.5 2.3 -31.1 0.7 -87.1 -3.1 -109.5 -2 -11.6 -11 -47 -12.9 -50.5 -0.5 -1 -2.1 -6.4 -3.4 -12.1 -4.5 -18.8 -19.6 -55.1 -33.2 -79.7 -7.3 -13.1 -26 -41.9 -36.9 -56.7 -19.4 -26.4 -51 -59.4 -79.2 -82.8 -30.3 -25.2 -76.1 -53.3 -108.8 -66.8 -8.6 -3.5 -10.4 -3.7 -4.6 -0.4 6.5 3.8 14 9.9 20.2 16.8 7.4 8.2 9.9 13.2 9.9 20 0 7.2 -2.8 11.3 -10.5 15.2 -5.8 3 -6 3 -20.9 2.9 -13.5 -0.1 -16.4 -0.5 -27.1 -3.3 -26.7 -7 -54.9 -25 -64.3 -41.1 -5.3 -9 -2.8 -24.2 4.9 -29.9 1.6 -1.2 5.7 -2.7 8.9 -3.3 3.3 -0.5 6 -1.4 6 -1.8 0 -1.4 -25.5 -5.5 -55.5 -9 -29.7 -3.3 -77.9 -2.5 -112 2 -42.9 5.7 -90.3 19.4 -133.2 38.6 -4.7 2.1 -5.5 3.4 -2 3.4 3.2 0 8.6 3.6 9.7 6.6 8.1 21.3 -36.7 61.7 -71.1 64.1 -13.2 1 -18.6 -1.4 -20.8 -9.2 -0.8 -3.1 -0.7 -4.8 1 -9.4 1.1 -3.1 2.3 -6.5 2.6 -7.6 0.4 -1.2 -2.1 0.6 -6.3 4.5 -3.8 3.6 -13.8 12.5 -22.2 19.9 -13.5 11.8 -33.1 31.4 -39.1 39.3 l-2.1 2.6 3.3 1.1 c15.2 5.1 15.3 29.5 0.2 60.6 -12.1 24.8 -25.5 39.8 -43.3 48.3 -15.4 7.4 -23.2 4.8 -26 -8.4 l-0.8 -3.7 -6.1 12.4 c-25.3 51.5 -43.8 124.8 -45.9 182.2 -0.7 19.1 0.9 54 3.1 67 0.8 4.5 2.4 14.1 3.5 21.2 1.2 7.2 3.5 18.9 5.1 26 4.9 20.8 16.8 60.5 21.4 71.5 1.3 3 4.9 11.6 8 19 9.6 22.5 29.8 58.7 44.9 80 42 59.5 88.1 102.1 149.1 137.7 22.8 13.4 28.1 16.3 41.5 22.7 36 17.1 71.2 28.6 114.5 37.1 11.5 2.2 44.1 6.2 55.5 6.7 6.2 0.3 22.3 -0.3 22.9 -0.8z m435 -322.9 c5.2 -11 20 -78.7 23.1 -105.5 1.7 -14.4 2.5 -54 1.2 -54 -0.9 0 -1.2 3.9 -1.2 13.3 0 23.7 -2.5 48.2 -7.5 73.8 -5 25.1 -13.8 62.7 -15.6 66 -1.2 2.4 -4.9 15.8 -4.8 17.9 0 0.8 0.9 -1 2 -4 1 -3 2.3 -6.4 2.8 -7.5z m-830.2 -357.7 c1.5 -0.7 3 -1.5 3.3 -1.8 0.3 -0.4 1.6 -1.4 2.9 -2.3 2 -1.3 2.8 -1.4 4 -0.4 1.2 1 1.4 0.9 0.8 -0.5 -0.4 -1 0 -2.3 0.8 -3 6.4 -5.6 11.3 -10.7 10.8 -11.2 -0.3 -0.3 0.2 -0.8 1.1 -1.2 0.9 -0.3 1.6 -1.1 1.6 -1.6 0 -0.6 1.5 -3.1 3.3 -5.7 1.8 -2.5 4.1 -6.3 5.2 -8.3 1 -2 2.3 -3.4 2.9 -3.1 0.5 0.4 0.7 0 0.4 -0.9 -0.4 -0.8 0.5 -3.4 1.8 -5.8 1.3 -2.3 2.4 -4.9 2.4 -5.9 0 -1.4 0.2 -1.4 1.1 -0.1 0.9 1.2 1 1 0.6 -0.9 -0.3 -1.3 -0.1 -3.5 0.5 -5 0.6 -1.4 1.2 -2.9 1.3 -3.3 0.2 -0.5 0.3 -0.9 0.5 -1 0.4 -0.6 1 -6.9 1.5 -16 0.5 -11.1 0.2 -11.5 -6.8 -7.8 -2 1.1 -3.7 1.8 -3.7 1.4 0 -0.6 -12.6 12.1 -14.7 14.9 -0.7 0.9 -1.3 1.9 -1.3 2.2 0 0.3 -3.9 6.3 -8.6 13.3 -8.2 12.1 -15.5 24.8 -16.1 28.3 -0.1 0.8 -0.9 2.9 -1.8 4.5 -0.8 1.6 -1.5 3.4 -1.5 4 0 0.6 -1.1 4.4 -2.4 8.5 -1.3 4 -2.2 7.9 -1.9 8.6 0.7 1.7 8.3 1.7 12 0.1z m141 -152.1 c1.2 -0.2 2.7 -0.8 3.5 -1.3 0.7 -0.5 4.7 -2.5 8.8 -4.4 4.1 -1.9 7.7 -3.8 8 -4.1 0.3 -0.3 4 -2.9 8.3 -5.8 4.2 -3 7.7 -5.9 7.7 -6.5 0 -0.6 0.5 -0.4 1 0.4 0.8 1.2 1 1.1 1 -0.7 0 -1.2 1.1 -3 2.5 -4.1 1.4 -1.1 2.5 -2.3 2.5 -2.7 0 -0.5 1.2 -2.4 2.7 -4.4 2.9 -3.8 3.2 -4.5 4 -10.3 0.4 -3.3 0.2 -3.9 -1.8 -4.7 -1.5 -0.5 -2.9 -0.5 -3.6 0.1 -0.7 0.6 -1.3 0.7 -1.3 0.4 0 -0.4 -1 -0.2 -2.1 0.5 -1.5 0.8 -1.9 0.8 -1.5 0 0.4 -0.6 0.2 -1.1 -0.3 -1.1 -0.6 0 -1.1 0.4 -1.1 0.9 0 0.5 -1 1.1 -2.2 1.5 -1.3 0.3 -2.3 0.5 -2.3 0.4 0 0 -1.9 0.9 -4.2 2.1 -2.4 1.2 -4.3 1.8 -4.3 1.4 0 -0.5 -0.5 0 -1 0.9 -1.1 1.7 -11.2 6.8 -13.7 6.8 -0.8 0 -1.1 0.5 -0.8 1.1 0.4 0.5 -0.7 1.5 -2.4 2.2 -1.7 0.6 -3.1 1.5 -3.1 1.9 0 0.4 -0.7 0.8 -1.5 0.8 -0.8 0 -1.9 0.9 -2.5 2 -0.6 1.1 -1.5 2 -2.1 2 -1.5 0 -3.9 2.6 -3.1 3.4 0.3 0.4 -0.1 0.4 -1 0.1 -1.1 -0.4 -2 0.1 -2.9 1.7 -0.6 1.3 -1.9 3 -2.8 3.9 -0.9 0.9 -2.7 3.1 -4.1 4.8 -1.4 1.7 -3.4 3.1 -4.5 3.2 -1.1 0 -1.4 0.3 -0.7 0.6 0.6 0.2 1.2 1.7 1.2 3.2 0 4.5 1.7 5.3 10 4.7 4.1 -0.3 8.5 -0.7 9.7 -0.9z m418.8 -24.7 c1.3 0 2.5 0.6 2.8 1.3 0.3 0.9 0.7 0.9 1.9 0 0.8 -0.7 4.6 -1.4 8.5 -1.6 4.8 -0.2 7.6 -0.9 8.7 -2 0.9 -0.8 2.5 -1.8 3.5 -2.2 1.4 -0.4 1.8 -1.5 1.8 -4.8 0 -3.9 -0.6 -4.8 -7.7 -11.9 -4.3 -4.3 -7.2 -7.9 -6.6 -8.2 0.6 -0.2 -0.1 -0.5 -1.5 -0.5 -1.4 -0.1 -3.5 -1 -4.7 -2.1 -1.2 -1.1 -2.5 -2.1 -2.9 -2.2 -1.9 -0.2 -5.3 -2.2 -5.3 -3 0 -0.5 -0.4 -0.7 -0.9 -0.3 -1.1 0.6 -8.1 -2.5 -8.1 -3.6 0 -0.5 -3.2 -1.8 -6 -2.3 -2.9 -0.6 -21 -8.1 -21 -8.7 0 -0.4 -1.2 -0.8 -2.7 -0.8 -1.6 0.1 -4.1 -0.2 -5.8 -0.5 -1.6 -0.3 -5.6 -0.8 -8.7 -1.2 -4.2 -0.5 -5.8 -1.1 -5.8 -2.2 0 -1.2 -0.3 -1.2 -1.5 -0.2 -0.8 0.7 -2.8 1.3 -4.4 1.5 -5.1 0.4 -10.1 5.9 -9.5 10.3 0.6 3.9 5.2 12 9 15.7 4.1 4.2 18 13.4 24.2 16 2.3 1.1 4.2 2.2 4.2 2.7 0 0.4 0.3 0.7 0.8 0.6 1.5 -0.4 9.1 2.5 8.6 3.3 -0.3 0.5 0.5 0.8 1.8 0.7 1.3 -0.1 4.8 0.7 7.8 1.7 6.3 2.2 6.4 2.2 8.9 2.4 1.1 0 2.2 1 2.6 2.1 0.5 1.6 1 1.8 3.1 1 1.4 -0.6 3.6 -1 4.9 -1z"/>
  <path d="M506.6 972.9 c-34.7 -1.9 -81 -10.7 -115.2 -22 -46.9 -15.4 -77.7 -30.2 -125.6 -60.7 -30 -19 -63.2 -47.4 -88.8 -75.7 -23.9 -26.6 -43.1 -52.9 -54.2 -74.5 -3 -5.8 -7.1 -13.5 -9.2 -17.2 -4.3 -7.9 -6.9 -14.8 -5.6 -14.8 0.6 0 1 0.4 1 1 0 3.2 15.5 31.4 26.1 47.3 18.4 27.6 39.9 53.7 59.7 72.5 38 36 69.5 59 114.7 83.8 44.7 24.4 96.9 42.8 146.2 51.4 30.5 5.3 40.9 6.3 67.8 6.4 28.5 0 34.6 -0.6 67.5 -6.9 27.4 -5.3 30.3 -6.1 43 -12 13.6 -6.3 20.2 -8.3 13 -3.9 -11.4 6.8 -25 12.4 -35.7 14.4 -6 1.2 -16.4 3.2 -23.3 4.5 -19.9 3.9 -32.6 5.4 -59 6.9 -3.6 0.2 -13.6 0 -22.4 -0.5z"/>
  <path d="M493.5 961.9 c-16.7 -1.3 -29.7 -3.4 -52 -8.4 -50.9 -11.3 -90.5 -25.9 -129.5 -47.5 -4.1 -2.2 -9.1 -4.8 -11 -5.7 -3.9 -1.7 -18 -10.4 -28 -17.2 -3.6 -2.5 -10.8 -7.4 -16 -10.9 -14.3 -9.7 -19.2 -13.6 -34.4 -26.7 -16.6 -14.2 -28.6 -25.3 -34.1 -31.5 -2.2 -2.4 -6 -6.7 -8.5 -9.5 -15.8 -17.4 -29.3 -35 -39 -50.7 -4.6 -7.3 -9.6 -15.3 -11.3 -17.7 -2.9 -4.1 -17.7 -33.4 -17.7 -34.9 0 -0.4 4.4 7.2 9.8 16.9 17 30.8 35.9 57.9 55.2 78.9 27.5 29.9 48.2 48.3 80.6 71.7 52.9 38.1 109.9 64.5 170.4 79.1 43.2 10.5 71.1 13.9 103 12.9 27.2 -1 69.5 -8.3 90.1 -15.6 15.1 -5.4 26.3 -9.8 31.9 -12.6 3 -1.5 7.6 -3.8 10.1 -5.1 2.6 -1.3 8.4 -3.7 13 -5.4 11.6 -4.3 24.3 -11.5 37.9 -21.6 15.5 -11.5 21.4 -15.5 28.5 -19.3 5.6 -3 5.8 -3.1 3 -0.6 -1.6 1.4 -5.9 4.6 -9.5 7.1 -3.6 2.5 -12.8 9.2 -20.5 15 -18.4 13.7 -22 15.6 -48.5 25.3 -4.1 1.6 -14 6 -22 10 -19.8 9.7 -29.4 13.4 -33.2 12.5 -2.1 -0.4 -2.8 -0.3 -2.4 0.5 0.5 0.7 -0.3 1.1 -2.1 1.1 -1.5 0 -7.3 1.1 -12.8 2.4 -30.5 7.4 -67.2 10.1 -101 7.5z"/>
  <path d="M489.5 952 c-4.9 -0.4 -11.9 -1.3 -15.5 -1.9 -54.6 -10.3 -73.7 -15.7 -117 -33.3 -9.6 -3.9 -49.9 -24.1 -61 -30.5 -21.4 -12.5 -59 -39.3 -71 -50.6 -3 -2.9 -8.6 -7.9 -12.5 -11.1 -6.7 -5.5 -24.8 -24.3 -36 -37.1 -11.3 -13.1 -25.9 -33.4 -34.8 -48.5 -3.8 -6.3 -8.8 -14.6 -11.3 -18.5 -6.6 -10.5 -13.3 -23.9 -16.6 -33.5 -4.2 -12.3 -11.2 -27 -18.1 -38.5 -8.4 -13.9 -13.4 -25 -16.4 -36.3 -2.3 -8.7 -2.6 -11.7 -2.7 -29.2 -0.1 -17.1 0.2 -20.6 2.1 -28.2 2.9 -11.3 7 -19.4 12.5 -24.5 5.6 -5.1 10.4 -6.7 17.6 -6 17.8 1.9 37.4 22.5 54.3 57.3 17.7 36.4 21.7 74 10.3 96.8 -3.1 6.3 -6.9 10.4 -11.1 12.2 -4.7 2 -14.3 1.7 -20.7 -0.6 -7.9 -3 -21.2 -12.2 -28.4 -19.7 -3.5 -3.6 -6.5 -6.3 -6.8 -6 -0.3 0.3 0.8 3.1 2.4 6.4 1.7 3.2 4.6 10.8 6.6 16.8 4.6 14 10.3 24.1 34.2 60.4 31.3 47.3 72.3 86.4 133.4 127.2 13.5 9 64.6 35.6 79.5 41.4 3.9 1.5 8.8 3.5 11 4.5 7.6 3.4 19 7.7 25.5 9.4 3.6 1 9.2 2.7 12.5 3.7 12.7 4 49.6 11.7 68.5 14.4 14.4 2.1 49.7 3.1 61 1.7 17.8 -2.1 64.8 -10.9 75.5 -14 1.7 -0.5 5 -1.8 7.5 -3 2.5 -1.1 10.8 -4.3 18.5 -7.1 14.9 -5.5 23 -9 36 -15.4 7.7 -3.7 13.4 -7.3 34.5 -21.3 5.3 -3.5 13.4 -8.6 18 -11.3 8.2 -4.9 8.3 -4.9 4.1 -1.3 -5.6 4.8 -33.7 24.1 -42 28.8 -8.2 4.8 -41.1 19.7 -52.6 23.9 -32.8 12 -34.4 12.5 -56.8 16.4 -12.2 2.1 -25.8 4.4 -30.2 5.1 -9.5 1.5 -51.3 2.1 -64 1z m-330.7 -275 c0.2 -0.6 0.9 -1 1.6 -1 0.6 0 2 -2 3 -4.5 1.1 -2.5 2.2 -4.5 2.5 -4.5 0.8 0 1.1 -4.1 1.5 -20.7 0.2 -7.9 0 -14.3 -0.4 -14.3 -0.4 0 -1 -1.2 -1.2 -2.7 -1 -5.7 -4.2 -16.9 -6 -21.1 -1.6 -3.6 -1.7 -4.7 -0.6 -6 1.1 -1.3 1 -1.5 -0.4 -0.9 -1.3 0.4 -2.1 -0.5 -3.5 -4.1 -1 -2.6 -1.8 -4.9 -1.8 -5.2 -0.1 -0.3 -0.6 -1.5 -1.3 -2.6 -0.6 -1.2 -0.8 -2.4 -0.5 -2.8 0.3 -0.3 0.1 -0.6 -0.5 -0.6 -0.6 0 -1.9 -1.7 -2.8 -3.7 -1 -2.1 -3.5 -6.7 -5.6 -10.2 -2.1 -3.4 -3.8 -6.7 -3.8 -7.2 0 -0.5 -0.4 -0.9 -0.8 -0.9 -0.4 0 -1.6 -1.5 -2.7 -3.2 -1 -1.8 -3.1 -4.9 -4.7 -6.8 -1.6 -1.9 -3.2 -3.9 -3.6 -4.5 -0.5 -0.5 -3 -2.8 -5.6 -5 -2.6 -2.2 -5.4 -4.6 -6.2 -5.3 -0.8 -0.7 -1.4 -1 -1.4 -0.6 0 0.3 -0.6 0.2 -1.2 -0.3 -3.7 -2.7 -15.1 0 -16.3 3.8 -0.3 0.9 -1.5 1.9 -2.6 2.2 -1.2 0.3 -1.9 1.1 -1.6 1.9 0.2 0.7 0 2.2 -0.6 3.3 -0.6 1.1 -1.2 2.9 -1.4 4 -0.2 1 -0.7 2.2 -1.1 2.5 -0.4 0.3 -0.9 3.1 -1 6.3 -0.1 3.4 -0.9 6.9 -1.9 8.3 -1 1.6 -1.3 2.8 -0.7 3.2 0.6 0.4 1 3 1 5.7 0 2.8 0.6 9.7 1.3 15.5 0.8 5.8 1.4 11.7 1.5 13.3 0.1 1.5 0.4 2.7 0.8 2.7 0.4 0 1.2 1.9 1.9 4.3 1 3.9 2.6 7.7 6.7 16.6 0.8 1.8 1.5 3.9 1.5 4.7 0 0.8 0.4 1.4 0.8 1.4 0.5 0 2.2 2 3.9 4.5 1.7 2.5 2.9 4.5 2.6 4.5 -0.3 0 0.6 1.2 1.9 2.6 1.4 1.5 2.5 3 2.5 3.4 0 0.4 1.6 2.4 3.5 4.5 1.9 2.1 3.2 4.2 2.9 4.6 -0.2 0.4 0.6 1.1 1.8 1.5 1.2 0.4 5.2 3 8.8 5.9 6.4 5.1 11.8 7.7 19.5 9.3 4.2 0.9 9.8 -0.1 10.3 -1.8z"/>
  <path d="M125.9 653.2 c-10.1 -10.7 -13.5 -15.3 -17.8 -23.8 -7.9 -15.7 -12.5 -33.4 -11.1 -42.6 0.8 -5 0.5 -5.4 5.9 11.8 5.3 16.7 22.1 51.3 27.5 56.3 2 1.9 3.6 3.9 3.6 4.3 0 1.9 -2.2 0.3 -8.1 -6z"/>
  <path d="M495.2 942.9 c-13.6 -1.5 -52.7 -8.6 -66.2 -12 -16.7 -4.2 -40.5 -11.9 -51 -16.4 -4.7 -2 -12.8 -5.5 -18 -7.7 -27.7 -11.7 -80.8 -40.5 -92 -49.9 -1.9 -1.6 -7.3 -5.6 -12 -8.8 -23.7 -16.4 -50.5 -40.3 -63 -56 -4.1 -5.2 -10.2 -12.4 -13.5 -16 -7.9 -8.7 -13.2 -15.7 -24 -32.1 -4.9 -7.4 -9.3 -14.2 -9.9 -15 -0.9 -1.3 -0.8 -1.3 0.6 0 0.8 0.8 4.4 5.8 7.9 11 8.3 12.5 17.1 24.1 23.9 31.6 3 3.3 8.7 9.8 12.5 14.5 3.9 4.6 10.1 11.7 14 15.7 7.8 8.3 35.7 32.4 44 38.1 2.9 2 8.6 6.1 12.7 9.2 7.4 5.8 35.8 23.4 52.3 32.6 30.2 16.7 68.9 33.6 94 41 51.9 15.2 92.7 21 122 17.3 3.9 -0.4 14.7 -1.8 24.2 -2.9 21.2 -2.6 30.7 -4.3 44.8 -8 16.4 -4.2 35.4 -10 38.6 -11.7 1.6 -0.8 8.6 -3.5 15.6 -5.9 7 -2.5 14.5 -5.6 16.8 -6.9 11.8 -6.8 42.9 -26.4 54.4 -34.3 3 -2.1 6.6 -4.4 8 -5.1 8.9 -4.5 -22.3 17.8 -38.9 27.8 -15.9 9.7 -31.8 18 -38.6 20.4 -3.8 1.3 -8.3 3 -10 3.8 -11.8 6 -50.6 16.8 -68.9 19.2 -6.6 0.8 -20.3 2.7 -30.5 4.1 -21.1 3 -37.8 3.8 -49.8 2.4z"/>
  <path d="M688.5 940.5 c1.1 -0.9 7.2 -4.3 13.5 -7.7 6.3 -3.3 13 -7.1 14.8 -8.4 1.7 -1.3 4.9 -3.6 7 -5.1 l3.7 -2.7 -3 3.3 c-5.7 6.3 -15.3 12.2 -31 19.3 -6.8 3 -7.3 3.2 -5 1.3z"/>
  <path d="M472.5 929.5 c-8.2 -1.2 -20.5 -3.4 -27.2 -4.9 -6.7 -1.4 -16.6 -3.1 -22 -3.7 -13.4 -1.4 -29.2 -5.3 -36.1 -8.7 -3.1 -1.6 -10.5 -6 -16.4 -9.9 -5.9 -3.9 -16.1 -9.4 -22.5 -12.4 -22.5 -10.2 -46.4 -22.9 -60.6 -32 -7.8 -5.1 -15.1 -10 -16.2 -10.9 -1.1 -0.9 -6.8 -5 -12.7 -9 -10.6 -7.1 -16.3 -11.9 -10.8 -9 3.3 1.7 22.4 14.4 32.5 21.5 16.6 11.8 22.8 15.3 50.5 29.2 15.7 7.9 28.8 14.3 29.2 14.3 0.4 0 -1.9 -3.5 -5.1 -7.7 -4.9 -6.6 -6.1 -9 -7.5 -15.2 -2.1 -9.4 -2 -12 0.3 -18.1 4.4 -11.6 13.7 -18 29.2 -20.2 14.5 -2 28.9 1.2 48.4 10.9 17.4 8.7 28.7 18.9 35.1 31.8 6.3 12.7 5.7 24.5 -1.8 33 -4.9 5.6 -6.3 6.4 -16.3 9.1 -4.4 1.2 -7.3 2.4 -6.5 2.7 15.7 5 48.1 9.7 67 9.7 10.1 0 36.6 -1.8 51.5 -3.6 11.4 -1.3 40.1 -6.7 47.8 -8.9 4.5 -1.3 12.2 -3.5 17 -5 4.9 -1.4 10.3 -3.3 12 -4.1 3.4 -1.8 13.5 -5.4 15 -5.4 0.6 0 -3 2 -7.9 4.4 -15.9 7.8 -46.3 15.7 -75.8 19.7 -8.3 1.1 -19.8 2.6 -25.6 3.4 -16.3 2.3 -46.1 1.8 -64.5 -1z m-43.2 -19.3 c5.1 0.1 17.7 -3.7 17.7 -5.4 0 -0.5 0.7 -0.8 1.5 -0.8 0.8 0 1.5 -0.5 1.5 -1 0 -0.6 1 -2.4 2.1 -4 3.7 -4.9 1.3 -14.3 -6.4 -24.7 -2 -2.8 -4.8 -5.8 -6.2 -6.7 -1.4 -0.9 -2.3 -2.1 -2 -2.6 0.4 -0.6 -0.1 -1 -0.9 -1 -0.9 0 -1.6 -0.4 -1.6 -1 0 -0.5 -0.7 -1 -1.5 -1 -0.8 0 -1.5 -0.4 -1.5 -1 0 -0.5 -0.5 -1 -1.1 -1 -1.8 0 -7.9 -4.6 -7.1 -5.4 0.4 -0.4 0 -0.6 -0.8 -0.5 -1.7 0.4 -13 -4 -13 -5 0 -0.3 -1.4 -0.7 -3.1 -0.7 -1.7 -0.1 -3.5 -0.8 -4 -1.5 -0.5 -0.8 -0.9 -1 -0.9 -0.5 0 0.5 -0.6 0.4 -1.2 -0.1 -0.7 -0.5 -2.5 -0.9 -4 -0.8 -1.5 0 -2.4 -0.3 -2.2 -0.7 0.5 -0.8 -14.6 -0.2 -20.1 0.8 -1.6 0.3 -3.8 0.5 -4.7 0.5 -1 0 -1.7 0.6 -1.5 1.2 0.1 0.7 -0.6 1.1 -1.5 0.9 -1 -0.2 -1.8 0.2 -1.8 0.7 0 0.6 -1.1 2.2 -2.5 3.7 -3.2 3.4 -4.8 9.4 -3.8 14.2 0.4 2 0.7 3.9 0.8 4.2 0 0.3 1.2 2.8 2.7 5.7 1.4 2.8 2.4 5.4 2.1 5.6 -0.2 0.3 0.5 0.8 1.6 1.2 1.2 0.3 2.1 1.2 2.1 2 0 0.8 0.8 1.6 1.8 2 0.9 0.3 2.8 2.1 4.2 4 1.4 1.9 3.7 3.9 5.2 4.6 1.5 0.6 2.5 1.5 2.2 2 -0.3 0.5 0.2 0.9 1 0.9 2.1 0 8.6 3.2 8.1 4 -0.2 0.4 1 0.7 2.6 0.7 1.7 0 3.4 0.5 3.8 1.2 0.5 0.7 2.2 1.3 3.9 1.3 1.8 0.1 3.2 0.5 3.2 1 0 0.5 0.4 0.6 1 0.3 0.5 -0.3 2 0 3.2 0.7 1.3 0.6 4.1 1.3 6.3 1.5 2.2 0.2 4.1 0.7 4.3 1.3 0.2 0.5 1.3 0.6 2.7 0 1.4 -0.5 4.8 -0.9 7.8 -0.8z"/>
  <path d="M407.1 902.4 c-9.8 -2.1 -20.3 -7.5 -27.1 -14 -5.8 -5.5 -10.7 -13.4 -9.6 -15.3 0.3 -0.5 3.6 2.1 7.3 5.8 11.9 11.7 28.7 18.9 46.6 19.8 7.6 0.4 10.7 0.9 10.7 1.8 0 3.5 -15.9 4.6 -27.9 1.9z"/>
  <path d="M436 901 c0 -0.4 1.3 -1 2.9 -1.2 1.7 -0.2 2.8 -0.1 2.6 0.3 -0.7 1 -5.5 1.8 -5.5 0.9z"/>
  <path d="M687.6 930.1 c0.5 -0.5 4.7 -3.1 9.4 -5.7 4.7 -2.7 13.9 -8.9 20.5 -13.9 18 -13.6 25.5 -18.7 25.5 -17.5 0 0.6 -3 3.2 -6.7 5.8 -3.6 2.6 -10.9 8.1 -16.2 12.3 -10.5 8.3 -17.8 13.2 -25.8 17.3 -5.2 2.6 -8.6 3.5 -6.7 1.7z"/>
  <path d="M484 921.5 c-6.3 -0.7 -13.1 -1.4 -15 -1.5 -1.9 -0.1 -2.9 -0.4 -2.2 -0.7 0.8 -0.3 9.1 0.2 18.5 1.1 9.5 0.9 19 1.8 21.2 1.9 2.2 0.2 0.6 0.4 -3.5 0.4 -4.1 0 -12.7 -0.6 -19 -1.2z"/>
  <path d="M731 920.6 c0 -0.2 2.2 -1.8 4.9 -3.5 2.7 -1.6 5.8 -3.7 6.8 -4.5 1 -0.8 4.5 -3.7 7.9 -6.3 30.9 -24.5 79.8 -81.2 93.5 -108.6 42.6 -84.8 55.9 -115.5 70.2 -162.2 8 -26 12.2 -42.6 15.7 -62.5 2.9 -16.2 4 -20.7 4 -16.7 0 4.2 -6.4 38.5 -9.5 51.4 -6.2 25.2 -17 59 -24.7 77.8 -2.7 6.6 -6.8 16.5 -9 22 -11 26.7 -45.3 93.5 -57.2 111.5 -4.6 6.9 -11.9 16.8 -16.2 22.1 -16.9 20.6 -27.4 32.6 -33 37.9 -3.3 3 -9.5 8.8 -13.9 13 -13.1 12.3 -39.5 31.5 -39.5 28.6z"/>
  <path d="M729 914.1 c0 -0.5 3.3 -3.8 7.3 -7.2 3.9 -3.4 11 -10.1 15.7 -14.9 4.7 -4.7 13.3 -13 19.3 -18.4 10.9 -9.9 29.8 -31 37.8 -42.2 2.4 -3.4 7.2 -9.7 10.7 -14 4.6 -5.6 8.9 -12.8 15.6 -26.3 5.1 -10.2 13.5 -26.9 18.7 -37.1 24.1 -47.2 45.4 -97.4 54.4 -128.5 4.6 -15.7 5.9 -17.7 2.6 -4 -4.8 19.9 -22.2 65.9 -36.9 97.5 -13.8 29.5 -45.2 90.9 -49.6 96.7 -26.3 35.2 -49.2 60.5 -64.6 71.7 -3.6 2.6 -8.8 7 -11.5 9.9 -7.1 7.3 -19.5 18 -19.5 16.8z"/>
  <path d="M648.5 902 c0.3 -0.5 1.6 -1 2.8 -0.9 2.1 0 2.1 0.1 0.2 0.9 -2.8 1.2 -3.7 1.2 -3 0z"/>
  <path d="M682.8 884.7 c3.5 -3.7 40.8 -25.4 41.9 -24.4 0.2 0.3 -4.5 3.3 -10.4 6.7 -5.9 3.5 -13.3 7.9 -16.3 9.8 -3 2 -8.2 5.1 -11.5 7 -5.3 3 -5.7 3.1 -3.7 0.9z"/>
  <path d="M752.5 879.9 c0.4 -0.8 1.5 -2.2 2.3 -3.1 1.7 -2 0.3 -2.5 -1.6 -0.6 -0.6 0.6 -1.4 0.9 -1.7 0.6 -0.3 -0.3 1.3 -1.8 3.6 -3.3 5.8 -3.8 27.5 -25.6 39.1 -39.2 13.1 -15.5 27.5 -36.7 33.3 -49.3 2.6 -5.8 7.4 -15.4 10.7 -21.3 3.2 -6 7 -13.6 8.4 -17 1.4 -3.4 7.8 -16.5 14.1 -29.1 6.3 -12.7 13.7 -28.4 16.3 -35.1 2.6 -6.6 6.6 -15.8 8.8 -20.5 2.2 -4.7 5.5 -13 7.3 -18.5 1.8 -5.5 3.4 -9.5 3.6 -8.8 0.5 1.5 -5.1 17.9 -9.4 27.3 -1.9 4.1 -5.6 13.1 -8.3 20 -4.5 11.9 -21.8 48.4 -35.2 74.5 -3.3 6.6 -10.6 20.8 -16.1 31.5 -5.5 10.7 -12 22.4 -14.6 26 -2.5 3.6 -5.9 8.5 -7.4 10.9 -1.6 2.5 -5.5 7.2 -8.6 10.5 -3.2 3.4 -9.2 10.2 -13.3 15.1 -6.9 8.1 -25.1 25.9 -30.1 29.4 -1.8 1.3 -1.9 1.3 -1.2 0z"/>
  <path d="M325.9 868.1 c-8 -3.7 -16.8 -8.1 -19.5 -9.6 -13.8 -7.9 -46.4 -31 -37.4 -26.5 1.4 0.7 5.7 3.6 9.5 6.5 15 11.2 26.3 18 44.8 27 10.6 5.1 18.8 9.4 18.2 9.4 -0.5 0.1 -7.6 -3 -15.6 -6.8z"/>
  <path d="M745 868.9 c0 -0.3 4 -3.8 8.9 -7.7 9.2 -7.4 22.9 -20.9 30 -29.7 13.6 -16.8 20.2 -26.1 25.8 -36.4 6.3 -11.3 11.8 -19.2 7.5 -10.6 -14.8 29.7 -32.6 53.2 -56.1 74.2 -9 8 -14.2 11.9 -12.7 9.4 1 -1.5 -0.7 -1.4 -2.2 0.1 -0.7 0.7 -1.2 1 -1.2 0.7z"/>
  <path d="M708 860.6 c0 -0.3 4.1 -3.3 9.2 -6.8 11.8 -8.1 20.7 -16.4 25.8 -24.1 2.2 -3.4 4 -5.7 4 -5.1 0 1.8 -5.9 10.4 -10.8 15.6 -2.6 2.8 -7.4 7 -10.7 9.3 -7.9 5.6 -17.5 11.7 -17.5 11.1z"/>
  <path d="M742 859.8 c0 -0.3 2.4 -2.1 5.4 -4.2 7 -4.8 13.5 -11.8 28.3 -30.6 11.7 -14.9 20.8 -25 18.5 -20.4 -0.6 1.1 -1.8 2.7 -2.8 3.4 -0.9 0.8 -3.4 4.1 -5.7 7.5 -3.5 5.2 -9.6 12.8 -16 20 -1 1.1 -3.2 3.8 -4.9 6 -4 5.1 -13 13 -18.5 16.2 -2.4 1.4 -4.3 2.3 -4.3 2.1z"/>
  <path d="M744.6 846.5 c2.1 -2.7 6.3 -7.9 9.4 -11.5 3.1 -3.6 7.8 -9.5 10.3 -13.2 4.2 -6 8.5 -10.6 6.2 -6.7 -4.8 8.1 -14.6 20.9 -21.4 27.9 -6.2 6.3 -7.4 7.2 -4.5 3.5z"/>
  <path d="M244.5 824.1 c-2.2 -0.4 -7.8 -2.7 -12.5 -5.1 -20.2 -10.2 -36.5 -29.3 -41 -48 -1.1 -4.7 -2 -9.6 -2 -11 0 -8.7 6.1 -17.1 14.3 -19.5 6.6 -2 8.6 -1.9 15.1 0.6 10.9 4 27.2 17.1 36.4 29.2 9.4 12.4 15.1 27.9 13.7 37.3 -0.7 4.6 -5.3 12.4 -8.8 14.7 -2.8 1.8 -10.1 2.7 -15.2 1.8z m9.9 -11.4 c0.8 0.8 3 -4.1 2.7 -5.9 -0.1 -1 0.2 -1.8 0.7 -1.8 1.5 0 -2.8 -15.2 -5.8 -20.5 -1.6 -2.7 -5.6 -8.1 -8.9 -12 -4.3 -5 -5.7 -7.2 -4.8 -7.8 0.8 -0.6 0.4 -0.7 -1 -0.4 -1.3 0.3 -2.3 0.2 -2.3 -0.1 0 -0.4 -1.7 -1.8 -3.7 -3.2 -2 -1.4 -4.1 -3 -4.7 -3.6 -1.8 -1.7 -9.9 -5.3 -14.3 -6.2 -3.7 -0.9 -4.7 -0.7 -8 1.5 -3.8 2.4 -3.8 2.4 -3.8 9.4 0 3.8 0.4 6.9 0.8 6.9 0.5 0 0.7 0.8 0.6 1.8 -0.1 0.9 0.5 3.3 1.3 5.1 0.9 1.9 1.3 4.2 1 5 -0.3 0.8 -0.1 1.2 0.5 0.8 0.6 -0.4 2.7 1.9 4.8 5 4.7 7.1 16.1 18.5 20.3 20.4 1.8 0.7 3.2 1.7 3.2 2.1 0 0.5 0.8 0.8 1.8 0.8 0.9 0 3.5 1.1 5.7 2.3 3.7 2.1 4.4 2.2 8.7 1.1 2.6 -0.6 4.9 -1 5.2 -0.7z"/>
  <path d="M239.9 806.1 c-10.2 -3.2 -24.9 -17.2 -30.1 -29 -2.8 -6 -0.8 -8 2.2 -2.1 3.6 7 26.3 27.4 32.9 29.5 1.2 0.3 2.1 1.1 2.1 1.6 0 1.1 -3.4 1.1 -7.1 0z"/>
  <path d="M524.5 823.6 c-8.9 -4 -10.5 -13.9 -3.3 -21.3 10.2 -10.6 27.4 -1.6 22.9 12 -1.4 4.1 -4.4 7.1 -9.3 9.2 -4.5 1.8 -6.4 1.8 -10.3 0.1z m10.3 -10.2 c2.7 -1.9 2.8 -4 0.3 -5.4 -4.2 -2.2 -9.1 -0.6 -9.1 3 0 3.9 4.8 5.2 8.8 2.4z"/>
  <path d="M718 822.9 c-3 -0.4 -9.2 -1.9 -13.7 -3.3 -12.7 -4.1 -21.5 -13.1 -24.9 -25.8 -3.3 -12.5 -0.6 -30.5 6.6 -44.8 11.4 -22.5 23.9 -34.9 45.4 -45 24.5 -11.5 44.1 -14.6 62.1 -10 16.2 4.1 24.8 12.2 30.1 28 2.3 7 2.3 20.2 0.1 28.8 -3.7 14.1 -14.4 31.4 -25.8 41.6 -7.2 6.5 -24.5 19.6 -25.9 19.6 -0.6 0 -3.4 1.2 -6.2 2.6 -8.4 4.2 -12.7 5.5 -24.8 7.5 -12.5 2 -14.7 2.1 -23 0.8z m21.6 -12.2 c0.4 -0.4 2 -0.7 3.4 -0.7 1.5 0 4.5 -0.6 6.7 -1.4 2.2 -0.8 5.3 -1.2 6.9 -1 1.9 0.3 2.3 0.2 1.2 -0.3 -1.5 -0.7 -1.3 -1 1.5 -2.2 9.6 -4.2 12.9 -6 19.6 -10.9 5.7 -4.2 7.6 -5.1 8.2 -4.1 0.7 1.1 0.9 0.9 0.9 -0.5 0 -1.8 9.9 -13.3 10.1 -11.8 0.1 0.4 0.4 -0.4 0.8 -1.8 0.4 -1.4 1.7 -3 3 -3.6 1.3 -0.7 1.8 -1.3 1.1 -1.6 -0.9 -0.3 -0.9 -0.8 0.3 -1.9 2.2 -2.2 7.6 -14.2 8.9 -19.7 0.6 -2.6 1.1 -8.7 1.2 -13.7 0.1 -8.1 -0.2 -9.5 -2.7 -13.7 -1.5 -2.7 -2.6 -4.8 -2.3 -4.8 0.5 0 -4.8 -4.9 -10.1 -9.3 -2.8 -2.4 -8.5 -3.2 -21.8 -3.1 -11.1 0.2 -15.4 0.6 -17.6 1.9 -0.6 0.4 -1.5 0.1 -2 -0.6 -0.7 -1.2 -0.9 -1.1 -0.9 0.1 0 0.8 -1.5 2 -3.5 2.6 -1.9 0.6 -3.2 0.7 -2.9 0.2 1 -1.5 -0.6 -0.8 -2.6 1.2 -1.1 1.1 -2.9 2 -4 2 -1 0 -3.6 1.1 -5.6 2.5 -2 1.4 -3.9 2.3 -4.1 2.1 -0.2 -0.2 -1.6 0.7 -3 2 -1.4 1.3 -2.9 2.1 -3.4 1.8 -0.5 -0.3 -0.9 0 -0.9 0.6 0 0.6 -0.4 0.8 -1 0.5 -0.5 -0.3 -1 0.1 -1 0.9 0 0.9 -0.4 1.6 -0.9 1.6 -0.4 0 -2.4 1.3 -4.2 3 -1.9 1.6 -4.9 3.7 -6.7 4.5 -1.8 0.9 -3 2 -2.7 2.6 0.4 0.5 0.1 0.9 -0.5 0.9 -0.6 0 -0.8 0.5 -0.5 1 0.3 0.6 -0.1 1.3 -0.9 1.6 -0.9 0.3 -1.6 1.1 -1.6 1.8 0 1.3 -3.4 5.8 -7.4 9.8 -1.5 1.5 -2.3 2.8 -1.6 2.8 0.9 0 0.8 0.6 -0.2 2.3 -0.9 1.2 -2.1 2.2 -2.8 2.2 -0.8 0 -1.5 0.6 -1.8 1.4 -0.3 0.8 0 1.1 0.7 0.7 0.6 -0.4 1.1 -0.3 1.1 0.3 0 0.5 -0.5 1.3 -1 1.6 -0.6 0.4 -0.8 1 -0.5 1.5 0.3 0.5 0.1 1.1 -0.5 1.5 -0.6 0.4 -0.8 1.1 -0.5 1.6 0.4 0.5 0.1 0.9 -0.5 0.9 -0.6 0 -0.8 0.5 -0.4 1.2 0.4 0.6 -0.1 1.7 -1.1 2.5 -1.2 0.8 -1.4 1.3 -0.6 1.3 0.9 0 1.1 0.7 0.6 2.3 -1.3 4.2 -0.4 13.8 1.9 19.1 0.9 2.1 1.3 4.2 1 4.7 -0.3 0.5 0.2 0.9 1.1 0.9 0.9 0 1.4 0.4 1.1 0.8 -0.3 0.4 1.3 1.9 3.5 3.2 2.1 1.4 3.9 3.1 3.9 3.8 0 0.7 0.4 1.1 0.8 0.8 0.5 -0.3 3.7 0.6 7.2 1.8 3.5 1.3 5.8 2.5 5.2 2.7 -0.7 0.2 4.4 0.4 11.3 0.3 6.8 0 12.8 -0.3 13.1 -0.7z"/>
  <path d="M742.7 797.8 c-1.6 -0.9 -0.8 -1.5 6 -4.8 12.5 -6.2 23.9 -16.7 34.6 -32.1 5 -7.1 10.8 -18.3 12.7 -24.4 0.7 -2.2 1.6 -4.4 2.1 -4.9 0.5 -0.6 0.9 -2.5 0.9 -4.3 0 -1.8 0.5 -3.3 1 -3.3 0.6 0 1 1.3 1 2.9 0 3.2 1.5 5 2.3 2.9 1.6 -3.9 0.4 8.1 -1.4 13.8 -5.3 17.4 -20.1 36.5 -36.8 47.2 -8.7 5.6 -19.1 8.9 -22.4 7z"/>
  <path d="M173.5 754.3 c-7.7 -9.5 -10.9 -13.9 -8.3 -11.3 6.4 6.3 17.1 20.1 15.5 20 -0.1 0 -3.3 -3.9 -7.2 -8.7z"/>
  <path d="M831 753.7 c0 -0.8 9.4 -19.5 12.9 -25.7 6.3 -11.2 15.4 -29.4 21.1 -42 6.6 -14.4 8.9 -19.1 9 -17.8 0 1.4 -12.4 29.7 -16 36.3 -2.1 3.9 -6.3 11.7 -9.3 17.5 -14.4 27.5 -17.7 33.4 -17.7 31.7z"/>
  <path d="M306.2 734.3 c-1.1 -1 -3 -4.8 -4.1 -8.5 -4.7 -15.6 -11.1 -22.1 -26.8 -27.2 -5.5 -1.8 -10.3 -5.6 -10.3 -8 0 -2.4 4 -4.4 13.5 -6.8 13.6 -3.3 16.5 -7.5 20.7 -30.7 1.5 -8.3 3.1 -10.2 7.1 -8.4 2.1 1 3.2 3.1 5.8 11.4 5.7 17.6 9.9 22.7 22.2 26.8 3.4 1.2 7.7 3 9.5 4.1 5.9 3.6 3.4 8.5 -5.9 11.5 -13.4 4.3 -19.2 10.8 -22.9 25.5 -2 7.7 -4.1 12 -6 12 -0.4 0 -1.7 -0.8 -2.8 -1.7z m12.3 -35.8 c2.2 -1.6 5.1 -3.7 6.4 -4.6 l2.4 -1.5 -6.6 -3.7 c-5.4 -3.1 -7.2 -4.8 -10.2 -9.7 -2 -3.3 -3.8 -6 -4.1 -6 -0.2 0 -1.3 1.8 -2.4 4 -2.8 5.5 -8.4 11.5 -12 13 -3.7 1.5 -3.8 2.3 -0.5 3.8 3.6 1.6 11.4 9.1 14.2 13.5 l2.4 3.8 3.2 -4.8 c1.8 -2.6 5 -6.1 7.2 -7.8z"/>
  <path d="M831.5 728.5 c0.9 -1.6 2.8 -4.3 4.2 -6 l2.5 -3 -1.6 3 c-0.9 1.7 -2.7 4.4 -4.2 6 l-2.6 3 1.7 -3z"/>
  <path d="M103.4 703.4 c-2.3 -5.6 -4.5 -12.6 -3.9 -13.2 0.2 -0.3 0.7 0.4 1.1 1.4 0.3 1 1.7 4.8 3 8.3 2.7 6.9 2.6 9.7 -0.2 3.5z"/>
  <path d="M106 691.3 c-1.2 -2.6 -3.5 -8.8 -5.2 -13.8 -1.7 -4.9 -3.7 -10.3 -4.5 -11.9 -1.7 -3.3 -7.6 -22.6 -7.1 -23.1 0.4 -0.5 3.8 8.5 6.1 16 0.8 2.8 2.4 7.3 3.6 10 3.8 9.2 10.1 26.8 9.7 27.3 -0.2 0.2 -1.4 -1.8 -2.6 -4.5z"/>
  <path d="M95.1 685.3 c-0.6 -2.6 -1.8 -5.5 -2.6 -6.3 -0.7 -0.8 -3.6 -8.5 -6.4 -17 -2.7 -8.5 -5.7 -17.5 -6.6 -19.8 -0.9 -2.4 -2.7 -8.5 -4 -13.5 -1.4 -5.1 -3.4 -12.6 -4.5 -16.7 -2.5 -9.2 -5.3 -25.5 -4.8 -27.2 0.3 -0.7 1.5 4.1 2.7 10.7 1.3 6.6 3.4 15.4 4.6 19.5 1.3 4.1 3.1 10.4 4 14 2.2 8.8 12.8 40.4 16 47.6 2.3 5.2 4.3 13.4 3.3 13.4 -0.2 0 -1 -2.1 -1.7 -4.7z"/>
  <path d="M503.3 671 c-19.6 -2.9 -36 -13.7 -51 -33.5 -11.2 -14.9 -19.3 -38 -22.2 -63.5 -1.3 -10.7 -1.7 -27.2 -1.3 -46.5 0.1 -7.1 -0.1 -15.8 -0.4 -19.2 -0.6 -5.7 -0.4 -6.4 1.9 -8.7 3.6 -3.6 5.3 -3.3 8.3 1.7 5.9 9.5 7.1 10.8 12 13.3 13 6.4 34.2 0.9 50.2 -13.1 9.8 -8.5 9.1 -8.4 17 -1.6 3.9 3.3 9.8 7.8 13.3 10.1 18.8 12.1 41.6 9.5 48.9 -5.7 3.5 -7.3 4.1 -7.8 8.3 -6.4 4.8 1.6 6.5 5.6 4.7 11.4 -0.9 2.9 -1.4 12.3 -1.5 30.7 -0.1 21.4 -0.6 29 -2.3 39.5 -5 31.3 -11.2 46.7 -26.1 64.4 -14.9 17.7 -26.1 24.4 -44.6 27.1 -7.7 1.1 -7.8 1.1 -15.2 0z m14.2 -15.1 c14.2 -2.6 28.9 -13.7 39.2 -29.5 5.8 -9.1 13.6 -28 12.8 -31.2 -1 -4 -5.8 -10.3 -13.2 -17.2 -15.4 -14.6 -31 -21.3 -49.3 -21.2 -13.3 0 -30.9 6.7 -43 16.3 -4.8 3.8 -15 16.7 -15 18.9 0 2.1 6.1 19.2 8.8 24.5 7.5 15 19.8 28.4 32.1 34.9 10 5.2 17.3 6.4 27.6 4.5z"/>
  <path d="M852.3 629.9 c-5.5 -1.6 -12.1 -12.4 -13 -21.3 -0.8 -8.1 2.1 -22 5.9 -28.4 8.7 -14.4 28.6 -25 41.2 -21.8 6 1.5 11.6 9 11.6 15.5 -0.1 17.6 -17.7 47.3 -32.2 54.5 -5.4 2.7 -8.2 3 -13.5 1.5z m10.5 -10.2 c0.6 0 1.2 -0.4 1.2 -0.7 0 -0.4 1.4 -1.3 3.1 -2 1.7 -0.7 5.7 -4.4 8.9 -8.1 4.3 -5 6.1 -6.4 6.9 -5.6 0.8 0.8 1 0.3 0.5 -1.9 -0.4 -2.2 -0.1 -3.6 1.1 -4.7 0.9 -1 1.4 -1.7 1.1 -1.7 -0.4 0 0.3 -1.8 1.4 -4 1.1 -2.1 2 -4.6 2 -5.5 0 -0.8 0.4 -1.5 0.8 -1.5 0.4 0 0.9 -0.8 1 -1.7 0 -1 0.4 -4.2 0.8 -7.1 2.6 -21.6 -32.4 -11 -43.7 13.3 -3 6.4 -3.1 6.8 -2.2 14.3 0.7 5.5 0.7 7.9 -0.1 8.4 -0.7 0.5 -0.6 0.8 0.4 0.8 0.8 0.1 2.4 1.5 3.5 3.3 2.5 3.9 6.2 5.9 9.5 5.1 1.4 -0.4 3.1 -0.7 3.8 -0.7z"/>
  <path d="M856.6 613.7 c-2 -1.5 -1.4 -3.7 1 -3.7 0.8 0 3.7 -2.1 6.4 -4.6 8.1 -7.5 17 -22.4 17 -28.2 0 -3.3 2.7 -5.2 3.7 -2.6 0.3 0.8 -0.2 4.4 -1 8 -4.6 18.5 -20.1 36.3 -27.1 31.1z"/>
  <path d="M240 626.7 c0 -4.7 34.3 -55.9 44.8 -66.9 3.7 -3.8 5.6 -4.6 6.7 -2.8 0.6 1 -9.1 16 -21.5 33.5 -3.1 4.4 -9.5 13.4 -14.1 20 -12.5 17.9 -15.9 21.3 -15.9 16.2z"/>
  <path d="M270 627.4 c0 -4.8 38.1 -61.2 45.4 -67.3 1.1 -1 2 -1.1 2.7 -0.4 1.2 1.2 -2.8 8.4 -14.5 25.8 -16.4 24.6 -30.6 43.5 -32.7 43.5 -0.5 0 -0.9 -0.7 -0.9 -1.6z"/>
  <path d="M709 627.2 c0 -4.1 37.7 -56.9 48.2 -67.4 5.6 -5.8 7.8 -7 7.8 -4.4 0 1.8 -13 21 -24.9 36.8 -5.3 7 -11.6 15.5 -14.1 18.9 -5.3 7.3 -14.8 17.9 -16.1 17.9 -0.5 0 -0.9 -0.8 -0.9 -1.8z"/>
  <path d="M739.7 628.4 c-0.9 -0.9 0.4 -3.2 9.6 -16.9 12.5 -18.8 32.7 -46.3 37.9 -51.7 5 -5.1 6.8 -5.9 6.8 -3 0 3.7 -37.5 57 -46.8 66.5 -5.7 5.8 -6.4 6.2 -7.5 5.1z"/>
  <path d="M771 624.5 c0 -1.7 36.6 -53.9 39.9 -56.9 1.8 -1.6 2.1 -1.7 2.6 -0.3 0.8 2 -2.9 9.2 -11.6 22.3 -15 22.5 -22.8 32.2 -28.1 35 -2.5 1.3 -2.8 1.3 -2.8 -0.1z"/>
  <path d="M213.5 623 c-2 -3.2 32.1 -55.5 42.8 -65.9 2.7 -2.5 3.9 -3.1 5.2 -2.4 1.8 1 0.5 3.2 -23.1 37.3 -22.5 32.4 -23.3 33.5 -24.9 31z"/>
  <path d="M301 623 c0 -1.2 14.8 -23.6 24.8 -37.5 9.5 -13.2 13.2 -16.9 13.2 -12.9 0 2.7 -22.5 36.6 -30.7 46.2 -4.1 4.8 -7.3 6.6 -7.3 4.2z"/>
  <path d="M681 622 c0 -1.3 15.4 -24 25.5 -37.5 10.6 -14.1 23.2 -28.5 25.1 -28.5 0.8 0 1.4 0.2 1.4 0.5 0 2 -5.4 9.8 -21.2 31 -20.2 26.9 -30.8 38.8 -30.8 34.5z"/>
  <path d="M192.5 611.3 c0.8 -3.5 7.6 -15.4 17 -29.9 7.7 -11.7 21.7 -28.4 24 -28.4 2.7 0 -0.4 5.9 -10.2 19.7 -5.5 7.6 -14.2 20 -19.4 27.5 -9.1 13.4 -12.9 17 -11.4 11.1z"/>
  <path d="M638.5 598.6 c-9.4 -4.2 -14.3 -17.6 -9.7 -26.6 0.9 -1.9 3.7 -5 6.2 -6.8 3.9 -3 5 -3.3 8.8 -2.9 16.6 1.8 21.8 28.2 7.1 35.7 -4.4 2.3 -8.2 2.5 -12.4 0.6z m11.3 -9.2 c3.8 -4.3 2.6 -13 -2.5 -17.6 -1 -0.9 -3.6 -1.8 -5.7 -2 -5.7 -0.4 -7.9 2.8 -7.4 10.4 0.8 10.9 9.4 16 15.6 9.2z"/>
  <path d="M916.4 596.5 c2.2 -13.3 3 -17.4 3.4 -17 0.7 0.6 -1.9 16.7 -3 18.5 -0.6 1 -0.7 0.6 -0.4 -1.5z"/>
  <path d="M61 569.8 c-3.3 -15 -6.1 -50.8 -5.8 -73 l0.1 -12.3 0.9 16 c1.3 25.6 3.9 57.3 5.4 65.9 1.6 9.1 1.2 11.4 -0.6 3.4z"/>
  <path d="M63.8 545.1 c-0.5 -5.2 -0.7 -13.7 -0.7 -19 0.2 -8.6 0.3 -8 1.1 5.9 1 17.8 0.7 27.1 -0.4 13.1z"/>
  <path d="M249.4 544.7 c-17.9 -2.9 -31.9 -11.3 -50.4 -30.4 -16.7 -17.1 -32.7 -35.9 -35.5 -41.8 -2.7 -5.4 -4.9 -18.1 -3.9 -22.1 0.6 -2.3 0.5 -2.4 -4.9 -2.4 -16.2 0 -37.4 -13.5 -44.2 -28.2 -2.7 -5.7 -3 -7.5 -1.6 -9.6 0.7 -1.1 1.9 -0.8 6.2 1.5 5 2.6 6.3 2.8 15.9 2.8 12.7 -0.1 17.6 -1.8 30.7 -10.4 9.4 -6.2 12.8 -9.5 21.5 -20.7 l5.6 -7 -5.5 -3 c-13.6 -7.3 -25.5 -28 -21.4 -37.1 l1.1 -2.5 6.8 6.4 c9.1 8.5 16.3 11.9 26.6 12.5 7.3 0.5 8.4 0.3 11.3 -1.8 1.8 -1.3 7.9 -5.9 13.6 -10.1 16.5 -12.2 35.8 -21 53.4 -24.4 11.8 -2.2 31.3 -2.2 41.8 0 28.3 6.2 54.2 25.3 69.8 51.7 5 8.6 12 25.9 14.1 35.1 2.8 12.1 3.9 30.7 2.6 44.6 -3 32.2 -11.8 52.2 -31.8 72.6 -10.7 10.9 -26.8 19.2 -44.7 23.2 -6.7 1.5 -13.3 1.8 -40.1 1.8 -17.7 0.1 -34.4 -0.3 -37 -0.7z m16.6 -8.5 c0 -0.5 -2.2 -2.1 -5 -3.6 -7.8 -4.2 -20.1 -13.8 -24.6 -19 -5.6 -6.6 -16.3 -23.9 -19.1 -31.1 -1.3 -3.3 -3.6 -10.3 -5.1 -15.5 -2.5 -8.7 -2.7 -11 -2.7 -27 0 -10.8 0.5 -19.8 1.3 -23.5 2.9 -13.1 7.5 -27.3 10.8 -33.4 1.9 -3.5 3.3 -6.5 3.1 -6.7 -0.4 -0.4 -11.5 12.6 -16.8 19.6 -11 14.6 -16.5 44.3 -12.9 69.4 2.4 16.2 13.9 37.6 27.8 51.4 11.9 11.8 22.6 17.5 35.7 19.2 3.3 0.4 6.3 0.8 6.8 0.9 0.4 0 0.7 -0.3 0.7 -0.7z m63.5 -9.3 c12.9 -4 26.4 -11.9 29.1 -17.1 2.1 -4 1.8 -6.9 -0.8 -7.6 -1.3 -0.3 -4.7 -1.9 -7.8 -3.4 l-5.4 -2.9 -7.8 3.6 c-4.3 2 -10.1 4.3 -13 5.1 -6 1.6 -24.8 1.8 -31.8 0.4 -4.1 -0.8 -4.6 -0.7 -6 1.3 -2.5 3.7 -8.3 8.9 -11.7 10.3 -1.8 0.8 -3.3 1.9 -3.3 2.4 0 1.6 7.2 5.9 12.6 7.5 13.4 4 33.9 4.2 45.9 0.4z m-50.9 -22.1 c8.1 -7.9 8.4 -8.3 8.4 -12.8 0 -5.8 -4 -14.1 -8.4 -17.5 -5.8 -4.5 -16 -5.3 -22.6 -2 -2.8 1.5 -7.2 6 -8.8 9 -0.5 1.1 -1.5 4.7 -2.1 7.9 -1.4 7.6 -0.2 12.4 4.6 17.7 4 4.4 7.3 5.7 15.2 5.8 l5.3 0.1 8.4 -8.2z m91.5 -8.5 c0.9 -1 2 -2.8 2.3 -4 0.7 -2.2 0.5 -2.3 -5.7 -2.3 -5.5 0 -7.6 -0.6 -14.5 -4 -4.4 -2.2 -8.2 -4 -8.6 -4 -1 0 0.5 8.4 1.8 9.6 0.6 0.6 2.5 1.6 4.1 2.2 1.7 0.6 5.9 2.2 9.5 3.5 6.7 2.6 8.2 2.4 11.1 -1z m-44.7 -12.4 c1.4 -1.1 3.3 -3.4 4.1 -4.9 4.3 -8.4 -2.2 -18 -12.1 -18 -2.9 0 -4.4 0.8 -7.5 3.9 -3.5 3.5 -3.9 4.4 -3.9 9.1 0 4.6 0.4 5.6 3.4 8.6 3 3 4.1 3.4 8.4 3.4 3.5 0 5.7 -0.6 7.6 -2.1z m49.9 1.2 c2.8 -1.1 5.7 -8.2 5.7 -14.2 0 -3.1 -0.9 -4.7 -5.2 -9.5 -2.9 -3.1 -7.1 -6.5 -9.3 -7.5 -11.4 -5.2 -24.2 0.9 -25.3 12 -0.2 2.8 0.1 6.3 0.7 7.8 2 4.8 12.4 10.2 22.1 11.3 8.4 1.1 8.7 1.1 11.3 0.1z m-124.4 -18.1 c3.8 -1.9 8.1 -6.3 8.1 -8.2 0 -1.5 -5.2 -5.8 -7.7 -6.4 -3.3 -0.9 -6.5 0.2 -9.6 3 -4.5 4.2 -3.3 10.8 2.3 12.9 2.4 0.9 2.9 0.8 6.9 -1.3z m57.2 -32.3 c12.8 -6.3 19.4 -19.9 16.8 -34.5 -2.2 -11.7 -9.6 -20.8 -21.7 -26.5 -6 -2.9 -7.7 -3.2 -15.7 -3.2 -8 0 -9.5 0.3 -13.5 2.7 -6 3.5 -10.3 8.2 -13.7 14.8 -2.4 4.7 -2.8 6.7 -2.8 14 0 7.1 0.5 9.3 2.5 13.4 4.1 8.2 14.1 17 22.7 20.2 5.4 2 20.6 1.4 25.4 -0.9z m48.5 -37.2 c7.7 -4.5 10.8 -16 6.5 -24.3 -3.5 -6.8 -9.3 -10.2 -17.4 -10.2 -4.4 0 -6.2 0.5 -9.5 3 -5.6 4 -7.6 8.1 -7.6 15.6 -0.1 4.9 0.4 6.8 2.6 10.1 5.3 8.1 17 10.7 25.4 5.8z"/>
  <path d="M699.5 544.8 c-17.3 -2.1 -30.3 -7.3 -44.5 -17.9 -14.9 -11 -23.6 -22.2 -31.5 -40.5 -6.4 -14.9 -7.7 -21.6 -8.1 -44.3 -0.3 -11.2 -0.7 -20.8 -1 -21.3 -0.3 -0.5 -0.1 -1.4 0.4 -2.1 0.5 -0.7 1.7 -5.4 2.6 -10.6 7.1 -39.6 28.3 -68.6 61 -83.6 18.1 -8.3 35.8 -11.5 53 -9.6 25.5 2.9 49 12.6 71.8 29.7 10.6 7.9 13.6 9 22.6 8.1 8.1 -0.9 20.9 -7.4 26.2 -13.4 3.4 -3.9 4.4 -4.5 5.8 -3.6 2.7 1.7 2.1 9.7 -1.1 16.6 -3.2 7 -12.5 16.6 -19.7 20.2 -2.8 1.4 -5 2.9 -5 3.3 0.1 0.4 3.6 5.2 7.8 10.7 8.8 11.3 17.5 18.8 28.1 24.1 6.1 3.1 8.7 3.8 15 4.2 8 0.4 19.7 -1.7 23.7 -4.3 1.9 -1.2 2.4 -1.2 3.4 0 1 1.2 0.7 2.5 -1.5 6.7 -5.6 10.8 -14.6 20.2 -24 25 -5.4 2.8 -16.6 5.8 -21.6 5.8 l-4.9 0 0 5.8 c0 7.2 -3.2 18.9 -7.2 26.5 -3.7 6.9 -23.2 28.3 -34.7 38.2 -9.1 7.8 -22.7 17.1 -31.1 21.4 -3 1.6 -8.6 3.4 -12.5 4.1 -8.4 1.5 -62.6 2.1 -73 0.8z m75 -12.7 c23.6 -11.1 42.7 -34.9 48.1 -60 1.8 -8.6 1.8 -29.2 -0.1 -40.6 -2.5 -15.4 -6.9 -26.3 -15.6 -39 -4.5 -6.6 -14.9 -17.8 -14.9 -16.1 0 0.4 2 4.6 4.5 9.2 7.3 14 12.5 34.6 12.5 50.1 0 10.8 -2.7 29 -5.5 37.9 -3.9 12.1 -12.7 29.1 -18.8 36.5 -6.2 7.5 -17.6 16.8 -25.2 20.6 -6.8 3.5 -9.6 5.4 -9 6.2 0.2 0.4 3.8 0.4 8.1 -0.1 5.6 -0.6 9.8 -1.8 15.9 -4.7z m-40.4 -5.3 c7.4 -2.4 16.9 -8 16.9 -9.8 0 -0.6 -0.9 -1 -2 -1 -3.7 0 -8.9 -2.8 -13.9 -7.5 l-5 -4.7 -9.2 1.6 c-5.1 0.9 -10.6 1.6 -12.3 1.6 -9.6 -0.1 -27.3 -6.5 -34.4 -12.5 l-2.9 -2.4 -3.7 2.5 c-2.1 1.5 -6.3 2.9 -9.9 3.5 -3.4 0.6 -6.3 1.2 -6.6 1.4 -0.8 0.9 8.4 11.7 12.8 14.9 5.2 3.8 14.7 8.8 21.2 11.2 14.2 5.1 35.5 5.6 49 1.2z m24 -15.9 c18.4 -5.6 13.3 -34.4 -7 -39.9 -6.1 -1.6 -10.5 -0.5 -15.3 3.8 -6.8 6.1 -9.3 13.9 -6.7 20.8 1.4 3.8 11.5 12.5 17 14.6 5.3 2 7 2.1 12 0.7z m-101.6 -16.8 c2.8 -1.1 7.4 -3.1 10.3 -4.7 4.9 -2.5 5.2 -2.9 5.2 -6.5 0 -4.5 -0.2 -4.6 -4.4 -2 -3.3 2.1 -15.8 5.7 -21.3 6.3 l-3.3 0.3 3 3.2 c1.7 1.8 3 3.7 3 4.2 0 1.6 1.8 1.4 7.5 -0.8z m47.6 -9.7 c3.8 -1.9 7.4 -9.4 6.4 -13.2 -2.6 -10.4 -15.2 -13.4 -22.9 -5.3 -3.2 3.4 -4.3 9.4 -2.4 13.1 3.3 6.2 12.4 8.8 18.9 5.4z m-44.5 -5.9 c5.2 -2 10.8 -4.8 12.5 -6.3 2.7 -2.2 3 -3 2.6 -6.3 -1.1 -8.3 -8.9 -13.9 -19.4 -13.9 -5.2 0 -6.8 0.5 -10.9 3.3 -9.4 6.2 -11.8 14.1 -7.3 23.5 l2.2 4.4 5.5 -0.5 c3 -0.3 9.7 -2.2 14.8 -4.2z m117.8 -10.6 c3.5 -2.8 3.3 -5.5 -0.9 -9.4 -5.2 -4.9 -9.6 -6.1 -14.2 -3.8 -2 1 -4.3 2.8 -5.1 4.1 -1.4 2.1 -1.2 2.5 3 6.7 4.2 4.1 4.9 4.5 9.5 4.5 3.6 0 5.8 -0.6 7.7 -2.1z m-39.1 -33.3 c9.8 -4.8 16.6 -13.1 19.3 -23.6 5.3 -20.8 -6.5 -38.9 -26.5 -40.7 -7.8 -0.7 -14.4 1 -20.9 5.4 -19.6 13.4 -21.8 44 -3.9 55.9 10.2 6.7 22.1 7.9 32 3z m-57.7 -36.5 c1.8 -1.1 4.4 -3.6 6 -5.7 3.8 -4.9 4.6 -15.2 1.5 -20 -4.4 -7.1 -12.3 -10.5 -20.6 -9 -4.3 0.8 -11.3 6.8 -13.2 11.3 -3.7 8.9 1.1 20.7 9.7 24.2 4.3 1.7 13.2 1.3 16.6 -0.8z"/>
  <path d="M936.2 534.5 c0 -2.2 0.3 -6.5 0.8 -9.5 0.6 -4.8 0.7 -5 0.8 -1.5 0 2.2 -0.3 6.5 -0.8 9.5 -0.6 4.8 -0.7 5 -0.8 1.5z"/>
  <path d="M938.3 514 c0 -2.5 0.2 -3.5 0.4 -2.2 0.2 1.2 0.2 3.2 0 4.5 -0.2 1.2 -0.4 0.2 -0.4 -2.3z"/>
  <path d="M57.3 445.5 c0 -2.2 0.2 -3 0.4 -1.7 0.2 1.2 0.2 3 0 4 -0.3 0.9 -0.5 -0.1 -0.4 -2.3z"/>
  <path d="M58.2 434 c0 -1.9 0.2 -2.7 0.5 -1.7 0.2 0.9 0.2 2.5 0 3.5 -0.3 0.9 -0.5 0.1 -0.5 -1.8z"/>
  <path d="M948.6 414.8 c-0.3 -1.3 -0.5 -4.8 -0.5 -7.8 0.2 -5.4 0.2 -5.4 1 1.9 0.9 7.5 0.7 10.1 -0.5 5.9z"/>
  <path d="M87.4 414 c-1.2 -0.4 -3.1 -2.1 -4.4 -3.7 -3 -3.9 -2.5 -13 1 -16.8 5.4 -5.8 13.1 -5.3 17 1 4.3 7 1.3 15.8 -6.7 19.1 -3.7 1.6 -4 1.6 -6.9 0.4z m7.2 -10.4 c0.8 -3.2 -0.2 -4.6 -3.1 -4.6 -2.5 0 -3.9 2.3 -3 5.1 1 2.9 5.3 2.5 6.1 -0.5z"/>
  <path d="M905.5 396.6 c-7.7 -3.6 -16.6 -14.2 -22.5 -26.9 -4.9 -10.3 -7.1 -20.8 -7.3 -33.7 -0.3 -15 2.2 -23.5 8.3 -29.5 3.8 -3.7 4.5 -4 9.8 -3.9 3.5 0 7 0.7 9.1 1.8 8.9 4.7 18.5 17.4 26.7 35.2 9.8 21.1 8 49.2 -3.6 57.2 -4.6 3.1 -13.6 3 -20.5 -0.2z m17.5 -12.2 c2.3 -3.5 2.5 -4.6 2.5 -15.3 0 -12.6 -0.5 -18 -1.7 -18.7 -0.4 -0.3 -0.8 -1.6 -0.8 -3 0 -1.3 -0.3 -2.4 -0.7 -2.4 -0.5 0 -2.5 -3.5 -4.6 -7.8 -5.2 -10.7 -12.3 -18.8 -19.6 -22.2 l-5.9 -2.8 -1.1 2.5 c-0.6 1.3 -1.6 2.1 -2.1 1.8 -0.6 -0.3 -1 0.3 -1 1.4 0 1.2 -0.4 2.1 -0.8 2.1 -1.1 0 -1.1 0 -1.3 13.5 -0.2 10.2 0.3 13.1 3.4 24 0.7 2.2 1.2 4.3 1.2 4.7 0 0.3 0.3 1 0.8 1.4 0.4 0.4 0.7 1.6 0.7 2.6 0 1 0.4 1.8 0.9 1.8 0.7 0 7.3 9.6 7.6 11 0.2 1.3 6.8 7 8.1 7 0.8 0 1.4 0.3 1.4 0.8 0 0.4 2.4 0.8 5.3 1 5 0.2 5.3 0.1 7.7 -3.4z"/>
  <path d="M914.7 370.3 c-0.4 -7.4 -1.4 -12.8 -4.2 -21.8 -4 -12.8 -6.9 -19.5 -8.5 -19.5 -0.6 0 -1 -0.7 -1 -1.5 0 -2.5 1.6 -1.7 6.2 2.8 5.6 5.7 9.4 12.7 11.8 22.3 3.3 12.9 2.3 27.4 -2 27.4 -1.5 0 -1.8 -1.3 -2.3 -9.7z"/>
  <path d="M814.2 273.3 c-0.7 -0.3 -2.8 -3.5 -4.7 -7.2 -3.1 -6.3 -8.7 -12.5 -13.5 -15.1 -2.4 -1.3 -4.2 -5.3 -3.3 -7.5 0.3 -0.9 2.6 -2.6 5.2 -3.9 6.4 -3.3 7.7 -5 9.9 -13.5 2.3 -8.5 4 -10.6 7.5 -9.7 1.9 0.4 3.1 2.1 5.3 7.3 3.2 7.8 6.3 11.7 11.5 14.4 4.8 2.4 6.9 4.6 6.9 7 0 1.1 -2.8 5.2 -6.1 9.1 -3.4 3.9 -7.1 9.3 -8.4 11.9 -3.5 7.7 -5.6 9.1 -10.3 7.2z m8.2 -21 l4.3 -4.7 -3.8 -2.8 c-2.2 -1.5 -4.4 -3.7 -5.1 -4.8 -1.8 -2.8 -3.5 -2.5 -5.3 1 -0.9 1.7 -2.7 3.5 -4.1 4 -2.4 1 -2.4 1 2.8 6.3 2.9 3 5.7 5.5 6.1 5.5 0.5 0.1 2.8 -1.9 5.1 -4.5z"/>
  <path d="M260.2 256.3 c-2.6 -4.7 7.1 -21.7 18.2 -32.1 8.5 -7.9 21.2 -15.6 31.1 -18.9 6.9 -2.3 9.8 -2.7 21 -2.7 11.8 -0.1 13.4 0.1 17.5 2.2 9.3 4.9 14.2 12 12 17.6 -1.4 3.7 -5.7 5.2 -17.3 6 -12.1 0.8 -28 3.8 -37.7 7.1 -8.7 3 -24.1 11 -32.6 17 -7.5 5.4 -10.8 6.4 -12.2 3.8z"/>
  <path d="M487.1 257 c-13.6 -2.9 -24.7 -8.6 -31.7 -16.3 -15.1 -16.5 -17.3 -37 -6.6 -59.7 2.6 -5.6 5.3 -9.3 10.6 -14.5 10.9 -10.8 21.9 -15.3 40.1 -16.2 17.5 -0.9 32.6 4.7 44.5 16.7 16.9 16.9 19.5 37.9 7.7 60.5 -9.1 17.1 -29.5 29.3 -50.7 30.1 -5.2 0.2 -11.5 -0.1 -13.9 -0.6z m21.9 -11.5 c1.1 0.2 2 0 2 -0.4 0 -0.8 3.5 -1.8 7.8 -2.3 0.6 -0.1 1.2 -0.5 1.2 -1 0 -0.4 0.5 -0.8 1.1 -0.8 0.6 0 2.8 -1.3 4.9 -3 2.1 -1.6 4.3 -3 4.9 -3 0.6 0 1.1 -0.3 1.1 -0.7 0 -0.5 2 -2.8 4.5 -5.3 2.4 -2.5 4.4 -5.1 4.5 -5.9 0 -0.8 0.3 -1.1 0.7 -0.8 0.6 0.7 3.4 -5.5 3.5 -8.1 0.1 -0.7 0.7 -1.1 1.5 -0.8 0.7 0.3 1.3 0.1 1.3 -0.4 0 -0.6 -0.4 -1 -0.9 -1 -0.5 0 -0.9 -2.5 -1 -5.5 0 -3.3 0.4 -5.3 0.9 -5 0.6 0.4 1 0.2 1 -0.4 0 -0.5 -0.4 -1.2 -0.9 -1.5 -0.5 -0.3 -0.9 -2.1 -0.9 -3.9 0 -3.8 -3.8 -11.8 -7.6 -16.5 -1.5 -1.6 -2.6 -3.4 -2.6 -3.8 0 -0.5 -1.6 -1.9 -3.5 -3.2 -1.9 -1.2 -3.5 -2.7 -3.5 -3.2 0 -0.6 -0.7 -1 -1.5 -1 -1.4 0 -10.4 -3.9 -11.5 -5 -0.8 -0.8 -2.2 -0.9 -13.1 -0.9 -5.7 0 -11.4 0 -12.6 -0.1 -1.3 0 -2.3 0.4 -2.3 0.9 0 0.8 -5.6 2.5 -7.2 2.2 -0.5 0 -0.8 0.4 -0.8 1 0 0.5 -0.4 0.7 -1 0.4 -0.5 -0.3 -1 -0.2 -1 0.3 0 0.9 -5 3.7 -6.2 3.4 -0.4 -0.1 -1.2 0.7 -1.8 1.8 -0.6 1.1 -1.6 2 -2.3 2 -0.7 0 -3 2.5 -5.1 5.5 -2.2 3 -4.7 5.5 -5.5 5.6 -0.9 0 -1.1 0.3 -0.5 0.5 0.8 0.3 0.5 2.3 -0.8 6.2 -4.3 12.6 -3.4 27.1 2 33.5 0.8 0.9 1.2 1.7 0.9 1.7 -0.4 0 0.1 0.9 1.1 2.1 4 4.8 6.2 6.9 7.2 6.9 0.5 0 1 0.9 1 1.9 0 1.4 0.6 1.9 2 1.6 1.1 -0.2 2 0 2 0.6 0 0.5 0.3 0.8 0.8 0.8 0.4 -0.1 1.4 -0.1 2.2 0 1.3 0.1 1.3 0.2 0 1.2 -1.2 0.8 -0.9 1 1.3 0.6 1.5 -0.2 2.7 0 2.7 0.6 0 0.6 0.3 0.8 0.6 0.5 0.3 -0.4 2 -0.2 3.7 0.4 1.8 0.5 4 1 5 1 0.9 -0.1 1.7 0.3 1.7 0.7 0 0.4 3 0.5 6.6 0.3 4.1 -0.3 7 0 7.7 0.7 0.8 0.8 1.3 0.7 1.9 -0.3 0.5 -0.8 1.7 -1.3 2.8 -1.1z"/>
  <path d="M488 237.6 c-2.5 -0.7 -5.8 -1.8 -7.4 -2.5 -3.9 -1.6 -15.6 -13 -15.6 -15.3 0 -2.6 1.4 -2.3 5.3 1.2 1.9 1.6 6.5 4.5 10.3 6.2 6.4 3.1 7.6 3.3 17.5 3.3 10.1 0 10.8 -0.1 18.2 -3.8 5.1 -2.5 10.2 -6.2 15.7 -11.4 4.4 -4.1 8.3 -7.3 8.6 -7 1.2 1.2 -5.1 11.2 -10.4 16.5 -11.9 11.8 -28.2 16.8 -42.2 12.8z"/>
  <path d="M754.4 257 c-1.1 -0.4 -6.2 -3.6 -11.3 -6.9 -11.4 -7.5 -18.9 -11.1 -31.1 -15.1 -11.8 -3.9 -24 -6 -34.4 -6 -13.8 0 -18.6 -2.5 -18.6 -9.7 0 -3.9 5.4 -10.4 10.9 -13.3 8.6 -4.3 25.8 -5 38.6 -1.6 17.1 4.5 41.8 24.3 50.3 40.2 3.7 7.1 4 9.4 1.4 11.7 -2.1 1.9 -2.7 2 -5.8 0.7z"/>
  <path d="M122.6 290.2 c-0.3 -0.5 1.5 -2.9 4 -5.3 2.5 -2.4 6.6 -6.9 9 -10 6.1 -8 18.2 -28.4 19.4 -33 0.6 -2.2 1.5 -3.9 2 -3.9 1.3 0 1.3 -0.4 -0.9 8.7 -3.3 13.8 -10.8 26 -23 37.6 -6.8 6.3 -9.3 7.8 -10.5 5.9z"/>
  <path d="M257.8 143.9 c-3.3 -1.9 -2.2 -4.7 2.5 -5.9 9 -2.4 23.3 -12.2 31.4 -21.5 5.2 -6.1 7 -6.7 7.9 -3 2.4 9.4 -33.4 35.4 -41.8 30.4z"/>
  <path d="M662 116.6 c-18.7 -5.6 -39.2 -19.7 -43.5 -29.8 -3.6 -8.7 -1 -8.9 7 -0.7 11.1 11.2 30.2 21.8 47.1 26 7.3 1.9 9.4 2 12.8 1.1 4.3 -1.1 6.3 -0.4 5.3 2.2 -1.6 4 -17.2 4.7 -28.7 1.2z"/>
 </g>
</svg>