<?xml version="1.0" encoding="utf-8"?>
<!DOCTYPE svg PUBLIC "-//W3C//DTD SVG 1.0//EN" "http://www.w3.org/TR/2001/REC-SVG-20010904/DTD/svg10.dtd">
<svg version="1.0" xmlns="http://www.w3.org/2000/svg" width="1024px" height="1024px" viewBox="0 0 1024 1024" preserveAspectRatio="xMidYMid meet">
 <g fill="currentColor">
  <path d="M283 987.4 c-2.5 -0.2 -7.1 -1.1 -10.2 -2 -4.7 -1.4 -6.4 -2.6 -10.3 -7 -5.9 -6.9 -8.6 -12.8 -12.9 -28.6 -5.5 -20.1 -9.6 -48.3 -9.6 -65.7 0 -10.6 2.5 -26.7 5.4 -35.5 2.5 -7.4 4.4 -11.2 11.9 -24 l4.1 -6.9 -1.7 -6.1 c-8 -28.7 -10.2 -49.7 -7.7 -73.6 0.9 -8.4 4.7 -26.4 6.5 -31.2 0.6 -1.6 0.1 -1.8 -3.8 -1.8 -11.3 0 -32.3 -6 -44.7 -12.7 -14 -7.7 -29.6 -20.6 -37.4 -31 l-2.9 -3.8 -13.6 0 c-12.8 0 -14.2 -0.2 -23.1 -3.3 -32.7 -11.4 -57.2 -41 -57.3 -69.2 0 -8.7 2.1 -13 6.4 -13 1.7 0 4.9 1 7 2.2 2.1 1.2 4.2 1.9 4.5 1.5 0.4 -0.3 0.1 -2.6 -0.5 -5.1 -0.6 -2.5 -1.1 -10.1 -1.1 -16.9 0 -10.3 0.4 -14 2.4 -20.8 6 -20.5 16.7 -36.7 28.3 -42.8 7.3 -3.8 11.7 0.4 15.8 14.9 1.5 5.2 3.8 11.6 5.2 14.1 4 7.4 11.8 14.2 23 20.2 13.2 7 21.7 13.2 28.2 20.2 5.8 6.5 12.3 16.8 15.3 24.7 2.9 7.6 3.5 21.5 1.4 30.9 -1.7 7.6 -6.5 19.1 -8.5 20.3 -0.6 0.4 -1.1 1.1 -1.1 1.5 0 1.7 16.4 13.4 24.7 17.5 16.3 8.1 27.2 10.6 45.8 10.6 l12 0 9.5 -9.3 c11 -10.9 21.5 -17.1 37.5 -22.5 14.8 -4.9 23.6 -6.5 36.8 -6.6 10.9 -0.1 11.6 -0.2 9.5 -1.6 -15.1 -10 -34.2 -26.8 -44.7 -39.4 -16.5 -19.8 -26.3 -35.4 -40 -63.5 -0.6 -1.2 -3.6 -1.5 -14.2 -1.7 -13.6 -0.2 -27.4 -1.9 -45.4 -5.5 -33.5 -6.8 -73.1 -26.3 -99.5 -48.9 -27.2 -23.2 -42 -40.8 -57.3 -67.9 -3.8 -6.8 -12.9 -29.8 -16 -40.6 -1.5 -4.9 -3.5 -15.3 -4.7 -23 -3.3 -22.8 -2.4 -35.3 2.7 -40.7 3.6 -3.7 5.8 -3.6 24.4 1.2 19.4 5.1 47.2 10.9 71 14.9 45 7.4 83.3 17.6 119.2 31.5 l6.7 2.6 0.9 -2.2 c0.4 -1.3 2.3 -6.3 4.1 -11.3 7.8 -21.8 15.3 -35.7 32.2 -60.3 l7.8 -11.4 -2.9 -3.4 c-1.6 -1.8 -4.8 -5.9 -6.9 -9.1 -6.7 -9.8 -28.3 -30 -41.2 -38.5 -15 -9.9 -25.8 -14.8 -57.5 -25.8 -20.4 -7 -35.8 -15 -40.9 -21 -4.3 -5.1 -3.6 -8.9 2.6 -14.5 14.2 -12.8 37.6 -22.1 68.9 -27.5 50.1 -8.6 97.3 3.2 135.3 33.6 10.4 8.4 26.2 25 30 31.6 1.1 2.1 2.4 3.8 2.9 3.8 0.4 0 2.4 -1.1 4.5 -2.4 2 -1.4 8.4 -4.3 14.2 -6.4 17.6 -6.7 28.2 -11.3 34 -14.7 3 -1.7 8.7 -4.9 12.5 -7 27.3 -15 41.6 -26.7 55.3 -45.4 9.7 -13.3 14.4 -15.6 23 -11.2 4.7 2.4 7.1 5.1 11.6 12.5 7.7 12.9 10.4 30.2 6.3 40.9 -2.5 6.4 -1.9 7.7 3.9 7.7 16.5 0 58.3 9.8 72.4 17 5 2.6 5.3 2.5 4.6 -0.6 -2.3 -9 -18.6 -36.9 -28.5 -48.9 -13.8 -16.6 -11.6 -26.2 6.6 -29.6 12.7 -2.4 35.5 1.3 53.1 8.7 54.5 22.9 89.1 80.9 85.9 144.3 l-0.7 12.5 2.9 3.1 c3.3 3.4 20.2 27.3 25.1 35.5 1.9 3 3.5 5.6 3.6 5.8 0.1 0.2 4.2 -2.1 9.1 -5.1 13.4 -8.3 21 -11.9 57.3 -27.4 11.2 -4.7 35.6 -14.3 36.5 -14.3 1.6 0 45.7 -19.5 62.4 -27.6 12 -5.8 20.6 -9.4 22.5 -9.4 4.2 0 8.3 4.2 10.1 10.4 2.5 8.2 3.8 26.1 3.2 43.1 -1.7 48.5 -19.6 95.9 -51 135 -16.3 20.2 -42.7 40.5 -71.6 55 -11.3 5.6 -31 12.2 -39.5 13.1 -3.3 0.4 -6.4 1.2 -6.8 1.8 -0.4 0.6 -0.8 2.7 -0.8 4.7 0 7.5 -7.6 28.4 -17.8 49.3 -18.1 37 -42.2 64.9 -76.7 88.7 -18.7 13 -53.7 29.6 -75.8 36 l-7.7 2.2 0 7.9 c0 8.8 -3.1 19.7 -7.7 27.7 -3.5 6 -9.9 12.8 -12.7 13.5 -2.2 0.5 -2.3 1.1 -2.9 12.3 -0.6 11.9 -2.9 23.1 -7.8 37.8 l-2.4 7 9.3 10.7 c13.1 14.9 16.7 20 21.8 30.4 11.4 23.2 9.5 47.2 -5.8 75.4 -9.6 17.8 -25 35 -36.7 41.4 -8.8 4.7 -19.7 2.9 -28.9 -4.9 -7.2 -6 -12.9 -18.1 -11.9 -25.3 0.5 -3.7 10.8 -29.2 14.8 -36.6 2.2 -3.9 1.6 -5.5 -1.8 -5.6 -3.3 0 -19 -6.7 -23 -9.7 -2.5 -1.9 -4.6 -3.3 -4.8 -3.1 -0.4 0.4 -3 31.9 -7.5 91.5 -3.1 40.5 -3.8 45.1 -7.9 47.3 -7 3.7 -28 6 -37.7 4.1 -9.5 -1.8 -21.5 -13.4 -27.3 -26.3 -9.5 -21 -25 -83.4 -25.1 -101.1 l-0.1 -4.2 -1.4 3.2 c-3.3 7.7 -13.8 19.6 -21.1 23.9 l-4.1 2.4 1.2 4.3 c0.7 2.3 2.3 10.7 3.4 18.7 1.2 8 3.9 20.5 6.1 28 6.5 21.9 7.5 26.8 6 29.5 -0.7 1.3 -4.2 3.7 -8.4 5.6 -6.9 3.3 -7.4 3.4 -20.6 3.4 -13.3 0 -13.6 -0.1 -19.7 -3.2 -3.4 -1.8 -7.3 -4.7 -8.6 -6.5 -11.7 -15.8 -25.8 -55.2 -29.8 -83.5 -0.6 -4.6 -1.3 -8.3 -1.6 -8.3 -0.2 0 -3.4 1.8 -7 4 -3.6 2.2 -8.5 4.7 -10.9 5.6 -2.4 0.9 -4.4 2.1 -4.4 2.6 0 0.5 -1.1 7.3 -2.4 15.1 -2.6 14.8 -5.3 43 -5.9 60.2 -0.4 9 -0.7 10.5 -3.6 15.6 -3.9 6.9 -5.5 8.4 -10.6 9.8 -4.5 1.2 -19.6 2 -26.5 1.5z m10.6 -10.4 c2.1 0 2.4 -0.4 2.4 -3.7 0 -2.1 -1 -7.6 -2.1 -12.3 -2.9 -11.9 -3.3 -15.6 -1.9 -16.5 3.1 -1.9 7.2 7.9 10.2 24.5 1 5.7 1.2 6 3.8 6 2.6 0 3.1 -0.6 5 -5.7 1.2 -3.2 2.6 -8 3.1 -10.8 1.4 -6.7 1.5 -27.3 0.3 -28.5 -0.7 -0.7 -2.7 -0.3 -6 1.2 -4.2 2 -6.5 2.3 -15.9 2.2 -12.2 0 -17.2 -1.4 -27.9 -7.9 -3.2 -1.9 -6 -3.5 -6.2 -3.5 -0.6 0 0.5 7.1 2.6 17 2.6 12.4 10.7 33.8 13.5 35.6 2.3 1.5 13 3.4 15.3 2.8 0.8 -0.2 2.5 -0.4 3.8 -0.4z m229.4 0.1 c3.1 -0.9 3 -3 -0.6 -14.6 -1.3 -4.4 -2.7 -10.9 -3 -14.3 -0.6 -5.3 -0.5 -6.2 0.9 -6.2 2.4 0 4 3.8 8.2 19.6 l3.8 14.2 3.1 -1.3 c1.7 -0.8 3.3 -2.3 3.7 -3.7 0.3 -1.3 0.9 -12.8 1.2 -25.7 0.4 -12.8 0.9 -23.7 1.2 -24.1 1.2 -2 -1.9 -2.1 -3.4 -0.1 -2.2 2.9 -13.8 6.8 -22.5 7.6 -11 1 -20.4 -1 -34.3 -7.1 -4.1 -1.9 13.4 48.6 18.3 52.7 3.4 2.8 17.7 4.6 23.4 3z m-103.8 -11.7 c0.6 -0.5 -2.1 -9 -5.4 -17.2 -1.2 -3.1 -1.5 -3.3 -4.8 -2.8 -8 1.4 -22 5 -22 5.8 0 0.5 1.8 3.3 4 6.3 3.7 5 5.7 6.3 12.5 7.8 3 0.7 15.1 0.8 15.7 0.1z m12.2 -3.6 c2.8 -4.4 2.9 -7.6 0.6 -13.8 l-2.2 -6 -4.9 0.3 c-3.5 0.1 -4.9 0.6 -4.9 1.6 0 0.8 1.2 5.7 2.7 10.8 2.4 8.2 2.9 9.3 5 9.3 1.2 0 2.9 -1 3.7 -2.2z m-124.2 -38 c2.7 -1.4 4.9 -3.6 6 -5.8 0.9 -1.9 2.8 -11 4.2 -20.1 1.4 -9.1 3 -17.7 3.5 -19.2 1.2 -3 3.5 -4.7 20.3 -15 20.3 -12.5 30.5 -22.5 38.6 -37.7 6.6 -12.3 8.3 -19.4 8.9 -36 0.3 -10.7 0.1 -15.9 -1 -19.7 -2.7 -10.1 2.1 -5 6.4 6.7 3.5 9.8 4.6 20.2 3.1 31 -1.3 8.8 -1.6 8.3 8.8 13.8 9.1 4.9 19.7 7.2 32.5 7.2 11.2 0 12.5 -0.8 12.5 -8 0 -9.4 4.4 -27 6.8 -27 0.5 0 1.4 6 2.1 13.3 2.2 24.6 5.1 44 10.6 71.2 3 14.8 5.8 28.4 6.3 30 0.6 2.5 2.1 3.7 8.2 6.8 10.7 5.3 21.1 7.3 31.3 5.8 8.4 -1.2 20.3 -5.9 23.3 -9.3 1.5 -1.5 2.2 -8 4.5 -40.6 4.7 -66.8 6.2 -84.2 7 -84.2 2.8 0 6.1 12.8 6.5 25 0.1 5.2 0.3 9.7 0.3 9.8 0.1 0.2 2.7 -1.1 5.9 -2.8 23.6 -13.2 44.1 -38.6 53.1 -65.6 2.5 -7.6 5.1 -23.6 5.1 -31.4 0 -3.7 -2 -2 -4.7 3.8 -5.4 11.4 -25.2 28.2 -33.2 28.2 -4.6 0 -12.4 -4.5 -22.1 -12.7 -12.8 -10.7 -23.1 -21.8 -25.4 -27.3 -1.1 -2.5 -2.1 -4.6 -2.2 -4.8 0 -0.1 -1.9 1.5 -4.1 3.7 -7.3 7.3 -20.6 9 -31.1 4 -7.2 -3.5 -18.1 -15.1 -22.1 -23.4 -3.9 -8.3 -5.4 -10.1 -10.3 -12.6 -4.6 -2.3 -8.3 -7.1 -11.3 -14.6 l-2.3 -5.6 -11.9 -4.2 c-6.5 -2.3 -13.3 -4.9 -15.1 -5.9 -1.9 -1 -4 -1.5 -4.8 -1.2 -1 0.4 -1.2 0.2 -0.8 -0.6 0.5 -0.8 0.2 -0.9 -1 -0.5 -1 0.4 -6.1 -0.4 -11.4 -1.7 -15.4 -3.9 -21.2 -4.7 -34.9 -4.7 -15.7 0 -25.1 1.4 -36.3 5.3 -14.4 5 -25 11.6 -38.3 23.8 -9.7 8.9 -20.3 25.8 -25.1 40 -5.7 17.2 -7 25.1 -6.9 45 0 17.7 0.2 19.4 4.2 38.9 5.4 26.8 5.4 27.5 -1.1 38.6 -12.6 22 -14 27.8 -14 56.4 0 23.8 -0.3 23.1 10.8 29.2 14.5 8 31.2 9.9 40.6 4.7z m302.9 -2.3 c1.6 -0.9 4 -2.4 5.2 -3.3 4 -3.1 14.7 -14.7 14.7 -15.9 0 -1.5 -3.2 -3.3 -5.8 -3.3 -1 0 -2.5 1.1 -3.2 2.5 -0.7 1.3 -5.1 5.9 -9.7 10.1 -8.3 7.6 -10.4 11.4 -6.3 11.4 1.2 0 3.4 -0.7 5.1 -1.5z m-10.3 -5.9 c1.5 -0.8 6.5 -5.3 11.2 -10.1 9.5 -9.7 9.5 -9.1 0.5 -13.7 -2.2 -1.2 -6.6 -4 -9.7 -6.4 -3.1 -2.4 -5.9 -4.4 -6.2 -4.4 -1 0 -9.6 19.2 -9.6 21.4 0 2.5 3.2 8 6.8 11.9 3 3.1 3.4 3.2 7 1.3z m-8.4 -182.1 c5.4 -3.1 15.4 -13.5 18.8 -19.5 4.2 -7.3 6.8 -17.2 6.8 -26.1 0 -6.3 0.3 -7.9 1.5 -7.9 1.9 0 4 4.1 6 12 0.9 3.6 2.4 7.1 3.3 7.8 6.2 4.8 14.8 -5.1 17.1 -19.9 0.6 -3.4 0.7 -7.4 0.4 -9 -0.6 -2.9 -0.7 -3 -4.7 -2.4 -2.2 0.4 -6.6 1.4 -9.6 2.2 -27.9 7.7 -96.1 7.1 -132 -1.2 -5.8 -1.3 -12.5 -2.7 -14.9 -3.1 -3.9 -0.6 -4.3 -0.5 -3.8 1.2 0.4 1 1.4 5 2.3 8.7 1.2 4.9 2.9 8.6 6.1 12.8 15.8 21 34.7 19.7 42.9 -3.1 2 -5.5 4 -6.5 5 -2.2 3 13.5 6.7 19.5 20.5 32.8 9.7 9.3 13.5 12.3 21 16.4 6.6 3.6 7.9 3.7 13.3 0.5z m-321.9 -48.2 c1.7 -3.1 3.1 -5.9 3.2 -6.2 0.2 -0.3 -3.4 -0.7 -8 -0.8 -20.8 -0.4 -44 -8.8 -59.5 -21.6 -2.5 -2.1 -7.2 -6.8 -10.4 -10.4 -6.1 -7 -18.2 -26.6 -17.5 -28.6 0.2 -0.6 3.4 1.9 7.2 5.6 3.8 3.7 7.2 6.7 7.6 6.7 1.5 0 5 -10.5 6 -18.1 2.2 -16.5 -1.7 -28.7 -13.3 -41.4 -5.8 -6.4 -19.4 -16.1 -30.7 -22.1 -7 -3.7 -16 -12 -20.2 -18.6 -1.8 -2.8 -4.7 -8.9 -6.5 -13.6 l-3.2 -8.5 -4.7 6.4 c-8.7 11.8 -12.8 22.6 -14 36.9 -1.6 19.1 4.2 38.6 15.9 53.2 5.7 7.3 1.6 6.2 -16.2 -4.5 -6.5 -3.8 -12.8 -7.3 -14.1 -7.8 -2.3 -0.9 -2.4 -0.8 -1.8 3.1 0.7 5.5 7.5 16.6 14.8 24.4 14.3 15.3 33.8 24.8 51.4 25 9.1 0.1 13 -1.3 14.3 -5.2 0.7 -2.3 1 -2 5.2 4.4 2.4 3.8 8.5 11 13.5 15.9 14.3 14.4 29.8 23.6 47.6 28.4 9.9 2.7 11 2.8 21.4 3 l9 0.1 3 -5.7z m331 -26.4 c35.1 -2.6 66.9 -11.7 102 -29 25.4 -12.5 47.1 -27.6 65 -45.3 25.1 -24.9 46 -63.8 54.7 -102.1 2.1 -9.3 2.3 -12.2 2.3 -41 -0.1 -31 -0.1 -31 -3.2 -45.5 -5.7 -26.1 -12.3 -45 -23.2 -66.8 -21.1 -42 -58.9 -84.2 -98.1 -109.4 -25.4 -16.3 -59.7 -31.2 -80.3 -34.8 -3.4 -0.6 -10.3 -2.2 -15.4 -3.6 -10.2 -2.7 -28.4 -4.7 -35.3 -3.8 -2.5 0.3 -11.2 2.7 -19.5 5.4 -14.9 4.7 -26.5 7 -26.5 5.2 0 -0.5 2 -1.7 4.5 -2.6 6.7 -2.6 18.4 -10.6 23.3 -16 8.3 -9 12.4 -23 10.3 -34.9 -1.1 -6.1 -5.8 -16.8 -7.8 -17.4 -0.5 -0.2 -3.4 2.9 -6.3 6.9 -7.3 9.9 -21.9 24.2 -31.2 30.6 -4.2 2.9 -13 8 -19.5 11.3 -6.5 3.4 -16.1 8.5 -21.3 11.4 -9.9 5.5 -23.8 12.3 -31.8 15.4 -2.6 1.1 -8.2 3.6 -12.5 5.7 -7.4 3.5 -7.8 3.8 -7.2 6.3 3 11.7 2.8 22.5 -0.5 29.6 l-1.8 4 -0.1 -3.5 c-0.2 -7.8 -5 -20.9 -9.8 -26.9 l-1.9 -2.4 -8.4 4.4 c-14.8 7.6 -31.9 21.2 -48.6 38.5 l-11.1 11.5 3.3 9.7 c1.7 5.3 3.7 9.8 4.3 10 1.9 0.6 1.2 1.8 -2.3 3.7 -2.9 1.6 -3.8 1.7 -6.5 0.5 -1.8 -0.7 -3.9 -2.6 -4.7 -4.2 -0.8 -1.6 -2 -2.8 -2.6 -2.6 -1.8 0.6 -14.6 21.7 -20.8 34.3 -7.4 15 -12.2 26.9 -14.6 36.4 -1.9 7.2 -1.9 7.4 0 8.5 8.2 4.7 17.9 11.9 21.8 16 2.6 2.8 4.6 5.1 4.4 5.3 -0.5 0.5 -21.5 -6.8 -29.6 -10.2 -3.6 -1.6 -9.6 -4 -13.5 -5.5 -3.8 -1.6 -12 -4.8 -18 -7.3 -19.3 -7.9 -51.1 -17.2 -76 -22.1 -12.7 -2.5 -28.6 -5.6 -35.5 -7 -34.6 -6.9 -52.7 -10.9 -65.2 -14.6 -7.5 -2.2 -14.2 -4 -14.8 -4 -2.1 0 -0.5 22.6 2.4 35 3.4 14.7 6.9 24.5 13.7 38.9 16.3 34.2 36.5 57.6 71.6 82.8 21.2 15.2 52.1 28.6 79.1 34.2 16.6 3.5 46.9 6.5 78.2 7.9 14.6 0.7 15.5 0.8 15.5 2.7 0 1.5 -2.1 3.1 -7.9 6.2 -8.5 4.6 -9.6 5.6 -9.6 8.9 0 5.6 12.5 24.6 28.3 42.9 17.2 20 33.5 34.2 54.7 47.4 34.1 21.4 69 34.1 113.5 41.5 32.3 5.3 54.7 6.2 90 3.5z m269.2 -202.8 c24 -8.5 42.6 -20.4 61.3 -39.1 26.4 -26.2 45.2 -61.3 55 -102.6 6.9 -29 7.9 -70.4 1.7 -70.4 -0.6 0 -4.4 2 -8.6 4.4 -15.5 8.9 -47 23.4 -67.4 31 -34.4 12.8 -74.6 30.7 -90.9 40.3 l-7.7 4.5 3.4 6.1 c3.9 7.2 9.7 21.9 12.9 32.9 l2.2 7.7 6.4 -3.8 c3.6 -2 11.2 -5.9 17 -8.6 10.3 -4.8 25.5 -13.7 37.5 -21.8 3.3 -2.2 11.4 -7.6 18 -12 6.6 -4.4 14.5 -9.9 17.5 -12.2 3 -2.3 11.4 -8.1 18.5 -13 7.2 -4.8 17.2 -12.4 22.4 -16.7 5.2 -4.3 9.6 -7.6 9.8 -7.4 0.9 0.8 -3.7 24.7 -7.4 38.6 -1.9 7.4 -5.1 17.3 -7.1 22 -8.3 19.9 -26.8 47.8 -41.5 62.8 -19.5 20 -37.8 32.3 -61.6 41.8 -9.3 3.7 -10.9 5.8 -9.2 12.2 1.4 5.5 2.7 7.2 5.2 7.2 1 0 6.7 -1.7 12.6 -3.9z m-524.4 -206.6 c3.4 -5.2 23.4 -22.6 37.5 -32.7 4.6 -3.2 12.1 -7.8 16.8 -10.1 4.6 -2.3 8.4 -4.5 8.4 -5 0 -2.9 -30.4 -35.7 -33.1 -35.7 -2.4 0 -14 6.7 -20.2 11.7 -7.5 6.1 -21.7 21.8 -24 26.6 -0.8 1.8 -3.6 7.6 -6.3 13 l-4.8 9.7 2.6 2.8 c2.5 2.7 11.9 17.5 15.3 24.1 2 3.9 2.5 3.6 7.8 -4.4z m415 -8.7 c-0.4 -3.1 -2.1 -5.2 -8.7 -11.6 -6.6 -6.4 -9.6 -8.4 -15.9 -11.1 -7.1 -2.9 -17.7 -5.2 -17.7 -3.8 0 0.3 5.5 4.7 12.3 9.8 16.6 12.6 22.8 18.1 26.3 23 l2.9 4.2 0.7 -3.4 c0.4 -1.9 0.4 -5.1 0.1 -7.1z m-3.8 -26.5 c-5.2 -19.3 -7.1 -22.9 -14.2 -27.5 -3.2 -2 -7.9 -4.6 -10.5 -5.8 -6.6 -2.9 -18.4 -3.6 -27.6 -1.6 -8 1.7 -20.2 6.8 -22.7 9.6 -1.4 1.5 -1 1.9 4.6 5.1 3.3 1.9 10.2 6.2 15.3 9.5 l9.3 6.2 10 0.4 c9.5 0.3 10.6 0.6 18.7 4.6 5.1 2.6 10.9 6.5 14.4 9.7 3.1 2.9 5.8 4.9 6 4.4 0.2 -0.5 -1.3 -7.1 -3.3 -14.6z m-429.3 -13.7 c8.1 -13.1 23.5 -28 35.5 -34.3 4 -2.1 7.3 -4 7.3 -4.3 0 -0.3 -3.3 -2.7 -7.2 -5.4 -8.4 -5.5 -20 -11.2 -32.9 -16.1 -10.7 -4.1 -11.1 -4 -20.1 5.2 -6.5 6.7 -10.5 13.2 -15.3 24.7 -2.9 7.1 -3.4 9.5 -3.7 18.5 l-0.3 10.3 5.5 4.6 c3 2.5 8.7 7.8 12.5 11.8 l7 7.2 4.1 -8.1 c2.2 -4.5 5.6 -10.8 7.6 -14.1z m-42 -8.6 c-0.4 -5.1 3.2 -20.1 7 -28.8 3.6 -8.5 10.6 -18 16.9 -22.9 l6.1 -4.8 -8.8 -1.8 c-6.2 -1.3 -14 -1.9 -25.3 -2 l-16.5 -0.2 -2.8 4 c-6.4 9.1 -10.6 30.2 -7.9 40.1 1 3.8 1.6 4.3 11.3 9.3 5.7 2.8 12.3 6.7 14.8 8.6 2.5 1.8 4.7 3.4 5 3.4 0.3 0.1 0.3 -2.1 0.2 -4.9z m395.5 -7.7 c6.3 -4.8 13.4 -7.8 22.6 -9.7 14.3 -3 25.5 -1.4 35.9 4.9 3.1 1.9 5.9 3.5 6.3 3.5 1.2 0 -6.5 -13.1 -12.5 -21.5 -8.1 -11.2 -14.4 -17.3 -18.6 -18.1 -1.9 -0.3 -7.4 -0.5 -12.2 -0.2 -7.1 0.3 -10 1 -15.2 3.4 -7.3 3.5 -17.7 12.4 -18.6 16 -0.4 1.5 0.4 5.4 1.9 9.7 1.3 4 3 9.1 3.6 11.5 0.7 2.3 1.4 4.2 1.6 4.2 0.3 0 2.6 -1.6 5.2 -3.7z m-431.2 -19.6 c0.1 -13.7 1.3 -18.6 7 -28.2 l3.5 -5.8 -4.7 0.6 c-4.9 0.5 -27.2 5.5 -28.5 6.3 -1.7 1 -4.8 13.9 -4.7 19.3 0.3 11.4 0 11.1 12.9 15.8 6.3 2.3 12.2 4.2 13 4.3 1.3 0 1.5 -2 1.5 -12.3z m-31.3 -5.6 c-0.3 -6.1 0.1 -10.6 1.2 -14.4 0.9 -3 1.6 -5.7 1.6 -6 0 -0.6 -15.1 5.5 -26.2 10.6 -4.3 2 -7.8 4 -7.8 4.5 0 2.2 4.9 4.8 17.2 9.2 7.3 2.7 13.5 4.9 13.8 4.9 0.3 0.1 0.3 -3.9 0.2 -8.8z m456.6 -10.9 c8.1 -6.5 19.3 -10.2 31.1 -10.2 l5.6 -0.1 -3.2 -2.7 c-4.9 -4.2 -18.6 -12.2 -24.6 -14.4 l-5.3 -1.9 -5.6 2.1 c-6.2 2.3 -14.4 9 -17.8 14.5 l-2.1 3.3 5.2 7.9 c2.8 4.3 5.5 8.9 6 10.2 0.9 2.3 1 2.3 3.8 -1.6 1.6 -2.2 4.7 -5.4 6.9 -7.1z m-21.9 -16 c1.7 -4.1 8.7 -10.6 14.6 -13.6 5.7 -2.8 5.7 -2.8 -7 -5.2 -10.2 -1.9 -24.1 -2.2 -25.7 -0.6 -0.8 0.8 -0.5 1.9 0.8 4 2.4 3.7 14.7 18 15.5 18.1 0.4 0.1 1.2 -1.2 1.8 -2.7z"/>
  <path d="M310.6 691.8 c-3.2 -4.6 -1.3 -12.5 4 -16.7 3.6 -2.8 7.6 -2.6 11.3 0.5 2.5 2.1 3.1 3.4 3.1 6.4 0 4.8 -2.3 7.2 -9.7 10 -6.7 2.5 -6.8 2.5 -8.7 -0.2z"/>
  <path d="M401.6 554.5 c-1.7 -1.3 -1.8 -1.9 -0.8 -5.2 1.8 -5.7 9.2 -15.3 11.9 -15.3 4.4 0 5.5 5.8 2.3 12.7 -3.7 8.2 -8.9 11.2 -13.4 7.8z"/>
  <path d="M426.7 554.2 c-1.1 -1.2 -1.7 -3.6 -1.7 -6.5 0 -9.5 7.7 -13 11.5 -5.2 2.1 4.5 1.3 8.8 -2.2 11.5 -3.2 2.5 -5.5 2.5 -7.6 0.2z"/>
  <path d="M384.8 547.9 c-2.2 -1.2 -2.3 -4.1 -0.3 -7.9 2 -3.9 5.3 -6 9.2 -6 3.2 0 3.3 0.2 3.3 3.8 0 3.1 -0.7 4.6 -3.5 7.5 -3.7 3.8 -5.7 4.4 -8.7 2.6z"/>
  <path d="M761 537 c-3 -3 -2.7 -9.9 0.4 -13 1.4 -1.2 3.2 -2 4 -1.7 1.9 0.8 3.9 8.2 3.1 11.6 -1.4 5.3 -4.1 6.5 -7.5 3.1z"/>
  <path d="M779.3 538.2 c-1.7 -1.1 -3.3 -5.7 -3.4 -10.5 -0.2 -4.7 0.9 -10.7 1.9 -10.7 0.9 0 10.2 16.2 10.2 17.7 0 1.5 -4 4.3 -6 4.3 -0.8 0 -2 -0.4 -2.7 -0.8z"/>
  <path d="M792.5 526.7 c-3.2 -3.2 -5.5 -10.3 -4 -12.7 1.9 -3 10.8 3.2 12.1 8.5 0.7 2.6 -1.7 7.5 -3.7 7.5 -0.6 0 -2.6 -1.5 -4.4 -3.3z"/>
  <path d="M449.8 524 c-18.2 -3.1 -32.8 -10.3 -45.5 -22.4 -17.4 -16.4 -25 -31.3 -28.4 -55.5 -3.6 -25.8 6.7 -62 23.6 -82.4 14.1 -17 35.3 -27.5 59.3 -29.3 22.5 -1.7 46.7 9.7 61.5 28.8 5.6 7.3 15.1 27.4 17.7 37.3 2.2 8.8 4.4 25.1 3.5 26.6 -0.3 0.5 -0.9 9.8 -1.3 20.7 l-0.8 19.8 -3.6 7.5 c-11.6 24.4 -36.9 45.2 -59.6 49 -6.7 1 -19.7 1 -26.4 -0.1z m36.5 -12.4 c14.8 -5.1 23.9 -12 34.4 -26.1 5.7 -7.6 8.8 -13.8 12.4 -24.4 3.3 -9.6 4.1 -16.6 1.1 -9.5 -4.1 9.9 -11.6 22.4 -16 26.8 -9.1 9.3 -24.4 17.9 -37.2 21.2 -14.4 3.6 -31.8 0.1 -46.7 -9.5 -25.6 -16.4 -37.5 -45.7 -31.8 -78.4 1.9 -11.2 3.6 -16.1 9.3 -27.7 3.7 -7.6 6.2 -11 12.2 -17 4.2 -4.2 10.6 -9.3 14.3 -11.5 7.1 -4.1 8.5 -5.9 4 -4.9 -11.1 2.4 -19.8 7.9 -29.8 18.6 -14.5 15.6 -23.1 38 -24.2 62.8 -0.6 15 1.6 27.1 7.2 38.9 10.1 21.1 25.6 34.7 47 40.9 9.5 2.8 10.4 2.9 23 3.1 10.1 0.1 11.8 -0.2 20.8 -3.3z m32.7 -67.1 c3.5 -1.8 7 -7.3 7 -11.2 0 -2 -1.1 -3.9 -3.5 -6.3 -3 -2.9 -4.3 -3.4 -9.3 -3.8 -5.1 -0.4 -6.2 -0.1 -8.9 2.2 -3.5 3 -5.8 8.5 -4.8 11.7 0.4 1.1 2 3.6 3.7 5.5 2.7 3 3.6 3.4 8 3.4 2.7 0 6.2 -0.7 7.8 -1.5z m-27.9 -27.6 c6.1 -3.3 11.1 -8.4 14.5 -14.9 1.3 -2.5 1.8 -5.7 1.8 -11.5 0.1 -12.6 -4.1 -19.2 -16.1 -25.4 -10.3 -5.4 -27.6 -4.8 -35.6 1.3 -8.9 6.8 -14 23.4 -10.4 34 6 17.6 28.5 25.7 45.8 16.5z"/>
  <path d="M735 508 c-28.7 -4.3 -49 -24.7 -57.6 -58 -6.5 -25.2 -3.2 -56.2 8.7 -80.8 6.8 -14 15.4 -22.9 28.3 -29.3 l9 -4.4 12.1 0 12.2 0 8.4 4.2 c20.7 10.2 36.4 30 43.4 54.6 4.8 16.9 5.8 24.1 5.3 37.6 -0.8 19 -5.6 35.7 -13.6 47.3 -5.3 7.7 -15.9 18.3 -21 21.1 -12.4 6.7 -24.2 9.3 -35.2 7.7z m15.1 -9 c18.3 -3.4 34.6 -20.6 40.8 -42.9 3.4 -12.1 4.6 -25.8 3.3 -36.5 -1.7 -13.7 -8.1 -32.8 -14.8 -43.9 -6.2 -10.3 -7.9 -12.4 -14.6 -17.8 -4.3 -3.4 -20.4 -10.6 -21.4 -9.6 -0.3 0.2 2.5 2.2 6.2 4.3 11.6 6.8 22.9 21.2 32 40.8 5.4 11.8 6.7 18.9 6.2 34.6 -0.5 13.8 -2.6 22.6 -7.9 33.1 -4.9 9.8 -17.7 19.8 -29.8 23.3 -10.7 3.1 -20.4 1.9 -32.8 -4.2 -9.8 -4.7 -16.7 -11.6 -22.2 -22.1 -5.7 -11 -8 -21.4 -8.8 -40.6 l-0.7 -16 -1.4 11.5 c-4.2 37.2 9.5 67.9 36.3 81.1 10.7 5.2 19.7 6.7 29.6 4.9z m28.3 -59.9 c2.6 -2.7 3.1 -3.8 3 -7.8 -0.1 -3.7 -0.6 -5.1 -2.8 -7 -4.9 -4.2 -14.4 -2.6 -17.2 2.8 -2.4 4.8 -1.8 9.6 1.6 13.1 2.8 2.7 3.6 3 7.7 2.5 3.3 -0.3 5.4 -1.3 7.7 -3.6z m-28.5 -22.7 c11.4 -3.3 19.1 -15.4 17.8 -27.9 -1.9 -18.6 -23.3 -32.4 -38.2 -24.8 -5 2.6 -6.6 4.4 -10.1 11.3 -2.5 4.8 -2.8 6.6 -2.9 14.5 0 10.1 1.2 13.3 7.4 19.8 7.5 8 15.6 10.2 26 7.1z"/>
  <path d="M606.4 486.6 c-6.8 -3.2 -9.6 -6.8 -9.2 -12 0.4 -5.4 3.1 -6.1 5.6 -1.5 3.1 5.9 6 7.9 11.4 7.9 6.6 0 12.5 -3.1 14.4 -7.5 2.1 -5.2 3.3 -5.3 7.3 -0.6 8 9.2 19 6.9 22.1 -4.7 0.9 -3.6 1.4 -4.1 2.5 -3.2 1.8 1.5 2.9 7.1 2 10 -0.9 3 -6.2 8.8 -9.6 10.6 -3.3 1.7 -10.2 1.8 -13.2 0.3 -1.2 -0.6 -3.4 -2.2 -4.8 -3.6 l-2.6 -2.4 -1.6 2.5 c-1.9 2.8 -11.1 6.6 -16 6.6 -1.8 0 -5.5 -1.1 -8.3 -2.4z"/>
  <path d="M273.1 482 c-21.4 -2.5 -26.3 -3.6 -45.1 -9.2 -40.5 -12.1 -76.9 -36.1 -104.2 -68.7 -16 -19.1 -25.6 -36.3 -31.4 -56 -3.2 -11 -3.1 -11.8 0.4 -9.3 4.1 2.9 11.8 6 62.7 24.6 9.4 3.5 19 7.2 21.5 8.3 4.7 2.2 14.3 6.1 30 12.3 5.2 2.1 11.8 4.7 14.5 5.8 9.8 4.1 36.4 13.6 61 21.8 18.7 6.2 26.4 9.3 30.5 12.1 6 4.2 7 6.6 2.9 7.1 -2.5 0.3 -2.7 0.8 -3.8 8.5 -1.5 11.1 -1.4 20.9 0.4 28.5 2 8.4 4 12 7.1 12.8 1.8 0.5 2.2 1 1.5 1.7 -2 2 -31 1.8 -48 -0.3z"/>
  <path d="M623.2 456.8 c0.4 -3.1 7.7 -5.6 11.4 -3.9 4 1.8 3 3.9 -2.3 4.6 -2.7 0.3 -5.8 0.8 -7.1 1.1 -2 0.4 -2.3 0.1 -2 -1.8z"/>
  <path d="M420.1 307.9 c-6.8 -6.4 -4.7 -15.8 5.7 -25.1 12.9 -11.7 39.3 -16.4 53.3 -9.5 8.1 3.9 10.7 9.4 7.4 15.7 -2.3 4.5 -7.4 6.8 -20.6 9.5 -13.9 2.8 -22.2 5.1 -32.3 8.9 -8.3 3.1 -10.5 3.2 -13.5 0.5z"/>
  <path d="M726 299.4 c-3 -0.7 -10.6 -2 -16.8 -2.9 -6.3 -0.8 -13.1 -1.9 -15.3 -2.5 -13.1 -3.6 -14.6 -18.1 -2.4 -24.4 5.5 -2.9 18.2 -3.4 26.1 -1.1 8.2 2.4 14.8 5.9 20.1 10.8 5.5 5 7.3 8.4 7.3 13.5 0 7.9 -5.8 9.9 -19 6.6z"/>
  <path d="M552 291.4 c-7.7 -2.1 -16.5 -6.3 -25.4 -12.3 -7.7 -5.2 -9.6 -7.4 -9.6 -11 0 -1.6 2.2 -3.1 10.3 -7 7.1 -3.4 11.5 -6.2 14 -9 3.9 -4.3 4.8 -6.7 2.1 -5.7 -6.9 2.7 -23.2 1.2 -32.2 -2.9 -7.2 -3.3 -17 -12.7 -17.8 -17.2 -0.4 -1.9 -0.4 -3.6 -0.1 -3.9 0.3 -0.3 3.6 1.3 7.3 3.5 8.9 5.4 15.7 7.8 24.6 8.9 9.4 1.2 17.7 0 23.3 -3.2 5.3 -3.1 6.5 -5.2 7.4 -12 0.7 -5.9 2.8 -6.8 5 -2.1 2.5 5.2 1.9 17.7 -1.4 27 -4.3 12.3 -8.5 17.9 -16.7 22.1 -2.7 1.3 -4.8 2.8 -4.8 3.2 0 1.2 11.2 5.2 17.8 6.3 12 2.1 30.1 -1.9 40.9 -9.1 9.5 -6.4 14.7 -12.1 18.5 -20.7 2.9 -6.6 3.7 -23.1 1.5 -29.7 -1.5 -4.4 -1.5 -4.6 0.3 -3.6 4.4 2.4 9.4 13.1 11.1 24.1 0.7 4.4 0.9 11.6 0.5 17.9 -0.7 12.6 -0.2 13.9 4.4 10.8 11 -7.6 16 -25.2 11.5 -40.6 -1.9 -6.4 -9.5 -17.5 -19.4 -28.2 -7.7 -8.4 -7.6 -9.8 0.4 -6.1 10.2 4.7 23.7 18.3 29 29.3 7.9 16.4 4.3 39.3 -8.1 51.3 -5.3 5.2 -15.4 10.5 -19.9 10.5 -3.9 0 -8.1 -3.8 -9 -8.1 -0.4 -1.6 -1.1 -3.1 -1.5 -3.4 -0.5 -0.3 -3.5 2 -6.7 5.2 -6.6 6.6 -18.6 13.4 -27.9 15.8 -7.3 1.9 -22.1 1.8 -29.4 -0.1z"/>
 </g>
 <g fill="#currentColor">
  <path d="M468.8 668.3 c-2.9 -3.4 -2.8 -4 0.3 -3.5 3.4 0.5 4.2 1.4 3.3 3.6 -0.8 2.1 -1.7 2 -3.6 -0.1z"/>
  <path d="M698.6 369 c1.5 -3.1 7.6 -10 10.7 -12.1 2.3 -1.5 1.8 -0.8 -1.8 2.7 -2.7 2.7 -6 6.3 -7.3 7.9 -1.3 1.7 -2 2.3 -1.6 1.5z"/>
 </g>
</svg>